<svg 
 xmlns="http://www.w3.org/2000/svg"
 xmlns:xlink="http://www.w3.org/1999/xlink"
 width="144px" height="38px">
<path fill-rule="evenodd"  fill="rgb(240, 246, 247)"
 d="M141.717,30.780 C141.717,30.780 130.293,9.144 130.293,9.144 C130.293,9.144 118.759,30.780 118.759,30.780 C118.759,30.780 118.675,30.780 118.675,30.780 C118.675,30.780 116.781,30.780 116.781,30.780 C116.781,30.780 116.698,30.780 116.698,30.780 C116.698,30.780 105.274,9.144 105.274,9.144 C105.274,9.144 93.740,30.780 93.740,30.780 C93.740,30.780 91.763,30.780 91.763,30.780 C91.763,30.780 104.670,6.898 104.670,6.898 C104.670,6.898 105.823,6.898 105.823,6.898 C105.823,6.898 117.730,29.025 117.730,29.025 C117.730,29.025 129.689,6.898 129.689,6.898 C129.689,6.898 130.842,6.898 130.842,6.898 C130.842,6.898 143.694,30.780 143.694,30.780 C143.694,30.780 141.717,30.780 141.717,30.780 ZM70.252,30.366 C70.252,30.366 91.813,19.012 91.813,19.012 C91.813,19.012 70.619,7.744 70.619,7.744 C70.619,7.744 51.735,37.243 51.735,37.243 C51.735,37.243 49.770,37.243 49.770,37.243 C49.770,37.243 73.023,0.835 73.023,0.835 C73.023,0.835 75.043,0.835 75.043,0.835 C75.043,0.835 71.553,6.285 71.553,6.285 C71.553,6.285 94.051,18.411 94.051,18.411 C94.051,18.411 94.051,19.558 94.051,19.558 C94.051,19.558 70.252,32.331 70.252,32.331 C70.252,32.331 70.252,30.366 70.252,30.366 ZM24.988,18.411 C24.988,18.411 48.787,5.584 48.787,5.584 C48.787,5.584 48.787,7.549 48.787,7.549 C48.787,7.549 27.226,19.012 27.226,19.012 C27.226,19.012 48.787,30.366 48.787,30.366 C48.787,30.366 48.787,32.331 48.787,32.331 C48.787,32.331 24.988,19.558 24.988,19.558 C24.988,19.558 24.988,18.411 24.988,18.411 ZM25.345,30.783 C25.345,30.783 13.811,9.146 13.811,9.146 C13.811,9.146 2.387,30.783 2.387,30.783 C2.387,30.783 0.409,30.783 0.409,30.783 C0.409,30.783 13.262,6.900 13.262,6.900 C13.262,6.900 14.415,6.900 14.415,6.900 C14.415,6.900 27.322,30.783 27.322,30.783 C27.322,30.783 25.345,30.783 25.345,30.783 Z"/>
</svg>