<svg 
 xmlns="http://www.w3.org/2000/svg"
 xmlns:xlink="http://www.w3.org/1999/xlink"
 width="123px" height="37px">
<path fill-rule="evenodd"  fill="rgb(204, 216, 219)"
 d="M105.291,36.138 C105.291,36.138 94.976,36.138 94.976,36.138 C94.976,36.138 94.976,1.389 94.976,1.389 C94.976,1.389 105.291,1.389 105.291,1.389 C116.075,1.389 122.588,9.516 122.588,18.790 C122.588,28.167 116.075,36.138 105.291,36.138 ZM105.291,2.952 C105.291,2.952 96.643,2.952 96.643,2.952 C96.643,2.952 96.643,34.575 96.643,34.575 C96.643,34.575 105.291,34.575 105.291,34.575 C115.138,34.575 120.764,27.594 120.764,18.790 C120.764,10.089 115.138,2.952 105.291,2.952 ZM78.929,1.389 C78.929,1.389 80.597,1.389 80.597,1.389 C80.597,1.389 80.597,36.138 80.597,36.138 C80.597,36.138 78.929,36.138 78.929,36.138 C78.929,36.138 78.929,1.389 78.929,1.389 ZM64.133,36.138 C64.133,36.138 53.557,21.134 53.557,21.134 C53.557,21.134 45.222,21.134 45.222,21.134 C45.222,21.134 45.222,36.138 45.222,36.138 C45.222,36.138 43.554,36.138 43.554,36.138 C43.554,36.138 43.554,1.389 43.554,1.389 C43.554,1.389 55.537,1.389 55.537,1.389 C61.164,1.389 65.800,4.879 65.800,11.235 C65.800,17.591 61.164,21.134 55.537,21.134 C55.537,21.134 66.269,36.138 66.269,36.138 C66.269,36.138 64.133,36.138 64.133,36.138 ZM63.977,11.235 C63.977,6.442 60.643,2.952 55.537,2.952 C55.537,2.952 45.222,2.952 45.222,2.952 C45.222,2.952 45.222,19.571 45.222,19.571 C45.222,19.571 55.537,19.571 55.537,19.571 C60.643,19.571 63.977,16.028 63.977,11.235 ZM17.609,36.815 C7.971,36.815 0.260,29.470 0.260,18.790 C0.260,8.109 7.971,0.816 17.609,0.816 C22.871,0.816 26.935,2.691 30.321,6.182 C30.321,6.182 29.227,7.328 29.227,7.328 C26.518,4.254 22.246,2.379 17.609,2.379 C8.909,2.379 2.084,8.995 2.084,18.790 C2.084,28.480 8.909,35.253 17.609,35.253 C22.715,35.253 26.622,32.700 28.654,30.564 C28.654,30.564 28.654,21.030 28.654,21.030 C28.654,21.030 14.327,21.030 14.327,21.030 C14.327,21.030 14.327,19.467 14.327,19.467 C14.327,19.467 30.321,19.467 30.321,19.467 C30.321,19.467 30.321,31.241 30.321,31.241 C27.351,34.575 22.819,36.815 17.609,36.815 Z"/>
</svg>