<svg 
 xmlns="http://www.w3.org/2000/svg"
 xmlns:xlink="http://www.w3.org/1999/xlink"
 width="143px" height="37px">
<path fill-rule="evenodd"  fill="rgb(240, 246, 247)"
 d="M140.140,30.446 C140.140,30.446 128.844,9.051 128.844,9.051 C128.844,9.051 117.438,30.446 117.438,30.446 C117.438,30.446 117.356,30.446 117.356,30.446 C117.356,30.446 115.483,30.446 115.483,30.446 C115.483,30.446 115.401,30.446 115.401,30.446 C115.401,30.446 104.104,9.051 104.104,9.051 C104.104,9.051 92.698,30.446 92.698,30.446 C92.698,30.446 90.743,30.446 90.743,30.446 C90.743,30.446 103.506,6.831 103.506,6.831 C103.506,6.831 104.647,6.831 104.647,6.831 C104.647,6.831 116.421,28.710 116.421,28.710 C116.421,28.710 128.246,6.831 128.246,6.831 C128.246,6.831 129.387,6.831 129.387,6.831 C129.387,6.831 142.095,30.446 142.095,30.446 C142.095,30.446 140.140,30.446 140.140,30.446 ZM69.473,30.036 C69.473,30.036 90.793,18.809 90.793,18.809 C90.793,18.809 69.836,7.667 69.836,7.667 C69.836,7.667 51.162,36.837 51.162,36.837 C51.162,36.837 49.219,36.837 49.219,36.837 C49.219,36.837 72.213,0.835 72.213,0.835 C72.213,0.835 74.210,0.835 74.210,0.835 C74.210,0.835 70.760,6.224 70.760,6.224 C70.760,6.224 93.006,18.215 93.006,18.215 C93.006,18.215 93.006,19.349 93.006,19.349 C93.006,19.349 69.473,31.979 69.473,31.979 C69.473,31.979 69.473,30.036 69.473,30.036 ZM24.714,18.215 C24.714,18.215 48.247,5.531 48.247,5.531 C48.247,5.531 48.247,7.474 48.247,7.474 C48.247,7.474 26.927,18.809 26.927,18.809 C26.927,18.809 48.247,30.036 48.247,30.036 C48.247,30.036 48.247,31.979 48.247,31.979 C48.247,31.979 24.714,19.349 24.714,19.349 C24.714,19.349 24.714,18.215 24.714,18.215 ZM25.066,30.448 C25.066,30.448 13.661,9.053 13.661,9.053 C13.661,9.053 2.364,30.448 2.364,30.448 C2.364,30.448 0.409,30.448 0.409,30.448 C0.409,30.448 13.118,6.833 13.118,6.833 C13.118,6.833 14.259,6.833 14.259,6.833 C14.259,6.833 27.022,30.448 27.022,30.448 C27.022,30.448 25.066,30.448 25.066,30.448 Z"/>
</svg>