<svg 
 xmlns="http://www.w3.org/2000/svg"
 xmlns:xlink="http://www.w3.org/1999/xlink"
 width="187px" height="49px">
<path fill-rule="evenodd"  fill="rgb(240, 246, 247)"
 d="M183.927,39.723 C183.927,39.723 169.090,11.623 169.090,11.623 C169.090,11.623 154.111,39.723 154.111,39.723 C154.111,39.723 154.002,39.723 154.002,39.723 C154.002,39.723 151.543,39.723 151.543,39.723 C151.543,39.723 151.434,39.723 151.434,39.723 C151.434,39.723 136.598,11.623 136.598,11.623 C136.598,11.623 121.619,39.723 121.619,39.723 C121.619,39.723 119.051,39.723 119.051,39.723 C119.051,39.723 135.813,8.707 135.813,8.707 C135.813,8.707 137.311,8.707 137.311,8.707 C137.311,8.707 152.775,37.442 152.775,37.442 C152.775,37.442 168.305,8.707 168.305,8.707 C168.305,8.707 169.803,8.707 169.803,8.707 C169.803,8.707 186.494,39.723 186.494,39.723 C186.494,39.723 183.927,39.723 183.927,39.723 ZM91.115,39.184 C91.115,39.184 119.117,24.439 119.117,24.439 C119.117,24.439 91.592,9.805 91.592,9.805 C91.592,9.805 67.066,48.116 67.066,48.116 C67.066,48.116 64.514,48.116 64.514,48.116 C64.514,48.116 94.714,0.832 94.714,0.832 C94.714,0.832 97.337,0.832 97.337,0.832 C97.337,0.832 92.805,7.911 92.805,7.911 C92.805,7.911 122.023,23.659 122.023,23.659 C122.023,23.659 122.023,25.147 122.023,25.147 C122.023,25.147 91.115,41.736 91.115,41.736 C91.115,41.736 91.115,39.184 91.115,39.184 ZM32.331,23.659 C32.331,23.659 63.239,7.000 63.239,7.000 C63.239,7.000 63.239,9.552 63.239,9.552 C63.239,9.552 35.237,24.439 35.237,24.439 C35.237,24.439 63.239,39.184 63.239,39.184 C63.239,39.184 63.239,41.736 63.239,41.736 C63.239,41.736 32.331,25.147 32.331,25.147 C32.331,25.147 32.331,23.659 32.331,23.659 ZM32.794,39.725 C32.794,39.725 17.815,11.626 17.815,11.626 C17.815,11.626 2.978,39.725 2.978,39.725 C2.978,39.725 0.410,39.725 0.410,39.725 C0.410,39.725 17.101,8.709 17.101,8.709 C17.101,8.709 18.599,8.709 18.599,8.709 C18.599,8.709 35.362,39.725 35.362,39.725 C35.362,39.725 32.794,39.725 32.794,39.725 Z"/>
</svg>