<svg 
 xmlns="http://www.w3.org/2000/svg"
 xmlns:xlink="http://www.w3.org/1999/xlink"
 width="119px" height="37px">
<path fill-rule="evenodd"  fill="rgb(204, 216, 219)"
 d="M106.461,2.170 C101.448,2.170 97.469,5.167 97.469,9.405 C97.469,19.224 118.400,14.056 118.400,26.925 C118.400,30.801 115.919,36.279 106.616,36.279 C101.242,36.279 97.056,33.953 94.575,30.801 C94.575,30.801 95.919,29.612 95.919,29.612 C98.037,32.196 101.655,34.728 106.616,34.728 C114.575,34.728 116.591,30.181 116.591,26.925 C116.591,15.555 95.660,21.188 95.660,9.405 C95.660,3.823 100.777,0.619 106.461,0.619 C111.526,0.619 115.195,2.480 117.624,5.477 C117.624,5.477 116.332,6.666 116.332,6.666 C113.903,3.513 110.441,2.170 106.461,2.170 ZM80.466,1.188 C80.466,1.188 82.120,1.188 82.120,1.188 C82.120,1.188 82.120,35.659 82.120,35.659 C82.120,35.659 80.466,35.659 80.466,35.659 C80.466,35.659 80.466,1.188 80.466,1.188 ZM69.438,27.785 C69.438,27.785 64.211,27.507 64.211,27.507 C64.211,27.507 65.508,26.880 65.508,26.880 C65.508,26.880 66.149,26.570 66.149,26.570 C66.149,26.570 55.220,19.771 55.220,19.771 C55.220,19.771 55.220,31.466 55.220,31.466 C55.220,31.466 55.485,31.292 55.485,31.292 C55.485,31.292 56.879,30.377 56.879,30.377 C56.879,30.377 54.187,35.767 54.187,35.767 C54.187,35.767 51.495,33.911 51.495,33.911 C51.495,33.911 52.888,32.996 52.888,32.996 C52.888,32.996 53.567,32.551 53.567,32.551 C53.567,32.551 53.567,19.610 53.567,19.610 C53.567,19.610 42.207,26.677 42.207,26.677 C42.207,26.677 42.778,26.961 42.778,26.961 C42.778,26.961 44.047,27.592 44.047,27.592 C44.047,27.592 38.935,27.873 38.935,27.873 C38.935,27.873 39.145,25.154 39.145,25.154 C39.145,25.154 40.413,25.785 40.413,25.785 C40.413,25.785 41.021,26.087 41.021,26.087 C41.021,26.087 53.334,18.565 53.334,18.565 C53.334,18.565 40.974,10.977 40.974,10.977 C40.974,10.977 40.690,11.122 40.690,11.122 C40.690,11.122 39.713,11.620 39.713,11.620 C39.713,11.620 39.551,9.475 39.551,9.475 C39.551,9.475 43.488,9.696 43.488,9.696 C43.488,9.696 42.511,10.194 42.511,10.194 C42.511,10.194 42.188,10.359 42.188,10.359 C42.188,10.359 53.567,17.467 53.567,17.467 C53.567,17.467 53.567,4.267 53.567,4.267 C53.567,4.267 52.888,4.708 52.888,4.708 C52.888,4.708 51.495,5.613 51.495,5.613 C51.495,5.613 54.187,0.279 54.187,0.279 C54.187,0.279 56.879,2.117 56.879,2.117 C56.879,2.117 55.485,3.021 55.485,3.021 C55.485,3.021 55.220,3.193 55.220,3.193 C55.220,3.193 55.220,17.305 55.220,17.305 C55.220,17.305 66.126,10.493 66.126,10.493 C66.126,10.493 65.694,10.279 65.694,10.279 C65.694,10.279 64.695,9.785 64.695,9.785 C64.695,9.785 68.721,9.565 68.721,9.565 C68.721,9.565 68.665,10.284 68.665,10.284 C68.665,10.284 68.683,10.284 68.683,10.284 C68.683,10.284 68.664,10.296 68.664,10.296 C68.664,10.296 68.556,11.695 68.556,11.695 C68.556,11.695 67.557,11.201 67.557,11.201 C67.557,11.201 67.351,11.099 67.351,11.099 C67.351,11.099 55.220,18.523 55.220,18.523 C55.220,18.523 55.220,18.555 55.220,18.555 C55.220,18.555 67.353,25.989 67.353,25.989 C67.353,25.989 67.926,25.711 67.926,25.711 C67.926,25.711 69.224,25.085 69.224,25.085 C69.224,25.085 69.395,27.240 69.395,27.240 C69.395,27.240 69.458,27.278 69.458,27.278 C69.458,27.278 69.398,27.278 69.398,27.278 C69.398,27.278 69.438,27.785 69.438,27.785 ZM25.788,26.408 C25.788,26.408 6.563,26.408 6.563,26.408 C6.563,26.408 2.739,35.659 2.739,35.659 C2.739,35.659 0.826,35.659 0.826,35.659 C0.826,35.659 15.194,1.188 15.194,1.188 C15.194,1.188 17.157,1.188 17.157,1.188 C17.157,1.188 31.525,35.659 31.525,35.659 C31.525,35.659 29.612,35.659 29.612,35.659 C29.612,35.659 25.788,26.408 25.788,26.408 ZM16.175,3.100 C16.175,3.100 7.183,24.857 7.183,24.857 C7.183,24.857 25.168,24.857 25.168,24.857 C25.168,24.857 16.175,3.100 16.175,3.100 Z"/>
</svg>