<svg 
 xmlns="http://www.w3.org/2000/svg"
 xmlns:xlink="http://www.w3.org/1999/xlink"
 width="241px" height="97px">
<path fill-rule="evenodd"  fill="rgb(204, 216, 219)"
 d="M240.819,40.750 C240.819,40.750 238.279,40.750 238.279,40.750 C238.279,40.750 223.038,21.593 223.038,21.593 C223.038,21.593 207.798,40.750 207.798,40.750 C207.798,40.750 205.258,40.750 205.258,40.750 C205.258,40.750 221.950,20.147 221.950,20.147 C221.950,20.147 206.165,0.568 206.165,0.568 C206.165,0.568 208.765,0.568 208.765,0.568 C208.765,0.568 223.038,18.581 223.038,18.581 C223.038,18.581 237.311,0.568 237.311,0.568 C237.311,0.568 239.912,0.568 239.912,0.568 C239.912,0.568 224.127,20.087 224.127,20.087 C224.127,20.087 240.819,40.750 240.819,40.750 ZM212.856,65.702 C212.856,65.702 217.198,71.086 217.198,71.086 C217.198,71.086 213.063,74.851 213.063,74.851 C213.063,74.851 209.490,70.438 209.490,70.438 C209.490,70.438 207.127,72.556 207.127,72.556 C207.127,72.556 207.127,89.500 207.127,89.500 C207.127,89.500 210.051,91.706 210.051,91.706 C210.051,91.706 212.856,89.500 212.856,89.500 C212.856,89.500 213.683,90.441 213.683,90.441 C213.683,90.441 206.389,96.354 206.389,96.354 C205.109,95.079 203.879,94.079 202.698,93.354 C201.516,92.667 200.276,92.197 198.977,91.942 C198.977,91.942 198.977,91.324 198.977,91.324 C199.823,90.755 200.374,90.147 200.630,89.500 C200.906,88.834 201.044,87.823 201.044,86.470 C201.044,86.470 201.044,74.351 201.044,74.351 C201.044,73.115 200.955,72.253 200.778,71.762 C200.601,71.311 200.197,70.831 199.567,70.321 C199.567,70.321 197.825,71.762 197.825,71.762 C197.825,71.762 197.116,70.939 197.116,70.939 C197.116,70.939 203.082,65.850 203.082,65.850 C205.090,66.889 206.517,68.478 207.364,70.615 C207.364,70.615 212.856,65.702 212.856,65.702 ZM169.272,0.568 C169.272,0.568 193.947,0.568 193.947,0.568 C193.947,0.568 193.947,2.375 193.947,2.375 C193.947,2.375 171.207,2.375 171.207,2.375 C171.207,2.375 171.207,19.183 171.207,19.183 C171.207,19.183 193.524,19.183 193.524,19.183 C193.524,19.183 193.524,20.990 193.524,20.990 C193.524,20.990 171.207,20.990 171.207,20.990 C171.207,20.990 171.207,38.943 171.207,38.943 C171.207,38.943 193.947,38.943 193.947,38.943 C193.947,38.943 193.947,40.750 193.947,40.750 C193.947,40.750 169.272,40.750 169.272,40.750 C169.272,40.750 169.272,0.568 169.272,0.568 ZM179.268,70.233 C179.268,70.233 177.230,71.998 177.230,71.998 C177.230,71.998 177.230,89.294 177.230,89.294 C177.230,89.294 179.947,91.442 179.947,91.442 C179.947,91.442 184.140,87.559 184.140,87.559 C184.140,87.559 184.140,71.998 184.140,71.998 C184.140,71.998 182.073,70.233 182.073,70.233 C182.073,70.233 186.946,65.850 186.946,65.850 C186.946,65.850 192.025,70.233 192.025,70.233 C192.025,70.233 190.047,71.998 190.047,71.998 C190.047,71.998 190.047,87.941 190.047,87.941 C190.047,89.196 190.145,89.990 190.342,90.324 C190.676,90.952 191.110,91.265 191.641,91.265 C191.996,91.265 192.448,91.069 193.000,90.677 C193.000,90.677 193.886,91.706 193.886,91.706 C193.886,91.706 187.861,96.354 187.861,96.354 C187.861,96.354 187.123,95.795 187.123,95.795 C185.922,94.854 185.124,93.981 184.731,93.177 C184.317,92.373 184.111,91.236 184.111,89.765 C184.111,89.471 184.120,89.255 184.140,89.118 C184.140,89.118 176.226,96.354 176.226,96.354 C173.844,94.099 171.638,92.559 169.611,91.736 C169.611,91.736 169.611,90.941 169.611,90.941 C170.418,90.647 170.910,90.285 171.087,89.853 C171.265,89.402 171.353,88.373 171.353,86.764 C171.353,86.764 171.353,72.203 171.353,72.203 C171.353,72.203 170.083,71.262 170.083,71.262 C170.083,71.262 168.873,72.203 168.873,72.203 C168.873,72.203 168.075,71.262 168.075,71.262 C168.075,71.262 174.247,65.850 174.247,65.850 C174.247,65.850 179.268,70.233 179.268,70.233 ZM162.069,91.559 C162.069,91.559 163.959,90.030 163.959,90.030 C163.959,90.030 164.845,91.030 164.845,91.030 C164.845,91.030 158.436,96.354 158.436,96.354 C156.428,94.236 154.075,92.814 151.378,92.089 C151.378,92.089 151.378,91.294 151.378,91.294 C151.929,90.902 152.343,90.500 152.619,90.088 C152.894,89.696 153.071,89.167 153.150,88.500 C153.229,87.892 153.268,86.902 153.268,85.529 C153.268,85.529 153.268,70.321 153.268,70.321 C153.268,70.321 150.670,70.321 150.670,70.321 C150.670,70.321 150.670,69.291 150.670,69.291 C150.670,69.291 159.234,58.054 159.234,58.054 C159.234,58.054 159.234,67.056 159.234,67.056 C159.234,67.056 164.283,67.056 164.283,67.056 C164.283,67.056 164.283,70.321 164.283,70.321 C164.283,70.321 159.234,70.321 159.234,70.321 C159.234,70.321 159.234,89.471 159.234,89.471 C160.297,90.177 161.242,90.873 162.069,91.559 ZM141.935,40.750 C141.935,40.750 140.000,40.750 140.000,40.750 C140.000,40.750 140.000,2.375 140.000,2.375 C140.000,2.375 126.392,2.375 126.392,2.375 C126.392,2.375 126.392,0.568 126.392,0.568 C126.392,0.568 155.604,0.568 155.604,0.568 C155.604,0.568 155.604,2.375 155.604,2.375 C155.604,2.375 141.935,2.375 141.935,2.375 C141.935,2.375 141.935,40.750 141.935,40.750 ZM127.092,66.320 C128.312,67.360 129.090,68.173 129.425,68.762 C129.779,69.370 129.956,70.193 129.956,71.233 C129.956,71.233 129.956,71.939 129.956,71.939 C129.956,71.939 137.457,65.850 137.457,65.850 C137.457,65.850 141.828,70.144 141.828,70.144 C141.828,70.144 144.663,67.467 144.663,67.467 C144.663,67.467 145.519,68.438 145.519,68.438 C144.633,69.243 143.973,69.968 143.541,70.615 C143.127,71.262 142.842,72.017 142.684,72.880 C142.526,73.782 142.448,74.900 142.448,76.233 C142.448,76.233 142.448,86.353 142.448,86.353 C142.448,87.157 142.458,87.765 142.478,88.176 C142.497,88.588 142.532,88.971 142.581,89.324 C142.630,89.677 142.684,89.961 142.743,90.177 C142.960,90.804 143.334,91.118 143.866,91.118 C144.239,91.118 144.702,90.883 145.253,90.412 C145.293,90.393 145.332,90.363 145.372,90.324 C145.411,90.285 145.450,90.255 145.490,90.235 C145.529,90.216 145.568,90.187 145.608,90.147 C145.647,90.108 145.686,90.079 145.726,90.059 C145.726,90.059 146.464,91.206 146.464,91.206 C146.464,91.206 140.115,96.354 140.115,96.354 C140.115,96.354 139.495,95.766 139.495,95.766 C138.471,94.805 137.772,94.050 137.398,93.501 C137.024,92.971 136.788,92.275 136.689,91.412 C136.571,90.549 136.512,89.226 136.512,87.441 C136.512,87.441 136.512,72.380 136.512,72.380 C136.512,72.380 134.120,69.968 134.120,69.968 C134.120,69.968 129.956,73.409 129.956,73.409 C129.956,73.409 129.956,89.912 129.956,89.912 C129.956,89.912 132.053,92.118 132.053,92.118 C132.053,92.118 126.796,96.354 126.796,96.354 C126.796,96.354 121.688,91.942 121.688,91.942 C121.688,91.942 124.050,89.794 124.050,89.794 C124.050,89.794 124.050,74.410 124.050,74.410 C124.050,72.704 123.951,71.664 123.755,71.292 C123.479,70.841 123.154,70.615 122.780,70.615 C122.426,70.615 121.904,70.821 121.215,71.233 C121.215,71.233 120.536,70.350 120.536,70.350 C120.536,70.350 126.531,65.850 126.531,65.850 C126.531,65.850 127.092,66.320 127.092,66.320 ZM105.995,89.853 C107.826,90.736 109.568,91.618 111.222,92.501 C111.222,92.501 115.563,89.559 115.563,89.559 C115.563,89.559 116.153,90.383 116.153,90.383 C116.153,90.383 107.353,96.354 107.353,96.354 C103.927,94.217 100.836,92.932 98.080,92.501 C98.080,92.501 98.080,91.883 98.080,91.883 C98.907,91.393 99.448,90.814 99.705,90.147 C99.960,89.500 100.088,88.284 100.088,86.500 C100.088,86.500 100.088,75.792 100.088,75.792 C100.088,74.302 99.990,73.370 99.793,72.998 C99.576,72.606 99.084,72.409 98.317,72.409 C98.317,72.409 98.080,72.409 98.080,72.409 C98.080,72.409 97.814,71.762 97.814,71.762 C97.814,71.762 98.523,71.468 98.523,71.468 C101.082,70.350 103.071,69.429 104.489,68.703 C106.024,67.919 107.717,66.967 109.568,65.850 C109.568,65.850 116.951,75.263 116.951,75.263 C116.951,75.263 105.995,84.323 105.995,84.323 C105.995,84.323 105.995,89.853 105.995,89.853 ZM112.137,77.292 C112.137,77.292 105.995,69.468 105.995,69.468 C105.995,69.468 105.995,82.352 105.995,82.352 C105.995,82.352 112.137,77.292 112.137,77.292 ZM112.844,40.750 C112.844,40.750 100.567,23.400 100.567,23.400 C100.567,23.400 90.890,23.400 90.890,23.400 C90.890,23.400 90.890,40.750 90.890,40.750 C90.890,40.750 88.955,40.750 88.955,40.750 C88.955,40.750 88.955,0.568 88.955,0.568 C88.955,0.568 102.865,0.568 102.865,0.568 C109.397,0.568 114.780,4.604 114.780,11.954 C114.780,19.304 109.397,23.400 102.865,23.400 C102.865,23.400 115.324,40.750 115.324,40.750 C115.324,40.750 112.844,40.750 112.844,40.750 ZM112.663,11.954 C112.663,6.412 108.792,2.375 102.865,2.375 C102.865,2.375 90.890,2.375 90.890,2.375 C90.890,2.375 90.890,21.593 90.890,21.593 C90.890,21.593 102.865,21.593 102.865,21.593 C108.792,21.593 112.663,17.496 112.663,11.954 ZM90.568,71.762 C90.705,72.567 90.774,74.204 90.774,76.675 C90.774,76.675 90.774,91.147 90.774,91.147 C88.805,91.677 87.142,92.324 85.783,93.089 C84.425,93.854 83.008,94.942 81.531,96.354 C80.113,95.158 78.883,94.256 77.840,93.648 C76.698,92.981 75.536,92.481 74.355,92.148 C73.252,91.834 71.963,91.647 70.486,91.589 C70.486,91.589 70.486,90.941 70.486,90.941 C71.293,90.589 71.795,90.118 71.992,89.530 C72.209,88.941 72.317,87.784 72.317,86.058 C72.317,86.058 72.317,75.616 72.317,75.616 C72.317,74.126 72.258,73.115 72.140,72.586 C72.022,72.056 71.657,71.350 71.047,70.468 C70.437,69.507 70.014,68.703 69.777,68.056 C69.561,67.467 69.453,66.801 69.453,66.056 C69.453,64.526 69.974,63.124 71.018,61.849 C72.081,60.555 73.626,59.359 75.654,58.260 C75.654,58.260 76.245,59.084 76.245,59.084 C75.162,59.907 74.414,60.613 74.000,61.202 C73.547,61.830 73.321,62.447 73.321,63.055 C73.321,63.545 73.439,63.987 73.676,64.379 C73.872,64.771 74.315,65.340 75.005,66.085 C76.205,67.340 77.052,68.409 77.544,69.291 C77.997,70.193 78.253,71.223 78.312,72.380 C78.312,72.380 86.079,65.850 86.079,65.850 C87.792,67.164 88.923,68.272 89.475,69.174 C90.066,70.096 90.430,70.958 90.568,71.762 ZM84.838,76.616 C84.838,74.694 84.710,73.409 84.455,72.762 C84.179,72.056 83.510,71.233 82.446,70.291 C82.446,70.291 78.312,73.763 78.312,73.763 C78.312,73.763 78.312,88.618 78.312,88.618 C80.989,89.716 83.165,90.677 84.838,91.500 C84.838,91.500 84.838,76.616 84.838,76.616 ZM49.159,0.568 C49.159,0.568 73.835,0.568 73.835,0.568 C73.835,0.568 73.835,2.375 73.835,2.375 C73.835,2.375 51.095,2.375 51.095,2.375 C51.095,2.375 51.095,19.183 51.095,19.183 C51.095,19.183 73.411,19.183 73.411,19.183 C73.411,19.183 73.411,20.990 73.411,20.990 C73.411,20.990 51.095,20.990 51.095,20.990 C51.095,20.990 51.095,38.943 51.095,38.943 C51.095,38.943 73.835,38.943 73.835,38.943 C73.835,38.943 73.835,40.750 73.835,40.750 C73.835,40.750 49.159,40.750 49.159,40.750 C49.159,40.750 49.159,0.568 49.159,0.568 ZM63.535,66.408 C63.535,66.408 63.800,67.467 63.800,67.467 C63.269,67.997 62.924,68.605 62.767,69.291 C62.590,69.997 62.501,71.135 62.501,72.704 C62.501,72.704 62.501,91.500 62.501,91.500 C62.501,91.500 61.733,91.795 61.733,91.795 C59.902,92.540 58.435,93.217 57.333,93.824 C56.270,94.432 55.030,95.276 53.612,96.354 C51.446,94.824 49.556,93.746 47.942,93.118 C46.288,92.491 44.388,92.099 42.243,91.942 C42.243,91.942 42.243,91.265 42.243,91.265 C43.030,90.540 43.532,89.785 43.749,89.000 C43.926,88.235 44.014,86.529 44.014,83.882 C44.014,83.882 44.014,70.438 44.014,70.438 C46.495,69.870 48.415,69.056 49.773,67.997 C49.773,67.997 42.243,62.320 42.243,62.320 C42.243,62.320 42.243,55.407 42.243,55.407 C42.243,55.407 60.522,68.850 60.522,68.850 C61.211,67.732 62.215,66.919 63.535,66.408 ZM56.565,73.057 C56.565,73.057 51.693,69.409 51.693,69.409 C51.161,69.860 50.659,70.252 50.186,70.586 C50.186,70.586 50.186,88.323 50.186,88.323 C50.186,88.323 56.565,91.324 56.565,91.324 C56.565,91.324 56.565,73.057 56.565,73.057 ZM28.351,94.618 C27.839,94.050 27.475,93.295 27.258,92.353 C27.042,91.393 26.904,90.128 26.845,88.559 C26.845,88.559 16.657,96.560 16.657,96.560 C15.101,95.462 13.802,94.589 12.759,93.942 C11.676,93.275 10.524,92.648 9.303,92.059 C8.654,91.706 7.866,91.373 6.941,91.059 C6.055,90.765 5.376,90.618 4.903,90.618 C4.549,90.618 4.243,90.746 3.988,91.000 C3.693,91.255 3.545,91.559 3.545,91.912 C3.545,92.187 3.781,92.697 4.254,93.442 C4.627,93.991 4.815,94.491 4.815,94.942 C4.815,95.354 4.677,95.697 4.401,95.972 C4.086,96.246 3.712,96.383 3.279,96.383 C2.728,96.383 2.245,96.128 1.832,95.619 C1.419,95.109 1.212,94.501 1.212,93.795 C1.212,92.991 1.428,92.148 1.862,91.265 C2.314,90.324 3.131,89.010 4.313,87.323 C4.313,87.323 8.683,81.058 8.683,81.058 C7.029,80.018 5.651,78.842 4.549,77.528 C3.427,76.273 2.550,74.890 1.921,73.380 C1.310,71.929 1.005,70.399 1.005,68.791 C1.005,66.850 1.419,65.016 2.245,63.290 C3.033,61.565 4.155,60.025 5.612,58.672 C7.069,57.339 8.722,56.289 10.573,55.525 C12.463,54.779 14.392,54.407 16.361,54.407 C19.334,54.407 22.238,55.113 25.073,56.525 C26.175,57.094 27.573,57.986 29.267,59.202 C30.625,57.848 31.757,56.829 32.663,56.142 C33.371,55.633 34.356,55.132 35.616,54.642 C35.616,54.642 36.236,55.642 36.236,55.642 C34.405,56.642 33.174,57.662 32.545,58.701 C31.914,59.741 31.600,61.280 31.600,63.320 C31.600,63.732 31.619,64.467 31.659,65.526 C31.659,65.526 32.633,85.911 32.633,85.911 C32.712,88.187 32.869,89.549 33.106,90.000 C33.440,90.687 33.873,91.030 34.405,91.030 C34.838,91.030 35.586,90.589 36.649,89.706 C36.649,89.706 37.594,90.765 37.594,90.765 C37.594,90.765 30.743,96.560 30.743,96.560 C29.680,95.854 28.883,95.207 28.351,94.618 ZM15.121,59.378 C11.794,59.378 8.988,60.349 6.705,62.290 C4.440,64.251 3.309,66.673 3.309,69.556 C3.309,70.831 3.555,72.056 4.047,73.233 C4.519,74.488 5.208,75.635 6.114,76.675 C7.059,77.753 8.211,78.773 9.569,79.734 C9.569,79.734 17.779,67.968 17.779,67.968 C16.578,67.183 15.446,66.791 14.383,66.791 C13.536,66.791 12.798,66.958 12.168,67.291 C11.597,67.585 10.928,68.223 10.160,69.203 C10.160,69.203 9.126,68.762 9.126,68.762 C9.894,66.781 10.849,65.340 11.991,64.438 C13.093,63.536 14.501,63.084 16.214,63.084 C17.532,63.084 19.049,63.310 20.762,63.761 C20.762,63.761 22.474,61.290 22.474,61.290 C20.210,60.016 17.759,59.378 15.121,59.378 ZM25.634,63.614 C24.925,62.967 24.246,62.428 23.597,61.996 C23.597,61.996 12.345,77.969 12.345,77.969 C12.345,77.969 26.254,77.969 26.254,77.969 C26.254,77.969 25.634,63.614 25.634,63.614 ZM26.550,82.205 C26.550,82.205 9.392,82.205 9.392,82.205 C9.392,82.205 7.029,85.588 7.029,85.588 C7.029,85.588 20.880,91.442 20.880,91.442 C20.880,91.442 26.756,86.911 26.756,86.911 C26.756,86.911 26.550,82.205 26.550,82.205 ZM17.408,40.750 C17.408,40.750 0.595,0.568 0.595,0.568 C0.595,0.568 2.832,0.568 2.832,0.568 C2.832,0.568 18.557,38.521 18.557,38.521 C18.557,38.521 34.281,0.568 34.281,0.568 C34.281,0.568 36.519,0.568 36.519,0.568 C36.519,0.568 19.706,40.750 19.706,40.750 C19.706,40.750 17.408,40.750 17.408,40.750 ZM228.106,68.703 C229.642,67.919 231.335,66.967 233.186,65.850 C233.186,65.850 240.569,75.263 240.569,75.263 C240.569,75.263 229.612,84.323 229.612,84.323 C229.612,84.323 229.612,89.853 229.612,89.853 C231.443,90.736 233.186,91.618 234.839,92.501 C234.839,92.501 239.181,89.559 239.181,89.559 C239.181,89.559 239.771,90.383 239.771,90.383 C239.771,90.383 230.971,96.354 230.971,96.354 C227.545,94.217 224.454,92.932 221.698,92.501 C221.698,92.501 221.698,91.883 221.698,91.883 C222.525,91.393 223.066,90.814 223.322,90.147 C223.578,89.500 223.706,88.284 223.706,86.500 C223.706,86.500 223.706,75.792 223.706,75.792 C223.706,74.302 223.607,73.370 223.411,72.998 C223.194,72.606 222.702,72.409 221.934,72.409 C221.934,72.409 221.698,72.409 221.698,72.409 C221.698,72.409 221.432,71.762 221.432,71.762 C221.432,71.762 222.141,71.468 222.141,71.468 C224.700,70.350 226.689,69.429 228.106,68.703 ZM229.612,82.352 C229.612,82.352 235.755,77.292 235.755,77.292 C235.755,77.292 229.612,69.468 229.612,69.468 C229.612,69.468 229.612,82.352 229.612,82.352 Z"/>
</svg>