<svg 
 xmlns="http://www.w3.org/2000/svg"
 xmlns:xlink="http://www.w3.org/1999/xlink"
 width="244px" height="25px">
<path fill-rule="evenodd"  fill="rgb(204, 216, 219)"
 d="M243.281,24.019 C243.281,24.019 238.423,24.019 238.423,24.019 C238.423,24.019 231.210,11.262 231.210,11.262 C231.210,11.262 234.459,11.262 234.459,11.262 C236.834,11.262 238.782,9.840 238.782,7.537 C238.782,5.234 237.084,3.765 234.709,3.765 C234.709,3.765 228.961,3.765 228.961,3.765 C228.961,3.765 228.961,11.262 228.961,11.262 C228.961,11.262 228.961,24.007 228.961,24.007 C228.961,24.007 224.713,24.007 224.713,24.007 C224.713,24.007 224.712,0.017 224.712,0.017 C224.712,0.017 235.256,0.017 235.256,0.017 C240.006,0.017 243.101,3.111 243.101,7.537 C243.101,11.820 240.294,14.123 237.415,14.590 C237.415,14.590 243.281,24.019 243.281,24.019 ZM200.350,0.017 C200.350,0.017 216.795,0.017 216.795,0.017 C216.795,0.017 216.795,3.723 216.795,3.723 C216.795,3.723 204.561,3.723 204.561,3.723 C204.561,3.723 204.561,9.948 204.561,9.948 C204.561,9.948 216.544,9.948 216.544,9.948 C216.544,9.948 216.544,13.655 216.544,13.655 C216.544,13.655 204.561,13.655 204.561,13.655 C204.561,13.655 204.561,20.312 204.561,20.312 C204.561,20.312 216.795,20.312 216.795,20.312 C216.795,20.312 216.795,24.019 216.795,24.019 C216.795,24.019 200.350,24.019 200.350,24.019 C200.350,24.019 200.350,0.017 200.350,0.017 ZM185.920,24.019 C185.920,24.019 181.710,24.019 181.710,24.019 C181.710,24.019 181.710,3.723 181.710,3.723 C181.710,3.723 174.441,3.723 174.441,3.723 C174.441,3.723 174.441,0.017 174.441,0.017 C174.441,0.017 193.189,0.017 193.189,0.017 C193.189,0.017 193.189,3.723 193.189,3.723 C193.189,3.723 185.920,3.723 185.920,3.723 C185.920,3.723 185.920,24.019 185.920,24.019 ZM151.626,0.017 C151.626,0.017 168.071,0.017 168.071,0.017 C168.071,0.017 168.071,3.723 168.071,3.723 C168.071,3.723 155.836,3.723 155.836,3.723 C155.836,3.723 155.836,9.948 155.836,9.948 C155.836,9.948 167.819,9.948 167.819,9.948 C167.819,9.948 167.819,13.655 167.819,13.655 C167.819,13.655 155.836,13.655 155.836,13.655 C155.836,13.655 155.836,20.312 155.836,20.312 C155.836,20.312 168.071,20.312 168.071,20.312 C168.071,20.312 168.071,24.019 168.071,24.019 C168.071,24.019 151.626,24.019 151.626,24.019 C151.626,24.019 151.626,0.017 151.626,0.017 ZM138.707,6.206 C138.707,6.206 131.330,24.019 131.330,24.019 C131.330,24.019 129.531,24.019 129.531,24.019 C129.531,24.019 122.190,6.206 122.190,6.206 C122.190,6.206 122.190,24.019 122.190,24.019 C122.190,24.019 117.980,24.019 117.980,24.019 C117.980,24.019 117.980,0.017 117.980,0.017 C117.980,0.017 123.917,0.017 123.917,0.017 C123.917,0.017 130.431,15.814 130.431,15.814 C130.431,15.814 136.980,0.017 136.980,0.017 C136.980,0.017 142.917,0.017 142.917,0.017 C142.917,0.017 142.917,24.019 142.917,24.019 C142.917,24.019 138.707,24.019 138.707,24.019 C138.707,24.019 138.707,6.206 138.707,6.206 ZM105.061,0.017 C105.061,0.017 109.272,0.017 109.272,0.017 C109.272,0.017 109.272,24.019 109.272,24.019 C109.272,24.019 105.061,24.019 105.061,24.019 C105.061,24.019 105.061,0.017 105.061,0.017 ZM79.764,6.890 C79.764,6.890 79.764,24.019 79.764,24.019 C79.764,24.019 75.554,24.019 75.554,24.019 C75.554,24.019 75.554,0.017 75.554,0.017 C75.554,0.017 79.872,0.017 79.872,0.017 C79.872,0.017 92.143,16.678 92.143,16.678 C92.143,16.678 92.143,0.017 92.143,0.017 C92.143,0.017 96.353,0.017 96.353,0.017 C96.353,0.017 96.353,24.019 96.353,24.019 C96.353,24.019 92.287,24.019 92.287,24.019 C92.287,24.019 79.764,6.890 79.764,6.890 ZM61.528,15.760 C61.528,15.760 57.273,4.263 57.273,4.263 C57.273,4.263 53.031,15.760 53.031,15.760 C53.031,15.760 50.004,24.019 50.004,24.019 C50.004,24.019 45.218,24.019 45.218,24.019 C45.218,24.019 54.646,0.017 54.646,0.017 C54.646,0.017 59.900,0.017 59.900,0.017 C59.900,0.017 69.328,24.019 69.328,24.019 C69.328,24.019 64.542,24.019 64.542,24.019 C64.542,24.019 61.528,15.760 61.528,15.760 ZM25.534,0.017 C25.534,0.017 29.744,0.017 29.744,0.017 C29.744,0.017 29.744,20.312 29.744,20.312 C29.744,20.312 40.324,20.312 40.324,20.312 C40.324,20.312 40.324,24.019 40.324,24.019 C40.324,24.019 25.534,24.019 25.534,24.019 C25.534,24.019 25.534,0.017 25.534,0.017 ZM10.601,15.058 C10.601,15.058 4.267,15.058 4.267,15.058 C4.267,15.058 4.267,24.019 4.267,24.019 C4.267,24.019 0.057,24.019 0.057,24.019 C0.057,24.019 0.057,0.017 0.057,0.017 C0.057,0.017 10.601,0.017 10.601,0.017 C15.638,0.017 18.445,3.471 18.445,7.537 C18.445,11.604 15.602,15.058 10.601,15.058 ZM10.025,3.723 C10.025,3.723 4.267,3.723 4.267,3.723 C4.267,3.723 4.267,11.352 4.267,11.352 C4.267,11.352 10.025,11.352 10.025,11.352 C12.400,11.352 14.127,9.840 14.127,7.537 C14.127,5.234 12.400,3.723 10.025,3.723 Z"/>
</svg>