<svg 
 xmlns="http://www.w3.org/2000/svg"
 xmlns:xlink="http://www.w3.org/1999/xlink"
 width="217px" height="87px">
<path fill-rule="evenodd"  fill="rgb(204, 216, 219)"
 d="M216.572,36.694 C216.572,36.694 214.289,36.694 214.289,36.694 C214.289,36.694 200.586,19.470 200.586,19.470 C200.586,19.470 186.884,36.694 186.884,36.694 C186.884,36.694 184.600,36.694 184.600,36.694 C184.600,36.694 199.608,18.170 199.608,18.170 C199.608,18.170 185.416,0.567 185.416,0.567 C185.416,0.567 187.754,0.567 187.754,0.567 C187.754,0.567 200.586,16.762 200.586,16.762 C200.586,16.762 213.419,0.567 213.419,0.567 C213.419,0.567 215.757,0.567 215.757,0.567 C215.757,0.567 201.565,18.116 201.565,18.116 C201.565,18.116 216.572,36.694 216.572,36.694 ZM191.432,59.128 C191.432,59.128 195.335,63.967 195.335,63.967 C195.335,63.967 191.618,67.353 191.618,67.353 C191.618,67.353 188.405,63.386 188.405,63.386 C188.405,63.386 186.281,65.290 186.281,65.290 C186.281,65.290 186.281,80.523 186.281,80.523 C186.281,80.523 188.910,82.507 188.910,82.507 C188.910,82.507 191.432,80.523 191.432,80.523 C191.432,80.523 192.176,81.370 192.176,81.370 C192.176,81.370 185.618,86.686 185.618,86.686 C184.467,85.540 183.361,84.640 182.299,83.988 C181.237,83.371 180.122,82.948 178.953,82.718 C178.953,82.718 178.953,82.163 178.953,82.163 C179.714,81.652 180.210,81.105 180.440,80.523 C180.688,79.924 180.812,79.016 180.812,77.799 C180.812,77.799 180.812,66.903 180.812,66.903 C180.812,65.792 180.732,65.017 180.573,64.576 C180.414,64.170 180.051,63.739 179.484,63.280 C179.484,63.280 177.918,64.576 177.918,64.576 C177.918,64.576 177.281,63.835 177.281,63.835 C177.281,63.835 182.644,59.260 182.644,59.260 C184.449,60.195 185.732,61.623 186.494,63.544 C186.494,63.544 191.432,59.128 191.432,59.128 ZM152.247,0.567 C152.247,0.567 174.432,0.567 174.432,0.567 C174.432,0.567 174.432,2.192 174.432,2.192 C174.432,2.192 153.987,2.192 153.987,2.192 C153.987,2.192 153.987,17.304 153.987,17.304 C153.987,17.304 174.051,17.304 174.051,17.304 C174.051,17.304 174.051,18.928 174.051,18.928 C174.051,18.928 153.987,18.928 153.987,18.928 C153.987,18.928 153.987,35.069 153.987,35.069 C153.987,35.069 174.432,35.069 174.432,35.069 C174.432,35.069 174.432,36.694 174.432,36.694 C174.432,36.694 152.247,36.694 152.247,36.694 C152.247,36.694 152.247,0.567 152.247,0.567 ZM161.233,63.201 C161.233,63.201 159.402,64.787 159.402,64.787 C159.402,64.787 159.402,80.338 159.402,80.338 C159.402,80.338 161.844,82.269 161.844,82.269 C161.844,82.269 165.614,78.778 165.614,78.778 C165.614,78.778 165.614,64.787 165.614,64.787 C165.614,64.787 163.756,63.201 163.756,63.201 C163.756,63.201 168.137,59.260 168.137,59.260 C168.137,59.260 172.703,63.201 172.703,63.201 C172.703,63.201 170.924,64.787 170.924,64.787 C170.924,64.787 170.924,79.122 170.924,79.122 C170.924,80.250 171.013,80.964 171.190,81.264 C171.491,81.828 171.880,82.110 172.358,82.110 C172.677,82.110 173.084,81.934 173.579,81.581 C173.579,81.581 174.376,82.507 174.376,82.507 C174.376,82.507 168.960,86.686 168.960,86.686 C168.960,86.686 168.296,86.183 168.296,86.183 C167.216,85.337 166.499,84.552 166.145,83.829 C165.774,83.106 165.588,82.084 165.588,80.761 C165.588,80.497 165.596,80.303 165.614,80.180 C165.614,80.180 158.499,86.686 158.499,86.686 C156.357,84.658 154.374,83.274 152.551,82.533 C152.551,82.533 152.551,81.819 152.551,81.819 C153.277,81.555 153.720,81.229 153.879,80.841 C154.038,80.435 154.118,79.510 154.118,78.064 C154.118,78.064 154.118,64.973 154.118,64.973 C154.118,64.973 152.976,64.126 152.976,64.126 C152.976,64.126 151.888,64.973 151.888,64.973 C151.888,64.973 151.171,64.126 151.171,64.126 C151.171,64.126 156.720,59.260 156.720,59.260 C156.720,59.260 161.233,63.201 161.233,63.201 ZM145.770,82.375 C145.770,82.375 147.470,80.999 147.470,80.999 C147.470,80.999 148.266,81.899 148.266,81.899 C148.266,81.899 142.505,86.686 142.505,86.686 C140.699,84.781 138.584,83.503 136.159,82.851 C136.159,82.851 136.159,82.137 136.159,82.137 C136.654,81.784 137.026,81.423 137.274,81.052 C137.522,80.700 137.681,80.224 137.752,79.624 C137.823,79.078 137.858,78.187 137.858,76.953 C137.858,76.953 137.858,63.280 137.858,63.280 C137.858,63.280 135.522,63.280 135.522,63.280 C135.522,63.280 135.522,62.354 135.522,62.354 C135.522,62.354 143.222,52.251 143.222,52.251 C143.222,52.251 143.222,60.344 143.222,60.344 C143.222,60.344 147.762,60.344 147.762,60.344 C147.762,60.344 147.762,63.280 147.762,63.280 C147.762,63.280 143.222,63.280 143.222,63.280 C143.222,63.280 143.222,80.497 143.222,80.497 C144.177,81.132 145.027,81.758 145.770,82.375 ZM127.669,36.694 C127.669,36.694 125.929,36.694 125.929,36.694 C125.929,36.694 125.929,2.192 125.929,2.192 C125.929,2.192 113.695,2.192 113.695,2.192 C113.695,2.192 113.695,0.567 113.695,0.567 C113.695,0.567 139.958,0.567 139.958,0.567 C139.958,0.567 139.958,2.192 139.958,2.192 C139.958,2.192 127.669,2.192 127.669,2.192 C127.669,2.192 127.669,36.694 127.669,36.694 ZM114.324,59.683 C115.421,60.618 116.120,61.349 116.421,61.878 C116.740,62.425 116.899,63.165 116.899,64.100 C116.899,64.100 116.899,64.734 116.899,64.734 C116.899,64.734 123.643,59.260 123.643,59.260 C123.643,59.260 127.573,63.121 127.573,63.121 C127.573,63.121 130.122,60.715 130.122,60.715 C130.122,60.715 130.891,61.587 130.891,61.587 C130.095,62.310 129.502,62.963 129.113,63.544 C128.741,64.126 128.484,64.805 128.343,65.581 C128.201,66.392 128.130,67.397 128.130,68.596 C128.130,68.596 128.130,77.694 128.130,77.694 C128.130,78.417 128.139,78.963 128.157,79.333 C128.174,79.703 128.205,80.047 128.250,80.365 C128.294,80.682 128.343,80.938 128.396,81.132 C128.590,81.696 128.927,81.978 129.405,81.978 C129.741,81.978 130.157,81.766 130.653,81.343 C130.688,81.326 130.723,81.299 130.759,81.264 C130.794,81.229 130.829,81.202 130.865,81.184 C130.900,81.167 130.935,81.141 130.971,81.105 C131.006,81.070 131.042,81.044 131.077,81.026 C131.077,81.026 131.741,82.057 131.741,82.057 C131.741,82.057 126.033,86.686 126.033,86.686 C126.033,86.686 125.475,86.157 125.475,86.157 C124.555,85.293 123.926,84.614 123.590,84.120 C123.254,83.644 123.041,83.018 122.953,82.242 C122.847,81.467 122.794,80.277 122.794,78.672 C122.794,78.672 122.794,65.131 122.794,65.131 C122.794,65.131 120.643,62.963 120.643,62.963 C120.643,62.963 116.899,66.057 116.899,66.057 C116.899,66.057 116.899,80.894 116.899,80.894 C116.899,80.894 118.784,82.877 118.784,82.877 C118.784,82.877 114.058,86.686 114.058,86.686 C114.058,86.686 109.465,82.718 109.465,82.718 C109.465,82.718 111.589,80.788 111.589,80.788 C111.589,80.788 111.589,66.956 111.589,66.956 C111.589,65.422 111.500,64.488 111.324,64.153 C111.076,63.747 110.784,63.544 110.448,63.544 C110.129,63.544 109.660,63.729 109.040,64.100 C109.040,64.100 108.430,63.306 108.430,63.306 C108.430,63.306 113.819,59.260 113.819,59.260 C113.819,59.260 114.324,59.683 114.324,59.683 ZM95.356,80.841 C97.002,81.634 98.569,82.428 100.056,83.221 C100.056,83.221 103.959,80.576 103.959,80.576 C103.959,80.576 104.490,81.317 104.490,81.317 C104.490,81.317 96.578,86.686 96.578,86.686 C93.498,84.764 90.719,83.609 88.241,83.221 C88.241,83.221 88.241,82.666 88.241,82.666 C88.984,82.225 89.471,81.705 89.701,81.105 C89.931,80.523 90.046,79.430 90.046,77.826 C90.046,77.826 90.046,68.199 90.046,68.199 C90.046,66.859 89.957,66.022 89.781,65.687 C89.586,65.334 89.143,65.158 88.453,65.158 C88.453,65.158 88.241,65.158 88.241,65.158 C88.241,65.158 88.002,64.576 88.002,64.576 C88.002,64.576 88.639,64.311 88.639,64.311 C90.940,63.306 92.728,62.478 94.002,61.825 C95.383,61.120 96.905,60.265 98.569,59.260 C98.569,59.260 105.206,67.723 105.206,67.723 C105.206,67.723 95.356,75.869 95.356,75.869 C95.356,75.869 95.356,80.841 95.356,80.841 ZM100.879,69.548 C100.879,69.548 95.356,62.513 95.356,62.513 C95.356,62.513 95.356,74.097 95.356,74.097 C95.356,74.097 100.879,69.548 100.879,69.548 ZM101.514,36.694 C101.514,36.694 90.476,21.095 90.476,21.095 C90.476,21.095 81.776,21.095 81.776,21.095 C81.776,21.095 81.776,36.694 81.776,36.694 C81.776,36.694 80.036,36.694 80.036,36.694 C80.036,36.694 80.036,0.567 80.036,0.567 C80.036,0.567 92.543,0.567 92.543,0.567 C98.415,0.567 103.254,4.196 103.254,10.804 C103.254,17.412 98.415,21.095 92.543,21.095 C92.543,21.095 103.744,36.694 103.744,36.694 C103.744,36.694 101.514,36.694 101.514,36.694 ZM101.351,10.804 C101.351,5.821 97.871,2.192 92.543,2.192 C92.543,2.192 81.776,2.192 81.776,2.192 C81.776,2.192 81.776,19.470 81.776,19.470 C81.776,19.470 92.543,19.470 92.543,19.470 C97.871,19.470 101.351,15.787 101.351,10.804 ZM81.486,64.576 C81.610,65.299 81.672,66.771 81.672,68.992 C81.672,68.992 81.672,82.004 81.672,82.004 C79.902,82.480 78.406,83.062 77.185,83.750 C75.964,84.437 74.689,85.416 73.362,86.686 C72.087,85.610 70.981,84.799 70.043,84.252 C69.016,83.653 67.972,83.204 66.910,82.904 C65.918,82.622 64.759,82.454 63.432,82.401 C63.432,82.401 63.432,81.819 63.432,81.819 C64.157,81.502 64.609,81.079 64.786,80.550 C64.980,80.021 65.078,78.981 65.078,77.429 C65.078,77.429 65.078,68.040 65.078,68.040 C65.078,66.701 65.025,65.792 64.919,65.316 C64.812,64.840 64.485,64.206 63.936,63.412 C63.387,62.548 63.007,61.825 62.795,61.243 C62.600,60.715 62.503,60.115 62.503,59.445 C62.503,58.070 62.971,56.809 63.910,55.663 C64.866,54.499 66.255,53.424 68.078,52.437 C68.078,52.437 68.609,53.177 68.609,53.177 C67.635,53.918 66.963,54.552 66.591,55.081 C66.184,55.646 65.981,56.201 65.981,56.747 C65.981,57.188 66.087,57.585 66.299,57.938 C66.476,58.290 66.874,58.802 67.494,59.471 C68.573,60.600 69.335,61.561 69.777,62.354 C70.184,63.165 70.415,64.091 70.468,65.131 C70.468,65.131 77.450,59.260 77.450,59.260 C78.990,60.441 80.008,61.438 80.504,62.248 C81.035,63.077 81.362,63.853 81.486,64.576 ZM76.335,68.940 C76.335,67.212 76.220,66.057 75.990,65.475 C75.742,64.840 75.141,64.100 74.185,63.253 C74.185,63.253 70.468,66.374 70.468,66.374 C70.468,66.374 70.468,79.730 70.468,79.730 C72.875,80.718 74.831,81.581 76.335,82.322 C76.335,82.322 76.335,68.940 76.335,68.940 ZM44.257,0.567 C44.257,0.567 66.442,0.567 66.442,0.567 C66.442,0.567 66.442,2.192 66.442,2.192 C66.442,2.192 45.997,2.192 45.997,2.192 C45.997,2.192 45.997,17.304 45.997,17.304 C45.997,17.304 66.062,17.304 66.062,17.304 C66.062,17.304 66.062,18.928 66.062,18.928 C66.062,18.928 45.997,18.928 45.997,18.928 C45.997,18.928 45.997,35.069 45.997,35.069 C45.997,35.069 66.442,35.069 66.442,35.069 C66.442,35.069 66.442,36.694 66.442,36.694 C66.442,36.694 44.257,36.694 44.257,36.694 C44.257,36.694 44.257,0.567 44.257,0.567 ZM57.182,59.762 C57.182,59.762 57.421,60.715 57.421,60.715 C56.943,61.191 56.633,61.737 56.491,62.354 C56.332,62.989 56.253,64.012 56.253,65.422 C56.253,65.422 56.253,82.322 56.253,82.322 C56.253,82.322 55.562,82.586 55.562,82.586 C53.916,83.256 52.597,83.865 51.606,84.411 C50.650,84.958 49.535,85.716 48.261,86.686 C46.313,85.310 44.614,84.341 43.163,83.776 C41.676,83.212 39.968,82.860 38.039,82.718 C38.039,82.718 38.039,82.110 38.039,82.110 C38.747,81.458 39.198,80.779 39.393,80.074 C39.552,79.386 39.632,77.852 39.632,75.472 C39.632,75.472 39.632,63.386 39.632,63.386 C41.862,62.875 43.588,62.143 44.809,61.191 C44.809,61.191 38.039,56.086 38.039,56.086 C38.039,56.086 38.039,49.871 38.039,49.871 C38.039,49.871 54.474,61.958 54.474,61.958 C55.093,60.953 55.996,60.221 57.182,59.762 ZM50.916,65.739 C50.916,65.739 46.535,62.460 46.535,62.460 C46.057,62.866 45.606,63.218 45.181,63.518 C45.181,63.518 45.181,79.465 45.181,79.465 C45.181,79.465 50.916,82.163 50.916,82.163 C50.916,82.163 50.916,65.739 50.916,65.739 ZM25.549,85.125 C25.089,84.614 24.762,83.935 24.567,83.089 C24.372,82.225 24.248,81.088 24.195,79.677 C24.195,79.677 15.035,86.871 15.035,86.871 C13.637,85.883 12.469,85.099 11.531,84.517 C10.557,83.918 9.522,83.353 8.424,82.824 C7.840,82.507 7.132,82.207 6.300,81.925 C5.504,81.661 4.893,81.528 4.468,81.528 C4.150,81.528 3.875,81.643 3.645,81.872 C3.380,82.101 3.247,82.375 3.247,82.692 C3.247,82.939 3.459,83.397 3.884,84.067 C4.220,84.561 4.389,85.011 4.389,85.416 C4.389,85.786 4.265,86.095 4.017,86.342 C3.734,86.588 3.397,86.712 3.008,86.712 C2.512,86.712 2.079,86.483 1.707,86.024 C1.335,85.566 1.149,85.019 1.149,84.385 C1.149,83.662 1.344,82.904 1.734,82.110 C2.141,81.264 2.875,80.083 3.937,78.566 C3.937,78.566 7.867,72.933 7.867,72.933 C6.380,71.999 5.141,70.941 4.150,69.759 C3.141,68.631 2.353,67.388 1.787,66.030 C1.238,64.726 0.964,63.351 0.964,61.905 C0.964,60.159 1.335,58.511 2.079,56.959 C2.786,55.408 3.795,54.023 5.105,52.807 C6.415,51.608 7.902,50.665 9.566,49.977 C11.265,49.307 13.000,48.972 14.770,48.972 C17.442,48.972 20.053,49.607 22.602,50.876 C23.593,51.388 24.850,52.190 26.372,53.283 C27.594,52.066 28.611,51.150 29.426,50.532 C30.063,50.074 30.948,49.625 32.081,49.184 C32.081,49.184 32.638,50.083 32.638,50.083 C30.992,50.982 29.886,51.899 29.320,52.833 C28.753,53.768 28.470,55.152 28.470,56.985 C28.470,57.356 28.487,58.017 28.523,58.969 C28.523,58.969 29.399,77.297 29.399,77.297 C29.470,79.342 29.612,80.568 29.824,80.973 C30.125,81.590 30.514,81.899 30.992,81.899 C31.381,81.899 32.054,81.502 33.010,80.709 C33.010,80.709 33.860,81.661 33.860,81.661 C33.860,81.661 27.700,86.871 27.700,86.871 C26.744,86.236 26.027,85.654 25.549,85.125 ZM13.655,53.442 C10.663,53.442 8.141,54.314 6.088,56.060 C4.052,57.823 3.035,60.000 3.035,62.592 C3.035,63.739 3.256,64.840 3.698,65.898 C4.123,67.027 4.742,68.058 5.557,68.992 C6.406,69.962 7.442,70.879 8.663,71.743 C8.663,71.743 16.044,61.164 16.044,61.164 C14.964,60.459 13.947,60.106 12.991,60.106 C12.230,60.106 11.566,60.256 11.000,60.556 C10.486,60.820 9.885,61.393 9.194,62.275 C9.194,62.275 8.265,61.878 8.265,61.878 C8.955,60.098 9.814,58.802 10.840,57.990 C11.832,57.180 13.097,56.774 14.637,56.774 C15.823,56.774 17.186,56.977 18.726,57.382 C18.726,57.382 20.266,55.161 20.266,55.161 C18.230,54.015 16.026,53.442 13.655,53.442 ZM23.107,57.250 C22.470,56.668 21.859,56.183 21.275,55.795 C21.275,55.795 11.159,70.156 11.159,70.156 C11.159,70.156 23.664,70.156 23.664,70.156 C23.664,70.156 23.107,57.250 23.107,57.250 ZM23.930,73.964 C23.930,73.964 8.504,73.964 8.504,73.964 C8.504,73.964 6.380,77.006 6.380,77.006 C6.380,77.006 18.832,82.269 18.832,82.269 C18.832,82.269 24.116,78.196 24.116,78.196 C24.116,78.196 23.930,73.964 23.930,73.964 ZM15.711,36.694 C15.711,36.694 0.595,0.567 0.595,0.567 C0.595,0.567 2.606,0.567 2.606,0.567 C2.606,0.567 16.744,34.690 16.744,34.690 C16.744,34.690 30.881,0.567 30.881,0.567 C30.881,0.567 32.893,0.567 32.893,0.567 C32.893,0.567 17.777,36.694 17.777,36.694 C17.777,36.694 15.711,36.694 15.711,36.694 ZM205.143,61.825 C206.523,61.120 208.046,60.265 209.710,59.260 C209.710,59.260 216.347,67.723 216.347,67.723 C216.347,67.723 206.497,75.869 206.497,75.869 C206.497,75.869 206.497,80.841 206.497,80.841 C208.143,81.634 209.710,82.428 211.196,83.221 C211.196,83.221 215.099,80.576 215.099,80.576 C215.099,80.576 215.630,81.317 215.630,81.317 C215.630,81.317 207.718,86.686 207.718,86.686 C204.638,84.764 201.859,83.609 199.381,83.221 C199.381,83.221 199.381,82.666 199.381,82.666 C200.125,82.225 200.611,81.705 200.842,81.105 C201.071,80.523 201.187,79.430 201.187,77.826 C201.187,77.826 201.187,68.199 201.187,68.199 C201.187,66.859 201.098,66.022 200.921,65.687 C200.726,65.334 200.284,65.158 199.594,65.158 C199.594,65.158 199.381,65.158 199.381,65.158 C199.381,65.158 199.142,64.576 199.142,64.576 C199.142,64.576 199.780,64.311 199.780,64.311 C202.080,63.306 203.868,62.478 205.143,61.825 ZM206.497,74.097 C206.497,74.097 212.019,69.548 212.019,69.548 C212.019,69.548 206.497,62.513 206.497,62.513 C206.497,62.513 206.497,74.097 206.497,74.097 Z"/>
</svg>