<svg 
 xmlns="http://www.w3.org/2000/svg"
 xmlns:xlink="http://www.w3.org/1999/xlink"
 width="35px" height="43px">
<path fill-rule="evenodd"  fill="rgb(204, 216, 219)"
 d="M23.485,42.829 C23.485,42.829 23.485,0.969 23.485,0.969 C23.485,0.969 28.888,6.456 28.888,6.456 C28.888,6.456 28.888,32.370 28.888,32.370 C28.888,32.370 34.745,28.339 34.745,28.339 C34.745,28.339 34.745,31.397 34.745,31.397 C34.745,31.397 23.485,42.829 23.485,42.829 ZM8.889,0.977 C8.889,0.977 20.861,12.931 20.861,12.931 C20.861,12.931 20.861,15.841 20.861,15.841 C20.861,15.841 14.401,11.468 14.401,11.468 C14.401,11.468 14.401,19.081 14.401,19.081 C14.401,19.081 20.659,20.246 20.659,20.246 C20.659,20.246 20.659,23.222 20.659,23.222 C20.659,23.222 14.401,24.069 14.401,24.069 C14.401,24.069 14.401,32.469 14.401,32.469 C14.401,32.469 21.055,27.965 21.055,27.965 C21.055,27.965 21.055,30.814 21.055,30.814 C21.055,30.814 8.889,42.959 8.889,42.959 C8.889,42.959 8.889,0.977 8.889,0.977 ZM0.972,0.971 C0.972,0.971 6.455,6.457 6.455,6.457 C6.455,6.457 6.455,37.484 6.455,37.484 C6.455,37.484 0.972,42.970 0.972,42.970 C0.972,42.970 0.972,0.971 0.972,0.971 Z"/>
</svg>