<svg 
 xmlns="http://www.w3.org/2000/svg"
 xmlns:xlink="http://www.w3.org/1999/xlink"
 width="42px" height="39px">
<path fill-rule="evenodd"  fill="rgb(204, 216, 219)"
 d="M41.262,14.362 C41.299,14.362 41.335,14.362 41.372,14.362 C41.391,14.417 41.409,14.472 41.428,14.527 C41.446,14.527 41.464,14.527 41.483,14.527 C41.483,14.582 41.483,14.638 41.483,14.693 C41.501,14.693 41.520,14.693 41.538,14.693 C41.538,14.730 41.538,14.767 41.538,14.803 C41.556,14.803 41.575,14.803 41.593,14.803 C41.593,14.859 41.593,14.914 41.593,14.969 C41.612,14.969 41.630,14.969 41.648,14.969 C41.648,15.024 41.648,15.080 41.648,15.135 C41.667,15.135 41.685,15.135 41.704,15.135 C41.704,15.190 41.704,15.245 41.704,15.301 C41.722,15.301 41.741,15.301 41.759,15.301 C41.759,15.374 41.759,15.448 41.759,15.522 C41.777,15.522 41.796,15.522 41.814,15.522 C41.814,15.614 41.814,15.706 41.814,15.798 C41.833,15.798 41.851,15.798 41.869,15.798 C41.869,15.908 41.869,16.019 41.869,16.129 C41.888,16.129 41.906,16.129 41.925,16.129 C41.943,16.479 41.962,16.829 41.980,17.179 C41.980,18.146 41.821,18.820 41.428,19.388 C41.391,19.407 41.354,19.425 41.317,19.443 C41.299,19.499 41.280,19.554 41.262,19.609 C41.207,19.646 41.151,19.683 41.096,19.720 C41.096,19.756 41.096,19.793 41.096,19.830 C41.022,19.885 40.949,19.940 40.875,19.996 C40.746,20.143 40.617,20.290 40.489,20.438 C40.452,20.438 40.415,20.438 40.378,20.438 C40.323,20.511 40.268,20.585 40.212,20.659 C40.176,20.659 40.139,20.659 40.102,20.659 C40.083,20.695 40.065,20.732 40.047,20.769 C40.010,20.769 39.973,20.769 39.936,20.769 C39.899,20.824 39.863,20.879 39.826,20.935 C39.789,20.935 39.752,20.935 39.715,20.935 C39.715,20.953 39.715,20.972 39.715,20.990 C39.660,21.008 39.605,21.027 39.549,21.045 C39.531,21.082 39.513,21.119 39.494,21.156 C39.457,21.156 39.421,21.156 39.384,21.156 C39.347,21.211 39.310,21.266 39.273,21.321 C39.236,21.321 39.200,21.321 39.163,21.321 C39.144,21.358 39.126,21.395 39.108,21.432 C39.071,21.432 39.034,21.432 38.997,21.432 C38.960,21.487 38.923,21.542 38.887,21.598 C38.850,21.598 38.813,21.598 38.776,21.598 C38.647,21.745 38.518,21.892 38.390,22.039 C38.426,22.039 38.463,22.039 38.500,22.039 C38.614,21.917 38.730,21.948 38.887,21.874 C38.887,21.855 38.887,21.837 38.887,21.819 C38.942,21.819 38.997,21.819 39.052,21.819 C39.052,21.800 39.052,21.782 39.052,21.763 C39.089,21.763 39.126,21.763 39.163,21.763 C39.163,21.745 39.163,21.726 39.163,21.708 C39.218,21.708 39.273,21.708 39.329,21.708 C39.329,21.690 39.329,21.671 39.329,21.653 C39.365,21.653 39.402,21.653 39.439,21.653 C39.439,21.634 39.439,21.616 39.439,21.598 C39.494,21.598 39.550,21.598 39.605,21.598 C40.415,21.239 41.749,20.665 41.925,19.720 C41.943,19.720 41.962,19.720 41.980,19.720 C41.980,19.904 41.980,20.088 41.980,20.272 C41.873,20.394 41.931,20.704 41.869,20.879 C41.851,20.879 41.833,20.879 41.814,20.879 C41.796,20.990 41.777,21.100 41.759,21.211 C41.741,21.211 41.722,21.211 41.704,21.211 C41.704,21.248 41.704,21.285 41.704,21.321 C41.685,21.321 41.667,21.321 41.648,21.321 C41.648,21.377 41.648,21.432 41.648,21.487 C41.612,21.505 41.575,21.524 41.538,21.542 C41.520,21.616 41.501,21.690 41.483,21.763 C41.446,21.782 41.409,21.800 41.372,21.819 C41.372,21.855 41.372,21.892 41.372,21.929 C41.317,21.966 41.262,22.003 41.207,22.039 C41.207,22.076 41.207,22.113 41.207,22.150 C41.170,22.168 41.133,22.187 41.096,22.205 C41.022,22.297 40.949,22.389 40.875,22.481 C40.838,22.481 40.802,22.481 40.765,22.481 C40.691,22.573 40.617,22.665 40.544,22.758 C40.507,22.758 40.470,22.758 40.433,22.758 C40.415,22.794 40.396,22.831 40.378,22.868 C40.341,22.868 40.304,22.868 40.268,22.868 C40.249,22.905 40.231,22.942 40.212,22.978 C40.176,22.978 40.139,22.978 40.102,22.978 C40.083,23.015 40.065,23.052 40.047,23.089 C40.010,23.089 39.973,23.089 39.936,23.089 C39.918,23.126 39.899,23.163 39.881,23.199 C39.770,23.236 39.660,23.273 39.549,23.310 C39.531,23.347 39.513,23.384 39.494,23.420 C39.457,23.420 39.421,23.420 39.384,23.420 C39.384,23.439 39.384,23.457 39.384,23.476 C39.347,23.476 39.310,23.476 39.273,23.476 C39.255,23.512 39.236,23.549 39.218,23.586 C39.108,23.623 38.997,23.660 38.887,23.697 C38.868,23.733 38.850,23.770 38.831,23.807 C38.758,23.825 38.684,23.844 38.610,23.862 C38.592,23.899 38.574,23.936 38.555,23.973 C38.482,23.991 38.408,24.010 38.334,24.028 C38.316,24.065 38.297,24.102 38.279,24.138 C38.224,24.157 38.169,24.175 38.113,24.194 C38.113,24.212 38.113,24.231 38.113,24.249 C38.150,24.249 38.187,24.249 38.224,24.249 C38.388,24.111 38.753,24.210 38.997,24.138 C38.997,24.120 38.997,24.102 38.997,24.083 C39.108,24.083 39.218,24.083 39.329,24.083 C39.329,24.065 39.329,24.046 39.329,24.028 C39.568,23.991 39.807,23.954 40.047,23.918 C40.047,23.899 40.047,23.881 40.047,23.862 C40.157,23.844 40.268,23.825 40.378,23.807 C40.378,23.789 40.378,23.770 40.378,23.752 C40.415,23.752 40.452,23.752 40.489,23.752 C40.489,23.733 40.489,23.715 40.489,23.697 C41.015,23.417 41.197,23.282 41.428,22.702 C41.446,22.702 41.464,22.702 41.483,22.702 C41.483,22.868 41.483,23.034 41.483,23.199 C41.464,23.199 41.446,23.199 41.428,23.199 C41.428,23.310 41.428,23.420 41.428,23.531 C41.409,23.531 41.391,23.531 41.372,23.531 C41.372,23.604 41.372,23.678 41.372,23.752 C41.354,23.752 41.335,23.752 41.317,23.752 C41.317,23.807 41.317,23.862 41.317,23.918 C41.299,23.918 41.280,23.918 41.262,23.918 C41.262,23.973 41.262,24.028 41.262,24.083 C41.243,24.083 41.225,24.083 41.207,24.083 C41.207,24.138 41.207,24.194 41.207,24.249 C41.170,24.267 41.133,24.286 41.096,24.304 C41.078,24.378 41.059,24.451 41.041,24.525 C41.004,24.544 40.967,24.562 40.930,24.580 C40.930,24.617 40.930,24.654 40.930,24.691 C40.857,24.746 40.783,24.801 40.709,24.857 C40.709,24.893 40.709,24.930 40.709,24.967 C40.691,24.967 40.673,24.967 40.654,24.967 C40.636,25.004 40.617,25.041 40.599,25.077 C40.562,25.077 40.525,25.077 40.489,25.077 C40.433,25.151 40.378,25.225 40.323,25.298 C40.286,25.298 40.249,25.298 40.212,25.298 C40.194,25.335 40.176,25.372 40.157,25.409 C40.120,25.409 40.083,25.409 40.047,25.409 C40.028,25.446 40.010,25.483 39.991,25.519 C39.918,25.538 39.844,25.556 39.770,25.575 C39.770,25.593 39.770,25.611 39.770,25.630 C39.697,25.648 39.623,25.667 39.549,25.685 C39.549,25.703 39.549,25.722 39.549,25.740 C39.457,25.759 39.365,25.777 39.273,25.796 C39.273,25.814 39.273,25.832 39.273,25.851 C39.163,25.869 39.052,25.888 38.942,25.906 C38.942,25.924 38.942,25.943 38.942,25.961 C38.795,25.980 38.647,25.998 38.500,26.016 C38.500,26.035 38.500,26.053 38.500,26.072 C38.390,26.072 38.279,26.072 38.169,26.072 C38.169,26.090 38.169,26.109 38.169,26.127 C38.040,26.127 37.911,26.127 37.782,26.127 C37.782,26.145 37.782,26.164 37.782,26.182 C37.432,26.219 37.082,26.256 36.732,26.293 C36.732,26.311 36.732,26.330 36.732,26.348 C37.358,26.403 37.985,26.458 38.610,26.514 C38.610,26.532 38.610,26.550 38.610,26.569 C38.923,26.569 39.237,26.569 39.549,26.569 C39.549,26.550 39.549,26.532 39.549,26.514 C39.660,26.514 39.770,26.514 39.881,26.514 C39.881,26.495 39.881,26.477 39.881,26.458 C39.936,26.458 39.991,26.458 40.047,26.458 C40.047,26.440 40.047,26.422 40.047,26.403 C40.183,26.350 40.373,26.363 40.489,26.293 C40.507,26.256 40.525,26.219 40.544,26.182 C40.617,26.164 40.691,26.145 40.765,26.127 C40.783,26.090 40.802,26.053 40.820,26.016 C40.857,26.016 40.894,26.016 40.930,26.016 C40.930,25.998 40.930,25.980 40.930,25.961 C41.013,25.897 41.028,25.884 41.151,25.851 C41.151,25.869 41.151,25.888 41.151,25.906 C41.133,25.906 41.115,25.906 41.096,25.906 C41.078,26.035 41.059,26.164 41.041,26.293 C41.022,26.293 41.004,26.293 40.986,26.293 C40.986,26.330 40.986,26.366 40.986,26.403 C40.967,26.403 40.949,26.403 40.930,26.403 C40.930,26.458 40.930,26.514 40.930,26.569 C40.912,26.569 40.894,26.569 40.875,26.569 C40.857,26.643 40.838,26.716 40.820,26.790 C40.802,26.790 40.783,26.790 40.765,26.790 C40.765,26.827 40.765,26.863 40.765,26.900 C40.728,26.919 40.691,26.937 40.654,26.956 C40.654,26.992 40.654,27.029 40.654,27.066 C40.617,27.084 40.581,27.103 40.544,27.121 C40.544,27.158 40.544,27.195 40.544,27.232 C40.443,27.374 40.335,27.323 40.268,27.563 C40.030,27.624 40.077,27.740 39.936,27.839 C39.899,27.839 39.863,27.839 39.826,27.839 C39.807,27.876 39.789,27.913 39.770,27.950 C39.734,27.950 39.697,27.950 39.660,27.950 C39.660,27.968 39.660,27.987 39.660,28.005 C39.586,28.023 39.513,28.042 39.439,28.060 C39.439,28.079 39.439,28.097 39.439,28.115 C39.365,28.134 39.292,28.152 39.218,28.171 C39.218,28.189 39.218,28.208 39.218,28.226 C39.163,28.226 39.108,28.226 39.052,28.226 C39.052,28.244 39.052,28.263 39.052,28.281 C38.979,28.281 38.905,28.281 38.831,28.281 C38.831,28.300 38.831,28.318 38.831,28.336 C38.758,28.336 38.684,28.336 38.610,28.336 C38.610,28.355 38.610,28.373 38.610,28.392 C38.482,28.392 38.353,28.392 38.224,28.392 C38.224,28.410 38.224,28.429 38.224,28.447 C37.690,28.447 37.156,28.447 36.622,28.447 C36.622,28.429 36.622,28.410 36.622,28.392 C36.548,28.392 36.475,28.392 36.401,28.392 C36.401,28.410 36.401,28.429 36.401,28.447 C36.162,28.447 35.922,28.447 35.683,28.447 C35.683,28.465 35.683,28.484 35.683,28.502 C35.609,28.502 35.536,28.502 35.462,28.502 C35.462,28.521 35.462,28.539 35.462,28.557 C35.525,28.604 35.470,28.550 35.517,28.613 C35.646,28.705 35.775,28.797 35.904,28.889 C35.959,28.889 36.014,28.889 36.070,28.889 C36.070,28.907 36.070,28.926 36.070,28.944 C36.106,28.944 36.143,28.944 36.180,28.944 C36.180,28.962 36.180,28.981 36.180,28.999 C36.235,28.999 36.291,28.999 36.346,28.999 C36.346,29.018 36.346,29.036 36.346,29.055 C36.419,29.055 36.493,29.055 36.567,29.055 C36.567,29.073 36.567,29.091 36.567,29.110 C36.659,29.110 36.751,29.110 36.843,29.110 C36.843,29.128 36.843,29.147 36.843,29.165 C36.990,29.165 37.138,29.165 37.285,29.165 C37.460,29.214 38.135,29.292 38.390,29.220 C38.390,29.202 38.390,29.183 38.390,29.165 C38.629,29.147 38.868,29.128 39.108,29.110 C39.237,29.066 39.383,28.977 39.549,28.944 C39.517,29.068 39.503,29.083 39.439,29.165 C39.421,29.165 39.402,29.165 39.384,29.165 C39.384,29.202 39.384,29.239 39.384,29.275 C39.347,29.294 39.310,29.312 39.273,29.331 C39.273,29.368 39.273,29.404 39.273,29.441 C39.200,29.496 39.126,29.552 39.052,29.607 C39.052,29.644 39.052,29.681 39.052,29.717 C38.979,29.773 38.905,29.828 38.831,29.883 C38.703,30.030 38.574,30.178 38.445,30.325 C38.408,30.325 38.371,30.325 38.334,30.325 C38.279,30.399 38.224,30.472 38.169,30.546 C38.132,30.546 38.095,30.546 38.058,30.546 C38.058,30.564 38.058,30.583 38.058,30.601 C38.021,30.601 37.984,30.601 37.948,30.601 C37.929,30.638 37.911,30.675 37.892,30.712 C37.782,30.748 37.671,30.785 37.561,30.822 C37.561,30.841 37.561,30.859 37.561,30.877 C37.524,30.877 37.487,30.877 37.451,30.877 C37.451,30.896 37.451,30.914 37.451,30.933 C37.395,30.933 37.340,30.933 37.285,30.933 C37.285,30.951 37.285,30.969 37.285,30.988 C37.248,30.988 37.211,30.988 37.174,30.988 C37.174,31.006 37.174,31.025 37.174,31.043 C37.119,31.043 37.064,31.043 37.009,31.043 C37.009,31.061 37.009,31.080 37.009,31.098 C36.953,31.098 36.898,31.098 36.843,31.098 C36.843,31.117 36.843,31.135 36.843,31.154 C36.769,31.154 36.696,31.154 36.622,31.154 C36.622,31.172 36.622,31.190 36.622,31.209 C36.475,31.209 36.327,31.209 36.180,31.209 C36.180,31.209 36.135,31.290 36.014,31.264 C36.014,31.246 36.014,31.227 36.014,31.209 C35.849,31.209 35.683,31.209 35.517,31.209 C35.517,31.190 35.517,31.172 35.517,31.154 C35.407,31.154 35.296,31.154 35.186,31.154 C35.186,31.135 35.186,31.117 35.186,31.098 C35.094,31.098 35.002,31.098 34.910,31.098 C34.199,30.878 33.527,30.774 32.590,30.767 C32.590,30.785 32.590,30.804 32.590,30.822 C32.626,30.822 32.663,30.822 32.700,30.822 C32.918,31.081 33.293,31.126 33.639,31.264 C33.639,31.282 33.639,31.301 33.639,31.319 C33.694,31.319 33.750,31.319 33.805,31.319 C34.507,31.596 35.291,31.761 36.291,31.761 C36.604,31.761 36.917,31.761 37.230,31.761 C37.417,31.708 37.692,31.632 37.892,31.595 C37.856,31.706 37.819,31.816 37.782,31.927 C37.745,31.945 37.708,31.964 37.671,31.982 C37.653,32.056 37.635,32.129 37.616,32.203 C37.579,32.221 37.543,32.240 37.506,32.258 C37.506,32.295 37.506,32.332 37.506,32.369 C37.414,32.442 37.322,32.516 37.230,32.590 C37.119,32.719 37.009,32.847 36.898,32.976 C36.861,32.976 36.824,32.976 36.788,32.976 C36.769,33.013 36.751,33.050 36.732,33.087 C36.622,33.124 36.511,33.160 36.401,33.197 C36.401,33.216 36.401,33.234 36.401,33.253 C36.346,33.253 36.291,33.253 36.235,33.253 C35.759,33.440 35.226,33.483 34.689,33.308 C34.615,33.308 34.541,33.308 34.468,33.308 C34.468,33.289 34.468,33.271 34.468,33.253 C34.320,33.234 34.173,33.216 34.026,33.197 C34.026,33.179 34.026,33.160 34.026,33.142 C33.971,33.142 33.915,33.142 33.860,33.142 C33.860,33.124 33.860,33.105 33.860,33.087 C33.823,33.087 33.786,33.087 33.750,33.087 C33.750,33.068 33.750,33.050 33.750,33.032 C33.694,33.032 33.639,33.032 33.584,33.032 C33.584,33.013 33.584,32.995 33.584,32.976 C33.510,32.958 33.437,32.940 33.363,32.921 C33.363,32.903 33.363,32.884 33.363,32.866 C33.308,32.866 33.253,32.866 33.197,32.866 C33.197,32.847 33.197,32.829 33.197,32.811 C33.124,32.792 33.050,32.774 32.976,32.755 C32.976,32.737 32.976,32.719 32.976,32.700 C32.940,32.700 32.903,32.700 32.866,32.700 C32.866,32.682 32.866,32.663 32.866,32.645 C32.829,32.645 32.792,32.645 32.755,32.645 C32.755,32.626 32.755,32.608 32.755,32.590 C32.719,32.590 32.682,32.590 32.645,32.590 C32.645,32.571 32.645,32.553 32.645,32.534 C32.608,32.534 32.571,32.534 32.534,32.534 C32.516,32.498 32.498,32.461 32.479,32.424 C32.442,32.424 32.406,32.424 32.369,32.424 C32.369,32.406 32.369,32.387 32.369,32.369 C32.295,32.350 32.221,32.332 32.148,32.313 C32.129,32.277 32.111,32.240 32.093,32.203 C32.019,32.185 31.945,32.166 31.872,32.148 C31.853,32.111 31.835,32.074 31.816,32.037 C31.743,32.019 31.669,32.000 31.595,31.982 C31.577,31.945 31.559,31.908 31.540,31.872 C31.503,31.872 31.467,31.872 31.430,31.872 C31.411,31.835 31.393,31.798 31.374,31.761 C31.338,31.761 31.301,31.761 31.264,31.761 C31.264,31.743 31.264,31.724 31.264,31.706 C31.227,31.706 31.190,31.706 31.154,31.706 C31.124,31.687 31.107,31.631 31.043,31.595 C31.043,31.632 31.043,31.669 31.043,31.706 C31.181,31.796 31.170,31.902 31.264,32.037 C31.319,32.074 31.374,32.111 31.430,32.148 C31.430,32.185 31.430,32.221 31.430,32.258 C31.485,32.295 31.540,32.332 31.595,32.369 C31.595,32.406 31.595,32.442 31.595,32.479 C31.687,32.553 31.780,32.627 31.872,32.700 C31.872,32.737 31.872,32.774 31.872,32.811 C32.056,32.976 32.240,33.142 32.424,33.308 C32.534,33.437 32.645,33.566 32.755,33.694 C32.792,33.694 32.829,33.694 32.866,33.694 C32.921,33.768 32.976,33.842 33.032,33.915 C33.068,33.915 33.105,33.915 33.142,33.915 C33.160,33.952 33.179,33.989 33.197,34.026 C33.234,34.026 33.271,34.026 33.308,34.026 C33.326,34.063 33.345,34.099 33.363,34.136 C33.437,34.155 33.510,34.173 33.584,34.192 C33.584,34.210 33.584,34.228 33.584,34.247 C33.621,34.247 33.658,34.247 33.694,34.247 C33.713,34.284 33.731,34.320 33.750,34.357 C33.805,34.357 33.860,34.357 33.915,34.357 C33.915,34.376 33.915,34.394 33.915,34.412 C33.952,34.412 33.989,34.412 34.026,34.412 C34.026,34.431 34.026,34.449 34.026,34.468 C34.081,34.468 34.136,34.468 34.192,34.468 C34.192,34.486 34.192,34.505 34.192,34.523 C34.486,34.560 34.781,34.597 35.075,34.633 C35.282,34.694 35.516,34.739 35.793,34.744 C35.793,34.781 35.793,34.818 35.793,34.854 C35.620,34.900 35.540,35.006 35.407,35.075 C35.370,35.075 35.333,35.075 35.296,35.075 C35.296,35.094 35.296,35.112 35.296,35.131 C35.241,35.131 35.186,35.131 35.131,35.131 C35.131,35.149 35.131,35.167 35.131,35.186 C35.057,35.186 34.983,35.186 34.910,35.186 C34.910,35.204 34.910,35.223 34.910,35.241 C34.799,35.241 34.689,35.241 34.578,35.241 C34.578,35.259 34.578,35.278 34.578,35.296 C34.376,35.296 34.173,35.296 33.971,35.296 C33.971,35.278 33.971,35.259 33.971,35.241 C33.860,35.241 33.750,35.241 33.639,35.241 C33.639,35.223 33.639,35.204 33.639,35.186 C33.566,35.186 33.492,35.186 33.418,35.186 C33.418,35.167 33.418,35.149 33.418,35.131 C33.253,35.094 33.087,35.057 32.921,35.020 C32.921,35.002 32.921,34.983 32.921,34.965 C32.847,34.946 32.774,34.928 32.700,34.910 C32.700,34.891 32.700,34.873 32.700,34.854 C32.663,34.854 32.626,34.854 32.590,34.854 C32.590,34.836 32.590,34.818 32.590,34.799 C32.553,34.799 32.516,34.799 32.479,34.799 C32.479,34.781 32.479,34.762 32.479,34.744 C32.442,34.744 32.406,34.744 32.369,34.744 C32.369,34.725 32.369,34.707 32.369,34.689 C32.332,34.689 32.295,34.689 32.258,34.689 C32.258,34.670 32.258,34.652 32.258,34.633 C32.203,34.615 32.148,34.597 32.093,34.578 C32.074,34.541 32.056,34.505 32.037,34.468 C32.000,34.468 31.964,34.468 31.927,34.468 C31.927,34.449 31.927,34.431 31.927,34.412 C31.872,34.394 31.816,34.376 31.761,34.357 C31.743,34.320 31.724,34.284 31.706,34.247 C31.669,34.247 31.632,34.247 31.595,34.247 C31.559,34.192 31.522,34.136 31.485,34.081 C31.448,34.081 31.411,34.081 31.374,34.081 C31.319,34.007 31.264,33.934 31.209,33.860 C31.172,33.860 31.135,33.860 31.098,33.860 C30.969,33.713 30.840,33.566 30.712,33.418 C30.675,33.418 30.638,33.418 30.601,33.418 C30.546,33.345 30.491,33.271 30.435,33.197 C30.049,32.829 29.662,32.461 29.275,32.093 C29.275,32.111 29.275,32.129 29.275,32.148 C29.465,32.314 29.534,32.683 29.662,32.921 C29.681,32.921 29.699,32.921 29.717,32.921 C29.717,32.958 29.717,32.995 29.717,33.032 C29.736,33.032 29.754,33.032 29.773,33.032 C29.773,33.068 29.773,33.105 29.773,33.142 C29.809,33.160 29.846,33.179 29.883,33.197 C29.901,33.271 29.920,33.345 29.938,33.418 C29.975,33.437 30.012,33.455 30.049,33.473 C30.067,33.547 30.086,33.621 30.104,33.694 C30.141,33.713 30.178,33.731 30.214,33.750 C30.214,33.786 30.214,33.823 30.214,33.860 C30.270,33.897 30.325,33.934 30.380,33.971 C30.380,34.007 30.380,34.044 30.380,34.081 C30.417,34.099 30.454,34.118 30.491,34.136 C30.491,34.173 30.491,34.210 30.491,34.247 C30.564,34.302 30.638,34.357 30.712,34.412 C30.712,34.449 30.712,34.486 30.712,34.523 C30.840,34.633 30.969,34.744 31.098,34.854 C31.282,35.057 31.467,35.259 31.651,35.462 C31.687,35.462 31.724,35.462 31.761,35.462 C31.798,35.517 31.835,35.572 31.872,35.628 C31.908,35.628 31.945,35.628 31.982,35.628 C32.019,35.683 32.056,35.738 32.093,35.793 C32.129,35.793 32.166,35.793 32.203,35.793 C32.221,35.830 32.240,35.867 32.258,35.904 C32.332,35.922 32.406,35.941 32.479,35.959 C32.498,35.996 32.516,36.033 32.534,36.070 C32.645,36.106 32.755,36.143 32.866,36.180 C32.884,36.217 32.903,36.254 32.921,36.291 C32.958,36.291 32.995,36.291 33.032,36.291 C33.032,36.309 33.032,36.327 33.032,36.346 C33.068,36.346 33.105,36.346 33.142,36.346 C33.142,36.364 33.142,36.383 33.142,36.401 C33.197,36.401 33.253,36.401 33.308,36.401 C33.308,36.419 33.308,36.438 33.308,36.456 C33.345,36.456 33.381,36.456 33.418,36.456 C33.418,36.475 33.418,36.493 33.418,36.511 C33.455,36.511 33.492,36.511 33.529,36.511 C33.529,36.530 33.529,36.548 33.529,36.567 C33.566,36.567 33.602,36.567 33.639,36.567 C33.639,36.585 33.639,36.604 33.639,36.622 C33.694,36.622 33.750,36.622 33.805,36.622 C33.805,36.640 33.805,36.659 33.805,36.677 C33.768,36.677 33.731,36.677 33.694,36.677 C33.565,36.827 33.406,36.815 33.197,36.898 C33.197,36.917 33.197,36.935 33.197,36.953 C32.657,37.164 31.785,37.007 31.374,36.788 C31.374,36.769 31.374,36.751 31.374,36.732 C31.301,36.714 31.227,36.696 31.154,36.677 C30.706,36.394 30.360,35.994 29.994,35.628 C29.883,35.536 29.773,35.444 29.662,35.352 C29.662,35.315 29.662,35.278 29.662,35.241 C29.570,35.167 29.478,35.094 29.386,35.020 C29.368,34.965 29.349,34.910 29.331,34.854 C29.294,34.836 29.257,34.818 29.220,34.799 C29.220,34.762 29.220,34.725 29.220,34.689 C29.147,34.633 29.073,34.578 28.999,34.523 C28.999,34.486 28.999,34.449 28.999,34.412 C28.962,34.394 28.926,34.376 28.889,34.357 C28.889,34.320 28.889,34.284 28.889,34.247 C28.834,34.210 28.778,34.173 28.723,34.136 C28.723,34.099 28.723,34.063 28.723,34.026 C28.668,33.989 28.613,33.952 28.557,33.915 C28.557,33.879 28.557,33.842 28.557,33.805 C28.502,33.768 28.447,33.731 28.392,33.694 C28.392,33.658 28.392,33.621 28.392,33.584 C28.336,33.547 28.281,33.510 28.226,33.473 C28.226,33.437 28.226,33.400 28.226,33.363 C28.152,33.308 28.079,33.253 28.005,33.197 C27.890,33.037 27.919,32.978 27.729,32.866 C27.729,32.884 27.729,32.903 27.729,32.921 C27.747,32.921 27.766,32.921 27.784,32.921 C27.784,32.995 27.784,33.068 27.784,33.142 C27.802,33.142 27.821,33.142 27.839,33.142 C27.839,33.197 27.839,33.253 27.839,33.308 C27.858,33.308 27.876,33.308 27.895,33.308 C27.895,33.381 27.895,33.455 27.895,33.529 C27.913,33.529 27.931,33.529 27.950,33.529 C27.950,33.621 27.950,33.713 27.950,33.805 C27.968,33.805 27.987,33.805 28.005,33.805 C28.023,33.971 28.042,34.136 28.060,34.302 C28.079,34.302 28.097,34.302 28.115,34.302 C28.134,34.468 28.152,34.633 28.171,34.799 C28.336,35.388 28.502,35.978 28.668,36.567 C28.686,36.567 28.705,36.567 28.723,36.567 C28.723,36.604 28.723,36.640 28.723,36.677 C28.742,36.677 28.760,36.677 28.778,36.677 C28.778,36.714 28.778,36.751 28.778,36.788 C28.797,36.788 28.815,36.788 28.834,36.788 C28.834,36.824 28.834,36.861 28.834,36.898 C28.852,36.898 28.870,36.898 28.889,36.898 C28.889,36.953 28.889,37.009 28.889,37.064 C28.907,37.064 28.926,37.064 28.944,37.064 C28.944,37.101 28.944,37.137 28.944,37.174 C28.962,37.174 28.981,37.174 28.999,37.174 C29.036,37.285 29.073,37.395 29.110,37.506 C29.128,37.506 29.147,37.506 29.165,37.506 C29.165,37.561 29.165,37.616 29.165,37.671 C29.183,37.671 29.202,37.671 29.220,37.671 C29.220,37.708 29.220,37.745 29.220,37.782 C29.239,37.782 29.257,37.782 29.275,37.782 C29.275,37.819 29.275,37.856 29.275,37.892 C29.294,37.892 29.312,37.892 29.331,37.892 C29.404,38.095 29.478,38.297 29.552,38.500 C29.460,38.482 29.368,38.463 29.275,38.445 C29.275,38.426 29.275,38.408 29.275,38.390 C29.220,38.390 29.165,38.390 29.110,38.390 C29.091,38.353 29.073,38.316 29.055,38.279 C28.981,38.261 28.907,38.242 28.834,38.224 C28.815,38.187 28.797,38.150 28.778,38.113 C28.742,38.113 28.705,38.113 28.668,38.113 C28.631,38.058 28.594,38.003 28.557,37.948 C28.521,37.948 28.484,37.948 28.447,37.948 C28.336,37.819 28.226,37.690 28.115,37.561 C28.042,37.506 27.968,37.450 27.895,37.395 C27.895,37.358 27.895,37.322 27.895,37.285 C27.839,37.248 27.784,37.211 27.729,37.174 C27.729,37.137 27.729,37.101 27.729,37.064 C27.692,37.045 27.655,37.027 27.618,37.009 C27.618,36.972 27.618,36.935 27.618,36.898 C27.582,36.880 27.545,36.861 27.508,36.843 C27.489,36.769 27.471,36.696 27.453,36.622 C27.416,36.604 27.379,36.585 27.342,36.567 C27.342,36.530 27.342,36.493 27.342,36.456 C27.324,36.456 27.305,36.456 27.287,36.456 C27.287,36.419 27.287,36.383 27.287,36.346 C27.269,36.346 27.250,36.346 27.232,36.346 C27.232,36.309 27.232,36.272 27.232,36.235 C27.213,36.235 27.195,36.235 27.176,36.235 C27.176,36.198 27.176,36.162 27.176,36.125 C27.158,36.125 27.140,36.125 27.121,36.125 C27.121,36.088 27.121,36.051 27.121,36.014 C27.103,36.014 27.084,36.014 27.066,36.014 C27.066,35.978 27.066,35.941 27.066,35.904 C27.048,35.904 27.029,35.904 27.011,35.904 C27.011,35.867 27.011,35.830 27.011,35.793 C26.992,35.793 26.974,35.793 26.956,35.793 C26.956,35.757 26.956,35.720 26.956,35.683 C26.937,35.683 26.919,35.683 26.900,35.683 C26.863,35.572 26.827,35.462 26.790,35.352 C26.771,35.352 26.753,35.352 26.735,35.352 C26.735,35.296 26.735,35.241 26.735,35.186 C26.716,35.186 26.698,35.186 26.679,35.186 C26.679,35.149 26.679,35.112 26.679,35.075 C26.661,35.075 26.643,35.075 26.624,35.075 C26.624,35.039 26.624,35.002 26.624,34.965 C26.606,34.965 26.587,34.965 26.569,34.965 C26.532,34.854 26.495,34.744 26.458,34.633 C26.440,34.633 26.422,34.633 26.403,34.633 C26.403,34.578 26.403,34.523 26.403,34.468 C26.385,34.468 26.366,34.468 26.348,34.468 C26.311,34.357 26.274,34.247 26.237,34.136 C26.219,34.136 26.201,34.136 26.182,34.136 C26.182,34.099 26.182,34.063 26.182,34.026 C26.164,34.026 26.145,34.026 26.127,34.026 C26.127,33.989 26.127,33.952 26.127,33.915 C26.109,33.915 26.090,33.915 26.072,33.915 C26.072,33.879 26.072,33.842 26.072,33.805 C26.053,33.805 26.035,33.805 26.016,33.805 C26.016,33.768 26.016,33.731 26.016,33.694 C25.998,33.694 25.980,33.694 25.961,33.694 C25.961,33.658 25.961,33.621 25.961,33.584 C25.943,33.584 25.924,33.584 25.906,33.584 C25.906,33.547 25.906,33.510 25.906,33.473 C25.888,33.473 25.869,33.473 25.851,33.473 C25.851,33.437 25.851,33.400 25.851,33.363 C25.814,33.345 25.777,33.326 25.740,33.308 C25.722,33.234 25.703,33.160 25.685,33.087 C25.648,33.068 25.611,33.050 25.575,33.032 C25.575,32.995 25.575,32.958 25.575,32.921 C25.556,32.921 25.538,32.921 25.519,32.921 C25.501,32.866 25.483,32.811 25.464,32.755 C25.427,32.737 25.390,32.719 25.354,32.700 C25.354,32.663 25.354,32.626 25.354,32.590 C25.298,32.553 25.243,32.516 25.188,32.479 C25.188,32.442 25.188,32.406 25.188,32.369 C25.096,32.295 25.004,32.221 24.912,32.148 C24.912,32.111 24.912,32.074 24.912,32.037 C24.875,32.019 24.838,32.000 24.801,31.982 C24.746,31.908 24.691,31.835 24.636,31.761 C24.599,31.761 24.562,31.761 24.525,31.761 C24.470,31.687 24.415,31.614 24.359,31.540 C24.323,31.540 24.286,31.540 24.249,31.540 C24.231,31.503 24.212,31.467 24.194,31.430 C24.157,31.430 24.120,31.430 24.083,31.430 C24.046,31.374 24.010,31.319 23.973,31.264 C23.936,31.264 23.899,31.264 23.862,31.264 C23.844,31.227 23.825,31.190 23.807,31.154 C23.752,31.135 23.697,31.117 23.641,31.098 C23.641,31.080 23.641,31.061 23.641,31.043 C23.604,31.043 23.568,31.043 23.531,31.043 C23.494,30.988 23.457,30.933 23.420,30.877 C23.384,30.877 23.347,30.877 23.310,30.877 C23.273,30.822 23.236,30.767 23.199,30.712 C23.163,30.712 23.126,30.712 23.089,30.712 C23.052,30.656 23.015,30.601 22.978,30.546 C22.942,30.546 22.905,30.546 22.868,30.546 C22.850,30.509 22.831,30.472 22.813,30.435 C22.776,30.435 22.739,30.435 22.702,30.435 C22.684,30.399 22.665,30.362 22.647,30.325 C22.629,30.325 22.610,30.325 22.592,30.325 C22.573,30.288 22.555,30.251 22.537,30.214 C22.500,30.214 22.463,30.214 22.426,30.214 C22.352,30.122 22.279,30.030 22.205,29.938 C22.168,29.938 22.132,29.938 22.095,29.938 C22.076,29.901 22.058,29.865 22.039,29.828 C21.911,29.717 21.782,29.607 21.653,29.496 C21.653,29.460 21.653,29.423 21.653,29.386 C21.561,29.312 21.469,29.239 21.377,29.165 C21.377,29.128 21.377,29.091 21.377,29.055 C21.321,29.018 21.266,28.981 21.211,28.944 C21.211,28.907 21.211,28.870 21.211,28.834 C21.192,28.834 21.174,28.834 21.156,28.834 C21.156,28.797 21.156,28.760 21.156,28.723 C21.137,28.723 21.119,28.723 21.100,28.723 C21.082,28.668 21.064,28.613 21.045,28.557 C21.008,28.557 20.972,28.557 20.935,28.557 C20.916,28.613 20.898,28.668 20.879,28.723 C20.861,28.723 20.843,28.723 20.824,28.723 C20.824,28.760 20.824,28.797 20.824,28.834 C20.806,28.834 20.787,28.834 20.769,28.834 C20.769,28.870 20.769,28.907 20.769,28.944 C20.714,28.981 20.659,29.018 20.603,29.055 C20.603,29.091 20.603,29.128 20.603,29.165 C20.511,29.239 20.419,29.312 20.327,29.386 C20.327,29.423 20.327,29.460 20.327,29.496 C20.198,29.607 20.069,29.717 19.940,29.828 C19.922,29.865 19.904,29.901 19.885,29.938 C19.848,29.938 19.812,29.938 19.775,29.938 C19.701,30.030 19.627,30.122 19.554,30.214 C19.517,30.214 19.480,30.214 19.443,30.214 C19.425,30.251 19.407,30.288 19.388,30.325 C19.370,30.325 19.351,30.325 19.333,30.325 C19.314,30.362 19.296,30.399 19.278,30.435 C19.241,30.435 19.204,30.435 19.167,30.435 C19.149,30.472 19.130,30.509 19.112,30.546 C19.075,30.546 19.038,30.546 19.001,30.546 C18.965,30.601 18.928,30.656 18.891,30.712 C18.854,30.712 18.817,30.712 18.780,30.712 C18.744,30.767 18.707,30.822 18.670,30.877 C18.633,30.877 18.596,30.877 18.560,30.877 C18.523,30.933 18.486,30.988 18.449,31.043 C18.412,31.043 18.375,31.043 18.339,31.043 C18.320,31.080 18.302,31.117 18.283,31.154 C18.228,31.172 18.173,31.190 18.118,31.209 C18.118,31.227 18.118,31.246 18.118,31.264 C18.081,31.264 18.044,31.264 18.007,31.264 C17.970,31.319 17.934,31.374 17.897,31.430 C17.860,31.430 17.823,31.430 17.786,31.430 C17.768,31.467 17.749,31.503 17.731,31.540 C17.694,31.540 17.657,31.540 17.621,31.540 C17.565,31.614 17.510,31.687 17.455,31.761 C17.418,31.761 17.381,31.761 17.344,31.761 C17.289,31.835 17.234,31.908 17.179,31.982 C17.142,32.000 17.105,32.019 17.068,32.037 C17.068,32.074 17.068,32.111 17.068,32.148 C16.976,32.221 16.884,32.295 16.792,32.369 C16.792,32.406 16.792,32.442 16.792,32.479 C16.737,32.516 16.681,32.553 16.626,32.590 C16.626,32.626 16.626,32.663 16.626,32.700 C16.589,32.719 16.553,32.737 16.516,32.755 C16.497,32.811 16.479,32.866 16.461,32.921 C16.442,32.921 16.424,32.921 16.405,32.921 C16.405,32.958 16.405,32.995 16.405,33.032 C16.368,33.050 16.332,33.068 16.295,33.087 C16.276,33.160 16.258,33.234 16.240,33.308 C16.203,33.326 16.166,33.345 16.129,33.363 C16.129,33.400 16.129,33.437 16.129,33.473 C16.111,33.473 16.092,33.473 16.074,33.473 C16.074,33.510 16.074,33.547 16.074,33.584 C16.055,33.584 16.037,33.584 16.019,33.584 C16.019,33.621 16.019,33.658 16.019,33.694 C16.000,33.694 15.982,33.694 15.963,33.694 C15.963,33.731 15.963,33.768 15.963,33.805 C15.945,33.805 15.927,33.805 15.908,33.805 C15.908,33.842 15.908,33.879 15.908,33.915 C15.890,33.915 15.871,33.915 15.853,33.915 C15.853,33.952 15.853,33.989 15.853,34.026 C15.835,34.026 15.816,34.026 15.798,34.026 C15.798,34.063 15.798,34.099 15.798,34.136 C15.779,34.136 15.761,34.136 15.742,34.136 C15.706,34.247 15.669,34.357 15.632,34.468 C15.614,34.468 15.595,34.468 15.577,34.468 C15.577,34.523 15.577,34.578 15.577,34.633 C15.558,34.633 15.540,34.633 15.522,34.633 C15.522,34.670 15.522,34.707 15.522,34.744 C15.503,34.744 15.485,34.744 15.466,34.744 C15.466,34.781 15.466,34.818 15.466,34.854 C15.448,34.854 15.429,34.854 15.411,34.854 C15.374,34.965 15.337,35.075 15.301,35.186 C15.282,35.186 15.264,35.186 15.245,35.186 C15.245,35.241 15.245,35.296 15.245,35.352 C15.227,35.352 15.209,35.352 15.190,35.352 C15.153,35.462 15.116,35.572 15.080,35.683 C15.061,35.683 15.043,35.683 15.024,35.683 C15.024,35.720 15.024,35.757 15.024,35.793 C15.006,35.793 14.988,35.793 14.969,35.793 C14.969,35.830 14.969,35.867 14.969,35.904 C14.951,35.904 14.932,35.904 14.914,35.904 C14.914,35.941 14.914,35.978 14.914,36.014 C14.896,36.014 14.877,36.014 14.859,36.014 C14.859,36.051 14.859,36.088 14.859,36.125 C14.840,36.125 14.822,36.125 14.803,36.125 C14.803,36.162 14.803,36.198 14.803,36.235 C14.785,36.235 14.767,36.235 14.748,36.235 C14.748,36.272 14.748,36.309 14.748,36.346 C14.730,36.346 14.711,36.346 14.693,36.346 C14.693,36.383 14.693,36.419 14.693,36.456 C14.675,36.456 14.656,36.456 14.638,36.456 C14.638,36.493 14.638,36.530 14.638,36.567 C14.601,36.585 14.564,36.604 14.527,36.622 C14.509,36.696 14.490,36.769 14.472,36.843 C14.454,36.843 14.435,36.843 14.417,36.843 C14.398,36.898 14.380,36.953 14.362,37.009 C14.325,37.027 14.288,37.045 14.251,37.064 C14.251,37.101 14.251,37.137 14.251,37.174 C13.962,37.590 13.038,38.438 12.428,38.500 C12.502,38.297 12.576,38.095 12.649,37.892 C12.668,37.892 12.686,37.892 12.704,37.892 C12.704,37.856 12.704,37.819 12.704,37.782 C12.723,37.782 12.741,37.782 12.760,37.782 C12.760,37.745 12.760,37.708 12.760,37.671 C12.778,37.671 12.797,37.671 12.815,37.671 C12.815,37.616 12.815,37.561 12.815,37.506 C12.833,37.506 12.852,37.506 12.870,37.506 C12.870,37.469 12.870,37.432 12.870,37.395 C12.889,37.395 12.907,37.395 12.925,37.395 C12.962,37.285 12.999,37.174 13.036,37.064 C13.054,37.064 13.073,37.064 13.091,37.064 C13.091,37.009 13.091,36.953 13.091,36.898 C13.110,36.898 13.128,36.898 13.146,36.898 C13.165,36.824 13.183,36.751 13.202,36.677 C13.220,36.677 13.238,36.677 13.257,36.677 C13.312,36.475 13.367,36.272 13.423,36.070 C13.441,36.070 13.459,36.070 13.478,36.070 C13.478,35.996 13.478,35.922 13.478,35.849 C13.496,35.849 13.515,35.849 13.533,35.849 C13.533,35.793 13.533,35.738 13.533,35.683 C13.551,35.683 13.570,35.683 13.588,35.683 C13.588,35.609 13.588,35.536 13.588,35.462 C13.607,35.462 13.625,35.462 13.643,35.462 C13.643,35.388 13.643,35.315 13.643,35.241 C13.662,35.241 13.680,35.241 13.699,35.241 C13.699,35.167 13.699,35.094 13.699,35.020 C13.717,35.020 13.736,35.020 13.754,35.020 C13.754,34.946 13.754,34.873 13.754,34.799 C13.772,34.799 13.791,34.799 13.809,34.799 C13.809,34.725 13.809,34.652 13.809,34.578 C13.828,34.578 13.846,34.578 13.864,34.578 C13.883,34.412 13.901,34.247 13.920,34.081 C13.938,34.081 13.956,34.081 13.975,34.081 C13.975,33.989 13.975,33.897 13.975,33.805 C14.067,33.492 14.159,33.179 14.251,32.866 C14.233,32.866 14.214,32.866 14.196,32.866 C14.104,32.995 14.012,33.124 13.920,33.253 C13.864,33.289 13.809,33.326 13.754,33.363 C13.754,33.400 13.754,33.437 13.754,33.473 C13.699,33.510 13.643,33.547 13.588,33.584 C13.588,33.621 13.588,33.658 13.588,33.694 C13.533,33.731 13.478,33.768 13.423,33.805 C13.423,33.842 13.423,33.879 13.423,33.915 C13.367,33.952 13.312,33.989 13.257,34.026 C13.257,34.063 13.257,34.099 13.257,34.136 C13.202,34.173 13.146,34.210 13.091,34.247 C13.091,34.284 13.091,34.320 13.091,34.357 C13.054,34.376 13.017,34.394 12.981,34.412 C12.981,34.449 12.981,34.486 12.981,34.523 C12.907,34.578 12.833,34.633 12.760,34.689 C12.760,34.725 12.760,34.762 12.760,34.799 C12.723,34.818 12.686,34.836 12.649,34.854 C12.631,34.910 12.612,34.965 12.594,35.020 C12.502,35.094 12.410,35.167 12.318,35.241 C12.318,35.278 12.318,35.315 12.318,35.352 C12.207,35.444 12.097,35.536 11.986,35.628 C11.620,35.994 11.275,36.395 10.826,36.677 C10.753,36.696 10.679,36.714 10.605,36.732 C10.605,36.751 10.605,36.769 10.605,36.788 C10.196,37.005 9.321,37.165 8.783,36.953 C8.783,36.935 8.783,36.917 8.783,36.898 C8.727,36.898 8.672,36.898 8.617,36.898 C8.617,36.880 8.617,36.861 8.617,36.843 C8.580,36.843 8.543,36.843 8.506,36.843 C8.506,36.824 8.506,36.806 8.506,36.788 C8.470,36.788 8.433,36.788 8.396,36.788 C8.396,36.769 8.396,36.751 8.396,36.732 C8.283,36.670 8.261,36.722 8.175,36.622 C8.341,36.567 8.506,36.511 8.672,36.456 C8.672,36.438 8.672,36.419 8.672,36.401 C8.727,36.401 8.783,36.401 8.838,36.401 C8.838,36.383 8.838,36.364 8.838,36.346 C8.875,36.346 8.912,36.346 8.948,36.346 C8.948,36.327 8.948,36.309 8.948,36.291 C8.985,36.291 9.022,36.291 9.059,36.291 C9.077,36.254 9.096,36.217 9.114,36.180 C9.225,36.143 9.335,36.106 9.445,36.070 C9.464,36.033 9.482,35.996 9.501,35.959 C9.574,35.941 9.648,35.922 9.722,35.904 C9.740,35.867 9.758,35.830 9.777,35.793 C9.814,35.793 9.851,35.793 9.887,35.793 C9.924,35.738 9.961,35.683 9.998,35.628 C11.227,34.761 12.058,33.537 12.704,32.093 C12.686,32.093 12.668,32.093 12.649,32.093 C12.458,32.420 12.084,32.658 11.821,32.921 C11.673,33.087 11.526,33.253 11.379,33.418 C11.342,33.418 11.305,33.418 11.268,33.418 C11.250,33.455 11.231,33.492 11.213,33.529 C11.195,33.529 11.176,33.529 11.158,33.529 C11.066,33.639 10.974,33.750 10.882,33.860 C10.845,33.860 10.808,33.860 10.771,33.860 C10.716,33.934 10.661,34.007 10.605,34.081 C10.569,34.081 10.532,34.081 10.495,34.081 C10.458,34.136 10.421,34.192 10.385,34.247 C10.348,34.247 10.311,34.247 10.274,34.247 C10.256,34.284 10.237,34.320 10.219,34.357 C10.164,34.376 10.108,34.394 10.053,34.412 C10.053,34.431 10.053,34.449 10.053,34.468 C10.016,34.468 9.979,34.468 9.943,34.468 C9.924,34.505 9.906,34.541 9.887,34.578 C9.851,34.578 9.814,34.578 9.777,34.578 C9.758,34.615 9.740,34.652 9.722,34.689 C9.685,34.689 9.648,34.689 9.611,34.689 C9.611,34.707 9.611,34.725 9.611,34.744 C9.574,34.744 9.538,34.744 9.501,34.744 C9.501,34.762 9.501,34.781 9.501,34.799 C9.464,34.799 9.427,34.799 9.390,34.799 C9.390,34.818 9.390,34.836 9.390,34.854 C9.353,34.854 9.317,34.854 9.280,34.854 C9.280,34.873 9.280,34.891 9.280,34.910 C9.206,34.928 9.132,34.946 9.059,34.965 C9.059,34.983 9.059,35.002 9.059,35.020 C8.948,35.038 8.838,35.057 8.727,35.075 C8.727,35.094 8.727,35.112 8.727,35.131 C8.672,35.131 8.617,35.131 8.562,35.131 C8.349,35.210 7.754,35.396 7.402,35.296 C7.402,35.278 7.402,35.259 7.402,35.241 C7.291,35.241 7.181,35.241 7.070,35.241 C7.070,35.223 7.070,35.204 7.070,35.186 C6.997,35.186 6.923,35.186 6.849,35.186 C6.849,35.167 6.849,35.149 6.849,35.131 C6.794,35.131 6.739,35.131 6.684,35.131 C6.684,35.112 6.684,35.094 6.684,35.075 C6.647,35.075 6.610,35.075 6.573,35.075 C6.441,35.007 6.357,34.898 6.187,34.854 C6.187,34.818 6.187,34.781 6.187,34.744 C6.461,34.744 6.701,34.693 6.905,34.633 C7.199,34.597 7.494,34.560 7.788,34.523 C7.788,34.505 7.788,34.486 7.788,34.468 C7.844,34.468 7.899,34.468 7.954,34.468 C7.954,34.449 7.954,34.431 7.954,34.412 C7.991,34.412 8.028,34.412 8.065,34.412 C8.065,34.394 8.065,34.376 8.065,34.357 C8.120,34.357 8.175,34.357 8.230,34.357 C8.249,34.320 8.267,34.284 8.286,34.247 C8.322,34.247 8.359,34.247 8.396,34.247 C8.396,34.228 8.396,34.210 8.396,34.192 C8.470,34.173 8.543,34.155 8.617,34.136 C8.635,34.099 8.654,34.063 8.672,34.026 C8.709,34.026 8.746,34.026 8.783,34.026 C8.801,33.989 8.819,33.952 8.838,33.915 C8.875,33.915 8.912,33.915 8.948,33.915 C9.004,33.842 9.059,33.768 9.114,33.694 C9.151,33.694 9.188,33.694 9.225,33.694 C9.335,33.566 9.445,33.437 9.556,33.308 C9.740,33.142 9.924,32.976 10.108,32.811 C10.108,32.774 10.108,32.737 10.108,32.700 C10.200,32.627 10.292,32.553 10.385,32.479 C10.385,32.442 10.385,32.406 10.385,32.369 C10.440,32.332 10.495,32.295 10.550,32.258 C10.550,32.221 10.550,32.185 10.550,32.148 C10.605,32.111 10.661,32.074 10.716,32.037 C10.716,32.000 10.716,31.964 10.716,31.927 C10.753,31.908 10.790,31.890 10.826,31.872 C10.826,31.835 10.826,31.798 10.826,31.761 C10.845,31.761 10.863,31.761 10.882,31.761 C10.900,31.706 10.918,31.651 10.937,31.595 C10.918,31.595 10.900,31.595 10.882,31.595 C10.793,31.729 10.839,31.631 10.716,31.706 C10.716,31.724 10.716,31.743 10.716,31.761 C10.679,31.761 10.642,31.761 10.605,31.761 C10.587,31.798 10.569,31.835 10.550,31.872 C10.495,31.890 10.440,31.908 10.385,31.927 C10.385,31.945 10.385,31.964 10.385,31.982 C10.348,31.982 10.311,31.982 10.274,31.982 C10.274,32.000 10.274,32.019 10.274,32.037 C10.237,32.037 10.200,32.037 10.164,32.037 C10.145,32.074 10.127,32.111 10.108,32.148 C10.035,32.166 9.961,32.185 9.887,32.203 C9.869,32.240 9.851,32.277 9.832,32.313 C9.722,32.350 9.611,32.387 9.501,32.424 C9.482,32.461 9.464,32.498 9.445,32.534 C9.372,32.553 9.298,32.571 9.225,32.590 C9.225,32.608 9.225,32.626 9.225,32.645 C9.188,32.645 9.151,32.645 9.114,32.645 C9.114,32.663 9.114,32.682 9.114,32.700 C9.004,32.737 8.893,32.774 8.783,32.811 C8.783,32.829 8.783,32.847 8.783,32.866 C8.727,32.866 8.672,32.866 8.617,32.866 C8.617,32.884 8.617,32.903 8.617,32.921 C8.543,32.940 8.470,32.958 8.396,32.976 C8.396,32.995 8.396,33.013 8.396,33.032 C8.341,33.032 8.286,33.032 8.230,33.032 C8.230,33.050 8.230,33.068 8.230,33.087 C8.193,33.087 8.157,33.087 8.120,33.087 C8.120,33.105 8.120,33.124 8.120,33.142 C8.065,33.142 8.009,33.142 7.954,33.142 C7.954,33.160 7.954,33.179 7.954,33.197 C7.880,33.197 7.807,33.197 7.733,33.197 C7.733,33.216 7.733,33.234 7.733,33.253 C7.660,33.253 7.586,33.253 7.512,33.253 C7.512,33.271 7.512,33.289 7.512,33.308 C7.439,33.308 7.365,33.308 7.291,33.308 C7.291,33.326 7.291,33.345 7.291,33.363 C7.181,33.363 7.070,33.363 6.960,33.363 C6.960,33.381 6.960,33.400 6.960,33.418 C6.615,33.516 6.120,33.384 5.910,33.308 C5.800,33.289 5.689,33.271 5.579,33.253 C5.579,33.234 5.579,33.216 5.579,33.197 C5.505,33.179 5.432,33.160 5.358,33.142 C5.358,33.124 5.358,33.105 5.358,33.087 C5.321,33.087 5.284,33.087 5.247,33.087 C5.229,33.050 5.211,33.013 5.192,32.976 C5.155,32.976 5.119,32.976 5.082,32.976 C5.027,32.903 4.971,32.829 4.916,32.755 C4.769,32.627 4.621,32.498 4.474,32.369 C4.474,32.332 4.474,32.295 4.474,32.258 C4.437,32.240 4.401,32.221 4.364,32.203 C4.345,32.129 4.327,32.056 4.308,31.982 C4.272,31.964 4.235,31.945 4.198,31.927 C4.161,31.816 4.124,31.706 4.088,31.595 C4.289,31.636 4.561,31.708 4.750,31.761 C4.990,31.761 5.229,31.761 5.468,31.761 C6.237,31.761 6.840,31.720 7.402,31.540 C7.494,31.540 7.586,31.540 7.678,31.540 C7.678,31.522 7.678,31.503 7.678,31.485 C7.733,31.485 7.788,31.485 7.844,31.485 C7.844,31.467 7.844,31.448 7.844,31.430 C7.899,31.430 7.954,31.430 8.009,31.430 C8.009,31.411 8.009,31.393 8.009,31.374 C8.065,31.374 8.120,31.374 8.175,31.374 C8.175,31.356 8.175,31.338 8.175,31.319 C8.285,31.301 8.396,31.282 8.506,31.264 C8.506,31.246 8.506,31.227 8.506,31.209 C8.543,31.209 8.580,31.209 8.617,31.209 C8.617,31.190 8.617,31.172 8.617,31.154 C8.672,31.154 8.727,31.154 8.783,31.154 C8.783,31.135 8.783,31.117 8.783,31.098 C8.893,31.061 9.004,31.025 9.114,30.988 C9.132,30.951 9.151,30.914 9.169,30.877 C9.243,30.859 9.317,30.841 9.390,30.822 C9.390,30.804 9.390,30.785 9.390,30.767 C8.453,30.771 7.781,30.881 7.070,31.098 C6.978,31.098 6.886,31.098 6.794,31.098 C6.794,31.117 6.794,31.135 6.794,31.154 C6.684,31.154 6.573,31.154 6.463,31.154 C6.463,31.172 6.463,31.190 6.463,31.209 C6.297,31.209 6.131,31.209 5.966,31.209 C5.966,31.227 5.966,31.246 5.966,31.264 C5.845,31.290 5.801,31.209 5.800,31.209 C5.653,31.209 5.505,31.209 5.358,31.209 C5.358,31.190 5.358,31.172 5.358,31.154 C5.284,31.154 5.211,31.154 5.137,31.154 C5.137,31.135 5.137,31.117 5.137,31.098 C5.082,31.098 5.027,31.098 4.971,31.098 C4.971,31.080 4.971,31.061 4.971,31.043 C4.916,31.043 4.861,31.043 4.806,31.043 C4.806,31.025 4.806,31.006 4.806,30.988 C4.769,30.988 4.732,30.988 4.695,30.988 C4.695,30.969 4.695,30.951 4.695,30.933 C4.640,30.933 4.585,30.933 4.529,30.933 C4.529,30.914 4.529,30.896 4.529,30.877 C4.493,30.877 4.456,30.877 4.419,30.877 C4.419,30.859 4.419,30.841 4.419,30.822 C4.308,30.785 4.198,30.748 4.088,30.712 C4.069,30.675 4.051,30.638 4.032,30.601 C3.995,30.601 3.959,30.601 3.922,30.601 C3.922,30.583 3.922,30.564 3.922,30.546 C3.885,30.546 3.848,30.546 3.811,30.546 C3.756,30.472 3.701,30.399 3.646,30.325 C3.609,30.325 3.572,30.325 3.535,30.325 C3.406,30.178 3.277,30.030 3.148,29.883 C3.075,29.828 3.001,29.773 2.928,29.717 C2.928,29.681 2.928,29.644 2.928,29.607 C2.854,29.552 2.780,29.496 2.707,29.441 C2.707,29.404 2.707,29.368 2.707,29.331 C2.670,29.312 2.633,29.294 2.596,29.275 C2.596,29.239 2.596,29.202 2.596,29.165 C2.578,29.165 2.559,29.165 2.541,29.165 C2.476,29.083 2.463,29.067 2.430,28.944 C2.601,28.979 2.743,29.067 2.872,29.110 C3.112,29.128 3.351,29.147 3.590,29.165 C3.590,29.183 3.590,29.202 3.590,29.220 C3.846,29.291 4.519,29.215 4.695,29.165 C4.842,29.165 4.990,29.165 5.137,29.165 C5.137,29.147 5.137,29.128 5.137,29.110 C5.229,29.110 5.321,29.110 5.413,29.110 C5.413,29.091 5.413,29.073 5.413,29.055 C5.487,29.055 5.561,29.055 5.634,29.055 C5.634,29.036 5.634,29.018 5.634,28.999 C5.689,28.999 5.745,28.999 5.800,28.999 C5.800,28.981 5.800,28.962 5.800,28.944 C5.837,28.944 5.874,28.944 5.910,28.944 C5.910,28.926 5.910,28.907 5.910,28.889 C6.002,28.870 6.094,28.852 6.187,28.834 C6.205,28.797 6.223,28.760 6.242,28.723 C6.279,28.723 6.315,28.723 6.352,28.723 C6.352,28.705 6.352,28.686 6.352,28.668 C6.407,28.631 6.463,28.594 6.518,28.557 C6.518,28.539 6.518,28.521 6.518,28.502 C6.444,28.502 6.371,28.502 6.297,28.502 C6.144,28.373 5.811,28.509 5.579,28.447 C5.579,28.429 5.579,28.410 5.579,28.392 C5.505,28.392 5.432,28.392 5.358,28.392 C5.358,28.410 5.358,28.429 5.358,28.447 C4.824,28.447 4.290,28.447 3.756,28.447 C3.756,28.429 3.756,28.410 3.756,28.392 C3.627,28.392 3.498,28.392 3.369,28.392 C3.369,28.373 3.369,28.355 3.369,28.336 C3.296,28.336 3.222,28.336 3.148,28.336 C3.148,28.318 3.148,28.300 3.148,28.281 C3.075,28.281 3.001,28.281 2.928,28.281 C2.928,28.263 2.928,28.244 2.928,28.226 C2.872,28.226 2.817,28.226 2.762,28.226 C2.762,28.208 2.762,28.189 2.762,28.171 C2.688,28.152 2.615,28.134 2.541,28.115 C2.541,28.097 2.541,28.079 2.541,28.060 C2.467,28.042 2.394,28.023 2.320,28.005 C2.320,27.987 2.320,27.968 2.320,27.950 C2.283,27.950 2.246,27.950 2.209,27.950 C2.191,27.913 2.173,27.876 2.154,27.839 C2.117,27.839 2.081,27.839 2.044,27.839 C1.901,27.739 1.952,27.630 1.712,27.563 C1.712,27.526 1.712,27.489 1.712,27.453 C1.537,27.349 1.546,27.282 1.436,27.121 C1.399,27.103 1.363,27.084 1.326,27.066 C1.307,27.011 1.289,26.956 1.270,26.900 C1.252,26.900 1.234,26.900 1.215,26.900 C1.215,26.863 1.215,26.827 1.215,26.790 C1.197,26.790 1.178,26.790 1.160,26.790 C1.142,26.716 1.123,26.643 1.105,26.569 C1.086,26.569 1.068,26.569 1.049,26.569 C0.976,26.330 0.902,26.090 0.829,25.851 C0.865,25.851 0.902,25.851 0.939,25.851 C1.036,26.015 1.159,26.030 1.326,26.127 C1.326,26.145 1.326,26.164 1.326,26.182 C1.363,26.182 1.399,26.182 1.436,26.182 C1.455,26.219 1.473,26.256 1.491,26.293 C1.583,26.311 1.676,26.330 1.768,26.348 C1.768,26.366 1.768,26.385 1.768,26.403 C1.823,26.403 1.878,26.403 1.933,26.403 C1.933,26.422 1.933,26.440 1.933,26.458 C1.989,26.458 2.044,26.458 2.099,26.458 C2.099,26.477 2.099,26.495 2.099,26.514 C2.209,26.514 2.320,26.514 2.430,26.514 C2.430,26.532 2.430,26.550 2.430,26.569 C2.927,26.550 3.425,26.532 3.922,26.514 C3.922,26.495 3.922,26.477 3.922,26.458 C4.088,26.458 4.253,26.458 4.419,26.458 C4.419,26.440 4.419,26.422 4.419,26.403 C4.585,26.403 4.750,26.403 4.916,26.403 C4.916,26.385 4.916,26.366 4.916,26.348 C5.027,26.348 5.137,26.348 5.247,26.348 C5.247,26.330 5.247,26.311 5.247,26.293 C4.898,26.256 4.548,26.219 4.198,26.182 C4.198,26.164 4.198,26.145 4.198,26.127 C4.069,26.127 3.940,26.127 3.811,26.127 C3.811,26.109 3.811,26.090 3.811,26.072 C3.701,26.072 3.590,26.072 3.480,26.072 C3.480,26.053 3.480,26.035 3.480,26.016 C3.406,26.016 3.333,26.016 3.259,26.016 C3.259,25.998 3.259,25.980 3.259,25.961 C3.185,25.961 3.112,25.961 3.038,25.961 C1.634,25.458 0.474,24.628 0.497,22.702 C0.516,22.702 0.534,22.702 0.552,22.702 C0.552,22.721 0.552,22.739 0.552,22.758 C0.571,22.758 0.589,22.758 0.608,22.758 C0.626,22.850 0.644,22.942 0.663,23.034 C0.700,23.052 0.736,23.071 0.773,23.089 C0.773,23.126 0.773,23.163 0.773,23.199 C0.865,23.273 0.957,23.347 1.049,23.420 C1.068,23.457 1.086,23.494 1.105,23.531 C1.775,24.006 2.900,24.071 3.867,24.249 C3.867,24.231 3.867,24.212 3.867,24.194 C3.811,24.175 3.756,24.157 3.701,24.138 C3.682,24.102 3.664,24.065 3.646,24.028 C3.572,24.010 3.498,23.991 3.425,23.973 C3.406,23.936 3.388,23.899 3.369,23.862 C3.296,23.844 3.222,23.825 3.148,23.807 C3.130,23.770 3.112,23.733 3.093,23.697 C2.983,23.660 2.872,23.623 2.762,23.586 C2.743,23.549 2.725,23.512 2.707,23.476 C2.670,23.476 2.633,23.476 2.596,23.476 C2.596,23.457 2.596,23.439 2.596,23.420 C2.559,23.420 2.522,23.420 2.486,23.420 C2.467,23.384 2.449,23.347 2.430,23.310 C2.320,23.273 2.209,23.236 2.099,23.199 C2.099,23.181 2.099,23.163 2.099,23.144 C2.044,23.126 1.989,23.107 1.933,23.089 C1.915,23.052 1.896,23.015 1.878,22.978 C1.841,22.978 1.804,22.978 1.768,22.978 C1.768,22.960 1.768,22.942 1.768,22.923 C1.712,22.905 1.657,22.886 1.602,22.868 C1.583,22.831 1.565,22.794 1.547,22.758 C1.510,22.758 1.473,22.758 1.436,22.758 C1.363,22.665 1.289,22.573 1.215,22.481 C0.461,21.936 -0.010,21.030 0.000,19.720 C0.018,19.720 0.037,19.720 0.055,19.720 C0.055,19.756 0.055,19.793 0.055,19.830 C0.074,19.830 0.092,19.830 0.110,19.830 C0.129,19.922 0.147,20.014 0.166,20.106 C0.368,20.327 0.571,20.548 0.773,20.769 C0.810,20.769 0.847,20.769 0.884,20.769 C0.921,20.824 0.957,20.879 0.994,20.935 C1.068,20.953 1.142,20.972 1.215,20.990 C1.234,21.027 1.252,21.064 1.270,21.100 C1.344,21.119 1.418,21.137 1.491,21.156 C1.491,21.174 1.491,21.192 1.491,21.211 C1.565,21.229 1.639,21.248 1.712,21.266 C1.712,21.285 1.712,21.303 1.712,21.321 C1.768,21.321 1.823,21.321 1.878,21.321 C1.878,21.340 1.878,21.358 1.878,21.377 C1.952,21.395 2.025,21.413 2.099,21.432 C2.099,21.450 2.099,21.469 2.099,21.487 C2.154,21.487 2.209,21.487 2.265,21.487 C2.265,21.505 2.265,21.524 2.265,21.542 C2.302,21.542 2.338,21.542 2.375,21.542 C2.375,21.561 2.375,21.579 2.375,21.598 C2.430,21.598 2.486,21.598 2.541,21.598 C2.541,21.616 2.541,21.634 2.541,21.653 C2.578,21.653 2.615,21.653 2.651,21.653 C2.651,21.671 2.651,21.690 2.651,21.708 C2.707,21.708 2.762,21.708 2.817,21.708 C3.050,21.811 3.309,21.977 3.590,22.039 C3.590,22.021 3.590,22.003 3.590,21.984 C3.480,21.892 3.369,21.800 3.259,21.708 C3.241,21.671 3.222,21.634 3.204,21.598 C3.167,21.598 3.130,21.598 3.093,21.598 C3.056,21.542 3.020,21.487 2.983,21.432 C2.946,21.432 2.909,21.432 2.872,21.432 C2.854,21.395 2.835,21.358 2.817,21.321 C2.780,21.321 2.743,21.321 2.707,21.321 C2.670,21.266 2.633,21.211 2.596,21.156 C2.559,21.156 2.522,21.156 2.486,21.156 C2.486,21.137 2.486,21.119 2.486,21.100 C2.430,21.082 2.375,21.064 2.320,21.045 C2.302,21.008 2.283,20.972 2.265,20.935 C2.228,20.935 2.191,20.935 2.154,20.935 C2.117,20.879 2.081,20.824 2.044,20.769 C2.007,20.769 1.970,20.769 1.933,20.769 C1.915,20.732 1.896,20.695 1.878,20.659 C1.841,20.659 1.804,20.659 1.768,20.659 C1.712,20.585 1.657,20.511 1.602,20.438 C1.565,20.438 1.528,20.438 1.491,20.438 C1.418,20.346 1.344,20.253 1.270,20.161 C1.142,20.051 1.013,19.940 0.884,19.830 C0.884,19.793 0.884,19.756 0.884,19.720 C0.829,19.683 0.773,19.646 0.718,19.609 C0.718,19.572 0.718,19.535 0.718,19.499 C0.663,19.462 0.608,19.425 0.552,19.388 C0.552,19.351 0.552,19.314 0.552,19.278 C0.516,19.259 0.479,19.241 0.442,19.222 C0.442,19.186 0.442,19.149 0.442,19.112 C0.423,19.112 0.405,19.112 0.387,19.112 C0.387,19.075 0.387,19.038 0.387,19.001 C0.368,19.001 0.350,19.001 0.331,19.001 C0.331,18.965 0.331,18.928 0.331,18.891 C0.313,18.891 0.295,18.891 0.276,18.891 C0.276,18.854 0.276,18.817 0.276,18.780 C0.258,18.780 0.239,18.780 0.221,18.780 C0.221,18.744 0.221,18.707 0.221,18.670 C0.203,18.670 0.184,18.670 0.166,18.670 C0.166,18.615 0.166,18.560 0.166,18.504 C0.147,18.504 0.129,18.504 0.110,18.504 C0.110,18.431 0.110,18.357 0.110,18.283 C0.009,17.965 -0.000,17.564 0.000,17.123 C0.018,16.792 0.037,16.461 0.055,16.129 C0.074,16.129 0.092,16.129 0.110,16.129 C0.110,16.019 0.110,15.908 0.110,15.798 C0.129,15.798 0.147,15.798 0.166,15.798 C0.166,15.706 0.166,15.614 0.166,15.522 C0.184,15.522 0.203,15.522 0.221,15.522 C0.221,15.448 0.221,15.374 0.221,15.301 C0.239,15.301 0.258,15.301 0.276,15.301 C0.276,15.245 0.276,15.190 0.276,15.135 C0.295,15.135 0.313,15.135 0.331,15.135 C0.331,15.080 0.331,15.024 0.331,14.969 C0.350,14.969 0.368,14.969 0.387,14.969 C0.387,14.914 0.387,14.859 0.387,14.803 C0.405,14.803 0.423,14.803 0.442,14.803 C0.442,14.767 0.442,14.730 0.442,14.693 C0.460,14.693 0.479,14.693 0.497,14.693 C0.497,14.638 0.497,14.582 0.497,14.527 C0.516,14.527 0.534,14.527 0.552,14.527 C0.571,14.472 0.589,14.417 0.608,14.362 C0.644,14.362 0.681,14.362 0.718,14.362 C0.716,14.634 0.771,14.831 0.829,15.024 C0.829,15.135 0.829,15.245 0.829,15.356 C0.847,15.356 0.865,15.356 0.884,15.356 C0.884,15.448 0.884,15.540 0.884,15.632 C0.902,15.632 0.921,15.632 0.939,15.632 C0.939,15.706 0.939,15.779 0.939,15.853 C0.957,15.853 0.976,15.853 0.994,15.853 C0.994,15.908 0.994,15.963 0.994,16.019 C1.013,16.019 1.031,16.019 1.049,16.019 C1.049,16.074 1.049,16.129 1.049,16.184 C1.068,16.184 1.086,16.184 1.105,16.184 C1.142,16.295 1.178,16.405 1.215,16.516 C1.252,16.534 1.289,16.553 1.326,16.571 C1.326,16.608 1.326,16.645 1.326,16.681 C1.399,16.737 1.473,16.792 1.547,16.847 C1.565,16.902 1.583,16.958 1.602,17.013 C1.712,17.105 1.823,17.197 1.933,17.289 C2.089,17.446 2.177,17.672 2.375,17.786 C2.375,17.731 2.375,17.676 2.375,17.621 C2.228,17.160 2.081,16.700 1.933,16.240 C1.915,16.240 1.896,16.240 1.878,16.240 C1.878,16.203 1.878,16.166 1.878,16.129 C1.860,16.129 1.841,16.129 1.823,16.129 C1.823,16.074 1.823,16.019 1.823,15.963 C1.804,15.963 1.786,15.963 1.768,15.963 C1.768,15.927 1.768,15.890 1.768,15.853 C1.749,15.853 1.731,15.853 1.712,15.853 C1.712,15.798 1.712,15.742 1.712,15.687 C1.694,15.687 1.676,15.687 1.657,15.687 C1.657,15.650 1.657,15.614 1.657,15.577 C1.639,15.577 1.620,15.577 1.602,15.577 C1.602,15.522 1.602,15.466 1.602,15.411 C1.583,15.411 1.565,15.411 1.547,15.411 C1.547,15.374 1.547,15.337 1.547,15.301 C1.528,15.301 1.510,15.301 1.491,15.301 C1.491,15.245 1.491,15.190 1.491,15.135 C1.473,15.135 1.455,15.135 1.436,15.135 C1.436,15.098 1.436,15.061 1.436,15.024 C1.418,15.024 1.399,15.024 1.381,15.024 C1.363,14.914 1.344,14.803 1.326,14.693 C1.307,14.693 1.289,14.693 1.270,14.693 C1.270,14.619 1.270,14.546 1.270,14.472 C1.252,14.472 1.234,14.472 1.215,14.472 C1.215,14.380 1.215,14.288 1.215,14.196 C1.197,14.196 1.178,14.196 1.160,14.196 C1.160,14.085 1.160,13.975 1.160,13.864 C1.142,13.864 1.123,13.864 1.105,13.864 C1.009,13.527 1.150,12.653 1.215,12.428 C1.215,12.318 1.215,12.207 1.215,12.097 C1.381,11.563 1.547,11.029 1.712,10.495 C1.731,10.495 1.749,10.495 1.768,10.495 C1.768,10.458 1.768,10.421 1.768,10.385 C1.786,10.385 1.804,10.385 1.823,10.385 C1.823,10.329 1.823,10.274 1.823,10.219 C1.841,10.219 1.860,10.219 1.878,10.219 C1.915,10.108 1.952,9.998 1.989,9.887 C2.007,9.887 2.025,9.887 2.044,9.887 C2.044,9.851 2.044,9.814 2.044,9.777 C2.062,9.777 2.081,9.777 2.099,9.777 C2.099,9.740 2.099,9.703 2.099,9.666 C2.117,9.666 2.136,9.666 2.154,9.666 C2.154,9.630 2.154,9.593 2.154,9.556 C2.173,9.556 2.191,9.556 2.209,9.556 C2.209,9.519 2.209,9.482 2.209,9.445 C2.228,9.445 2.246,9.445 2.265,9.445 C2.265,9.409 2.265,9.372 2.265,9.335 C2.283,9.335 2.302,9.335 2.320,9.335 C2.320,9.298 2.320,9.261 2.320,9.225 C2.338,9.225 2.357,9.225 2.375,9.225 C2.375,9.188 2.375,9.151 2.375,9.114 C2.412,9.096 2.449,9.077 2.486,9.059 C2.504,8.985 2.522,8.912 2.541,8.838 C2.578,8.819 2.615,8.801 2.651,8.783 C2.670,8.727 2.688,8.672 2.707,8.617 C2.780,8.562 2.854,8.506 2.928,8.451 C2.928,8.414 2.928,8.378 2.928,8.341 C2.983,8.304 3.038,8.267 3.093,8.230 C3.266,7.987 3.384,7.718 3.646,7.567 C3.646,7.604 3.646,7.641 3.646,7.678 C3.627,7.678 3.609,7.678 3.590,7.678 C3.572,7.788 3.554,7.899 3.535,8.009 C3.517,8.009 3.498,8.009 3.480,8.009 C3.480,8.065 3.480,8.120 3.480,8.175 C3.462,8.175 3.443,8.175 3.425,8.175 C3.425,8.230 3.425,8.286 3.425,8.341 C3.406,8.341 3.388,8.341 3.369,8.341 C3.369,8.414 3.369,8.488 3.369,8.562 C3.351,8.562 3.333,8.562 3.314,8.562 C3.314,8.617 3.314,8.672 3.314,8.727 C3.296,8.727 3.277,8.727 3.259,8.727 C3.259,8.783 3.259,8.838 3.259,8.893 C3.241,8.893 3.222,8.893 3.204,8.893 C3.204,8.948 3.204,9.004 3.204,9.059 C3.185,9.059 3.167,9.059 3.148,9.059 C3.148,9.114 3.148,9.169 3.148,9.225 C3.130,9.225 3.112,9.225 3.093,9.225 C3.075,9.372 3.056,9.519 3.038,9.666 C3.020,9.666 3.001,9.666 2.983,9.666 C2.964,9.814 2.946,9.961 2.928,10.108 C2.909,10.108 2.891,10.108 2.872,10.108 C2.854,10.329 2.835,10.550 2.817,10.771 C2.760,10.972 2.625,11.748 2.707,12.042 C2.725,12.042 2.743,12.042 2.762,12.042 C2.762,12.207 2.762,12.373 2.762,12.539 C2.872,12.870 2.983,13.202 3.093,13.533 C3.112,13.533 3.130,13.533 3.148,13.533 C3.271,11.628 3.577,9.962 4.198,8.562 C4.198,8.506 4.198,8.451 4.198,8.396 C4.216,8.396 4.235,8.396 4.253,8.396 C4.253,8.359 4.253,8.322 4.253,8.286 C4.272,8.286 4.290,8.286 4.308,8.286 C4.308,8.230 4.308,8.175 4.308,8.120 C4.327,8.120 4.345,8.120 4.364,8.120 C4.382,8.046 4.401,7.972 4.419,7.899 C4.437,7.899 4.456,7.899 4.474,7.899 C4.474,7.862 4.474,7.825 4.474,7.788 C4.493,7.788 4.511,7.788 4.529,7.788 C4.529,7.733 4.529,7.678 4.529,7.623 C4.548,7.623 4.566,7.623 4.585,7.623 C4.621,7.512 4.658,7.402 4.695,7.291 C4.714,7.291 4.732,7.291 4.750,7.291 C4.750,7.254 4.750,7.218 4.750,7.181 C4.769,7.181 4.787,7.181 4.806,7.181 C4.806,7.144 4.806,7.107 4.806,7.070 C4.824,7.070 4.842,7.070 4.861,7.070 C4.861,7.033 4.861,6.997 4.861,6.960 C4.879,6.960 4.898,6.960 4.916,6.960 C4.916,6.923 4.916,6.886 4.916,6.849 C4.934,6.849 4.953,6.849 4.971,6.849 C4.971,6.813 4.971,6.776 4.971,6.739 C4.990,6.739 5.008,6.739 5.027,6.739 C5.027,6.702 5.027,6.665 5.027,6.628 C5.063,6.610 5.100,6.592 5.137,6.573 C5.137,6.536 5.137,6.500 5.137,6.463 C5.155,6.463 5.174,6.463 5.192,6.463 C5.192,6.426 5.192,6.389 5.192,6.352 C5.211,6.352 5.229,6.352 5.247,6.352 C5.247,6.315 5.247,6.279 5.247,6.242 C5.266,6.242 5.284,6.242 5.303,6.242 C5.303,6.205 5.303,6.168 5.303,6.131 C5.340,6.113 5.376,6.094 5.413,6.076 C5.413,6.039 5.413,6.002 5.413,5.966 C5.432,5.966 5.450,5.966 5.468,5.966 C5.468,5.929 5.468,5.892 5.468,5.855 C5.505,5.837 5.542,5.818 5.579,5.800 C5.579,5.763 5.579,5.726 5.579,5.689 C5.597,5.689 5.616,5.689 5.634,5.689 C5.653,5.634 5.671,5.579 5.689,5.524 C5.726,5.505 5.763,5.487 5.800,5.468 C5.800,5.432 5.800,5.395 5.800,5.358 C5.837,5.340 5.874,5.321 5.910,5.303 C5.910,5.266 5.910,5.229 5.910,5.192 C5.929,5.192 5.947,5.192 5.966,5.192 C5.984,5.137 6.002,5.082 6.021,5.027 C6.058,5.008 6.094,4.990 6.131,4.971 C6.131,4.934 6.131,4.898 6.131,4.861 C6.187,4.824 6.242,4.787 6.297,4.750 C6.297,4.714 6.297,4.677 6.297,4.640 C6.352,4.603 6.407,4.566 6.463,4.529 C6.463,4.493 6.463,4.456 6.463,4.419 C6.536,4.364 6.610,4.308 6.684,4.253 C6.684,4.216 6.684,4.180 6.684,4.143 C6.776,4.069 6.868,3.995 6.960,3.922 C6.960,3.885 6.960,3.848 6.960,3.811 C7.199,3.590 7.439,3.369 7.678,3.148 C7.825,2.983 7.973,2.817 8.120,2.651 C8.157,2.651 8.193,2.651 8.230,2.651 C8.322,2.541 8.414,2.430 8.506,2.320 C8.562,2.302 8.617,2.283 8.672,2.265 C8.691,2.228 8.709,2.191 8.727,2.154 C8.764,2.154 8.801,2.154 8.838,2.154 C8.856,2.117 8.875,2.081 8.893,2.044 C8.930,2.044 8.967,2.044 9.004,2.044 C9.040,1.989 9.077,1.933 9.114,1.878 C9.151,1.878 9.188,1.878 9.225,1.878 C9.243,1.841 9.261,1.804 9.280,1.768 C9.335,1.749 9.390,1.731 9.445,1.712 C9.445,1.694 9.445,1.676 9.445,1.657 C9.482,1.657 9.519,1.657 9.556,1.657 C9.574,1.620 9.593,1.583 9.611,1.547 C9.666,1.528 9.722,1.510 9.777,1.491 C9.777,1.473 9.777,1.455 9.777,1.436 C9.814,1.436 9.851,1.436 9.887,1.436 C9.887,1.418 9.887,1.399 9.887,1.381 C9.924,1.381 9.961,1.381 9.998,1.381 C9.998,1.363 9.998,1.344 9.998,1.326 C10.035,1.326 10.072,1.326 10.108,1.326 C10.108,1.307 10.108,1.289 10.108,1.270 C10.145,1.270 10.182,1.270 10.219,1.270 C10.237,1.234 10.256,1.197 10.274,1.160 C10.348,1.142 10.421,1.123 10.495,1.105 C10.495,1.086 10.495,1.068 10.495,1.049 C10.569,1.031 10.642,1.013 10.716,0.994 C10.716,0.976 10.716,0.957 10.716,0.939 C10.771,0.939 10.826,0.939 10.882,0.939 C10.882,0.921 10.882,0.902 10.882,0.884 C10.955,0.865 11.029,0.847 11.103,0.829 C11.103,0.810 11.103,0.792 11.103,0.773 C11.158,0.773 11.213,0.773 11.268,0.773 C11.268,0.755 11.268,0.736 11.268,0.718 C11.305,0.718 11.342,0.718 11.379,0.718 C11.379,0.700 11.379,0.681 11.379,0.663 C11.434,0.663 11.489,0.663 11.544,0.663 C11.544,0.644 11.544,0.626 11.544,0.608 C11.581,0.608 11.618,0.608 11.655,0.608 C11.655,0.589 11.655,0.571 11.655,0.552 C11.765,0.534 11.876,0.516 11.986,0.497 C11.986,0.479 11.986,0.460 11.986,0.442 C12.060,0.442 12.134,0.442 12.207,0.442 C12.807,0.227 13.601,0.042 14.362,0.000 C14.362,0.018 14.362,0.037 14.362,0.055 C14.343,0.055 14.325,0.055 14.306,0.055 C14.209,0.166 14.186,0.101 14.085,0.166 C14.067,0.203 14.049,0.239 14.030,0.276 C13.993,0.276 13.956,0.276 13.920,0.276 C13.920,0.295 13.920,0.313 13.920,0.331 C13.883,0.331 13.846,0.331 13.809,0.331 C13.791,0.368 13.772,0.405 13.754,0.442 C13.717,0.442 13.680,0.442 13.643,0.442 C13.643,0.460 13.643,0.479 13.643,0.497 C13.607,0.497 13.570,0.497 13.533,0.497 C13.515,0.534 13.496,0.571 13.478,0.608 C13.441,0.608 13.404,0.608 13.367,0.608 C13.367,0.626 13.367,0.644 13.367,0.663 C13.330,0.663 13.294,0.663 13.257,0.663 C13.238,0.700 13.220,0.736 13.202,0.773 C13.128,0.792 13.054,0.810 12.981,0.829 C12.962,0.865 12.944,0.902 12.925,0.939 C12.852,0.957 12.778,0.976 12.704,0.994 C12.686,1.031 12.668,1.068 12.649,1.105 C12.576,1.123 12.502,1.142 12.428,1.160 C12.410,1.197 12.391,1.234 12.373,1.270 C12.299,1.289 12.226,1.307 12.152,1.326 C12.134,1.363 12.115,1.399 12.097,1.436 C12.023,1.455 11.950,1.473 11.876,1.491 C11.857,1.528 11.839,1.565 11.821,1.602 C11.747,1.620 11.673,1.639 11.600,1.657 C11.581,1.694 11.563,1.731 11.544,1.768 C11.508,1.768 11.471,1.768 11.434,1.768 C11.434,1.786 11.434,1.804 11.434,1.823 C11.397,1.823 11.360,1.823 11.324,1.823 C11.287,1.878 11.250,1.933 11.213,1.989 C11.176,1.989 11.139,1.989 11.103,1.989 C11.066,2.044 11.029,2.099 10.992,2.154 C10.955,2.154 10.918,2.154 10.882,2.154 C10.845,2.209 10.808,2.265 10.771,2.320 C10.734,2.320 10.698,2.320 10.661,2.320 C10.605,2.394 10.550,2.467 10.495,2.541 C10.458,2.541 10.421,2.541 10.385,2.541 C10.311,2.633 10.237,2.725 10.164,2.817 C10.127,2.817 10.090,2.817 10.053,2.817 C9.906,2.983 9.758,3.149 9.611,3.314 C9.574,3.314 9.538,3.314 9.501,3.314 C9.390,3.443 9.280,3.572 9.169,3.701 C9.114,3.738 9.059,3.775 9.004,3.811 C9.004,3.848 9.004,3.885 9.004,3.922 C8.838,4.069 8.672,4.216 8.506,4.364 C8.506,4.401 8.506,4.437 8.506,4.474 C8.414,4.548 8.322,4.621 8.230,4.695 C8.230,4.732 8.230,4.769 8.230,4.806 C8.157,4.861 8.083,4.916 8.009,4.971 C7.991,5.027 7.972,5.082 7.954,5.137 C7.917,5.155 7.880,5.174 7.844,5.192 C7.844,5.229 7.844,5.266 7.844,5.303 C7.807,5.321 7.770,5.340 7.733,5.358 C7.733,5.395 7.733,5.432 7.733,5.468 C7.678,5.505 7.623,5.542 7.567,5.579 C7.549,5.653 7.531,5.726 7.512,5.800 C7.475,5.818 7.439,5.837 7.402,5.855 C7.402,5.892 7.402,5.929 7.402,5.966 C7.365,5.984 7.328,6.002 7.291,6.021 C7.291,6.058 7.291,6.094 7.291,6.131 C7.254,6.150 7.218,6.168 7.181,6.187 C7.162,6.260 7.144,6.334 7.126,6.407 C7.089,6.426 7.052,6.444 7.015,6.463 C7.015,6.500 7.015,6.536 7.015,6.573 C6.997,6.573 6.978,6.573 6.960,6.573 C6.960,6.610 6.960,6.647 6.960,6.684 C6.941,6.684 6.923,6.684 6.905,6.684 C6.905,6.720 6.905,6.757 6.905,6.794 C6.886,6.794 6.868,6.794 6.849,6.794 C6.849,6.831 6.849,6.868 6.849,6.905 C6.831,6.905 6.813,6.905 6.794,6.905 C6.794,6.941 6.794,6.978 6.794,7.015 C6.757,7.033 6.720,7.052 6.684,7.070 C6.684,7.107 6.684,7.144 6.684,7.181 C6.665,7.181 6.647,7.181 6.628,7.181 C6.628,7.218 6.628,7.254 6.628,7.291 C6.610,7.291 6.592,7.291 6.573,7.291 C6.573,7.346 6.573,7.402 6.573,7.457 C6.555,7.457 6.536,7.457 6.518,7.457 C6.518,7.494 6.518,7.531 6.518,7.567 C6.500,7.567 6.481,7.567 6.463,7.567 C6.426,7.678 6.389,7.788 6.352,7.899 C6.334,7.899 6.315,7.899 6.297,7.899 C6.297,7.954 6.297,8.009 6.297,8.065 C6.279,8.065 6.260,8.065 6.242,8.065 C6.223,8.138 6.205,8.212 6.187,8.286 C6.168,8.286 6.150,8.286 6.131,8.286 C5.984,8.746 5.837,9.206 5.689,9.666 C5.708,9.666 5.726,9.666 5.745,9.666 C5.868,9.525 5.952,9.581 6.131,9.501 C6.131,9.482 6.131,9.464 6.131,9.445 C6.242,9.409 6.352,9.372 6.463,9.335 C6.463,9.353 6.463,9.372 6.463,9.390 C6.315,9.489 6.287,9.628 6.187,9.777 C6.150,9.795 6.113,9.814 6.076,9.832 C6.076,9.869 6.076,9.906 6.076,9.943 C6.039,9.961 6.002,9.979 5.966,9.998 C5.966,10.035 5.966,10.072 5.966,10.108 C5.453,10.884 5.148,11.686 5.137,12.981 C5.155,12.981 5.174,12.981 5.192,12.981 C5.289,12.817 5.626,12.577 5.800,12.484 C5.800,12.520 5.800,12.557 5.800,12.594 C5.627,12.740 5.617,12.967 5.524,13.202 C5.276,13.829 5.247,14.402 5.247,15.301 C5.248,16.369 5.495,17.291 5.800,18.062 C5.837,18.228 5.874,18.394 5.910,18.560 C5.929,18.560 5.947,18.560 5.966,18.560 C5.966,18.596 5.966,18.633 5.966,18.670 C5.984,18.670 6.002,18.670 6.021,18.670 C6.021,18.725 6.021,18.780 6.021,18.836 C6.039,18.836 6.058,18.836 6.076,18.836 C6.094,18.909 6.113,18.983 6.131,19.057 C6.150,19.057 6.168,19.057 6.187,19.057 C6.187,19.112 6.187,19.167 6.187,19.222 C6.205,19.222 6.223,19.222 6.242,19.222 C6.279,19.333 6.315,19.443 6.352,19.554 C6.371,19.554 6.389,19.554 6.407,19.554 C6.407,19.591 6.407,19.627 6.407,19.664 C6.426,19.664 6.444,19.664 6.463,19.664 C6.500,19.775 6.536,19.885 6.573,19.996 C6.610,20.014 6.647,20.033 6.684,20.051 C6.684,20.088 6.684,20.125 6.684,20.161 C6.763,20.299 6.859,20.354 6.905,20.548 C7.012,20.460 7.053,20.347 7.181,20.272 C7.198,20.613 7.303,20.908 7.402,21.156 C7.402,21.211 7.402,21.266 7.402,21.321 C7.420,21.321 7.439,21.321 7.457,21.321 C7.457,21.358 7.457,21.395 7.457,21.432 C7.475,21.432 7.494,21.432 7.512,21.432 C7.567,21.598 7.623,21.763 7.678,21.929 C7.715,21.947 7.752,21.966 7.788,21.984 C7.788,22.021 7.788,22.058 7.788,22.095 C7.807,22.095 7.825,22.095 7.844,22.095 C7.862,22.150 7.880,22.205 7.899,22.260 C7.936,22.279 7.973,22.297 8.009,22.316 C8.009,22.352 8.009,22.389 8.009,22.426 C8.101,22.500 8.193,22.573 8.286,22.647 C8.286,22.684 8.286,22.721 8.286,22.758 C8.322,22.776 8.359,22.794 8.396,22.813 C8.470,22.905 8.543,22.997 8.617,23.089 C8.654,23.089 8.691,23.089 8.727,23.089 C8.783,23.163 8.838,23.236 8.893,23.310 C8.930,23.310 8.967,23.310 9.004,23.310 C9.040,23.365 9.077,23.420 9.114,23.476 C9.151,23.476 9.188,23.476 9.225,23.476 C9.261,23.531 9.298,23.586 9.335,23.641 C9.372,23.641 9.409,23.641 9.445,23.641 C9.464,23.678 9.482,23.715 9.501,23.752 C9.538,23.752 9.574,23.752 9.611,23.752 C9.648,23.807 9.685,23.862 9.722,23.918 C9.758,23.918 9.795,23.918 9.832,23.918 C9.851,23.954 9.869,23.991 9.887,24.028 C9.961,24.046 10.035,24.065 10.108,24.083 C10.127,24.120 10.145,24.157 10.164,24.194 C10.219,24.212 10.274,24.231 10.329,24.249 C10.329,24.267 10.329,24.286 10.329,24.304 C10.440,24.341 10.550,24.378 10.661,24.415 C10.679,24.451 10.698,24.488 10.716,24.525 C10.826,24.562 10.937,24.599 11.047,24.636 C11.047,24.654 11.047,24.672 11.047,24.691 C11.084,24.691 11.121,24.691 11.158,24.691 C11.158,24.709 11.158,24.728 11.158,24.746 C11.195,24.746 11.231,24.746 11.268,24.746 C11.268,24.764 11.268,24.783 11.268,24.801 C11.379,24.838 11.489,24.875 11.600,24.912 C11.600,24.930 11.600,24.949 11.600,24.967 C11.692,24.985 11.784,25.004 11.876,25.022 C11.876,25.041 11.876,25.059 11.876,25.077 C11.913,25.077 11.950,25.077 11.986,25.077 C11.986,25.096 11.986,25.114 11.986,25.133 C12.042,25.133 12.097,25.133 12.152,25.133 C12.152,25.151 12.152,25.170 12.152,25.188 C12.189,25.188 12.226,25.188 12.263,25.188 C12.263,25.206 12.263,25.225 12.263,25.243 C12.318,25.243 12.373,25.243 12.428,25.243 C12.428,25.262 12.428,25.280 12.428,25.298 C12.483,25.298 12.539,25.298 12.594,25.298 C12.594,25.317 12.594,25.335 12.594,25.354 C12.668,25.354 12.741,25.354 12.815,25.354 C12.815,25.372 12.815,25.390 12.815,25.409 C12.889,25.409 12.962,25.409 13.036,25.409 C13.036,25.427 13.036,25.446 13.036,25.464 C13.128,25.464 13.220,25.464 13.312,25.464 C13.312,25.483 13.312,25.501 13.312,25.519 C13.404,25.519 13.496,25.519 13.588,25.519 C13.588,25.538 13.588,25.556 13.588,25.575 C13.680,25.575 13.772,25.575 13.864,25.575 C13.864,25.593 13.864,25.611 13.864,25.630 C13.956,25.630 14.049,25.630 14.141,25.630 C14.859,25.869 15.577,26.109 16.295,26.348 C16.555,26.428 17.555,26.459 17.897,26.403 C17.975,26.390 18.081,26.308 18.228,26.348 C18.228,26.366 18.228,26.385 18.228,26.403 C18.523,26.422 18.817,26.440 19.112,26.458 C19.780,26.668 20.660,26.970 20.935,27.563 C21.046,27.531 20.983,27.570 21.045,27.508 C21.156,27.379 21.266,27.250 21.377,27.121 C21.413,27.121 21.450,27.121 21.487,27.121 C21.524,27.066 21.561,27.011 21.598,26.956 C21.671,26.937 21.745,26.919 21.819,26.900 C21.819,26.882 21.819,26.863 21.819,26.845 C21.929,26.808 22.039,26.771 22.150,26.735 C22.150,26.716 22.150,26.698 22.150,26.679 C22.316,26.643 22.481,26.606 22.647,26.569 C22.647,26.550 22.647,26.532 22.647,26.514 C22.721,26.514 22.794,26.514 22.868,26.514 C22.868,26.495 22.868,26.477 22.868,26.458 C23.163,26.440 23.457,26.422 23.752,26.403 C23.752,26.385 23.752,26.366 23.752,26.348 C23.844,26.348 23.936,26.348 24.028,26.348 C24.028,26.366 24.028,26.385 24.028,26.403 C24.470,26.403 24.912,26.403 25.354,26.403 C25.354,26.385 25.354,26.366 25.354,26.348 C25.464,26.348 25.575,26.348 25.685,26.348 C25.685,26.330 25.685,26.311 25.685,26.293 C25.759,26.293 25.832,26.293 25.906,26.293 C25.906,26.274 25.906,26.256 25.906,26.237 C25.980,26.237 26.053,26.237 26.127,26.237 C26.127,26.219 26.127,26.201 26.127,26.182 C26.182,26.182 26.237,26.182 26.293,26.182 C26.293,26.164 26.293,26.145 26.293,26.127 C26.348,26.127 26.403,26.127 26.458,26.127 C26.458,26.109 26.458,26.090 26.458,26.072 C26.514,26.072 26.569,26.072 26.624,26.072 C26.624,26.053 26.624,26.035 26.624,26.016 C26.679,26.016 26.735,26.016 26.790,26.016 C26.790,25.998 26.790,25.980 26.790,25.961 C26.827,25.961 26.863,25.961 26.900,25.961 C26.900,25.943 26.900,25.924 26.900,25.906 C27.066,25.869 27.232,25.832 27.397,25.796 C27.397,25.777 27.397,25.759 27.397,25.740 C27.545,25.722 27.692,25.703 27.839,25.685 C27.839,25.667 27.839,25.648 27.839,25.630 C27.931,25.630 28.023,25.630 28.115,25.630 C28.115,25.611 28.115,25.593 28.115,25.575 C28.208,25.575 28.300,25.575 28.392,25.575 C28.392,25.556 28.392,25.538 28.392,25.519 C28.484,25.519 28.576,25.519 28.668,25.519 C28.668,25.501 28.668,25.483 28.668,25.464 C28.760,25.464 28.852,25.464 28.944,25.464 C28.944,25.446 28.944,25.427 28.944,25.409 C29.018,25.409 29.091,25.409 29.165,25.409 C29.165,25.390 29.165,25.372 29.165,25.354 C29.239,25.354 29.312,25.354 29.386,25.354 C29.386,25.335 29.386,25.317 29.386,25.298 C29.441,25.298 29.496,25.298 29.552,25.298 C29.552,25.280 29.552,25.262 29.552,25.243 C29.607,25.243 29.662,25.243 29.717,25.243 C29.717,25.225 29.717,25.206 29.717,25.188 C29.754,25.188 29.791,25.188 29.828,25.188 C29.828,25.170 29.828,25.151 29.828,25.133 C29.883,25.133 29.938,25.133 29.994,25.133 C29.994,25.114 29.994,25.096 29.994,25.077 C30.030,25.077 30.067,25.077 30.104,25.077 C30.104,25.059 30.104,25.041 30.104,25.022 C30.196,25.004 30.288,24.985 30.380,24.967 C30.380,24.949 30.380,24.930 30.380,24.912 C30.491,24.875 30.601,24.838 30.712,24.801 C30.712,24.783 30.712,24.764 30.712,24.746 C30.748,24.746 30.785,24.746 30.822,24.746 C30.822,24.728 30.822,24.709 30.822,24.691 C30.859,24.691 30.896,24.691 30.933,24.691 C30.933,24.672 30.933,24.654 30.933,24.636 C31.043,24.599 31.154,24.562 31.264,24.525 C31.282,24.488 31.301,24.451 31.319,24.415 C31.430,24.378 31.540,24.341 31.651,24.304 C31.651,24.286 31.651,24.267 31.651,24.249 C31.706,24.231 31.761,24.212 31.816,24.194 C31.835,24.157 31.853,24.120 31.872,24.083 C31.945,24.065 32.019,24.046 32.093,24.028 C32.111,23.991 32.129,23.954 32.148,23.918 C32.185,23.918 32.221,23.918 32.258,23.918 C32.295,23.862 32.332,23.807 32.369,23.752 C32.406,23.752 32.442,23.752 32.479,23.752 C32.498,23.715 32.516,23.678 32.534,23.641 C32.571,23.641 32.608,23.641 32.645,23.641 C32.682,23.586 32.719,23.531 32.755,23.476 C32.792,23.476 32.829,23.476 32.866,23.476 C32.903,23.420 32.940,23.365 32.976,23.310 C33.013,23.310 33.050,23.310 33.087,23.310 C33.142,23.236 33.197,23.163 33.253,23.089 C33.289,23.089 33.326,23.089 33.363,23.089 C33.437,22.997 33.510,22.905 33.584,22.813 C33.621,22.794 33.658,22.776 33.694,22.758 C33.694,22.721 33.694,22.684 33.694,22.647 C33.786,22.573 33.879,22.500 33.971,22.426 C33.971,22.389 33.971,22.352 33.971,22.316 C34.007,22.297 34.044,22.279 34.081,22.260 C34.099,22.205 34.118,22.150 34.136,22.095 C34.155,22.095 34.173,22.095 34.192,22.095 C34.192,22.058 34.192,22.021 34.192,21.984 C34.228,21.966 34.265,21.947 34.302,21.929 C34.357,21.763 34.412,21.598 34.468,21.432 C34.486,21.432 34.505,21.432 34.523,21.432 C34.523,21.395 34.523,21.358 34.523,21.321 C34.541,21.321 34.560,21.321 34.578,21.321 C34.597,21.211 34.615,21.100 34.633,20.990 C34.652,20.990 34.670,20.990 34.689,20.990 C34.689,20.916 34.689,20.843 34.689,20.769 C34.707,20.769 34.725,20.769 34.744,20.769 C34.808,20.566 34.728,20.411 34.854,20.272 C34.901,20.365 34.949,20.374 35.020,20.438 C35.020,20.474 35.020,20.511 35.020,20.548 C35.038,20.548 35.057,20.548 35.075,20.548 C35.075,20.511 35.075,20.474 35.075,20.438 C35.094,20.438 35.112,20.438 35.131,20.438 C35.131,20.401 35.131,20.364 35.131,20.327 C35.167,20.309 35.204,20.290 35.241,20.272 C35.241,20.235 35.241,20.198 35.241,20.161 C35.259,20.161 35.278,20.161 35.296,20.161 C35.296,20.125 35.296,20.088 35.296,20.051 C35.333,20.033 35.370,20.014 35.407,19.996 C35.407,19.959 35.407,19.922 35.407,19.885 C35.425,19.885 35.444,19.885 35.462,19.885 C35.462,19.848 35.462,19.812 35.462,19.775 C35.480,19.775 35.499,19.775 35.517,19.775 C35.517,19.738 35.517,19.701 35.517,19.664 C35.536,19.664 35.554,19.664 35.572,19.664 C35.572,19.627 35.572,19.591 35.572,19.554 C35.591,19.554 35.609,19.554 35.628,19.554 C35.628,19.517 35.628,19.480 35.628,19.443 C35.646,19.443 35.665,19.443 35.683,19.443 C35.701,19.370 35.720,19.296 35.738,19.222 C35.757,19.222 35.775,19.222 35.793,19.222 C35.793,19.167 35.793,19.112 35.793,19.057 C35.812,19.057 35.830,19.057 35.849,19.057 C35.867,18.983 35.885,18.909 35.904,18.836 C35.922,18.836 35.941,18.836 35.959,18.836 C36.162,18.191 36.364,17.547 36.567,16.902 C36.604,16.571 36.640,16.240 36.677,15.908 C36.736,15.701 36.812,14.418 36.732,14.141 C36.714,14.141 36.696,14.141 36.677,14.141 C36.677,14.049 36.677,13.956 36.677,13.864 C36.659,13.864 36.640,13.864 36.622,13.864 C36.622,13.772 36.622,13.680 36.622,13.588 C36.604,13.588 36.585,13.588 36.567,13.588 C36.567,13.515 36.567,13.441 36.567,13.367 C36.548,13.367 36.530,13.367 36.511,13.367 C36.511,13.312 36.511,13.257 36.511,13.202 C36.493,13.202 36.475,13.202 36.456,13.202 C36.456,13.146 36.456,13.091 36.456,13.036 C36.438,13.036 36.419,13.036 36.401,13.036 C36.401,12.999 36.401,12.962 36.401,12.925 C36.327,12.782 36.222,12.678 36.180,12.484 C36.198,12.484 36.217,12.484 36.235,12.484 C36.313,12.605 36.707,12.904 36.843,12.981 C36.843,12.760 36.843,12.539 36.843,12.318 C36.824,12.318 36.806,12.318 36.788,12.318 C36.788,12.189 36.788,12.060 36.788,11.931 C36.696,11.600 36.604,11.268 36.511,10.937 C36.493,10.937 36.475,10.937 36.456,10.937 C36.438,10.863 36.419,10.790 36.401,10.716 C36.383,10.716 36.364,10.716 36.346,10.716 C36.346,10.661 36.346,10.605 36.346,10.550 C36.309,10.532 36.272,10.513 36.235,10.495 C36.198,10.385 36.162,10.274 36.125,10.164 C36.088,10.145 36.051,10.127 36.014,10.108 C36.014,10.072 36.014,10.035 36.014,9.998 C35.978,9.979 35.941,9.961 35.904,9.943 C35.904,9.906 35.904,9.869 35.904,9.832 C35.867,9.814 35.830,9.795 35.793,9.777 C35.793,9.740 35.793,9.703 35.793,9.666 C35.738,9.630 35.683,9.593 35.628,9.556 C35.628,9.519 35.628,9.482 35.628,9.445 C35.604,9.411 35.555,9.402 35.517,9.335 C35.554,9.335 35.591,9.335 35.628,9.335 C35.753,9.476 35.835,9.420 36.014,9.501 C36.014,9.519 36.014,9.538 36.014,9.556 C36.051,9.556 36.088,9.556 36.125,9.556 C36.125,9.574 36.125,9.593 36.125,9.611 C36.180,9.630 36.235,9.648 36.291,9.666 C36.291,9.630 36.291,9.593 36.291,9.556 C36.127,9.384 36.120,8.971 36.014,8.727 C35.996,8.727 35.978,8.727 35.959,8.727 C35.959,8.691 35.959,8.654 35.959,8.617 C35.941,8.617 35.922,8.617 35.904,8.617 C35.885,8.506 35.867,8.396 35.849,8.286 C35.830,8.286 35.812,8.286 35.793,8.286 C35.775,8.212 35.757,8.138 35.738,8.065 C35.720,8.065 35.701,8.065 35.683,8.065 C35.683,8.009 35.683,7.954 35.683,7.899 C35.665,7.899 35.646,7.899 35.628,7.899 C35.591,7.788 35.554,7.678 35.517,7.567 C35.499,7.567 35.480,7.567 35.462,7.567 C35.462,7.531 35.462,7.494 35.462,7.457 C35.444,7.457 35.425,7.457 35.407,7.457 C35.407,7.402 35.407,7.346 35.407,7.291 C35.388,7.291 35.370,7.291 35.352,7.291 C35.352,7.254 35.352,7.218 35.352,7.181 C35.333,7.181 35.315,7.181 35.296,7.181 C35.296,7.144 35.296,7.107 35.296,7.070 C35.259,7.052 35.223,7.033 35.186,7.015 C35.186,6.978 35.186,6.941 35.186,6.905 C35.167,6.905 35.149,6.905 35.131,6.905 C35.131,6.868 35.131,6.831 35.131,6.794 C35.112,6.794 35.094,6.794 35.075,6.794 C35.075,6.757 35.075,6.720 35.075,6.684 C35.057,6.684 35.038,6.684 35.020,6.684 C35.020,6.647 35.020,6.610 35.020,6.573 C35.002,6.573 34.983,6.573 34.965,6.573 C34.965,6.536 34.965,6.500 34.965,6.463 C34.928,6.444 34.891,6.426 34.854,6.407 C34.836,6.334 34.818,6.260 34.799,6.187 C34.762,6.168 34.725,6.150 34.689,6.131 C34.689,6.094 34.689,6.058 34.689,6.021 C34.652,6.002 34.615,5.984 34.578,5.966 C34.578,5.929 34.578,5.892 34.578,5.855 C34.541,5.837 34.505,5.818 34.468,5.800 C34.449,5.726 34.431,5.653 34.412,5.579 C34.357,5.542 34.302,5.505 34.247,5.468 C34.247,5.432 34.247,5.395 34.247,5.358 C34.210,5.340 34.173,5.321 34.136,5.303 C34.136,5.266 34.136,5.229 34.136,5.192 C34.081,5.155 34.026,5.119 33.971,5.082 C33.971,5.045 33.971,5.008 33.971,4.971 C33.897,4.916 33.823,4.861 33.750,4.806 C33.750,4.769 33.750,4.732 33.750,4.695 C33.658,4.621 33.566,4.548 33.473,4.474 C33.473,4.437 33.473,4.401 33.473,4.364 C33.308,4.216 33.142,4.069 32.976,3.922 C32.976,3.885 32.976,3.848 32.976,3.811 C32.847,3.701 32.719,3.590 32.590,3.480 C32.553,3.425 32.516,3.369 32.479,3.314 C32.442,3.314 32.406,3.314 32.369,3.314 C32.221,3.149 32.074,2.983 31.927,2.817 C31.890,2.817 31.853,2.817 31.816,2.817 C31.743,2.725 31.669,2.633 31.595,2.541 C31.559,2.541 31.522,2.541 31.485,2.541 C31.430,2.467 31.374,2.394 31.319,2.320 C31.282,2.320 31.246,2.320 31.209,2.320 C31.172,2.265 31.135,2.209 31.098,2.154 C31.061,2.154 31.025,2.154 30.988,2.154 C30.951,2.099 30.914,2.044 30.877,1.989 C30.841,1.989 30.804,1.989 30.767,1.989 C30.730,1.933 30.693,1.878 30.656,1.823 C30.620,1.823 30.583,1.823 30.546,1.823 C30.546,1.804 30.546,1.786 30.546,1.768 C30.509,1.768 30.472,1.768 30.435,1.768 C30.417,1.731 30.399,1.694 30.380,1.657 C30.307,1.639 30.233,1.620 30.159,1.602 C30.141,1.565 30.122,1.528 30.104,1.491 C30.030,1.473 29.957,1.455 29.883,1.436 C29.865,1.399 29.846,1.363 29.828,1.326 C29.754,1.307 29.681,1.289 29.607,1.270 C29.588,1.234 29.570,1.197 29.552,1.160 C29.478,1.142 29.404,1.123 29.331,1.105 C29.312,1.068 29.294,1.031 29.275,0.994 C29.202,0.976 29.128,0.957 29.055,0.939 C29.036,0.902 29.018,0.865 28.999,0.829 C28.926,0.810 28.852,0.792 28.778,0.773 C28.760,0.736 28.742,0.700 28.723,0.663 C28.649,0.644 28.576,0.626 28.502,0.608 C28.484,0.571 28.465,0.534 28.447,0.497 C28.373,0.479 28.300,0.460 28.226,0.442 C28.208,0.405 28.189,0.368 28.171,0.331 C28.134,0.331 28.097,0.331 28.060,0.331 C28.060,0.313 28.060,0.295 28.060,0.276 C28.023,0.276 27.987,0.276 27.950,0.276 C27.931,0.239 27.913,0.203 27.895,0.166 C27.858,0.166 27.821,0.166 27.784,0.166 C27.784,0.147 27.784,0.129 27.784,0.110 C27.662,0.035 27.707,0.134 27.618,0.000 C27.692,0.000 27.766,0.000 27.839,0.000 C27.839,0.018 27.839,0.037 27.839,0.055 C28.189,0.092 28.539,0.129 28.889,0.166 C29.367,0.295 29.846,0.423 30.325,0.552 C30.325,0.571 30.325,0.589 30.325,0.608 C30.417,0.626 30.509,0.644 30.601,0.663 C30.601,0.681 30.601,0.700 30.601,0.718 C30.638,0.718 30.675,0.718 30.712,0.718 C30.712,0.736 30.712,0.755 30.712,0.773 C30.767,0.773 30.822,0.773 30.877,0.773 C30.877,0.792 30.877,0.810 30.877,0.829 C30.951,0.847 31.025,0.865 31.098,0.884 C31.098,0.902 31.098,0.921 31.098,0.939 C31.154,0.939 31.209,0.939 31.264,0.939 C31.264,0.957 31.264,0.976 31.264,0.994 C31.338,1.013 31.411,1.031 31.485,1.049 C31.485,1.068 31.485,1.086 31.485,1.105 C31.559,1.123 31.632,1.142 31.706,1.160 C31.724,1.197 31.743,1.234 31.761,1.270 C31.798,1.270 31.835,1.270 31.872,1.270 C31.872,1.289 31.872,1.307 31.872,1.326 C31.908,1.326 31.945,1.326 31.982,1.326 C31.982,1.344 31.982,1.363 31.982,1.381 C32.019,1.381 32.056,1.381 32.093,1.381 C32.093,1.399 32.093,1.418 32.093,1.436 C32.129,1.436 32.166,1.436 32.203,1.436 C32.221,1.473 32.240,1.510 32.258,1.547 C32.295,1.547 32.332,1.547 32.369,1.547 C32.387,1.583 32.406,1.620 32.424,1.657 C32.461,1.657 32.498,1.657 32.534,1.657 C32.534,1.676 32.534,1.694 32.534,1.712 C32.590,1.731 32.645,1.749 32.700,1.768 C32.719,1.804 32.737,1.841 32.755,1.878 C32.792,1.878 32.829,1.878 32.866,1.878 C32.903,1.933 32.940,1.989 32.976,2.044 C33.013,2.044 33.050,2.044 33.087,2.044 C33.105,2.081 33.124,2.117 33.142,2.154 C33.179,2.154 33.216,2.154 33.253,2.154 C33.271,2.191 33.289,2.228 33.308,2.265 C33.363,2.283 33.418,2.302 33.473,2.320 C33.566,2.430 33.658,2.541 33.750,2.651 C33.786,2.651 33.823,2.651 33.860,2.651 C34.044,2.854 34.228,3.056 34.412,3.259 C34.615,3.443 34.818,3.627 35.020,3.811 C35.020,3.848 35.020,3.885 35.020,3.922 C35.112,3.995 35.204,4.069 35.296,4.143 C35.296,4.180 35.296,4.216 35.296,4.253 C35.370,4.308 35.444,4.364 35.517,4.419 C35.517,4.456 35.517,4.493 35.517,4.529 C35.572,4.566 35.628,4.603 35.683,4.640 C35.683,4.677 35.683,4.714 35.683,4.750 C35.738,4.787 35.793,4.824 35.849,4.861 C35.849,4.898 35.849,4.934 35.849,4.971 C35.885,4.990 35.922,5.008 35.959,5.027 C35.959,5.063 35.959,5.100 35.959,5.137 C35.996,5.155 36.033,5.174 36.070,5.192 C36.070,5.229 36.070,5.266 36.070,5.303 C36.106,5.321 36.143,5.340 36.180,5.358 C36.180,5.395 36.180,5.432 36.180,5.468 C36.217,5.487 36.254,5.505 36.291,5.524 C36.291,5.560 36.291,5.597 36.291,5.634 C36.327,5.653 36.364,5.671 36.401,5.689 C36.401,5.726 36.401,5.763 36.401,5.800 C36.438,5.818 36.475,5.837 36.511,5.855 C36.511,5.892 36.511,5.929 36.511,5.966 C36.530,5.966 36.548,5.966 36.567,5.966 C36.567,6.002 36.567,6.039 36.567,6.076 C36.604,6.094 36.640,6.113 36.677,6.131 C36.677,6.168 36.677,6.205 36.677,6.242 C36.696,6.242 36.714,6.242 36.732,6.242 C36.732,6.279 36.732,6.315 36.732,6.352 C36.751,6.352 36.769,6.352 36.788,6.352 C36.788,6.389 36.788,6.426 36.788,6.463 C36.806,6.463 36.824,6.463 36.843,6.463 C36.843,6.500 36.843,6.536 36.843,6.573 C36.880,6.592 36.917,6.610 36.953,6.628 C36.953,6.665 36.953,6.702 36.953,6.739 C36.972,6.739 36.990,6.739 37.009,6.739 C37.009,6.776 37.009,6.813 37.009,6.849 C37.027,6.849 37.045,6.849 37.064,6.849 C37.064,6.886 37.064,6.923 37.064,6.960 C37.082,6.960 37.101,6.960 37.119,6.960 C37.119,6.997 37.119,7.033 37.119,7.070 C37.137,7.070 37.156,7.070 37.174,7.070 C37.174,7.107 37.174,7.144 37.174,7.181 C37.193,7.181 37.211,7.181 37.230,7.181 C37.230,7.218 37.230,7.254 37.230,7.291 C37.248,7.291 37.266,7.291 37.285,7.291 C37.322,7.402 37.358,7.512 37.395,7.623 C37.414,7.623 37.432,7.623 37.451,7.623 C37.469,7.715 37.487,7.807 37.506,7.899 C37.524,7.899 37.543,7.899 37.561,7.899 C37.579,7.972 37.598,8.046 37.616,8.120 C37.635,8.120 37.653,8.120 37.671,8.120 C37.911,8.819 38.150,9.519 38.390,10.219 C38.408,10.384 38.426,10.550 38.445,10.716 C38.463,10.716 38.482,10.716 38.500,10.716 C38.500,10.790 38.500,10.863 38.500,10.937 C38.518,10.937 38.537,10.937 38.555,10.937 C38.555,11.047 38.555,11.158 38.555,11.268 C38.574,11.268 38.592,11.268 38.610,11.268 C38.610,11.379 38.610,11.489 38.610,11.600 C38.629,11.600 38.647,11.600 38.666,11.600 C38.666,11.784 38.666,11.968 38.666,12.152 C38.684,12.152 38.703,12.152 38.721,12.152 C38.721,12.355 38.721,12.557 38.721,12.760 C38.739,12.760 38.758,12.760 38.776,12.760 C38.863,13.064 38.686,13.332 38.887,13.533 C38.887,13.496 38.887,13.459 38.887,13.423 C39.030,13.299 38.981,13.173 39.052,12.981 C39.071,12.981 39.089,12.981 39.108,12.981 C39.108,12.907 39.108,12.833 39.108,12.760 C39.126,12.760 39.144,12.760 39.163,12.760 C39.163,12.686 39.163,12.612 39.163,12.539 C39.181,12.539 39.200,12.539 39.218,12.539 C39.218,12.373 39.218,12.207 39.218,12.042 C39.236,12.042 39.255,12.042 39.273,12.042 C39.355,11.747 39.221,10.973 39.163,10.771 C39.163,10.642 39.163,10.513 39.163,10.385 C39.076,10.096 38.981,9.722 38.887,9.445 C38.887,9.372 38.887,9.298 38.887,9.225 C38.868,9.225 38.850,9.225 38.831,9.225 C38.666,8.672 38.500,8.120 38.334,7.567 C38.353,7.567 38.371,7.567 38.390,7.567 C38.468,7.702 38.597,7.748 38.666,7.844 C38.684,7.899 38.703,7.954 38.721,8.009 C38.776,8.046 38.831,8.083 38.887,8.120 C38.887,8.157 38.887,8.193 38.887,8.230 C38.923,8.249 38.960,8.267 38.997,8.286 C39.016,8.341 39.034,8.396 39.052,8.451 C39.126,8.506 39.200,8.562 39.273,8.617 C39.273,8.654 39.273,8.691 39.273,8.727 C39.329,8.764 39.384,8.801 39.439,8.838 C39.457,8.912 39.476,8.985 39.494,9.059 C39.531,9.077 39.568,9.096 39.605,9.114 C39.605,9.151 39.605,9.188 39.605,9.225 C39.623,9.225 39.642,9.225 39.660,9.225 C39.660,9.261 39.660,9.298 39.660,9.335 C39.678,9.335 39.697,9.335 39.715,9.335 C39.715,9.372 39.715,9.409 39.715,9.445 C39.734,9.445 39.752,9.445 39.770,9.445 C39.770,9.482 39.770,9.519 39.770,9.556 C39.789,9.556 39.807,9.556 39.826,9.556 C39.826,9.593 39.826,9.630 39.826,9.666 C39.844,9.666 39.863,9.666 39.881,9.666 C39.881,9.703 39.881,9.740 39.881,9.777 C39.899,9.777 39.918,9.777 39.936,9.777 C39.936,9.814 39.936,9.851 39.936,9.887 C39.955,9.887 39.973,9.887 39.991,9.887 C40.028,9.998 40.065,10.108 40.102,10.219 C40.120,10.219 40.139,10.219 40.157,10.219 C40.157,10.274 40.157,10.329 40.157,10.385 C40.176,10.385 40.194,10.385 40.212,10.385 C40.212,10.421 40.212,10.458 40.212,10.495 C40.231,10.495 40.249,10.495 40.268,10.495 C40.268,10.550 40.268,10.605 40.268,10.661 C40.286,10.661 40.304,10.661 40.323,10.661 C40.323,10.698 40.323,10.734 40.323,10.771 C40.341,10.771 40.360,10.771 40.378,10.771 C40.378,10.826 40.378,10.882 40.378,10.937 C40.396,10.937 40.415,10.937 40.433,10.937 C40.433,10.992 40.433,11.047 40.433,11.103 C40.452,11.103 40.470,11.103 40.489,11.103 C40.489,11.158 40.489,11.213 40.489,11.268 C40.507,11.268 40.525,11.268 40.544,11.268 C40.544,11.324 40.544,11.379 40.544,11.434 C40.562,11.434 40.581,11.434 40.599,11.434 C40.617,11.581 40.636,11.729 40.654,11.876 C40.673,11.876 40.691,11.876 40.709,11.876 C40.728,12.060 40.746,12.244 40.765,12.428 C40.830,12.653 40.971,13.528 40.875,13.864 C40.857,13.864 40.838,13.864 40.820,13.864 C40.820,13.975 40.820,14.085 40.820,14.196 C40.802,14.196 40.783,14.196 40.765,14.196 C40.765,14.288 40.765,14.380 40.765,14.472 C40.746,14.472 40.728,14.472 40.709,14.472 C40.709,14.546 40.709,14.619 40.709,14.693 C40.691,14.693 40.673,14.693 40.654,14.693 C40.636,14.803 40.617,14.914 40.599,15.024 C40.581,15.024 40.562,15.024 40.544,15.024 C40.544,15.061 40.544,15.098 40.544,15.135 C40.525,15.135 40.507,15.135 40.489,15.135 C40.489,15.190 40.489,15.245 40.489,15.301 C40.470,15.301 40.452,15.301 40.433,15.301 C40.433,15.337 40.433,15.374 40.433,15.411 C40.415,15.411 40.396,15.411 40.378,15.411 C40.378,15.466 40.378,15.522 40.378,15.577 C40.360,15.577 40.341,15.577 40.323,15.577 C40.323,15.614 40.323,15.650 40.323,15.687 C40.304,15.687 40.286,15.687 40.268,15.687 C40.268,15.742 40.268,15.798 40.268,15.853 C40.249,15.853 40.231,15.853 40.212,15.853 C40.212,15.890 40.212,15.927 40.212,15.963 C40.194,15.963 40.176,15.963 40.157,15.963 C40.157,16.019 40.157,16.074 40.157,16.129 C40.139,16.129 40.120,16.129 40.102,16.129 C40.102,16.166 40.102,16.203 40.102,16.240 C40.083,16.240 40.065,16.240 40.047,16.240 C40.047,16.295 40.047,16.350 40.047,16.405 C40.028,16.405 40.010,16.405 39.991,16.405 C39.991,16.442 39.991,16.479 39.991,16.516 C39.973,16.516 39.955,16.516 39.936,16.516 C39.918,16.626 39.899,16.737 39.881,16.847 C39.774,17.118 39.639,17.436 39.605,17.786 C39.623,17.786 39.642,17.786 39.660,17.786 C39.844,17.565 40.028,17.344 40.212,17.123 C40.268,17.087 40.323,17.050 40.378,17.013 C40.378,16.976 40.378,16.939 40.378,16.902 C40.470,16.829 40.562,16.755 40.654,16.681 C40.654,16.645 40.654,16.608 40.654,16.571 C40.691,16.553 40.728,16.534 40.765,16.516 C40.765,16.479 40.765,16.442 40.765,16.405 C40.783,16.405 40.802,16.405 40.820,16.405 C40.838,16.332 40.857,16.258 40.875,16.184 C40.894,16.184 40.912,16.184 40.930,16.184 C40.930,16.129 40.930,16.074 40.930,16.019 C41.105,15.583 41.249,14.944 41.262,14.362 Z"/>
</svg>