<svg xmlns="http://www.w3.org/2000/svg" xmlns:xlink="http://www.w3.org/1999/xlink" preserveAspectRatio="xMidYMid" width="131" height="41" viewBox="0 0 131 41">
  <path d="M117.383,2.100 C111.813,2.100 107.391,5.430 107.391,10.139 C107.391,21.050 130.648,15.308 130.648,29.607 C130.648,33.914 127.892,40.001 117.555,40.001 C111.583,40.001 106.931,37.417 104.175,33.914 C104.175,33.914 105.668,32.593 105.668,32.593 C108.022,35.464 112.042,38.278 117.555,38.278 C126.399,38.278 128.638,33.225 128.638,29.607 C128.638,16.973 105.381,23.232 105.381,10.139 C105.381,3.937 111.066,0.377 117.383,0.377 C123.011,0.377 127.088,2.444 129.787,5.775 C129.787,5.775 128.351,7.096 128.351,7.096 C125.652,3.593 121.805,2.100 117.383,2.100 ZM88.498,1.009 C88.498,1.009 90.335,1.009 90.335,1.009 C90.335,1.009 90.335,39.312 90.335,39.312 C90.335,39.312 88.498,39.312 88.498,39.312 C88.498,39.312 88.498,1.009 88.498,1.009 ZM76.244,30.563 C76.244,30.563 70.435,30.253 70.435,30.253 C70.435,30.253 71.877,29.557 71.877,29.557 C71.877,29.557 72.589,29.213 72.589,29.213 C72.589,29.213 60.445,21.658 60.445,21.658 C60.445,21.658 60.445,34.653 60.445,34.653 C60.445,34.653 60.740,34.459 60.740,34.459 C60.740,34.459 62.288,33.443 62.288,33.443 C62.288,33.443 59.296,39.432 59.296,39.432 C59.296,39.432 56.305,37.369 56.305,37.369 C56.305,37.369 57.853,36.353 57.853,36.353 C57.853,36.353 58.608,35.858 58.608,35.858 C58.608,35.858 58.608,21.479 58.608,21.479 C58.608,21.479 45.985,29.331 45.985,29.331 C45.985,29.331 46.620,29.647 46.620,29.647 C46.620,29.647 48.030,30.348 48.030,30.348 C48.030,30.348 42.349,30.660 42.349,30.660 C42.349,30.660 42.582,27.639 42.582,27.639 C42.582,27.639 43.992,28.340 43.992,28.340 C43.992,28.340 44.667,28.676 44.667,28.676 C44.667,28.676 58.349,20.317 58.349,20.317 C58.349,20.317 44.616,11.886 44.616,11.886 C44.616,11.886 44.299,12.047 44.299,12.047 C44.299,12.047 43.214,12.601 43.214,12.601 C43.214,12.601 43.034,10.217 43.034,10.217 C43.034,10.217 47.409,10.463 47.409,10.463 C47.409,10.463 46.323,11.016 46.323,11.016 C46.323,11.016 45.964,11.199 45.964,11.199 C45.964,11.199 58.608,19.097 58.608,19.097 C58.608,19.097 58.608,4.431 58.608,4.431 C58.608,4.431 57.853,4.920 57.853,4.920 C57.853,4.920 56.305,5.926 56.305,5.926 C56.305,5.926 59.296,-0.001 59.296,-0.001 C59.296,-0.001 62.288,2.040 62.288,2.040 C62.288,2.040 60.740,3.046 60.740,3.046 C60.740,3.046 60.445,3.237 60.445,3.237 C60.445,3.237 60.445,18.917 60.445,18.917 C60.445,18.917 72.564,11.348 72.564,11.348 C72.564,11.348 72.084,11.110 72.084,11.110 C72.084,11.110 70.973,10.561 70.973,10.561 C70.973,10.561 75.447,10.317 75.447,10.317 C75.447,10.317 75.385,11.116 75.385,11.116 C75.385,11.116 75.405,11.116 75.405,11.116 C75.405,11.116 75.384,11.129 75.384,11.129 C75.384,11.129 75.263,12.684 75.263,12.684 C75.263,12.684 74.153,12.134 74.153,12.134 C74.153,12.134 73.925,12.022 73.925,12.022 C73.925,12.022 60.445,20.271 60.445,20.271 C60.445,20.271 60.445,20.307 60.445,20.307 C60.445,20.307 73.927,28.566 73.927,28.566 C73.927,28.566 74.564,28.259 74.564,28.259 C74.564,28.259 76.005,27.562 76.005,27.562 C76.005,27.562 76.196,29.957 76.196,29.957 C76.196,29.957 76.266,30.000 76.266,30.000 C76.266,30.000 76.199,30.000 76.199,30.000 C76.199,30.000 76.244,30.563 76.244,30.563 ZM27.741,29.032 C27.741,29.032 6.378,29.032 6.378,29.032 C6.378,29.032 2.129,39.312 2.129,39.312 C2.129,39.312 0.004,39.312 0.004,39.312 C0.004,39.312 15.969,1.009 15.969,1.009 C15.969,1.009 18.151,1.009 18.151,1.009 C18.151,1.009 34.115,39.312 34.115,39.312 C34.115,39.312 31.990,39.312 31.990,39.312 C31.990,39.312 27.741,29.032 27.741,29.032 ZM17.060,3.133 C17.060,3.133 7.067,27.310 7.067,27.310 C7.067,27.310 27.052,27.310 27.052,27.310 C27.052,27.310 17.060,3.133 17.060,3.133 Z" id="path-1" fill="#ccd8db" fill-rule="evenodd"/>
</svg>
