<svg xmlns="http://www.w3.org/2000/svg" xmlns:xlink="http://www.w3.org/1999/xlink" preserveAspectRatio="xMidYMid" width="133" height="40" viewBox="0 0 133 40">
  <path d="M113.783,38.269 C113.783,38.269 102.608,38.269 102.608,38.269 C102.608,38.269 102.608,0.624 102.608,0.624 C102.608,0.624 113.783,0.624 113.783,0.624 C125.466,0.624 132.521,9.428 132.521,19.475 C132.521,29.634 125.466,38.269 113.783,38.269 ZM113.783,2.317 C113.783,2.317 104.414,2.317 104.414,2.317 C104.414,2.317 104.414,36.576 104.414,36.576 C104.414,36.576 113.783,36.576 113.783,36.576 C124.450,36.576 130.545,29.013 130.545,19.475 C130.545,10.049 124.450,2.317 113.783,2.317 ZM85.224,0.624 C85.224,0.624 87.031,0.624 87.031,0.624 C87.031,0.624 87.031,38.269 87.031,38.269 C87.031,38.269 85.224,38.269 85.224,38.269 C85.224,38.269 85.224,0.624 85.224,0.624 ZM69.195,38.269 C69.195,38.269 57.738,22.014 57.738,22.014 C57.738,22.014 48.708,22.014 48.708,22.014 C48.708,22.014 48.708,38.269 48.708,38.269 C48.708,38.269 46.901,38.269 46.901,38.269 C46.901,38.269 46.901,0.624 46.901,0.624 C46.901,0.624 59.883,0.624 59.883,0.624 C65.978,0.624 71.001,4.405 71.001,11.291 C71.001,18.176 65.978,22.014 59.883,22.014 C59.883,22.014 71.509,38.269 71.509,38.269 C71.509,38.269 69.195,38.269 69.195,38.269 ZM69.026,11.291 C69.026,6.098 65.414,2.317 59.883,2.317 C59.883,2.317 48.708,2.317 48.708,2.317 C48.708,2.317 48.708,20.321 48.708,20.321 C48.708,20.321 59.883,20.321 59.883,20.321 C65.414,20.321 69.026,16.483 69.026,11.291 ZM18.794,39.003 C8.353,39.003 -0.000,31.045 -0.000,19.475 C-0.000,7.904 8.353,0.003 18.794,0.003 C24.494,0.003 28.897,2.035 32.565,5.816 C32.565,5.816 31.380,7.058 31.380,7.058 C28.445,3.728 23.817,1.696 18.794,1.696 C9.369,1.696 1.975,8.864 1.975,19.475 C1.975,29.972 9.369,37.310 18.794,37.310 C24.325,37.310 28.558,34.544 30.759,32.230 C30.759,32.230 30.759,21.902 30.759,21.902 C30.759,21.902 15.238,21.902 15.238,21.902 C15.238,21.902 15.238,20.208 15.238,20.208 C15.238,20.208 32.565,20.208 32.565,20.208 C32.565,20.208 32.565,32.964 32.565,32.964 C29.348,36.576 24.438,39.003 18.794,39.003 Z" id="path-1" fill="#ccd8db" fill-rule="evenodd"/>
</svg>
