<svg 
 xmlns="http://www.w3.org/2000/svg"
 xmlns:xlink="http://www.w3.org/1999/xlink"
 width="181px" height="102px">
<path fill-rule="evenodd"  fill="rgb(204, 216, 219)"
 d="M180.519,22.961 C180.519,22.961 174.958,22.961 174.958,22.961 C174.958,22.961 168.086,15.146 168.086,15.146 C168.086,15.146 161.215,22.961 161.215,22.961 C161.215,22.961 155.637,22.961 155.637,22.961 C155.637,22.961 165.306,11.998 165.306,11.998 C165.306,11.998 155.973,1.355 155.973,1.355 C155.973,1.355 161.534,1.355 161.534,1.355 C161.534,1.355 168.086,8.818 168.086,8.818 C168.086,8.818 174.623,1.355 174.623,1.355 C174.623,1.355 180.184,1.355 180.184,1.355 C180.184,1.355 170.867,11.998 170.867,11.998 C170.867,11.998 180.519,22.961 180.519,22.961 ZM174.623,40.629 C174.623,40.629 178.873,40.629 178.873,40.629 C178.873,40.629 178.873,62.858 178.873,62.858 C178.873,62.858 159.569,48.779 159.569,48.779 C159.569,48.779 159.569,62.235 159.569,62.235 C159.569,62.235 155.318,62.235 155.318,62.235 C155.318,62.235 155.318,40.038 155.318,40.038 C155.318,40.038 174.623,54.085 174.623,54.085 C174.623,54.085 174.623,40.629 174.623,40.629 ZM147.953,100.343 C146.243,101.334 144.381,101.829 142.367,101.829 C140.855,101.829 139.411,101.536 138.037,100.950 C136.662,100.364 135.480,99.576 134.489,98.585 C133.498,97.594 132.710,96.411 132.124,95.037 C131.538,93.663 131.245,92.219 131.245,90.706 C131.245,89.194 131.538,87.750 132.124,86.376 C132.710,85.001 133.498,83.819 134.489,82.828 C135.480,81.837 136.662,81.049 138.037,80.463 C139.411,79.877 140.855,79.584 142.367,79.584 C144.381,79.584 146.243,80.079 147.953,81.070 C149.663,82.061 151.016,83.411 152.012,85.121 C153.008,86.831 153.506,88.693 153.506,90.706 C153.506,92.720 153.008,94.582 152.012,96.292 C151.016,98.002 149.663,99.352 147.953,100.343 ZM147.266,85.720 C145.939,84.357 144.306,83.675 142.367,83.675 C140.428,83.675 138.798,84.357 137.477,85.720 C136.156,87.084 135.496,88.746 135.496,90.706 C135.496,92.667 136.156,94.329 137.477,95.692 C138.798,97.056 140.428,97.738 142.367,97.738 C144.306,97.738 145.939,97.056 147.266,95.692 C148.592,94.329 149.255,92.667 149.255,90.706 C149.255,88.746 148.592,87.084 147.266,85.720 ZM142.058,1.355 C142.058,1.355 146.309,1.355 146.309,1.355 C146.309,1.355 146.309,22.961 146.309,22.961 C146.309,22.961 142.058,22.961 142.058,22.961 C142.058,22.961 142.058,1.355 142.058,1.355 ZM144.719,51.432 C144.719,53.446 144.221,55.307 143.225,57.017 C142.229,58.727 140.876,60.078 139.166,61.068 C137.456,62.059 135.594,62.555 133.581,62.555 C132.068,62.555 130.624,62.261 129.250,61.676 C127.876,61.090 126.693,60.301 125.702,59.311 C124.711,58.320 123.923,57.137 123.337,55.763 C122.751,54.388 122.458,52.945 122.458,51.432 C122.458,49.919 122.751,48.476 123.337,47.101 C123.923,45.727 124.711,44.544 125.702,43.554 C126.693,42.563 127.876,41.774 129.250,41.188 C130.624,40.603 132.068,40.309 133.581,40.309 C135.594,40.309 137.456,40.805 139.166,41.796 C140.876,42.786 142.229,44.137 143.225,45.847 C144.221,47.557 144.719,49.418 144.719,51.432 ZM138.479,46.446 C137.152,45.082 135.520,44.401 133.581,44.401 C131.642,44.401 130.012,45.082 128.691,46.446 C127.369,47.810 126.709,49.472 126.709,51.432 C126.709,53.392 127.369,55.054 128.691,56.418 C130.012,57.782 131.642,58.464 133.581,58.464 C135.520,58.464 137.152,57.782 138.479,56.418 C139.805,55.054 140.468,53.392 140.468,51.432 C140.468,49.472 139.805,47.810 138.479,46.446 ZM111.780,22.961 C111.780,22.961 107.529,22.961 107.529,22.961 C107.529,22.961 107.529,0.763 107.529,0.763 C107.529,0.763 126.834,14.811 126.834,14.811 C126.834,14.811 126.834,1.355 126.834,1.355 C126.834,1.355 131.084,1.355 131.084,1.355 C131.084,1.355 131.084,23.584 131.084,23.584 C131.084,23.584 111.780,9.505 111.780,9.505 C111.780,9.505 111.780,22.961 111.780,22.961 ZM95.915,100.103 C94.211,101.041 92.346,101.509 90.322,101.509 C90.322,101.509 86.103,101.509 86.103,101.509 C86.103,101.509 86.103,79.903 86.103,79.903 C86.103,79.903 90.322,79.903 90.322,79.903 C92.346,79.903 94.211,80.372 95.915,81.310 C97.620,82.247 98.973,83.544 99.975,85.201 C100.976,86.858 101.477,88.693 101.477,90.706 C101.477,92.720 100.976,94.555 99.975,96.212 C98.973,97.868 97.620,99.166 95.915,100.103 ZM95.252,85.824 C93.936,84.519 92.304,83.867 90.354,83.867 C90.354,83.867 90.354,97.578 90.354,97.578 C92.304,97.578 93.936,96.920 95.252,95.604 C96.568,94.289 97.226,92.656 97.226,90.706 C97.226,88.757 96.568,87.129 95.252,85.824 ZM92.727,62.235 C92.727,62.235 88.460,62.235 88.460,62.235 C88.460,62.235 88.460,44.560 88.460,44.560 C88.460,44.560 83.395,44.560 83.395,44.560 C83.395,44.560 83.395,40.629 83.395,40.629 C83.395,40.629 97.793,40.629 97.793,40.629 C97.793,40.629 97.793,44.560 97.793,44.560 C97.793,44.560 92.727,44.560 92.727,44.560 C92.727,44.560 92.727,62.235 92.727,62.235 ZM83.802,1.355 C83.802,1.355 97.050,1.355 97.050,1.355 C97.050,1.355 97.050,5.286 97.050,5.286 C97.050,5.286 88.053,5.286 88.053,5.286 C88.053,5.286 88.053,9.873 88.053,9.873 C88.053,9.873 94.925,9.873 94.925,9.873 C94.925,9.873 94.925,13.804 94.925,13.804 C94.925,13.804 88.053,13.804 88.053,13.804 C88.053,13.804 88.053,19.029 88.053,19.029 C88.053,19.029 97.050,19.029 97.050,19.029 C97.050,19.029 97.050,22.961 97.050,22.961 C97.050,22.961 83.802,22.961 83.802,22.961 C83.802,22.961 83.802,1.355 83.802,1.355 ZM66.723,58.464 C68.694,58.464 70.356,57.755 71.709,56.338 C71.709,56.338 74.746,59.151 74.746,59.151 C73.574,60.355 72.290,61.223 70.894,61.756 C69.498,62.288 68.108,62.555 66.723,62.555 C65.210,62.555 63.767,62.261 62.392,61.676 C61.018,61.090 59.836,60.301 58.845,59.311 C57.854,58.320 57.065,57.137 56.480,55.763 C55.894,54.388 55.601,52.945 55.601,51.432 C55.601,49.919 55.894,48.476 56.480,47.101 C57.065,45.727 57.854,44.544 58.845,43.554 C59.836,42.563 61.018,41.774 62.392,41.188 C63.767,40.603 65.210,40.309 66.723,40.309 C68.108,40.309 69.498,40.576 70.894,41.108 C72.290,41.641 73.574,42.510 74.746,43.713 C74.746,43.713 71.709,46.526 71.709,46.526 C70.356,45.109 68.694,44.401 66.723,44.401 C64.784,44.401 63.154,45.082 61.833,46.446 C60.512,47.810 59.852,49.472 59.852,51.432 C59.852,53.392 60.512,55.054 61.833,56.418 C63.154,57.782 64.784,58.464 66.723,58.464 ZM67.786,21.794 C66.076,22.785 64.214,23.280 62.201,23.280 C60.688,23.280 59.244,22.987 57.870,22.401 C56.496,21.816 55.313,21.027 54.322,20.036 C53.331,19.045 52.543,17.863 51.957,16.489 C51.371,15.114 51.078,13.671 51.078,12.158 C51.078,10.645 51.371,9.201 51.957,7.827 C52.543,6.453 53.331,5.270 54.322,4.279 C55.313,3.288 56.496,2.500 57.870,1.914 C59.244,1.328 60.688,1.035 62.201,1.035 C64.214,1.035 66.076,1.531 67.786,2.521 C69.496,3.512 70.849,4.863 71.845,6.572 C72.841,8.282 73.339,10.144 73.339,12.158 C73.339,14.171 72.841,16.033 71.845,17.743 C70.849,19.453 69.496,20.803 67.786,21.794 ZM67.099,7.172 C65.772,5.808 64.140,5.126 62.201,5.126 C60.262,5.126 58.632,5.808 57.311,7.172 C55.989,8.536 55.329,10.198 55.329,12.158 C55.329,14.118 55.989,15.780 57.311,17.144 C58.632,18.508 60.262,19.189 62.201,19.189 C64.140,19.189 65.772,18.508 67.099,17.144 C68.425,15.780 69.088,14.118 69.088,12.158 C69.088,10.198 68.425,8.536 67.099,7.172 ZM39.824,58.607 C39.824,58.607 29.101,58.607 29.101,58.607 C29.101,58.607 27.168,62.235 27.168,62.235 C27.168,62.235 22.246,62.235 22.246,62.235 C22.246,62.235 34.519,39.974 34.519,39.974 C34.519,39.974 46.632,62.235 46.632,62.235 C46.632,62.235 41.726,62.235 41.726,62.235 C41.726,62.235 39.824,58.607 39.824,58.607 ZM34.519,48.492 C34.519,48.492 31.227,54.676 31.227,54.676 C31.227,54.676 37.763,54.676 37.763,54.676 C37.763,54.676 34.519,48.492 34.519,48.492 ZM36.349,13.804 C36.349,13.804 30.132,13.804 30.132,13.804 C30.132,13.804 30.132,22.961 30.132,22.961 C30.132,22.961 25.881,22.961 25.881,22.961 C25.881,22.961 25.881,1.355 25.881,1.355 C25.881,1.355 30.132,1.355 30.132,1.355 C30.132,1.355 30.132,9.873 30.132,9.873 C30.132,9.873 36.349,9.873 36.349,9.873 C36.349,9.873 36.349,1.355 36.349,1.355 C36.349,1.355 40.599,1.355 40.599,1.355 C40.599,1.355 40.599,22.961 40.599,22.961 C40.599,22.961 36.349,22.961 36.349,22.961 C36.349,22.961 36.349,13.804 36.349,13.804 ZM9.298,15.098 C9.298,15.098 4.935,15.098 4.935,15.098 C4.935,15.098 4.935,22.961 4.935,22.961 C4.935,22.961 0.684,22.961 0.684,22.961 C0.684,22.961 0.684,1.355 0.684,1.355 C0.684,1.355 9.298,1.355 9.298,1.355 C10.555,1.355 11.713,1.653 12.774,2.250 C13.834,2.846 14.675,3.672 15.299,4.727 C15.922,5.781 16.233,6.948 16.233,8.227 C16.233,10.176 15.557,11.809 14.204,13.125 C12.851,14.441 11.215,15.098 9.298,15.098 ZM11.064,6.141 C10.462,5.571 9.740,5.286 8.898,5.286 C8.898,5.286 4.935,5.286 4.935,5.286 C4.935,5.286 4.935,11.183 4.935,11.183 C4.935,11.183 8.898,11.183 8.898,11.183 C9.740,11.183 10.462,10.895 11.064,10.320 C11.665,9.745 11.967,9.047 11.967,8.227 C11.967,7.406 11.665,6.711 11.064,6.141 ZM6.997,97.738 C7.774,97.738 8.368,97.554 8.778,97.187 C9.188,96.819 9.394,96.342 9.394,95.756 C9.394,95.288 9.236,94.853 8.922,94.454 C8.608,94.054 8.200,93.700 7.700,93.391 C7.199,93.082 6.647,92.768 6.046,92.448 C5.444,92.129 4.839,91.767 4.232,91.362 C3.625,90.957 3.071,90.512 2.570,90.027 C2.069,89.542 1.661,88.932 1.347,88.197 C1.033,87.462 0.876,86.642 0.876,85.736 C0.876,84.522 1.185,83.438 1.803,82.484 C2.421,81.531 3.212,80.809 4.176,80.319 C5.140,79.829 6.171,79.584 7.268,79.584 C9.729,79.584 11.721,80.356 13.245,81.901 C13.245,81.901 10.736,85.113 10.736,85.113 C10.171,84.602 9.580,84.234 8.962,84.010 C8.344,83.787 7.790,83.675 7.300,83.675 C6.671,83.675 6.182,83.867 5.830,84.250 C5.478,84.634 5.303,85.065 5.303,85.545 C5.303,85.971 5.460,86.368 5.774,86.735 C6.088,87.103 6.496,87.438 6.997,87.742 C7.497,88.046 8.049,88.355 8.651,88.669 C9.252,88.983 9.854,89.345 10.456,89.755 C11.058,90.166 11.610,90.618 12.110,91.114 C12.611,91.609 13.019,92.230 13.333,92.976 C13.647,93.721 13.804,94.547 13.804,95.453 C13.804,97.349 13.136,98.886 11.799,100.063 C10.462,101.240 8.733,101.829 6.613,101.829 C5.388,101.829 4.168,101.560 2.953,101.022 C1.739,100.484 0.817,99.837 0.189,99.080 C0.189,99.080 2.554,95.948 2.554,95.948 C4.088,97.141 5.569,97.738 6.997,97.738 ZM0.684,62.235 C0.684,62.235 0.684,40.629 0.684,40.629 C0.684,40.629 13.932,40.629 13.932,40.629 C13.932,40.629 13.932,44.560 13.932,44.560 C13.932,44.560 4.935,44.560 4.935,44.560 C4.935,44.560 4.935,49.962 4.935,49.962 C4.935,49.962 11.807,49.962 11.807,49.962 C11.807,49.962 11.807,53.893 11.807,53.893 C11.807,53.893 4.935,53.893 4.935,53.893 C4.935,53.893 4.935,62.235 4.935,62.235 C4.935,62.235 0.684,62.235 0.684,62.235 ZM39.651,83.835 C39.651,83.835 34.585,83.835 34.585,83.835 C34.585,83.835 34.585,101.509 34.585,101.509 C34.585,101.509 30.318,101.509 30.318,101.509 C30.318,101.509 30.318,83.835 30.318,83.835 C30.318,83.835 25.253,83.835 25.253,83.835 C25.253,83.835 25.253,79.903 25.253,79.903 C25.253,79.903 39.651,79.903 39.651,79.903 C39.651,79.903 39.651,83.835 39.651,83.835 ZM55.350,90.706 C55.350,92.667 56.011,94.329 57.332,95.692 C58.653,97.056 60.283,97.738 62.222,97.738 C64.161,97.738 65.794,97.056 67.120,95.692 C68.447,94.329 69.110,92.667 69.110,90.706 C69.110,90.706 69.110,79.903 69.110,79.903 C69.110,79.903 73.361,79.903 73.361,79.903 C73.361,79.903 73.361,90.706 73.361,90.706 C73.361,92.720 72.862,94.582 71.866,96.292 C70.870,98.002 69.517,99.352 67.807,100.343 C66.097,101.334 64.236,101.829 62.222,101.829 C60.709,101.829 59.266,101.536 57.891,100.950 C56.517,100.364 55.334,99.576 54.344,98.585 C53.353,97.594 52.564,96.411 51.978,95.037 C51.392,93.663 51.099,92.219 51.099,90.706 C51.099,90.706 51.099,79.903 51.099,79.903 C51.099,79.903 55.350,79.903 55.350,79.903 C55.350,79.903 55.350,90.706 55.350,90.706 ZM111.844,62.235 C111.844,62.235 107.593,62.235 107.593,62.235 C107.593,62.235 107.593,40.629 107.593,40.629 C107.593,40.629 111.844,40.629 111.844,40.629 C111.844,40.629 111.844,62.235 111.844,62.235 ZM118.486,101.509 C118.486,101.509 114.235,101.509 114.235,101.509 C114.235,101.509 114.235,79.903 114.235,79.903 C114.235,79.903 118.486,79.903 118.486,79.903 C118.486,79.903 118.486,101.509 118.486,101.509 ZM172.561,97.738 C173.339,97.738 173.933,97.554 174.343,97.187 C174.753,96.819 174.958,96.342 174.958,95.756 C174.958,95.288 174.801,94.853 174.487,94.454 C174.172,94.054 173.765,93.700 173.264,93.391 C172.763,93.082 172.212,92.768 171.610,92.448 C171.008,92.129 170.404,91.767 169.796,91.362 C169.189,90.957 168.635,90.512 168.134,90.027 C167.634,89.542 167.226,88.932 166.912,88.197 C166.598,87.462 166.440,86.642 166.440,85.736 C166.440,84.522 166.749,83.438 167.367,82.484 C167.985,81.531 168.776,80.809 169.740,80.319 C170.705,79.829 171.735,79.584 172.833,79.584 C175.294,79.584 177.286,80.356 178.810,81.901 C178.810,81.901 176.301,85.113 176.301,85.113 C175.736,84.602 175.144,84.234 174.527,84.010 C173.909,83.787 173.355,83.675 172.865,83.675 C172.236,83.675 171.746,83.867 171.394,84.250 C171.043,84.634 170.867,85.065 170.867,85.545 C170.867,85.971 171.024,86.368 171.339,86.735 C171.653,87.103 172.060,87.438 172.561,87.742 C173.062,88.046 173.613,88.355 174.215,88.669 C174.817,88.983 175.419,89.345 176.021,89.755 C176.623,90.166 177.174,90.618 177.675,91.114 C178.176,91.609 178.583,92.230 178.897,92.976 C179.212,93.721 179.369,94.547 179.369,95.453 C179.369,97.349 178.700,98.886 177.363,100.063 C176.026,101.240 174.297,101.829 172.178,101.829 C170.952,101.829 169.732,101.560 168.518,101.022 C167.303,100.484 166.382,99.837 165.753,99.080 C165.753,99.080 168.118,95.948 168.118,95.948 C169.653,97.141 171.133,97.738 172.561,97.738 Z"/>
</svg>