<svg xmlns="http://www.w3.org/2000/svg" xmlns:xlink="http://www.w3.org/1999/xlink" preserveAspectRatio="xMidYMid" width="128" height="40" viewBox="0 0 128 40">
  <path d="M114.448,2.047 C109.017,2.047 104.706,5.295 104.706,9.886 C104.706,20.524 127.382,14.925 127.382,28.866 C127.382,33.066 124.695,39.001 114.616,39.001 C108.793,39.001 104.258,36.481 101.570,33.066 C101.570,33.066 103.026,31.778 103.026,31.778 C105.322,34.578 109.241,37.321 114.616,37.321 C123.239,37.321 125.422,32.394 125.422,28.866 C125.422,16.549 102.746,22.652 102.746,9.886 C102.746,3.839 108.289,0.367 114.448,0.367 C119.935,0.367 123.911,2.383 126.542,5.630 C126.542,5.630 125.142,6.918 125.142,6.918 C122.511,3.503 118.760,2.047 114.448,2.047 ZM86.285,0.983 C86.285,0.983 88.077,0.983 88.077,0.983 C88.077,0.983 88.077,38.329 88.077,38.329 C88.077,38.329 86.285,38.329 86.285,38.329 C86.285,38.329 86.285,0.983 86.285,0.983 ZM74.338,29.799 C74.338,29.799 68.674,29.497 68.674,29.497 C68.674,29.497 70.080,28.818 70.080,28.818 C70.080,28.818 70.774,28.482 70.774,28.482 C70.774,28.482 58.934,21.116 58.934,21.116 C58.934,21.116 58.934,33.786 58.934,33.786 C58.934,33.786 59.221,33.598 59.221,33.598 C59.221,33.598 60.731,32.607 60.731,32.607 C60.731,32.607 57.814,38.446 57.814,38.446 C57.814,38.446 54.898,36.435 54.898,36.435 C54.898,36.435 56.407,35.444 56.407,35.444 C56.407,35.444 57.142,34.962 57.142,34.962 C57.142,34.962 57.142,20.942 57.142,20.942 C57.142,20.942 44.836,28.598 44.836,28.598 C44.836,28.598 45.454,28.906 45.454,28.906 C45.454,28.906 46.829,29.590 46.829,29.590 C46.829,29.590 41.290,29.894 41.290,29.894 C41.290,29.894 41.518,26.948 41.518,26.948 C41.518,26.948 42.892,27.631 42.892,27.631 C42.892,27.631 43.550,27.959 43.550,27.959 C43.550,27.959 56.890,19.809 56.890,19.809 C56.890,19.809 43.500,11.589 43.500,11.589 C43.500,11.589 43.192,11.746 43.192,11.746 C43.192,11.746 42.134,12.286 42.134,12.286 C42.134,12.286 41.958,9.962 41.958,9.962 C41.958,9.962 46.223,10.202 46.223,10.202 C46.223,10.202 45.165,10.741 45.165,10.741 C45.165,10.741 44.815,10.919 44.815,10.919 C44.815,10.919 57.142,18.620 57.142,18.620 C57.142,18.620 57.142,4.320 57.142,4.320 C57.142,4.320 56.407,4.797 56.407,4.797 C56.407,4.797 54.898,5.778 54.898,5.778 C54.898,5.778 57.814,-0.001 57.814,-0.001 C57.814,-0.001 60.731,1.989 60.731,1.989 C60.731,1.989 59.221,2.970 59.221,2.970 C59.221,2.970 58.934,3.156 58.934,3.156 C58.934,3.156 58.934,18.445 58.934,18.445 C58.934,18.445 70.750,11.064 70.750,11.064 C70.750,11.064 70.281,10.833 70.281,10.833 C70.281,10.833 69.199,10.297 69.199,10.297 C69.199,10.297 73.560,10.059 73.560,10.059 C73.560,10.059 73.500,10.838 73.500,10.838 C73.500,10.838 73.519,10.838 73.519,10.838 C73.519,10.838 73.499,10.851 73.499,10.851 C73.499,10.851 73.381,12.367 73.381,12.367 C73.381,12.367 72.299,11.831 72.299,11.831 C72.299,11.831 72.077,11.721 72.077,11.721 C72.077,11.721 58.934,19.764 58.934,19.764 C58.934,19.764 58.934,19.799 58.934,19.799 C58.934,19.799 72.078,27.852 72.078,27.852 C72.078,27.852 72.700,27.552 72.700,27.552 C72.700,27.552 74.105,26.873 74.105,26.873 C74.105,26.873 74.291,29.208 74.291,29.208 C74.291,29.208 74.359,29.250 74.359,29.250 C74.359,29.250 74.294,29.250 74.294,29.250 C74.294,29.250 74.338,29.799 74.338,29.799 ZM27.047,28.307 C27.047,28.307 6.219,28.307 6.219,28.307 C6.219,28.307 2.076,38.329 2.076,38.329 C2.076,38.329 0.004,38.329 0.004,38.329 C0.004,38.329 15.569,0.983 15.569,0.983 C15.569,0.983 17.697,0.983 17.697,0.983 C17.697,0.983 33.262,38.329 33.262,38.329 C33.262,38.329 31.191,38.329 31.191,38.329 C31.191,38.329 27.047,28.307 27.047,28.307 ZM16.633,3.055 C16.633,3.055 6.891,26.627 6.891,26.627 C6.891,26.627 26.375,26.627 26.375,26.627 C26.375,26.627 16.633,3.055 16.633,3.055 Z" id="path-1" fill="#ccd8db" fill-rule="evenodd"/>
</svg>
