<svg xmlns="http://www.w3.org/2000/svg" xmlns:xlink="http://www.w3.org/1999/xlink" preserveAspectRatio="xMidYMid" width="137" height="41" viewBox="0 0 137 41">
  <path d="M116.700,39.250 C116.700,39.250 105.239,39.250 105.239,39.250 C105.239,39.250 105.239,0.640 105.239,0.640 C105.239,0.640 116.700,0.640 116.700,0.640 C128.683,0.640 135.919,9.670 135.919,19.974 C135.919,30.394 128.683,39.250 116.700,39.250 ZM116.700,2.376 C116.700,2.376 107.091,2.376 107.091,2.376 C107.091,2.376 107.091,37.514 107.091,37.514 C107.091,37.514 116.700,37.514 116.700,37.514 C127.641,37.514 133.893,29.757 133.893,19.974 C133.893,10.307 127.641,2.376 116.700,2.376 ZM87.410,0.640 C87.410,0.640 89.262,0.640 89.262,0.640 C89.262,0.640 89.262,39.250 89.262,39.250 C89.262,39.250 87.410,39.250 87.410,39.250 C87.410,39.250 87.410,0.640 87.410,0.640 ZM70.969,39.250 C70.969,39.250 59.218,22.579 59.218,22.579 C59.218,22.579 49.956,22.579 49.956,22.579 C49.956,22.579 49.956,39.250 49.956,39.250 C49.956,39.250 48.104,39.250 48.104,39.250 C48.104,39.250 48.104,0.640 48.104,0.640 C48.104,0.640 61.418,0.640 61.418,0.640 C67.670,0.640 72.822,4.518 72.822,11.580 C72.822,18.643 67.670,22.579 61.418,22.579 C61.418,22.579 73.343,39.250 73.343,39.250 C73.343,39.250 70.969,39.250 70.969,39.250 ZM70.796,11.580 C70.796,6.255 67.091,2.376 61.418,2.376 C61.418,2.376 49.956,2.376 49.956,2.376 C49.956,2.376 49.956,20.842 49.956,20.842 C49.956,20.842 61.418,20.842 61.418,20.842 C67.091,20.842 70.796,16.906 70.796,11.580 ZM19.276,40.003 C8.567,40.003 -0.000,31.841 -0.000,19.974 C-0.000,8.107 8.567,0.003 19.276,0.003 C25.122,0.003 29.638,2.087 33.400,5.965 C33.400,5.965 32.185,7.239 32.185,7.239 C29.175,3.824 24.428,1.740 19.276,1.740 C9.609,1.740 2.026,9.091 2.026,19.974 C2.026,30.741 9.609,38.266 19.276,38.266 C24.949,38.266 29.290,35.430 31.548,33.056 C31.548,33.056 31.548,22.463 31.548,22.463 C31.548,22.463 15.629,22.463 15.629,22.463 C15.629,22.463 15.629,20.726 15.629,20.726 C15.629,20.726 33.400,20.726 33.400,20.726 C33.400,20.726 33.400,33.809 33.400,33.809 C30.101,37.514 25.065,40.003 19.276,40.003 Z" id="path-1" fill="#ccd8db" fill-rule="evenodd"/>
</svg>
