<svg 
 xmlns="http://www.w3.org/2000/svg"
 xmlns:xlink="http://www.w3.org/1999/xlink"
 width="132px" height="41px">
<path fill-rule="evenodd"  fill="rgb(204, 216, 219)"
 d="M118.199,2.379 C112.629,2.379 108.207,5.710 108.207,10.419 C108.207,21.329 131.463,15.587 131.463,29.885 C131.463,34.191 128.707,40.278 118.371,40.278 C112.399,40.278 107.748,37.694 104.992,34.191 C104.992,34.191 106.485,32.871 106.485,32.871 C108.839,35.742 112.859,38.556 118.371,38.556 C127.214,38.556 129.454,33.502 129.454,29.885 C129.454,17.252 106.198,23.511 106.198,10.419 C106.198,4.217 111.882,0.657 118.199,0.657 C123.826,0.657 127.903,2.724 130.602,6.054 C130.602,6.054 129.167,7.375 129.167,7.375 C126.468,3.872 122.620,2.379 118.199,2.379 ZM89.316,1.288 C89.316,1.288 91.153,1.288 91.153,1.288 C91.153,1.288 91.153,39.589 91.153,39.589 C91.153,39.589 89.316,39.589 89.316,39.589 C89.316,39.589 89.316,1.288 89.316,1.288 ZM77.063,30.841 C77.063,30.841 71.254,30.531 71.254,30.531 C71.254,30.531 72.696,29.835 72.696,29.835 C72.696,29.835 73.408,29.491 73.408,29.491 C73.408,29.491 61.265,21.936 61.265,21.936 C61.265,21.936 61.265,34.930 61.265,34.930 C61.265,34.930 61.559,34.737 61.559,34.737 C61.559,34.737 63.107,33.721 63.107,33.721 C63.107,33.721 60.116,39.710 60.116,39.710 C60.116,39.710 57.125,37.647 57.125,37.647 C57.125,37.647 58.673,36.631 58.673,36.631 C58.673,36.631 59.427,36.136 59.427,36.136 C59.427,36.136 59.427,21.758 59.427,21.758 C59.427,21.758 46.806,29.610 46.806,29.610 C46.806,29.610 47.440,29.925 47.440,29.925 C47.440,29.925 48.850,30.627 48.850,30.627 C48.850,30.627 43.170,30.938 43.170,30.938 C43.170,30.938 43.403,27.917 43.403,27.917 C43.403,27.917 44.813,28.618 44.813,28.618 C44.813,28.618 45.488,28.954 45.488,28.954 C45.488,28.954 59.169,20.596 59.169,20.596 C59.169,20.596 45.436,12.166 45.436,12.166 C45.436,12.166 45.120,12.327 45.120,12.327 C45.120,12.327 44.035,12.880 44.035,12.880 C44.035,12.880 43.855,10.497 43.855,10.497 C43.855,10.497 48.229,10.743 48.229,10.743 C48.229,10.743 47.144,11.296 47.144,11.296 C47.144,11.296 46.784,11.479 46.784,11.479 C46.784,11.479 59.427,19.376 59.427,19.376 C59.427,19.376 59.427,4.710 59.427,4.710 C59.427,4.710 58.673,5.200 58.673,5.200 C58.673,5.200 57.125,6.205 57.125,6.205 C57.125,6.205 60.116,0.279 60.116,0.279 C60.116,0.279 63.107,2.320 63.107,2.320 C63.107,2.320 61.559,3.326 61.559,3.326 C61.559,3.326 61.265,3.517 61.265,3.517 C61.265,3.517 61.265,19.196 61.265,19.196 C61.265,19.196 73.383,11.627 73.383,11.627 C73.383,11.627 72.902,11.390 72.902,11.390 C72.902,11.390 71.793,10.840 71.793,10.840 C71.793,10.840 76.265,10.596 76.265,10.596 C76.265,10.596 76.203,11.395 76.203,11.395 C76.203,11.395 76.223,11.395 76.223,11.395 C76.223,11.395 76.202,11.408 76.202,11.408 C76.202,11.408 76.082,12.963 76.082,12.963 C76.082,12.963 74.972,12.414 74.972,12.414 C74.972,12.414 74.744,12.301 74.744,12.301 C74.744,12.301 61.265,20.550 61.265,20.550 C61.265,20.550 61.265,20.585 61.265,20.585 C61.265,20.585 74.745,28.845 74.745,28.845 C74.745,28.845 75.383,28.537 75.383,28.537 C75.383,28.537 76.824,27.840 76.824,27.840 C76.824,27.840 77.014,30.235 77.014,30.235 C77.014,30.235 77.085,30.278 77.085,30.278 C77.085,30.278 77.018,30.278 77.018,30.278 C77.018,30.278 77.063,30.841 77.063,30.841 ZM28.563,29.310 C28.563,29.310 7.202,29.310 7.202,29.310 C7.202,29.310 2.952,39.589 2.952,39.589 C2.952,39.589 0.828,39.589 0.828,39.589 C0.828,39.589 16.791,1.288 16.791,1.288 C16.791,1.288 18.973,1.288 18.973,1.288 C18.973,1.288 34.937,39.589 34.937,39.589 C34.937,39.589 32.812,39.589 32.812,39.589 C32.812,39.589 28.563,29.310 28.563,29.310 ZM17.882,3.413 C17.882,3.413 7.891,27.588 7.891,27.588 C7.891,27.588 27.874,27.588 27.874,27.588 C27.874,27.588 17.882,3.413 17.882,3.413 Z"/>
</svg>