<svg 
 xmlns="http://www.w3.org/2000/svg"
 xmlns:xlink="http://www.w3.org/1999/xlink"
 width="140px" height="41px">
<path fill-rule="evenodd"  fill="rgb(204, 216, 219)"
 d="M119.964,40.063 C119.964,40.063 108.208,40.063 108.208,40.063 C108.208,40.063 108.208,1.453 108.208,1.453 C108.208,1.453 119.964,1.453 119.964,1.453 C132.255,1.453 139.677,10.483 139.677,20.787 C139.677,31.206 132.255,40.063 119.964,40.063 ZM119.964,3.189 C119.964,3.189 110.108,3.189 110.108,3.189 C110.108,3.189 110.108,38.326 110.108,38.326 C110.108,38.326 119.964,38.326 119.964,38.326 C131.186,38.326 137.599,30.570 137.599,20.787 C137.599,11.120 131.186,3.189 119.964,3.189 ZM89.920,1.453 C89.920,1.453 91.820,1.453 91.820,1.453 C91.820,1.453 91.820,40.063 91.820,40.063 C91.820,40.063 89.920,40.063 89.920,40.063 C89.920,40.063 89.920,1.453 89.920,1.453 ZM73.057,40.063 C73.057,40.063 61.004,23.392 61.004,23.392 C61.004,23.392 51.504,23.392 51.504,23.392 C51.504,23.392 51.504,40.063 51.504,40.063 C51.504,40.063 49.603,40.063 49.603,40.063 C49.603,40.063 49.603,1.453 49.603,1.453 C49.603,1.453 63.260,1.453 63.260,1.453 C69.673,1.453 74.957,5.331 74.957,12.393 C74.957,19.455 69.673,23.392 63.260,23.392 C63.260,23.392 75.491,40.063 75.491,40.063 C75.491,40.063 73.057,40.063 73.057,40.063 ZM72.879,12.393 C72.879,7.067 69.079,3.189 63.260,3.189 C63.260,3.189 51.504,3.189 51.504,3.189 C51.504,3.189 51.504,21.655 51.504,21.655 C51.504,21.655 63.260,21.655 63.260,21.655 C69.079,21.655 72.879,17.719 72.879,12.393 ZM20.034,40.816 C9.049,40.816 0.262,32.654 0.262,20.787 C0.262,8.920 9.049,0.816 20.034,0.816 C26.031,0.816 30.662,2.900 34.522,6.778 C34.522,6.778 33.275,8.052 33.275,8.052 C30.187,4.636 25.318,2.552 20.034,2.552 C10.118,2.552 2.340,9.904 2.340,20.787 C2.340,31.554 10.118,39.079 20.034,39.079 C25.853,39.079 30.306,36.242 32.622,33.869 C32.622,33.869 32.622,23.276 32.622,23.276 C32.622,23.276 16.293,23.276 16.293,23.276 C16.293,23.276 16.293,21.539 16.293,21.539 C16.293,21.539 34.522,21.539 34.522,21.539 C34.522,21.539 34.522,34.622 34.522,34.622 C31.137,38.326 25.971,40.816 20.034,40.816 Z"/>
</svg>