<svg 
 xmlns="http://www.w3.org/2000/svg"
 xmlns:xlink="http://www.w3.org/1999/xlink"
 width="132px" height="94px">
<path fill-rule="evenodd"  fill="rgb(204, 216, 219)"
 d="M130.688,34.107 C130.328,34.107 130.040,34.107 129.608,34.215 C128.600,34.503 128.312,35.258 128.276,37.274 C128.276,37.274 127.880,59.987 127.880,59.987 C127.880,60.779 127.736,61.103 127.412,61.103 C127.016,61.103 126.584,60.707 126.188,60.311 C123.920,58.152 119.313,53.436 115.569,49.729 C111.646,45.841 107.650,41.342 107.003,40.658 C107.003,40.658 106.895,40.658 106.895,40.658 C106.895,40.658 107.290,55.776 107.290,55.776 C107.362,58.584 107.830,59.519 108.550,59.771 C109.162,59.987 109.846,60.023 110.422,60.023 C110.818,60.023 111.034,60.095 111.034,60.311 C111.034,60.599 110.710,60.671 110.206,60.671 C107.866,60.671 106.427,60.563 105.743,60.563 C105.419,60.563 103.727,60.671 101.855,60.671 C101.442,60.671 101.155,60.631 101.090,60.402 C101.059,60.608 100.823,60.671 99.729,60.671 C98.613,60.671 96.309,60.671 93.646,60.599 C93.070,60.563 92.710,60.563 92.710,60.347 C92.710,60.167 92.782,60.059 93.106,60.023 C93.322,59.987 93.538,59.699 93.394,59.339 C93.394,59.339 90.946,53.184 90.946,53.184 C90.874,53.004 90.766,52.968 90.622,52.968 C90.622,52.968 83.171,52.968 83.171,52.968 C82.991,52.968 82.955,53.004 82.883,53.184 C82.883,53.184 81.191,57.288 81.191,57.288 C80.867,58.044 80.723,58.800 80.723,59.159 C80.723,59.699 81.011,60.023 81.983,60.023 C81.983,60.023 82.451,60.023 82.451,60.023 C82.847,60.023 82.919,60.167 82.919,60.347 C82.919,60.599 82.739,60.671 82.415,60.671 C81.436,60.671 80.091,60.579 79.094,60.567 C78.993,60.640 78.831,60.671 78.597,60.671 C78.597,60.671 75.573,60.671 75.573,60.671 C75.546,60.671 75.528,60.669 75.502,60.669 C75.406,60.670 75.311,60.671 75.216,60.671 C75.110,60.671 75.023,60.665 74.947,60.653 C73.615,60.610 72.835,60.433 72.118,60.059 C70.750,59.375 69.562,57.936 67.798,55.560 C66.538,53.904 65.207,51.852 64.811,51.384 C64.631,51.204 64.451,51.168 64.235,51.168 C64.235,51.168 61.391,51.096 61.391,51.096 C61.247,51.096 61.139,51.168 61.139,51.348 C61.139,51.348 61.139,51.780 61.139,51.780 C61.139,54.624 61.175,57.000 61.319,58.296 C61.427,59.195 61.571,59.771 62.543,59.915 C63.011,59.987 63.695,60.023 64.091,60.023 C64.343,60.023 64.487,60.203 64.487,60.347 C64.487,60.563 64.235,60.671 63.839,60.671 C62.003,60.671 59.375,60.563 58.907,60.563 C58.295,60.563 56.280,60.671 55.020,60.671 C54.624,60.671 54.408,60.563 54.408,60.347 C54.408,60.203 54.516,60.023 54.912,60.023 C55.380,60.023 55.740,59.987 56.028,59.915 C56.676,59.771 56.856,59.195 56.964,58.296 C57.108,57.000 57.108,54.588 57.108,51.780 C57.108,51.780 57.108,46.381 57.108,46.381 C57.108,41.738 57.108,40.874 57.072,39.902 C57.000,38.858 56.712,38.534 55.704,38.246 C55.452,38.174 54.912,38.138 54.444,38.138 C54.120,38.138 53.904,38.030 53.904,37.814 C53.904,37.598 54.156,37.526 54.624,37.526 C56.280,37.526 58.295,37.598 58.943,37.598 C60.023,37.598 62.903,37.526 63.875,37.526 C65.891,37.526 68.194,37.706 69.886,38.822 C70.786,39.434 72.118,40.982 72.118,43.033 C72.118,45.301 70.822,47.317 67.726,49.801 C70.534,53.256 72.766,56.028 74.673,57.936 C75.629,58.892 76.389,59.364 76.970,59.620 C77.688,59.178 78.101,58.392 78.564,57.288 C78.564,57.288 86.843,38.030 86.843,38.030 C87.203,37.166 87.455,36.806 87.779,36.806 C88.246,36.806 88.390,37.094 88.714,37.778 C89.470,39.470 94.762,51.996 96.777,56.640 C98.001,59.411 98.901,59.807 99.477,59.915 C99.945,59.987 100.305,60.023 100.665,60.023 C100.922,60.023 101.047,60.123 101.074,60.296 C101.088,60.097 101.292,60.023 101.639,60.023 C102.107,60.023 102.755,59.987 103.259,59.843 C104.195,59.555 104.339,58.512 104.375,55.380 C104.375,55.380 104.699,34.071 104.699,34.071 C104.699,33.351 104.807,32.847 105.167,32.847 C105.563,32.847 105.887,33.315 106.499,33.963 C106.931,34.431 112.402,40.298 117.657,45.517 C120.105,47.965 124.964,53.148 125.576,53.724 C125.576,53.724 125.756,53.724 125.756,53.724 C125.756,53.724 125.396,37.562 125.396,37.562 C125.360,35.366 125.036,34.683 124.172,34.323 C123.632,34.107 122.769,34.107 122.265,34.107 C121.833,34.107 121.689,33.999 121.689,33.783 C121.689,33.495 122.085,33.459 122.625,33.459 C124.496,33.459 126.224,33.567 126.980,33.567 C127.376,33.567 128.744,33.459 130.508,33.459 C130.976,33.459 131.335,33.495 131.335,33.783 C131.335,33.999 131.119,34.107 130.688,34.107 ZM68.122,44.545 C68.122,40.226 65.171,39.110 63.299,39.110 C62.507,39.110 61.751,39.146 61.427,39.218 C61.211,39.290 61.139,39.398 61.139,39.650 C61.139,39.650 61.139,48.757 61.139,48.757 C61.139,49.081 61.211,49.189 61.427,49.297 C62.111,49.513 63.047,49.585 63.839,49.585 C65.099,49.585 65.531,49.477 66.071,49.081 C67.042,48.397 68.122,47.065 68.122,44.545 ZM87.095,43.321 C87.059,43.213 87.023,43.033 86.951,43.033 C86.843,43.033 86.807,43.213 86.771,43.321 C86.771,43.321 83.711,51.060 83.711,51.060 C83.639,51.204 83.711,51.276 83.819,51.276 C83.819,51.276 89.938,51.276 89.938,51.276 C90.082,51.276 90.118,51.204 90.082,51.096 C90.082,51.096 87.095,43.321 87.095,43.321 ZM129.469,18.507 C127.669,18.507 126.348,18.459 125.412,18.435 C124.476,18.387 123.900,18.363 123.540,18.363 C123.492,18.363 123.084,18.363 122.580,18.387 C122.100,18.387 121.548,18.435 121.188,18.435 C120.924,18.435 120.804,18.387 120.804,18.243 C120.804,18.171 120.852,18.099 120.996,18.099 C121.212,18.099 121.500,18.051 121.716,18.003 C122.196,17.907 122.316,17.379 122.412,16.683 C122.532,15.675 122.532,13.779 122.532,11.475 C122.532,11.475 122.532,7.250 122.532,7.250 C122.532,3.506 122.532,2.834 122.484,2.066 C122.436,1.250 122.244,0.866 121.452,0.698 C121.260,0.650 120.852,0.626 120.636,0.626 C120.540,0.626 120.444,0.578 120.444,0.482 C120.444,0.338 120.564,0.290 120.828,0.290 C121.380,0.290 122.028,0.290 122.556,0.314 C122.556,0.314 123.540,0.362 123.540,0.362 C123.708,0.362 128.485,0.362 129.037,0.338 C129.493,0.314 129.877,0.266 130.069,0.218 C130.189,0.194 130.285,0.098 130.405,0.098 C130.477,0.098 130.501,0.194 130.501,0.314 C130.501,0.482 130.381,0.770 130.309,1.442 C130.285,1.682 130.237,2.738 130.189,3.026 C130.165,3.146 130.117,3.290 130.021,3.290 C129.877,3.290 129.829,3.170 129.829,2.978 C129.829,2.810 129.805,2.402 129.685,2.114 C129.517,1.730 129.277,1.442 127.981,1.298 C127.573,1.250 124.956,1.226 124.692,1.226 C124.596,1.226 124.548,1.298 124.548,1.466 C124.548,1.466 124.548,8.090 124.548,8.090 C124.548,8.258 124.572,8.330 124.692,8.330 C125.004,8.330 127.957,8.330 128.509,8.282 C129.085,8.234 129.421,8.186 129.637,7.946 C129.805,7.754 129.901,7.634 129.997,7.634 C130.069,7.634 130.117,7.682 130.117,7.826 C130.117,7.970 129.997,8.378 129.925,9.170 C129.877,9.651 129.829,10.539 129.829,10.707 C129.829,10.899 129.829,11.163 129.661,11.163 C129.541,11.163 129.493,11.067 129.493,10.947 C129.493,10.707 129.493,10.467 129.397,10.155 C129.301,9.819 129.085,9.411 128.149,9.314 C127.501,9.242 125.124,9.194 124.716,9.194 C124.596,9.194 124.548,9.266 124.548,9.363 C124.548,9.363 124.548,11.475 124.548,11.475 C124.548,12.291 124.524,15.075 124.548,15.579 C124.620,17.235 124.980,17.547 127.333,17.547 C127.957,17.547 129.013,17.547 129.637,17.283 C130.261,17.019 130.549,16.539 130.717,15.555 C130.765,15.291 130.813,15.195 130.933,15.195 C131.077,15.195 131.077,15.387 131.077,15.555 C131.077,15.747 130.885,17.379 130.765,17.883 C130.597,18.507 130.405,18.507 129.469,18.507 ZM110.438,18.435 C109.286,18.435 107.942,18.363 107.821,18.363 C107.725,18.363 106.357,18.435 105.733,18.435 C105.493,18.435 105.397,18.387 105.397,18.267 C105.397,18.195 105.445,18.099 105.565,18.099 C105.757,18.099 105.997,18.051 106.189,18.003 C106.621,17.907 106.693,17.499 106.765,16.899 C106.861,16.059 106.861,14.523 106.861,12.555 C106.861,12.555 106.861,10.515 106.861,10.515 C106.861,10.419 106.813,10.395 106.741,10.395 C106.741,10.395 97.933,10.395 97.933,10.395 C97.861,10.395 97.813,10.419 97.813,10.515 C97.813,10.515 97.813,12.555 97.813,12.555 C97.813,14.523 97.813,16.083 97.909,16.923 C97.981,17.523 98.053,17.907 98.677,18.003 C98.989,18.051 99.445,18.099 99.637,18.099 C99.757,18.099 99.805,18.195 99.805,18.267 C99.805,18.363 99.709,18.435 99.469,18.435 C98.293,18.435 96.949,18.363 96.853,18.363 C96.733,18.363 95.388,18.435 94.740,18.435 C94.524,18.435 94.404,18.387 94.404,18.267 C94.404,18.195 94.452,18.099 94.572,18.099 C94.764,18.099 95.028,18.051 95.220,18.003 C95.628,17.907 95.676,17.523 95.772,16.923 C95.892,16.083 95.892,14.475 95.892,12.507 C95.892,12.507 95.892,8.906 95.892,8.906 C95.892,5.738 95.892,5.162 95.844,4.514 C95.796,3.818 95.676,3.482 94.980,3.386 C94.812,3.362 94.452,3.338 94.260,3.338 C94.188,3.338 94.092,3.242 94.092,3.170 C94.092,3.050 94.188,3.002 94.428,3.002 C95.388,3.002 96.733,3.050 96.853,3.050 C96.949,3.050 98.293,3.002 98.941,3.002 C99.181,3.002 99.277,3.050 99.277,3.170 C99.277,3.242 99.181,3.338 99.109,3.338 C98.965,3.338 98.821,3.338 98.581,3.386 C98.005,3.506 97.885,3.794 97.837,4.514 C97.813,5.162 97.813,5.786 97.813,8.954 C97.813,8.954 97.813,9.387 97.813,9.387 C97.813,9.507 97.861,9.507 97.933,9.507 C97.933,9.507 106.741,9.507 106.741,9.507 C106.813,9.507 106.861,9.507 106.861,9.387 C106.861,9.387 106.861,8.954 106.861,8.954 C106.861,5.786 106.837,5.162 106.813,4.514 C106.765,3.818 106.669,3.482 105.973,3.386 C105.805,3.362 105.445,3.338 105.253,3.338 C105.157,3.338 105.085,3.242 105.085,3.170 C105.085,3.050 105.181,3.002 105.421,3.002 C106.357,3.002 107.725,3.050 107.821,3.050 C107.942,3.050 109.286,3.002 109.910,3.002 C110.150,3.002 110.270,3.050 110.270,3.170 C110.270,3.242 110.174,3.338 110.078,3.338 C109.934,3.338 109.814,3.338 109.550,3.386 C108.998,3.506 108.878,3.794 108.830,4.514 C108.782,5.162 108.782,5.738 108.782,8.906 C108.782,8.906 108.782,12.507 108.782,12.507 C108.782,14.475 108.806,16.083 108.902,16.923 C108.974,17.523 109.022,17.907 109.670,18.003 C109.958,18.051 110.438,18.099 110.606,18.099 C110.750,18.099 110.798,18.195 110.798,18.267 C110.798,18.363 110.678,18.435 110.438,18.435 ZM85.478,5.690 C85.382,5.690 85.334,5.618 85.310,5.330 C85.310,5.330 85.286,5.114 85.286,5.114 C85.214,4.490 84.758,4.034 82.741,3.986 C82.741,3.986 80.101,3.938 80.101,3.938 C80.101,3.938 80.101,12.507 80.101,12.507 C80.101,14.475 80.101,16.083 80.197,16.923 C80.269,17.523 80.365,17.907 81.013,18.003 C81.301,18.051 81.781,18.099 81.973,18.099 C82.117,18.099 82.141,18.195 82.141,18.267 C82.141,18.363 82.045,18.435 81.805,18.435 C80.653,18.435 79.309,18.363 79.189,18.363 C79.093,18.363 77.629,18.435 77.005,18.435 C76.765,18.435 76.669,18.387 76.669,18.267 C76.669,18.195 76.717,18.123 76.837,18.123 C77.029,18.123 77.269,18.075 77.461,18.027 C77.893,17.931 78.013,17.523 78.085,16.923 C78.181,16.083 78.181,14.475 78.181,12.507 C78.181,12.507 78.181,3.938 78.181,3.938 C78.181,3.938 75.133,3.986 75.133,3.986 C73.813,4.010 73.309,4.154 72.997,4.634 C72.757,4.994 72.733,5.138 72.661,5.282 C72.613,5.450 72.541,5.474 72.445,5.474 C72.397,5.474 72.301,5.426 72.301,5.306 C72.301,5.090 72.733,3.266 72.757,3.098 C72.805,2.978 72.901,2.714 72.973,2.714 C73.117,2.714 73.333,2.882 73.909,2.954 C74.509,3.026 75.325,3.050 75.565,3.050 C75.565,3.050 83.534,3.050 83.534,3.050 C84.230,3.050 84.710,3.002 85.046,2.954 C85.358,2.906 85.550,2.858 85.646,2.858 C85.742,2.858 85.742,2.978 85.742,3.098 C85.742,3.722 85.670,5.186 85.670,5.426 C85.670,5.594 85.574,5.690 85.478,5.690 ZM51.758,5.690 C51.662,5.690 51.614,5.618 51.590,5.330 C51.590,5.330 51.566,5.114 51.566,5.114 C51.494,4.490 51.038,4.034 49.022,3.986 C49.022,3.986 46.382,3.938 46.382,3.938 C46.382,3.938 46.382,12.507 46.382,12.507 C46.382,14.475 46.382,16.083 46.478,16.923 C46.550,17.523 46.646,17.907 47.294,18.003 C47.582,18.051 48.062,18.099 48.254,18.099 C48.398,18.099 48.422,18.195 48.422,18.267 C48.422,18.363 48.326,18.435 48.086,18.435 C46.934,18.435 45.590,18.363 45.470,18.363 C45.374,18.363 43.909,18.435 43.285,18.435 C43.045,18.435 42.949,18.387 42.949,18.267 C42.949,18.195 42.997,18.123 43.117,18.123 C43.309,18.123 43.549,18.075 43.741,18.027 C44.173,17.931 44.293,17.523 44.365,16.923 C44.461,16.083 44.461,14.475 44.461,12.507 C44.461,12.507 44.461,3.938 44.461,3.938 C44.461,3.938 41.413,3.986 41.413,3.986 C40.093,4.010 39.589,4.154 39.277,4.634 C39.037,4.994 39.013,5.138 38.941,5.282 C38.893,5.450 38.821,5.474 38.725,5.474 C38.677,5.474 38.581,5.426 38.581,5.306 C38.581,5.090 39.013,3.266 39.037,3.098 C39.085,2.978 39.181,2.714 39.253,2.714 C39.397,2.714 39.613,2.882 40.189,2.954 C40.789,3.026 41.605,3.050 41.845,3.050 C41.845,3.050 49.814,3.050 49.814,3.050 C50.510,3.050 50.990,3.002 51.326,2.954 C51.638,2.906 51.830,2.858 51.926,2.858 C52.022,2.858 52.022,2.978 52.022,3.098 C52.022,3.722 51.950,5.186 51.950,5.426 C51.950,5.594 51.854,5.690 51.758,5.690 ZM54.441,48.541 C54.441,55.560 49.330,61.067 41.159,61.067 C31.944,61.067 28.200,54.516 28.200,49.081 C28.200,43.861 31.872,37.094 41.483,37.094 C49.474,37.094 54.441,41.522 54.441,48.541 ZM32.880,48.145 C32.880,54.444 36.479,59.411 42.454,59.411 C44.686,59.411 49.726,58.368 49.726,49.657 C49.726,42.889 45.658,38.714 40.547,38.714 C37.019,38.714 32.880,40.586 32.880,48.145 ZM29.198,18.483 C27.614,18.483 26.390,18.435 25.526,18.411 C24.638,18.363 24.085,18.363 23.773,18.363 C23.725,18.363 23.317,18.363 22.861,18.387 C22.453,18.411 21.973,18.435 21.637,18.435 C21.421,18.435 21.301,18.387 21.301,18.267 C21.301,18.195 21.349,18.099 21.469,18.099 C21.661,18.099 21.925,18.027 22.117,18.003 C22.525,17.931 22.573,17.523 22.669,16.923 C22.789,16.083 22.789,14.475 22.789,12.507 C22.789,12.507 22.789,8.906 22.789,8.906 C22.789,5.738 22.789,5.162 22.741,4.514 C22.693,3.818 22.573,3.482 21.877,3.386 C21.709,3.362 21.349,3.338 21.157,3.338 C21.085,3.338 20.989,3.242 20.989,3.170 C20.989,3.050 21.085,3.002 21.325,3.002 C22.285,3.002 23.653,3.050 23.773,3.050 C23.917,3.050 28.334,3.074 28.814,3.050 C29.222,3.026 29.606,2.954 29.774,2.930 C29.870,2.906 29.966,2.834 30.062,2.834 C30.134,2.834 30.158,2.930 30.158,3.026 C30.158,3.170 30.038,3.410 29.990,3.986 C29.966,4.178 29.918,5.090 29.870,5.330 C29.846,5.426 29.774,5.546 29.678,5.546 C29.558,5.546 29.510,5.450 29.510,5.282 C29.510,5.138 29.486,4.802 29.390,4.562 C29.246,4.226 29.030,4.082 27.878,3.938 C27.518,3.890 25.070,3.866 24.830,3.866 C24.734,3.866 24.710,3.938 24.710,4.082 C24.710,4.082 24.710,9.627 24.710,9.627 C24.710,9.771 24.710,9.843 24.830,9.843 C25.094,9.843 27.878,9.843 28.358,9.795 C28.862,9.747 29.174,9.723 29.390,9.507 C29.534,9.363 29.630,9.242 29.702,9.242 C29.774,9.242 29.822,9.290 29.822,9.411 C29.822,9.531 29.702,9.867 29.654,10.539 C29.606,10.947 29.558,11.715 29.558,11.859 C29.558,12.027 29.510,12.243 29.366,12.243 C29.270,12.243 29.222,12.171 29.222,12.051 C29.222,11.859 29.222,11.643 29.126,11.379 C29.054,11.091 28.862,10.851 28.046,10.755 C27.470,10.683 25.214,10.659 24.854,10.659 C24.734,10.659 24.710,10.731 24.710,10.803 C24.710,10.803 24.710,12.507 24.710,12.507 C24.710,13.203 24.686,15.579 24.710,15.987 C24.758,17.355 25.142,17.619 27.230,17.619 C27.782,17.619 28.790,17.619 29.342,17.403 C29.894,17.163 30.182,16.803 30.302,15.987 C30.350,15.747 30.398,15.675 30.518,15.675 C30.638,15.675 30.662,15.843 30.662,15.987 C30.662,16.131 30.494,17.523 30.374,17.955 C30.230,18.483 30.014,18.483 29.198,18.483 ZM25.858,33.459 C26.217,33.459 26.469,33.531 26.469,33.783 C26.469,34.035 26.289,34.107 25.930,34.107 C25.426,34.107 24.526,34.251 23.842,34.503 C22.726,34.934 21.502,35.690 19.954,37.202 C18.838,38.282 13.403,43.681 12.179,44.977 C13.475,46.669 20.530,54.264 21.934,55.596 C23.518,57.108 25.138,58.728 27.081,59.483 C28.161,59.915 28.881,60.023 29.313,60.023 C29.565,60.023 29.781,60.095 29.781,60.311 C29.781,60.563 29.601,60.671 28.917,60.671 C28.917,60.671 25.786,60.671 25.786,60.671 C24.706,60.671 24.058,60.671 23.302,60.599 C21.358,60.419 20.386,59.627 18.838,58.260 C17.255,56.856 10.163,48.541 9.408,47.497 C9.408,47.497 9.012,46.957 9.012,46.957 C9.012,46.957 8.832,46.957 8.832,46.957 C8.832,46.957 8.832,50.233 8.832,50.233 C8.832,53.544 8.832,56.388 8.940,57.936 C9.012,58.943 9.336,59.735 10.235,59.879 C10.739,59.951 11.531,60.023 11.999,60.023 C12.287,60.023 12.467,60.131 12.467,60.311 C12.467,60.563 12.179,60.671 11.783,60.671 C9.768,60.671 7.500,60.563 6.600,60.563 C5.772,60.563 3.504,60.671 2.065,60.671 C1.597,60.671 1.345,60.563 1.345,60.311 C1.345,60.131 1.489,60.023 1.921,60.023 C2.460,60.023 2.892,59.951 3.216,59.879 C3.936,59.735 4.116,58.943 4.260,57.900 C4.440,56.388 4.440,53.544 4.440,50.233 C4.440,50.233 4.440,43.897 4.440,43.897 C4.440,38.426 4.440,37.418 4.368,36.266 C4.296,35.042 4.008,34.467 2.820,34.215 C2.532,34.143 1.921,34.107 1.417,34.107 C1.021,34.107 0.805,34.035 0.805,33.783 C0.805,33.531 1.057,33.459 1.597,33.459 C3.504,33.459 5.772,33.567 6.636,33.567 C7.500,33.567 9.768,33.459 10.991,33.459 C11.495,33.459 11.747,33.531 11.747,33.783 C11.747,34.035 11.531,34.107 11.243,34.107 C10.883,34.107 10.667,34.143 10.235,34.215 C9.264,34.395 8.976,35.006 8.904,36.266 C8.832,37.418 8.832,38.426 8.832,43.897 C8.832,43.897 8.832,45.481 8.832,45.481 C8.832,45.481 9.012,45.481 9.012,45.481 C10.235,44.149 15.491,38.786 16.535,37.562 C17.543,36.374 18.334,35.474 18.334,34.863 C18.334,34.467 18.190,34.215 17.831,34.143 C17.507,34.071 17.363,33.999 17.363,33.783 C17.363,33.531 17.543,33.459 17.939,33.459 C18.694,33.459 20.674,33.567 21.646,33.567 C22.762,33.567 24.742,33.459 25.858,33.459 ZM10.814,18.507 C9.086,18.507 7.838,18.459 6.830,18.435 C5.822,18.387 5.078,18.363 4.382,18.363 C4.286,18.363 3.878,18.387 3.398,18.387 C2.917,18.411 2.389,18.435 2.029,18.435 C1.765,18.435 1.645,18.387 1.645,18.243 C1.645,18.171 1.693,18.099 1.837,18.099 C2.053,18.099 2.341,18.051 2.557,18.003 C3.037,17.907 3.158,17.379 3.254,16.683 C3.374,15.675 3.374,13.779 3.374,11.475 C3.374,11.475 3.374,7.250 3.374,7.250 C3.374,3.506 3.374,2.834 3.326,2.066 C3.278,1.250 3.086,0.866 2.293,0.698 C2.101,0.650 1.693,0.626 1.477,0.626 C1.381,0.626 1.285,0.578 1.285,0.482 C1.285,0.338 1.405,0.290 1.669,0.290 C2.749,0.290 4.262,0.362 4.382,0.362 C4.502,0.362 6.254,0.290 6.974,0.290 C7.238,0.290 7.358,0.338 7.358,0.482 C7.358,0.578 7.262,0.626 7.166,0.626 C6.998,0.626 6.662,0.650 6.374,0.698 C5.678,0.818 5.486,1.226 5.438,2.066 C5.390,2.834 5.390,3.506 5.390,7.250 C5.390,7.250 5.390,11.523 5.390,11.523 C5.390,15.051 5.486,16.587 5.918,17.019 C6.302,17.403 6.926,17.571 8.798,17.571 C10.070,17.571 11.126,17.547 11.702,16.851 C12.014,16.467 12.254,15.867 12.326,15.411 C12.350,15.219 12.398,15.099 12.542,15.099 C12.662,15.099 12.686,15.195 12.686,15.459 C12.686,15.723 12.518,17.163 12.326,17.859 C12.158,18.411 12.086,18.507 10.814,18.507 ZM2.020,89.283 C2.164,89.283 2.188,89.355 2.188,89.547 C2.188,89.763 2.188,90.099 2.260,90.435 C2.620,92.211 4.205,92.883 5.813,92.883 C8.117,92.883 9.245,91.227 9.245,89.691 C9.245,88.035 8.549,87.075 6.485,85.371 C6.485,85.371 5.405,84.483 5.405,84.483 C2.860,82.394 2.284,80.906 2.284,79.274 C2.284,76.706 4.205,74.954 7.253,74.954 C8.189,74.954 8.885,75.050 9.485,75.194 C9.941,75.290 10.133,75.314 10.325,75.314 C10.517,75.314 10.565,75.362 10.565,75.482 C10.565,75.602 10.469,76.394 10.469,78.026 C10.469,78.410 10.421,78.578 10.301,78.578 C10.157,78.578 10.133,78.458 10.109,78.266 C10.085,77.978 9.941,77.330 9.797,77.066 C9.653,76.802 9.005,75.794 6.797,75.794 C5.141,75.794 3.845,76.826 3.845,78.578 C3.845,79.946 4.469,80.810 6.773,82.610 C6.773,82.610 7.445,83.138 7.445,83.138 C10.277,85.371 10.949,86.859 10.949,88.779 C10.949,89.763 10.565,91.587 8.909,92.763 C7.877,93.483 6.581,93.771 5.285,93.771 C4.157,93.771 3.052,93.603 2.068,93.123 C1.732,92.955 1.708,92.859 1.708,92.211 C1.708,91.011 1.804,90.051 1.828,89.667 C1.852,89.403 1.900,89.283 2.020,89.283 ZM29.188,78.002 C30.148,78.002 31.468,78.050 31.636,78.050 C32.092,78.050 33.677,78.002 34.637,78.002 C37.349,78.002 38.309,78.842 38.669,79.154 C39.149,79.586 39.725,80.498 39.725,81.602 C39.725,84.531 37.517,86.475 34.277,86.475 C34.157,86.475 33.797,86.475 33.677,86.451 C33.580,86.451 33.460,86.355 33.460,86.259 C33.460,86.091 33.580,86.043 34.013,86.043 C36.293,86.043 37.925,84.603 37.925,82.754 C37.925,82.082 37.853,80.762 36.725,79.658 C35.621,78.554 34.349,78.674 33.869,78.674 C33.508,78.674 32.908,78.770 32.692,78.818 C32.572,78.842 32.524,78.986 32.524,79.202 C32.524,79.202 32.524,87.507 32.524,87.507 C32.524,89.475 32.524,91.083 32.620,91.923 C32.692,92.523 32.812,92.907 33.460,93.003 C33.749,93.051 34.205,93.099 34.397,93.099 C34.517,93.099 34.565,93.195 34.565,93.267 C34.565,93.363 34.469,93.435 34.229,93.435 C33.076,93.435 31.684,93.363 31.588,93.363 C31.516,93.363 30.148,93.435 29.500,93.435 C29.284,93.435 29.164,93.387 29.164,93.267 C29.164,93.195 29.212,93.099 29.332,93.099 C29.524,93.099 29.788,93.051 29.980,93.003 C30.388,92.907 30.436,92.523 30.532,91.923 C30.652,91.083 30.652,89.475 30.652,87.507 C30.652,87.507 30.652,83.906 30.652,83.906 C30.652,80.738 30.652,80.162 30.604,79.514 C30.556,78.818 30.436,78.482 29.740,78.386 C29.572,78.362 29.212,78.338 29.020,78.338 C28.948,78.338 28.852,78.242 28.852,78.170 C28.852,78.050 28.948,78.002 29.188,78.002 ZM56.836,78.002 C57.796,78.002 59.164,78.050 59.284,78.050 C59.428,78.050 63.845,78.074 64.325,78.050 C64.733,78.026 65.117,77.954 65.285,77.930 C65.381,77.906 65.477,77.834 65.573,77.834 C65.645,77.834 65.669,77.930 65.669,78.026 C65.669,78.170 65.549,78.410 65.501,78.986 C65.477,79.178 65.429,80.090 65.381,80.330 C65.357,80.426 65.285,80.546 65.189,80.546 C65.069,80.546 65.021,80.450 65.021,80.282 C65.021,80.138 64.997,79.802 64.901,79.562 C64.757,79.226 64.541,79.082 63.389,78.938 C63.029,78.890 60.581,78.866 60.341,78.866 C60.245,78.866 60.221,78.938 60.221,79.082 C60.221,79.082 60.221,84.627 60.221,84.627 C60.221,84.771 60.221,84.843 60.341,84.843 C60.605,84.843 63.389,84.843 63.869,84.795 C64.373,84.747 64.685,84.723 64.901,84.507 C65.045,84.363 65.141,84.242 65.213,84.242 C65.285,84.242 65.333,84.290 65.333,84.411 C65.333,84.531 65.213,84.867 65.165,85.539 C65.117,85.947 65.069,86.715 65.069,86.859 C65.069,87.027 65.021,87.243 64.877,87.243 C64.781,87.243 64.733,87.171 64.733,87.051 C64.733,86.859 64.733,86.643 64.637,86.379 C64.565,86.091 64.373,85.851 63.557,85.755 C62.981,85.683 60.725,85.659 60.365,85.659 C60.245,85.659 60.221,85.731 60.221,85.803 C60.221,85.803 60.221,87.507 60.221,87.507 C60.221,88.203 60.197,90.579 60.221,90.987 C60.269,92.355 60.653,92.619 62.741,92.619 C63.293,92.619 64.301,92.619 64.853,92.403 C65.405,92.163 65.693,91.803 65.813,90.987 C65.861,90.747 65.909,90.675 66.029,90.675 C66.149,90.675 66.173,90.843 66.173,90.987 C66.173,91.131 66.005,92.523 65.885,92.955 C65.741,93.483 65.525,93.483 64.709,93.483 C63.125,93.483 61.901,93.435 61.037,93.411 C60.149,93.363 59.597,93.363 59.284,93.363 C59.236,93.363 58.828,93.363 58.372,93.387 C57.964,93.411 57.484,93.435 57.148,93.435 C56.932,93.435 56.812,93.387 56.812,93.267 C56.812,93.195 56.860,93.099 56.980,93.099 C57.172,93.099 57.436,93.027 57.628,93.003 C58.036,92.931 58.084,92.523 58.180,91.923 C58.300,91.083 58.300,89.475 58.300,87.507 C58.300,87.507 58.300,83.906 58.300,83.906 C58.300,80.738 58.300,80.162 58.252,79.514 C58.204,78.818 58.084,78.482 57.388,78.386 C57.220,78.362 56.860,78.338 56.668,78.338 C56.596,78.338 56.500,78.242 56.500,78.170 C56.500,78.050 56.596,78.002 56.836,78.002 ZM81.292,93.099 C81.436,93.099 81.748,93.075 81.916,93.051 C82.876,92.931 83.284,92.211 83.692,91.179 C83.692,91.179 88.661,78.410 88.661,78.410 C88.925,77.738 89.021,77.618 89.165,77.618 C89.381,77.618 89.453,77.906 89.669,78.362 C90.053,79.226 93.437,87.651 94.733,90.747 C95.501,92.571 96.077,92.835 96.533,92.979 C96.845,93.075 97.157,93.099 97.373,93.099 C97.493,93.099 97.637,93.147 97.637,93.267 C97.637,93.387 97.397,93.435 97.157,93.435 C96.845,93.435 95.285,93.435 93.821,93.387 C93.413,93.363 93.077,93.363 93.077,93.243 C93.077,93.147 93.125,93.147 93.221,93.099 C93.341,93.051 93.557,92.883 93.413,92.547 C93.413,92.547 91.517,87.867 91.517,87.867 C91.469,87.771 91.445,87.747 91.325,87.747 C91.325,87.747 86.452,87.747 86.452,87.747 C86.356,87.747 86.284,87.795 86.236,87.915 C86.236,87.915 85.036,91.179 85.036,91.179 C84.844,91.683 84.724,92.187 84.724,92.547 C84.724,92.955 85.084,93.099 85.444,93.099 C85.444,93.099 85.636,93.099 85.636,93.099 C85.804,93.099 85.852,93.171 85.852,93.267 C85.852,93.387 85.732,93.435 85.540,93.435 C85.036,93.435 83.884,93.363 83.644,93.363 C83.428,93.363 82.372,93.435 81.508,93.435 C81.244,93.435 81.100,93.387 81.100,93.267 C81.100,93.171 81.196,93.099 81.292,93.099 ZM86.740,86.907 C86.740,86.907 91.013,86.907 91.013,86.907 C91.109,86.907 91.109,86.859 91.085,86.763 C91.085,86.763 88.997,81.170 88.997,81.170 C88.877,80.858 88.757,80.858 88.637,81.170 C88.637,81.170 86.668,86.763 86.668,86.763 C86.644,86.859 86.668,86.907 86.740,86.907 ZM113.188,75.290 C114.268,75.290 115.684,75.362 115.828,75.362 C116.044,75.362 117.436,75.290 118.156,75.290 C118.420,75.290 118.540,75.338 118.540,75.482 C118.540,75.578 118.444,75.626 118.348,75.626 C118.180,75.626 118.036,75.650 117.748,75.698 C117.100,75.818 116.908,76.226 116.860,77.066 C116.812,77.834 116.812,78.506 116.812,82.250 C116.812,82.250 116.812,83.690 116.812,83.690 C116.812,83.690 116.908,83.690 116.908,83.690 C117.316,83.234 121.661,78.818 122.525,77.882 C123.197,77.186 123.821,76.562 123.821,76.154 C123.821,75.866 123.701,75.722 123.509,75.650 C123.389,75.602 123.293,75.554 123.293,75.458 C123.293,75.338 123.413,75.290 123.581,75.290 C124.061,75.290 124.805,75.362 125.381,75.362 C125.501,75.362 127.085,75.290 127.685,75.290 C127.949,75.290 128.045,75.338 128.045,75.458 C128.045,75.578 127.997,75.626 127.805,75.626 C127.445,75.626 126.941,75.746 126.461,75.962 C125.477,76.394 124.949,76.994 123.869,78.026 C123.269,78.602 119.093,82.682 118.588,83.282 C119.213,83.978 124.205,89.139 125.189,90.051 C127.205,91.923 127.613,92.307 128.765,92.787 C129.389,93.051 130.085,93.099 130.253,93.099 C130.421,93.099 130.566,93.147 130.566,93.243 C130.566,93.363 130.445,93.435 130.037,93.435 C130.037,93.435 128.813,93.435 128.813,93.435 C128.141,93.435 127.685,93.435 127.157,93.387 C125.885,93.267 125.285,92.739 124.253,91.923 C123.173,91.035 118.084,85.539 116.932,84.122 C116.932,84.122 116.812,84.122 116.812,84.122 C116.812,84.122 116.812,86.475 116.812,86.475 C116.812,88.779 116.812,90.675 116.932,91.683 C117.004,92.379 117.148,92.907 117.868,93.003 C118.204,93.051 118.588,93.099 118.804,93.099 C118.948,93.099 118.997,93.171 118.997,93.243 C118.997,93.363 118.876,93.435 118.612,93.435 C117.436,93.435 116.044,93.363 115.852,93.363 C115.660,93.363 114.268,93.435 113.548,93.435 C113.284,93.435 113.164,93.387 113.164,93.243 C113.164,93.171 113.212,93.099 113.356,93.099 C113.572,93.099 113.860,93.051 114.076,93.003 C114.556,92.907 114.676,92.379 114.772,91.683 C114.892,90.675 114.892,88.779 114.892,86.475 C114.892,86.475 114.892,82.250 114.892,82.250 C114.892,78.506 114.892,77.834 114.844,77.066 C114.796,76.250 114.604,75.866 113.812,75.698 C113.620,75.650 113.212,75.626 112.996,75.626 C112.900,75.626 112.804,75.578 112.804,75.482 C112.804,75.338 112.924,75.290 113.188,75.290 Z"/>
</svg>