<svg 
 xmlns="http://www.w3.org/2000/svg"
 xmlns:xlink="http://www.w3.org/1999/xlink"
 width="217px" height="62px">
<path fill-rule="evenodd"  fill="rgb(204, 216, 219)"
 d="M213.545,60.797 C215.094,60.797 215.610,59.894 215.836,59.507 C215.836,59.507 216.094,59.668 216.094,59.668 C215.836,60.023 215.513,61.475 212.545,61.475 C210.447,61.475 209.125,60.475 209.189,58.184 C209.189,58.184 209.447,47.955 209.447,47.955 C209.447,47.955 207.511,47.955 207.511,47.955 C207.511,47.955 207.511,47.504 207.511,47.504 C210.254,47.116 210.931,45.213 211.286,43.309 C211.286,43.309 211.609,43.309 211.609,43.309 C211.609,43.309 211.609,47.439 211.609,47.439 C211.609,47.439 215.384,47.439 215.384,47.439 C215.384,47.439 215.384,47.955 215.384,47.955 C215.384,47.955 211.609,47.955 211.609,47.955 C211.609,47.955 211.609,56.699 211.609,56.699 C211.609,59.700 212.029,60.797 213.545,60.797 ZM200.347,61.475 C198.508,61.475 198.217,60.733 197.249,60.733 C196.733,60.733 196.410,60.991 196.410,61.249 C196.410,61.249 195.991,61.249 195.991,61.249 C195.991,61.249 195.733,56.764 195.733,56.764 C195.733,56.764 195.959,56.764 195.959,56.764 C195.991,57.280 196.862,60.959 200.186,60.959 C201.444,60.959 202.573,60.216 202.573,58.668 C202.573,54.473 196.217,55.635 196.217,50.730 C196.217,48.084 198.443,47.020 199.798,47.020 C200.992,47.020 201.864,47.762 202.412,47.762 C202.928,47.762 202.961,47.374 202.961,47.084 C202.961,47.084 203.154,47.084 203.154,47.084 C203.154,47.084 203.412,51.117 203.412,51.117 C203.412,51.117 203.186,51.117 203.186,51.117 C203.186,50.375 202.057,47.504 199.863,47.504 C199.411,47.504 197.733,47.633 197.733,49.633 C197.733,53.537 204.767,52.408 204.767,57.538 C204.767,59.184 203.380,61.475 200.347,61.475 ZM186.730,60.604 C188.795,60.604 188.859,59.571 188.859,56.732 C188.859,56.732 188.859,50.988 188.859,50.988 C188.859,48.310 188.666,47.923 186.536,47.858 C186.536,47.858 186.536,47.536 186.536,47.536 C187.343,47.471 190.666,46.923 190.666,46.923 C190.666,46.923 190.989,46.923 190.989,46.923 C190.989,46.923 190.989,56.732 190.989,56.732 C190.989,59.732 191.021,60.604 193.086,60.604 C193.086,60.604 193.086,61.023 193.086,61.023 C193.086,61.023 186.730,61.023 186.730,61.023 C186.730,61.023 186.730,60.604 186.730,60.604 ZM189.730,41.502 C188.956,41.502 188.375,40.921 188.375,40.147 C188.375,39.372 188.956,38.759 189.730,38.759 C190.505,38.759 191.118,39.372 191.118,40.147 C191.118,40.921 190.505,41.502 189.730,41.502 ZM184.147,49.859 C182.921,49.859 183.276,48.084 181.566,48.084 C180.888,48.084 180.049,48.601 179.501,49.536 C179.114,50.182 179.049,51.150 179.049,52.021 C179.049,52.021 179.049,56.732 179.049,56.732 C179.049,59.732 179.114,60.604 181.179,60.604 C181.179,60.604 181.179,61.023 181.179,61.023 C181.179,61.023 174.726,61.023 174.726,61.023 C174.726,61.023 174.726,60.604 174.726,60.604 C176.791,60.604 176.920,59.571 176.920,56.732 C176.920,56.732 176.920,51.117 176.920,51.117 C176.920,48.278 176.823,47.955 174.564,47.858 C174.564,47.858 174.564,47.536 174.564,47.536 C176.565,47.310 178.662,46.923 178.662,46.923 C178.662,46.923 178.888,47.020 178.888,47.020 C178.888,47.020 179.049,49.149 179.049,49.149 C179.856,48.084 180.985,47.181 183.018,47.181 C184.405,47.181 185.180,47.923 185.180,48.697 C185.180,49.246 184.793,49.859 184.147,49.859 ZM166.496,60.604 C168.561,60.604 168.690,59.571 168.690,56.732 C168.690,56.732 168.690,51.214 168.690,51.214 C168.690,48.472 167.464,47.536 165.495,47.536 C164.011,47.536 162.785,48.472 162.172,49.407 C161.720,50.117 161.623,51.214 161.623,52.827 C161.623,52.827 161.623,56.732 161.623,56.732 C161.623,59.732 161.688,60.604 163.753,60.604 C163.753,60.604 163.753,61.023 163.753,61.023 C163.753,61.023 157.300,61.023 157.300,61.023 C157.300,61.023 157.300,60.604 157.300,60.604 C159.365,60.604 159.494,59.571 159.494,56.732 C159.494,56.732 159.494,42.793 159.494,42.793 C159.494,40.115 159.236,39.727 157.106,39.663 C157.106,39.663 157.106,39.340 157.106,39.340 C157.913,39.276 161.333,38.727 161.333,38.727 C161.333,38.727 161.623,38.727 161.623,38.727 C161.623,38.727 161.623,49.149 161.623,49.149 C162.527,47.891 164.011,47.020 166.528,47.020 C168.948,47.020 170.819,47.504 170.819,51.214 C170.819,51.214 170.819,56.732 170.819,56.732 C170.819,59.732 170.884,60.604 172.949,60.604 C172.949,60.604 172.949,61.023 172.949,61.023 C172.949,61.023 166.496,61.023 166.496,61.023 C166.496,61.023 166.496,60.604 166.496,60.604 ZM147.875,60.636 C152.425,60.636 155.167,57.958 155.167,54.796 C155.167,54.796 155.587,54.796 155.587,54.796 C155.587,59.765 150.682,61.507 147.359,61.507 C140.486,61.507 135.969,57.377 135.969,50.117 C135.969,44.212 140.648,38.727 146.972,38.727 C150.779,38.727 152.909,40.115 153.812,40.115 C154.264,40.115 154.619,39.566 154.683,39.243 C154.683,39.243 155.038,39.243 155.038,39.243 C155.038,39.243 155.200,46.019 155.200,46.019 C155.200,46.019 154.909,46.019 154.909,46.019 C153.554,40.631 150.973,39.147 147.359,39.147 C143.035,39.147 139.712,44.083 139.712,50.117 C139.712,56.119 143.003,60.636 147.875,60.636 ZM127.030,21.879 C129.837,21.879 130.837,20.685 131.515,19.072 C131.515,19.072 131.870,19.072 131.870,19.072 C131.418,21.105 129.772,22.750 126.288,22.750 C121.609,22.750 119.221,19.750 119.221,15.523 C119.221,11.618 121.835,8.295 125.868,8.295 C128.127,8.295 131.676,9.586 131.676,13.135 C131.676,13.135 121.899,13.135 121.899,13.135 C121.835,13.877 121.803,14.716 121.803,15.555 C121.803,19.266 123.125,21.879 127.030,21.879 ZM129.224,12.619 C129.224,10.037 128.191,8.811 125.868,8.811 C123.287,8.811 122.287,10.328 121.964,12.619 C121.964,12.619 129.224,12.619 129.224,12.619 ZM120.092,43.309 C120.092,41.760 120.092,38.630 124.319,38.630 C125.352,38.630 128.159,39.017 128.159,40.599 C128.159,41.147 127.836,41.599 127.158,41.599 C126.449,41.599 126.320,41.083 125.997,40.405 C125.287,38.921 124.932,38.888 124.319,38.888 C123.706,38.888 122.222,39.017 122.222,43.309 C122.222,43.309 122.222,47.439 122.222,47.439 C122.222,47.439 125.868,47.439 125.868,47.439 C125.868,47.439 125.868,48.084 125.868,48.084 C125.868,48.084 122.222,48.084 122.222,48.084 C122.222,48.084 122.222,56.732 122.222,56.732 C122.222,59.732 122.286,60.604 124.351,60.604 C124.351,60.604 124.351,61.023 124.351,61.023 C124.351,61.023 117.898,61.023 117.898,61.023 C117.898,61.023 117.898,60.604 117.898,60.604 C119.963,60.604 120.092,59.571 120.092,56.732 C120.092,56.732 120.092,48.084 120.092,48.084 C120.092,48.084 117.543,48.084 117.543,48.084 C117.543,48.084 117.543,47.439 117.543,47.439 C117.543,47.439 120.092,47.439 120.092,47.439 C120.092,47.439 120.092,43.309 120.092,43.309 ZM113.186,22.783 C113.186,22.783 112.992,20.943 112.992,20.943 C112.185,22.008 111.153,22.750 109.023,22.750 C104.377,22.750 102.118,19.427 102.118,15.523 C102.118,11.618 105.022,8.295 109.023,8.295 C111.637,8.295 112.669,9.457 113.153,10.070 C113.153,10.070 113.153,4.488 113.153,4.488 C113.153,1.519 113.089,1.003 110.798,0.938 C110.798,0.938 110.798,0.616 110.798,0.616 C111.605,0.551 114.960,0.003 114.960,0.003 C114.960,0.003 115.283,0.003 115.283,0.003 C115.283,0.003 115.283,19.007 115.283,19.007 C115.283,21.234 115.606,21.750 117.542,21.750 C117.542,21.750 117.542,22.170 117.542,22.170 C117.542,22.170 115.606,22.202 113.444,22.783 C113.444,22.783 113.186,22.783 113.186,22.783 ZM109.088,8.811 C105.861,8.811 104.700,11.812 104.700,15.523 C104.700,18.878 105.700,22.234 109.088,22.234 C112.379,22.234 113.282,19.879 113.282,15.523 C113.282,11.167 112.282,8.811 109.088,8.811 ZM108.120,47.020 C112.121,47.020 115.444,50.343 115.444,54.247 C115.444,58.151 112.121,61.475 108.120,61.475 C104.086,61.475 100.795,58.151 100.795,54.247 C100.795,50.343 104.086,47.020 108.120,47.020 ZM108.120,60.959 C110.798,60.959 112.863,57.958 112.863,54.247 C112.863,50.537 110.798,47.536 108.120,47.536 C105.474,47.536 103.376,50.537 103.376,54.247 C103.376,57.958 105.474,60.959 108.120,60.959 ZM93.502,21.879 C95.567,21.879 95.632,20.847 95.632,18.007 C95.632,18.007 95.632,12.264 95.632,12.264 C95.632,9.586 95.438,9.199 93.309,9.134 C93.309,9.134 93.309,8.811 93.309,8.811 C94.115,8.747 97.439,8.198 97.439,8.198 C97.439,8.198 97.761,8.198 97.761,8.198 C97.761,8.198 97.761,18.007 97.761,18.007 C97.761,21.008 97.794,21.879 99.859,21.879 C99.859,21.879 99.859,22.299 99.859,22.299 C99.859,22.299 93.502,22.299 93.502,22.299 C93.502,22.299 93.502,21.879 93.502,21.879 ZM96.503,2.778 C95.729,2.778 95.148,2.197 95.148,1.422 C95.148,0.648 95.729,0.035 96.503,0.035 C97.277,0.035 97.890,0.648 97.890,1.422 C97.890,2.197 97.277,2.778 96.503,2.778 ZM86.273,22.750 C84.434,22.750 84.144,22.008 83.176,22.008 C82.660,22.008 82.337,22.266 82.337,22.525 C82.337,22.525 81.918,22.525 81.918,22.525 C81.918,22.525 81.659,18.040 81.659,18.040 C81.659,18.040 81.885,18.040 81.885,18.040 C81.918,18.556 82.789,22.234 86.112,22.234 C87.371,22.234 88.500,21.492 88.500,19.943 C88.500,15.749 82.143,16.910 82.143,12.006 C82.143,9.360 84.370,8.295 85.725,8.295 C86.919,8.295 87.790,9.037 88.339,9.037 C88.855,9.037 88.887,8.650 88.887,8.360 C88.887,8.360 89.081,8.360 89.081,8.360 C89.081,8.360 89.339,12.393 89.339,12.393 C89.339,12.393 89.113,12.393 89.113,12.393 C89.113,11.651 87.984,8.779 85.789,8.779 C85.338,8.779 83.660,8.908 83.660,10.909 C83.660,14.813 90.694,13.684 90.694,18.814 C90.694,20.459 89.307,22.750 86.273,22.750 ZM87.725,51.214 C87.725,51.214 87.725,56.732 87.725,56.732 C87.725,59.732 87.789,60.604 89.854,60.604 C89.854,60.604 89.854,61.023 89.854,61.023 C89.854,61.023 83.401,61.023 83.401,61.023 C83.401,61.023 83.401,60.604 83.401,60.604 C85.466,60.604 85.595,59.571 85.595,56.732 C85.595,56.732 85.595,51.214 85.595,51.214 C85.595,48.472 84.369,47.536 82.401,47.536 C80.916,47.536 79.690,48.472 79.077,49.407 C78.625,50.117 78.529,51.214 78.529,52.827 C78.529,52.827 78.529,56.732 78.529,56.732 C78.529,59.732 78.593,60.604 80.658,60.604 C80.658,60.604 80.658,61.023 80.658,61.023 C80.658,61.023 74.205,61.023 74.205,61.023 C74.205,61.023 74.205,60.604 74.205,60.604 C76.270,60.604 76.399,59.571 76.399,56.732 C76.399,56.732 76.399,42.793 76.399,42.793 C76.399,40.115 76.141,39.727 74.011,39.663 C74.011,39.663 74.011,39.340 74.011,39.340 C74.818,39.276 78.238,38.727 78.238,38.727 C78.238,38.727 78.529,38.727 78.529,38.727 C78.529,38.727 78.529,49.149 78.529,49.149 C79.432,47.891 80.916,47.020 83.433,47.020 C85.853,47.020 87.725,47.504 87.725,51.214 ZM72.720,21.879 C74.785,21.879 74.914,20.847 74.914,18.007 C74.914,18.007 74.914,12.490 74.914,12.490 C74.914,9.747 73.688,8.811 71.719,8.811 C70.235,8.811 69.009,9.747 68.396,10.683 C67.944,11.393 67.847,12.490 67.847,14.103 C67.847,14.103 67.847,18.007 67.847,18.007 C67.847,21.008 67.912,21.879 69.977,21.879 C69.977,21.879 69.977,22.299 69.977,22.299 C69.977,22.299 63.524,22.299 63.524,22.299 C63.524,22.299 63.524,21.879 63.524,21.879 C65.589,21.879 65.718,20.847 65.718,18.007 C65.718,18.007 65.718,4.068 65.718,4.068 C65.718,1.390 65.460,1.003 63.330,0.938 C63.330,0.938 63.330,0.616 63.330,0.616 C64.137,0.551 67.557,0.003 67.557,0.003 C67.557,0.003 67.847,0.003 67.847,0.003 C67.847,0.003 67.847,10.425 67.847,10.425 C68.751,9.166 70.235,8.295 72.752,8.295 C75.172,8.295 77.043,8.779 77.043,12.490 C77.043,12.490 77.043,18.007 77.043,18.007 C77.043,21.008 77.108,21.879 79.173,21.879 C79.173,21.879 79.173,22.299 79.173,22.299 C79.173,22.299 72.720,22.299 72.720,22.299 C72.720,22.299 72.720,21.879 72.720,21.879 ZM59.134,22.750 C57.037,22.750 55.714,21.750 55.779,19.459 C55.779,19.459 56.037,9.231 56.037,9.231 C56.037,9.231 54.101,9.231 54.101,9.231 C54.101,9.231 54.101,8.779 54.101,8.779 C56.843,8.392 57.521,6.488 57.876,4.584 C57.876,4.584 58.199,4.584 58.199,4.584 C58.199,4.584 58.199,8.715 58.199,8.715 C58.199,8.715 61.974,8.715 61.974,8.715 C61.974,8.715 61.974,9.231 61.974,9.231 C61.974,9.231 58.199,9.231 58.199,9.231 C58.199,9.231 58.199,17.975 58.199,17.975 C58.199,20.976 58.618,22.073 60.135,22.073 C61.683,22.073 62.200,21.169 62.425,20.782 C62.425,20.782 62.684,20.943 62.684,20.943 C62.425,21.298 62.103,22.750 59.134,22.750 ZM57.263,47.181 C58.650,47.181 59.424,47.923 59.424,48.697 C59.424,49.246 59.037,49.859 58.392,49.859 C57.166,49.859 57.521,48.084 55.811,48.084 C55.133,48.084 54.294,48.601 53.746,49.536 C53.358,50.182 53.294,51.150 53.294,52.021 C53.294,52.021 53.294,56.732 53.294,56.732 C53.294,59.732 53.358,60.604 55.423,60.604 C55.423,60.604 55.423,61.023 55.423,61.023 C55.423,61.023 48.970,61.023 48.970,61.023 C48.970,61.023 48.970,60.604 48.970,60.604 C51.035,60.604 51.164,59.571 51.164,56.732 C51.164,56.732 51.164,51.117 51.164,51.117 C51.164,48.278 51.067,47.955 48.809,47.858 C48.809,47.858 48.809,47.536 48.809,47.536 C50.809,47.310 52.907,46.923 52.907,46.923 C52.907,46.923 53.132,47.020 53.132,47.020 C53.132,47.020 53.294,49.149 53.294,49.149 C54.100,48.084 55.230,47.181 57.263,47.181 ZM51.583,11.135 C50.357,11.135 50.712,9.360 49.002,9.360 C48.324,9.360 47.485,9.876 46.937,10.812 C46.549,11.457 46.485,12.425 46.485,13.296 C46.485,13.296 46.485,18.007 46.485,18.007 C46.485,21.008 46.549,21.879 48.614,21.879 C48.614,21.879 48.614,22.299 48.614,22.299 C48.614,22.299 42.161,22.299 42.161,22.299 C42.161,22.299 42.161,21.879 42.161,21.879 C44.226,21.879 44.355,20.847 44.355,18.007 C44.355,18.007 44.355,12.393 44.355,12.393 C44.355,9.553 44.258,9.231 42.000,9.134 C42.000,9.134 42.000,8.811 42.000,8.811 C44.000,8.585 46.098,8.198 46.098,8.198 C46.098,8.198 46.323,8.295 46.323,8.295 C46.323,8.295 46.485,10.425 46.485,10.425 C47.291,9.360 48.421,8.456 50.454,8.456 C51.841,8.456 52.615,9.199 52.615,9.973 C52.615,10.521 52.228,11.135 51.583,11.135 ZM40.644,47.858 C40.644,47.858 40.644,47.439 40.644,47.439 C40.644,47.439 44.871,47.439 44.871,47.439 C44.871,47.439 44.871,57.506 44.871,57.506 C44.871,60.346 44.935,60.636 47.194,60.733 C47.194,60.733 47.194,61.055 47.194,61.055 C45.193,61.281 43.096,61.443 43.096,61.443 C43.096,61.443 42.870,61.346 42.870,61.346 C42.870,61.346 42.741,59.668 42.741,59.668 C41.934,60.830 40.418,61.475 38.385,61.475 C35.965,61.475 33.545,61.152 33.545,57.183 C33.545,57.183 33.545,51.730 33.545,51.730 C33.545,48.730 33.384,47.858 31.254,47.858 C31.254,47.858 31.254,47.439 31.254,47.439 C31.254,47.439 35.675,47.439 35.675,47.439 C35.675,47.439 35.675,57.183 35.675,57.183 C35.675,59.926 37.030,60.959 38.675,60.959 C40.160,60.959 41.450,60.475 42.192,59.507 C42.741,58.797 42.741,57.635 42.741,56.022 C42.741,56.022 42.741,51.730 42.741,51.730 C42.741,48.730 42.709,47.858 40.644,47.858 ZM32.899,22.750 C28.866,22.750 25.575,19.427 25.575,15.523 C25.575,11.618 28.866,8.295 32.899,8.295 C36.900,8.295 40.223,11.618 40.223,15.523 C40.223,19.427 36.900,22.750 32.899,22.750 ZM32.899,8.811 C30.253,8.811 28.156,11.812 28.156,15.523 C28.156,19.233 30.253,22.234 32.899,22.234 C35.577,22.234 37.642,19.233 37.642,15.523 C37.642,11.812 35.577,8.811 32.899,8.811 ZM27.251,56.732 C27.251,59.732 27.316,60.604 29.381,60.604 C29.381,60.604 29.381,61.023 29.381,61.023 C29.381,61.023 22.927,61.023 22.927,61.023 C22.927,61.023 22.927,60.604 22.927,60.604 C24.992,60.604 25.121,59.571 25.121,56.732 C25.121,56.732 25.121,51.214 25.121,51.214 C25.121,48.472 23.895,47.536 21.927,47.536 C20.443,47.536 19.217,48.472 18.604,49.407 C18.152,50.117 18.055,51.214 18.055,52.827 C18.055,52.827 18.055,56.732 18.055,56.732 C18.055,59.732 18.120,60.604 20.185,60.604 C20.185,60.604 20.185,61.023 20.185,61.023 C20.185,61.023 13.731,61.023 13.731,61.023 C13.731,61.023 13.731,60.604 13.731,60.604 C15.796,60.604 15.926,59.571 15.926,56.732 C15.926,56.732 15.926,42.793 15.926,42.793 C15.926,40.115 15.667,39.727 13.538,39.663 C13.538,39.663 13.538,39.340 13.538,39.340 C14.344,39.276 17.765,38.727 17.765,38.727 C17.765,38.727 18.055,38.727 18.055,38.727 C18.055,38.727 18.055,49.149 18.055,49.149 C18.959,47.891 20.443,47.020 22.960,47.020 C25.380,47.020 27.251,47.504 27.251,51.214 C27.251,51.214 27.251,56.732 27.251,56.732 ZM20.216,7.972 C20.216,7.972 20.216,22.492 20.216,22.492 C20.216,22.492 19.828,22.492 19.828,22.492 C19.828,22.492 4.244,3.003 4.244,3.003 C4.244,3.003 4.244,18.007 4.244,18.007 C4.244,20.653 5.567,21.879 7.406,21.879 C7.406,21.879 7.761,21.879 7.761,21.879 C7.761,21.879 7.761,22.299 7.761,22.299 C7.761,22.299 0.081,22.299 0.081,22.299 C0.081,22.299 0.081,21.879 0.081,21.879 C0.081,21.879 0.436,21.879 0.436,21.879 C2.275,21.879 3.663,20.653 3.663,18.007 C3.663,18.007 3.663,4.488 3.663,4.488 C3.663,1.680 2.275,0.906 0.565,0.906 C0.565,0.906 0.178,0.906 0.178,0.906 C0.178,0.906 0.178,0.487 0.178,0.487 C0.178,0.487 6.115,0.487 6.115,0.487 C6.115,0.487 19.344,16.975 19.344,16.975 C19.344,16.975 19.344,7.972 19.344,7.972 C19.344,2.390 18.731,0.906 16.537,0.906 C16.537,0.906 16.279,0.906 16.279,0.906 C16.279,0.906 16.279,0.487 16.279,0.487 C16.279,0.487 23.410,0.487 23.410,0.487 C23.410,0.487 23.410,0.906 23.410,0.906 C23.410,0.906 23.152,0.906 23.152,0.906 C20.990,0.906 20.216,2.390 20.216,7.972 ZM7.019,47.020 C8.858,47.020 11.955,47.665 11.955,49.504 C11.955,50.214 11.504,50.698 10.794,50.698 C10.084,50.698 9.568,50.246 9.439,49.601 C9.116,47.955 8.825,47.536 7.019,47.536 C4.373,47.536 2.824,50.537 2.824,54.247 C2.824,57.958 4.147,60.604 8.051,60.604 C10.891,60.604 11.633,59.378 12.052,57.797 C12.052,57.797 12.407,57.797 12.407,57.797 C12.117,59.829 10.891,61.475 7.309,61.475 C2.630,61.475 0.243,58.474 0.243,54.247 C0.243,50.343 2.985,47.020 7.019,47.020 ZM67.492,47.020 C69.331,47.020 72.429,47.665 72.429,49.504 C72.429,50.214 71.977,50.698 71.267,50.698 C70.557,50.698 70.041,50.246 69.912,49.601 C69.589,47.955 69.299,47.536 67.492,47.536 C64.846,47.536 63.297,50.537 63.297,54.247 C63.297,57.958 64.620,60.604 68.525,60.604 C71.364,60.604 72.106,59.378 72.526,57.797 C72.526,57.797 72.881,57.797 72.881,57.797 C72.590,59.829 71.364,61.475 67.782,61.475 C63.104,61.475 60.716,58.474 60.716,54.247 C60.716,50.343 63.459,47.020 67.492,47.020 Z"/>
</svg>