<svg xmlns="http://www.w3.org/2000/svg" xmlns:xlink="http://www.w3.org/1999/xlink" preserveAspectRatio="xMidYMid" width="231" height="93" viewBox="0 0 231 93">
  <path d="M231.002,38.789 C231.002,38.789 228.559,38.789 228.559,38.789 C228.559,38.789 213.904,20.295 213.904,20.295 C213.904,20.295 199.249,38.789 199.249,38.789 C199.249,38.789 196.806,38.789 196.806,38.789 C196.806,38.789 212.857,18.900 212.857,18.900 C212.857,18.900 197.678,-0.001 197.678,-0.001 C197.678,-0.001 200.179,-0.001 200.179,-0.001 C200.179,-0.001 213.904,17.388 213.904,17.388 C213.904,17.388 227.629,-0.001 227.629,-0.001 C227.629,-0.001 230.129,-0.001 230.129,-0.001 C230.129,-0.001 214.951,18.841 214.951,18.841 C214.951,18.841 231.002,38.789 231.002,38.789 ZM204.113,62.877 C204.113,62.877 208.287,68.073 208.287,68.073 C208.287,68.073 204.312,71.708 204.312,71.708 C204.312,71.708 200.876,67.449 200.876,67.449 C200.876,67.449 198.604,69.493 198.604,69.493 C198.604,69.493 198.604,85.850 198.604,85.850 C198.604,85.850 201.415,87.980 201.415,87.980 C201.415,87.980 204.113,85.850 204.113,85.850 C204.113,85.850 204.908,86.759 204.908,86.759 C204.908,86.759 197.894,92.466 197.894,92.466 C196.663,91.236 195.480,90.270 194.344,89.570 C193.209,88.907 192.016,88.453 190.766,88.207 C190.766,88.207 190.766,87.610 190.766,87.610 C191.580,87.062 192.110,86.475 192.357,85.850 C192.622,85.207 192.754,84.231 192.754,82.925 C192.754,82.925 192.754,71.225 192.754,71.225 C192.754,70.033 192.669,69.200 192.499,68.727 C192.328,68.291 191.940,67.828 191.334,67.335 C191.334,67.335 189.659,68.727 189.659,68.727 C189.659,68.727 188.977,67.931 188.977,67.931 C188.977,67.931 194.714,63.019 194.714,63.019 C196.645,64.022 198.017,65.556 198.831,67.619 C198.831,67.619 204.113,62.877 204.113,62.877 ZM162.203,-0.001 C162.203,-0.001 185.930,-0.001 185.930,-0.001 C185.930,-0.001 185.930,1.744 185.930,1.744 C185.930,1.744 164.064,1.744 164.064,1.744 C164.064,1.744 164.064,17.969 164.064,17.969 C164.064,17.969 185.523,17.969 185.523,17.969 C185.523,17.969 185.523,19.714 185.523,19.714 C185.523,19.714 164.064,19.714 164.064,19.714 C164.064,19.714 164.064,37.044 164.064,37.044 C164.064,37.044 185.930,37.044 185.930,37.044 C185.930,37.044 185.930,38.789 185.930,38.789 C185.930,38.789 162.203,38.789 162.203,38.789 C162.203,38.789 162.203,-0.001 162.203,-0.001 ZM171.814,67.250 C171.814,67.250 169.855,68.954 169.855,68.954 C169.855,68.954 169.855,85.651 169.855,85.651 C169.855,85.651 172.468,87.724 172.468,87.724 C172.468,87.724 176.500,83.976 176.500,83.976 C176.500,83.976 176.500,68.954 176.500,68.954 C176.500,68.954 174.512,67.250 174.512,67.250 C174.512,67.250 179.198,63.019 179.198,63.019 C179.198,63.019 184.082,67.250 184.082,67.250 C184.082,67.250 182.179,68.954 182.179,68.954 C182.179,68.954 182.179,84.345 182.179,84.345 C182.179,85.557 182.274,86.323 182.463,86.645 C182.785,87.251 183.202,87.554 183.713,87.554 C184.053,87.554 184.489,87.365 185.019,86.986 C185.019,86.986 185.871,87.980 185.871,87.980 C185.871,87.980 180.078,92.466 180.078,92.466 C180.078,92.466 179.368,91.927 179.368,91.927 C178.213,91.018 177.446,90.176 177.068,89.399 C176.670,88.623 176.472,87.525 176.472,86.105 C176.472,85.821 176.481,85.613 176.500,85.481 C176.500,85.481 168.890,92.466 168.890,92.466 C166.599,90.290 164.478,88.803 162.529,88.008 C162.529,88.008 162.529,87.241 162.529,87.241 C163.305,86.957 163.778,86.607 163.948,86.191 C164.119,85.755 164.204,84.761 164.204,83.209 C164.204,83.209 164.204,69.153 164.204,69.153 C164.204,69.153 162.983,68.244 162.983,68.244 C162.983,68.244 161.819,69.153 161.819,69.153 C161.819,69.153 161.052,68.244 161.052,68.244 C161.052,68.244 166.987,63.019 166.987,63.019 C166.987,63.019 171.814,67.250 171.814,67.250 ZM155.276,87.838 C155.276,87.838 157.093,86.361 157.093,86.361 C157.093,86.361 157.945,87.327 157.945,87.327 C157.945,87.327 151.783,92.466 151.783,92.466 C149.852,90.422 147.590,89.049 144.996,88.349 C144.996,88.349 144.996,87.582 144.996,87.582 C145.526,87.204 145.924,86.815 146.189,86.418 C146.454,86.039 146.624,85.528 146.700,84.884 C146.776,84.298 146.814,83.342 146.814,82.016 C146.814,82.016 146.814,67.335 146.814,67.335 C146.814,67.335 144.315,67.335 144.315,67.335 C144.315,67.335 144.315,66.341 144.315,66.341 C144.315,66.341 152.550,55.494 152.550,55.494 C152.550,55.494 152.550,64.183 152.550,64.183 C152.550,64.183 157.406,64.183 157.406,64.183 C157.406,64.183 157.406,67.335 157.406,67.335 C157.406,67.335 152.550,67.335 152.550,67.335 C152.550,67.335 152.550,85.821 152.550,85.821 C153.572,86.503 154.481,87.175 155.276,87.838 ZM135.916,38.789 C135.916,38.789 134.055,38.789 134.055,38.789 C134.055,38.789 134.055,1.744 134.055,1.744 C134.055,1.744 120.970,1.744 120.970,1.744 C120.970,1.744 120.970,-0.001 120.970,-0.001 C120.970,-0.001 149.059,-0.001 149.059,-0.001 C149.059,-0.001 149.059,1.744 149.059,1.744 C149.059,1.744 135.916,1.744 135.916,1.744 C135.916,1.744 135.916,38.789 135.916,38.789 ZM121.643,63.473 C122.816,64.477 123.564,65.262 123.886,65.830 C124.227,66.417 124.397,67.212 124.397,68.215 C124.397,68.215 124.397,68.897 124.397,68.897 C124.397,68.897 131.610,63.019 131.610,63.019 C131.610,63.019 135.813,67.165 135.813,67.165 C135.813,67.165 138.539,64.581 138.539,64.581 C138.539,64.581 139.362,65.518 139.362,65.518 C138.511,66.294 137.876,66.994 137.460,67.619 C137.062,68.244 136.788,68.973 136.636,69.806 C136.485,70.677 136.409,71.756 136.409,73.043 C136.409,73.043 136.409,82.811 136.409,82.811 C136.409,83.588 136.419,84.174 136.438,84.572 C136.456,84.970 136.490,85.339 136.537,85.680 C136.584,86.020 136.636,86.295 136.693,86.503 C136.901,87.109 137.261,87.412 137.772,87.412 C138.132,87.412 138.577,87.185 139.107,86.730 C139.145,86.712 139.182,86.683 139.220,86.645 C139.258,86.607 139.296,86.579 139.334,86.560 C139.372,86.541 139.410,86.513 139.448,86.475 C139.485,86.437 139.523,86.409 139.561,86.389 C139.561,86.389 140.271,87.497 140.271,87.497 C140.271,87.497 134.166,92.466 134.166,92.466 C134.166,92.466 133.570,91.898 133.570,91.898 C132.585,90.971 131.913,90.242 131.553,89.712 C131.193,89.201 130.966,88.529 130.872,87.696 C130.758,86.863 130.701,85.585 130.701,83.862 C130.701,83.862 130.701,69.323 130.701,69.323 C130.701,69.323 128.401,66.994 128.401,66.994 C128.401,66.994 124.397,70.317 124.397,70.317 C124.397,70.317 124.397,86.247 124.397,86.247 C124.397,86.247 126.413,88.377 126.413,88.377 C126.413,88.377 121.359,92.466 121.359,92.466 C121.359,92.466 116.446,88.207 116.446,88.207 C116.446,88.207 118.718,86.134 118.718,86.134 C118.718,86.134 118.718,71.282 118.718,71.282 C118.718,69.635 118.623,68.632 118.434,68.272 C118.169,67.837 117.856,67.619 117.497,67.619 C117.156,67.619 116.654,67.818 115.992,68.215 C115.992,68.215 115.339,67.364 115.339,67.364 C115.339,67.364 121.103,63.019 121.103,63.019 C121.103,63.019 121.643,63.473 121.643,63.473 ZM101.356,86.191 C103.117,87.043 104.792,87.894 106.382,88.746 C106.382,88.746 110.557,85.907 110.557,85.907 C110.557,85.907 111.125,86.702 111.125,86.702 C111.125,86.702 102.662,92.466 102.662,92.466 C99.368,90.403 96.396,89.163 93.746,88.746 C93.746,88.746 93.746,88.150 93.746,88.150 C94.541,87.677 95.061,87.118 95.308,86.475 C95.553,85.850 95.677,84.676 95.677,82.953 C95.677,82.953 95.677,72.617 95.677,72.617 C95.677,71.178 95.582,70.279 95.393,69.919 C95.184,69.541 94.711,69.351 93.973,69.351 C93.973,69.351 93.746,69.351 93.746,69.351 C93.746,69.351 93.490,68.727 93.490,68.727 C93.490,68.727 94.172,68.443 94.172,68.443 C96.632,67.364 98.545,66.474 99.908,65.773 C101.384,65.016 103.012,64.098 104.792,63.019 C104.792,63.019 111.891,72.106 111.891,72.106 C111.891,72.106 101.356,80.852 101.356,80.852 C101.356,80.852 101.356,86.191 101.356,86.191 ZM107.263,74.065 C107.263,74.065 101.356,66.512 101.356,66.512 C101.356,66.512 101.356,78.949 101.356,78.949 C101.356,78.949 107.263,74.065 107.263,74.065 ZM107.943,38.789 C107.943,38.789 96.137,22.040 96.137,22.040 C96.137,22.040 86.832,22.040 86.832,22.040 C86.832,22.040 86.832,38.789 86.832,38.789 C86.832,38.789 84.971,38.789 84.971,38.789 C84.971,38.789 84.971,-0.001 84.971,-0.001 C84.971,-0.001 98.347,-0.001 98.347,-0.001 C104.628,-0.001 109.804,3.895 109.804,10.990 C109.804,18.085 104.628,22.040 98.347,22.040 C98.347,22.040 110.327,38.789 110.327,38.789 C110.327,38.789 107.943,38.789 107.943,38.789 ZM107.768,10.990 C107.768,5.640 104.046,1.744 98.347,1.744 C98.347,1.744 86.832,1.744 86.832,1.744 C86.832,1.744 86.832,20.295 86.832,20.295 C86.832,20.295 98.347,20.295 98.347,20.295 C104.046,20.295 107.768,16.341 107.768,10.990 ZM86.522,68.727 C86.654,69.503 86.720,71.084 86.720,73.469 C86.720,73.469 86.720,87.440 86.720,87.440 C84.827,87.951 83.228,88.576 81.921,89.314 C80.615,90.053 79.252,91.103 77.832,92.466 C76.469,91.312 75.286,90.441 74.283,89.854 C73.184,89.210 72.068,88.728 70.932,88.406 C69.871,88.103 68.632,87.923 67.212,87.866 C67.212,87.866 67.212,87.241 67.212,87.241 C67.988,86.901 68.470,86.446 68.660,85.878 C68.868,85.310 68.972,84.194 68.972,82.527 C68.972,82.527 68.972,72.447 68.972,72.447 C68.972,71.008 68.916,70.033 68.802,69.522 C68.688,69.011 68.338,68.329 67.751,67.477 C67.164,66.550 66.757,65.773 66.530,65.149 C66.322,64.581 66.218,63.937 66.218,63.218 C66.218,61.741 66.719,60.388 67.723,59.157 C68.745,57.907 70.231,56.753 72.181,55.692 C72.181,55.692 72.749,56.488 72.749,56.488 C71.708,57.283 70.988,57.964 70.591,58.532 C70.155,59.138 69.938,59.735 69.938,60.321 C69.938,60.795 70.051,61.220 70.279,61.599 C70.468,61.978 70.894,62.527 71.556,63.246 C72.711,64.458 73.525,65.489 73.999,66.341 C74.434,67.212 74.680,68.206 74.737,69.323 C74.737,69.323 82.205,63.019 82.205,63.019 C83.852,64.287 84.941,65.357 85.471,66.228 C86.039,67.118 86.389,67.951 86.522,68.727 ZM81.013,73.412 C81.013,71.557 80.889,70.317 80.643,69.692 C80.378,69.011 79.735,68.215 78.712,67.307 C78.712,67.307 74.737,70.658 74.737,70.658 C74.737,70.658 74.737,84.998 74.737,84.998 C77.311,86.058 79.403,86.986 81.013,87.781 C81.013,87.781 81.013,73.412 81.013,73.412 ZM46.704,-0.001 C46.704,-0.001 70.431,-0.001 70.431,-0.001 C70.431,-0.001 70.431,1.744 70.431,1.744 C70.431,1.744 48.565,1.744 48.565,1.744 C48.565,1.744 48.565,17.969 48.565,17.969 C48.565,17.969 70.024,17.969 70.024,17.969 C70.024,17.969 70.024,19.714 70.024,19.714 C70.024,19.714 48.565,19.714 48.565,19.714 C48.565,19.714 48.565,37.044 48.565,37.044 C48.565,37.044 70.431,37.044 70.431,37.044 C70.431,37.044 70.431,38.789 70.431,38.789 C70.431,38.789 46.704,38.789 46.704,38.789 C46.704,38.789 46.704,-0.001 46.704,-0.001 ZM60.527,63.558 C60.527,63.558 60.783,64.581 60.783,64.581 C60.271,65.092 59.940,65.679 59.789,66.341 C59.618,67.023 59.533,68.121 59.533,69.635 C59.533,69.635 59.533,87.781 59.533,87.781 C59.533,87.781 58.795,88.065 58.795,88.065 C57.034,88.785 55.624,89.438 54.564,90.024 C53.541,90.611 52.349,91.425 50.986,92.466 C48.903,90.990 47.086,89.949 45.534,89.343 C43.943,88.737 42.116,88.359 40.053,88.207 C40.053,88.207 40.053,87.554 40.053,87.554 C40.810,86.854 41.293,86.125 41.501,85.367 C41.672,84.629 41.757,82.982 41.757,80.426 C41.757,80.426 41.757,67.449 41.757,67.449 C44.142,66.900 45.988,66.114 47.294,65.092 C47.294,65.092 40.053,59.611 40.053,59.611 C40.053,59.611 40.053,52.938 40.053,52.938 C40.053,52.938 57.631,65.915 57.631,65.915 C58.293,64.836 59.259,64.051 60.527,63.558 ZM53.825,69.976 C53.825,69.976 49.140,66.455 49.140,66.455 C48.629,66.891 48.146,67.269 47.692,67.591 C47.692,67.591 47.692,84.714 47.692,84.714 C47.692,84.714 53.825,87.610 53.825,87.610 C53.825,87.610 53.825,69.976 53.825,69.976 ZM26.695,90.791 C26.203,90.242 25.852,89.513 25.644,88.604 C25.436,87.677 25.304,86.456 25.247,84.941 C25.247,84.941 15.450,92.665 15.450,92.665 C13.954,91.605 12.705,90.763 11.701,90.138 C10.660,89.494 9.553,88.888 8.379,88.320 C7.754,87.980 6.997,87.658 6.107,87.355 C5.255,87.071 4.602,86.929 4.148,86.929 C3.807,86.929 3.513,87.052 3.268,87.298 C2.984,87.544 2.842,87.838 2.842,88.178 C2.842,88.444 3.069,88.936 3.523,89.655 C3.883,90.185 4.063,90.668 4.063,91.103 C4.063,91.501 3.930,91.832 3.665,92.097 C3.362,92.362 3.002,92.495 2.586,92.495 C2.056,92.495 1.592,92.248 1.195,91.756 C0.797,91.264 0.598,90.677 0.598,89.996 C0.598,89.220 0.806,88.406 1.223,87.554 C1.658,86.645 2.444,85.377 3.580,83.749 C3.580,83.749 7.783,77.700 7.783,77.700 C6.192,76.697 4.867,75.561 3.807,74.292 C2.728,73.081 1.885,71.746 1.280,70.288 C0.693,68.888 0.400,67.411 0.400,65.858 C0.400,63.984 0.797,62.214 1.592,60.548 C2.349,58.883 3.428,57.396 4.829,56.090 C6.230,54.803 7.820,53.790 9.600,53.051 C11.418,52.332 13.273,51.972 15.166,51.972 C18.024,51.972 20.817,52.654 23.543,54.017 C24.603,54.566 25.947,55.428 27.575,56.601 C28.882,55.295 29.970,54.311 30.841,53.648 C31.523,53.156 32.469,52.673 33.681,52.200 C33.681,52.200 34.277,53.165 34.277,53.165 C32.516,54.131 31.333,55.115 30.727,56.118 C30.121,57.122 29.819,58.608 29.819,60.577 C29.819,60.974 29.837,61.684 29.875,62.706 C29.875,62.706 30.813,82.385 30.813,82.385 C30.888,84.582 31.040,85.897 31.267,86.333 C31.589,86.996 32.005,87.327 32.516,87.327 C32.933,87.327 33.652,86.901 34.675,86.049 C34.675,86.049 35.583,87.071 35.583,87.071 C35.583,87.071 28.995,92.665 28.995,92.665 C27.973,91.984 27.206,91.359 26.695,90.791 ZM13.973,56.771 C10.774,56.771 8.076,57.709 5.880,59.583 C3.703,61.476 2.614,63.814 2.614,66.597 C2.614,67.828 2.851,69.011 3.324,70.146 C3.779,71.358 4.441,72.466 5.312,73.469 C6.221,74.510 7.328,75.495 8.635,76.422 C8.635,76.422 16.529,65.063 16.529,65.063 C15.374,64.306 14.286,63.927 13.263,63.927 C12.449,63.927 11.739,64.089 11.134,64.410 C10.584,64.694 9.941,65.310 9.203,66.256 C9.203,66.256 8.209,65.830 8.209,65.830 C8.947,63.918 9.865,62.527 10.963,61.656 C12.023,60.785 13.377,60.349 15.024,60.349 C16.292,60.349 17.750,60.567 19.397,61.003 C19.397,61.003 21.044,58.617 21.044,58.617 C18.867,57.387 16.510,56.771 13.973,56.771 ZM24.083,60.861 C23.401,60.236 22.748,59.715 22.123,59.299 C22.123,59.299 11.304,74.718 11.304,74.718 C11.304,74.718 24.679,74.718 24.679,74.718 C24.679,74.718 24.083,60.861 24.083,60.861 ZM24.963,78.807 C24.963,78.807 8.464,78.807 8.464,78.807 C8.464,78.807 6.192,82.073 6.192,82.073 C6.192,82.073 19.511,87.724 19.511,87.724 C19.511,87.724 25.162,83.351 25.162,83.351 C25.162,83.351 24.963,78.807 24.963,78.807 ZM16.172,38.789 C16.172,38.789 0.005,-0.001 0.005,-0.001 C0.005,-0.001 2.157,-0.001 2.157,-0.001 C2.157,-0.001 17.277,36.637 17.277,36.637 C17.277,36.637 32.398,-0.001 32.398,-0.001 C32.398,-0.001 34.549,-0.001 34.549,-0.001 C34.549,-0.001 18.382,38.789 18.382,38.789 C18.382,38.789 16.172,38.789 16.172,38.789 ZM218.777,65.773 C220.254,65.016 221.882,64.098 223.661,63.019 C223.661,63.019 230.761,72.106 230.761,72.106 C230.761,72.106 220.225,80.852 220.225,80.852 C220.225,80.852 220.225,86.191 220.225,86.191 C221.986,87.043 223.661,87.894 225.252,88.746 C225.252,88.746 229.426,85.907 229.426,85.907 C229.426,85.907 229.994,86.702 229.994,86.702 C229.994,86.702 221.532,92.466 221.532,92.466 C218.238,90.403 215.265,89.163 212.615,88.746 C212.615,88.746 212.615,88.150 212.615,88.150 C213.410,87.677 213.931,87.118 214.177,86.475 C214.423,85.850 214.546,84.676 214.546,82.953 C214.546,82.953 214.546,72.617 214.546,72.617 C214.546,71.178 214.451,70.279 214.262,69.919 C214.054,69.541 213.581,69.351 212.842,69.351 C212.842,69.351 212.615,69.351 212.615,69.351 C212.615,69.351 212.359,68.727 212.359,68.727 C212.359,68.727 213.041,68.443 213.041,68.443 C215.502,67.364 217.414,66.474 218.777,65.773 ZM220.225,78.949 C220.225,78.949 226.132,74.065 226.132,74.065 C226.132,74.065 220.225,66.512 220.225,66.512 C220.225,66.512 220.225,78.949 220.225,78.949 Z" id="path-1" fill="#ccd8db" fill-rule="evenodd"/>
</svg>
