<svg xmlns="http://www.w3.org/2000/svg" xmlns:xlink="http://www.w3.org/1999/xlink" preserveAspectRatio="xMidYMid" width="238" height="24" viewBox="0 0 238 24">
  <path d="M237.965,23.483 C237.965,23.483 233.212,23.483 233.212,23.483 C233.212,23.483 226.155,11.002 226.155,11.002 C226.155,11.002 229.333,11.002 229.333,11.002 C231.657,11.002 233.564,9.612 233.564,7.359 C233.564,5.105 231.902,3.667 229.578,3.667 C229.578,3.667 223.954,3.667 223.954,3.667 C223.954,3.667 223.954,11.002 223.954,11.002 C223.954,11.002 223.954,23.472 223.954,23.472 C223.954,23.472 219.798,23.472 219.798,23.472 C219.798,23.472 219.798,0.000 219.798,0.000 C219.798,0.000 230.113,0.000 230.113,0.000 C234.761,0.000 237.789,3.028 237.789,7.359 C237.789,11.548 235.042,13.801 232.226,14.259 C232.226,14.259 237.965,23.483 237.965,23.483 ZM195.962,0.000 C195.962,0.000 212.052,0.000 212.052,0.000 C212.052,0.000 212.052,3.627 212.052,3.627 C212.052,3.627 200.081,3.627 200.081,3.627 C200.081,3.627 200.081,9.717 200.081,9.717 C200.081,9.717 211.805,9.717 211.805,9.717 C211.805,9.717 211.805,13.344 211.805,13.344 C211.805,13.344 200.081,13.344 200.081,13.344 C200.081,13.344 200.081,19.857 200.081,19.857 C200.081,19.857 212.052,19.857 212.052,19.857 C212.052,19.857 212.052,23.483 212.052,23.483 C212.052,23.483 195.962,23.483 195.962,23.483 C195.962,23.483 195.962,0.000 195.962,0.000 ZM181.844,23.483 C181.844,23.483 177.724,23.483 177.724,23.483 C177.724,23.483 177.724,3.627 177.724,3.627 C177.724,3.627 170.612,3.627 170.612,3.627 C170.612,3.627 170.612,0.000 170.612,0.000 C170.612,0.000 188.955,0.000 188.955,0.000 C188.955,0.000 188.955,3.627 188.955,3.627 C188.955,3.627 181.844,3.627 181.844,3.627 C181.844,3.627 181.844,23.483 181.844,23.483 ZM148.291,0.000 C148.291,0.000 164.380,0.000 164.380,0.000 C164.380,0.000 164.380,3.627 164.380,3.627 C164.380,3.627 152.410,3.627 152.410,3.627 C152.410,3.627 152.410,9.717 152.410,9.717 C152.410,9.717 164.134,9.717 164.134,9.717 C164.134,9.717 164.134,13.344 164.134,13.344 C164.134,13.344 152.410,13.344 152.410,13.344 C152.410,13.344 152.410,19.857 152.410,19.857 C152.410,19.857 164.380,19.857 164.380,19.857 C164.380,19.857 164.380,23.483 164.380,23.483 C164.380,23.483 148.291,23.483 148.291,23.483 C148.291,23.483 148.291,0.000 148.291,0.000 ZM135.651,6.056 C135.651,6.056 128.433,23.483 128.433,23.483 C128.433,23.483 126.673,23.483 126.673,23.483 C126.673,23.483 119.491,6.056 119.491,6.056 C119.491,6.056 119.491,23.483 119.491,23.483 C119.491,23.483 115.371,23.483 115.371,23.483 C115.371,23.483 115.371,0.000 115.371,0.000 C115.371,0.000 121.181,0.000 121.181,0.000 C121.181,0.000 127.553,15.456 127.553,15.456 C127.553,15.456 133.961,0.000 133.961,0.000 C133.961,0.000 139.770,0.000 139.770,0.000 C139.770,0.000 139.770,23.483 139.770,23.483 C139.770,23.483 135.651,23.483 135.651,23.483 C135.651,23.483 135.651,6.056 135.651,6.056 ZM102.732,0.000 C102.732,0.000 106.852,0.000 106.852,0.000 C106.852,0.000 106.852,23.483 106.852,23.483 C106.852,23.483 102.732,23.483 102.732,23.483 C102.732,23.483 102.732,0.000 102.732,0.000 ZM77.981,6.725 C77.981,6.725 77.981,23.483 77.981,23.483 C77.981,23.483 73.862,23.483 73.862,23.483 C73.862,23.483 73.862,0.000 73.862,0.000 C73.862,0.000 78.087,0.000 78.087,0.000 C78.087,0.000 90.093,16.301 90.093,16.301 C90.093,16.301 90.093,0.000 90.093,0.000 C90.093,0.000 94.212,0.000 94.212,0.000 C94.212,0.000 94.212,23.483 94.212,23.483 C94.212,23.483 90.234,23.483 90.234,23.483 C90.234,23.483 77.981,6.725 77.981,6.725 ZM60.139,15.403 C60.139,15.403 55.977,4.155 55.977,4.155 C55.977,4.155 51.826,15.403 51.826,15.403 C51.826,15.403 48.865,23.483 48.865,23.483 C48.865,23.483 44.182,23.483 44.182,23.483 C44.182,23.483 53.407,0.000 53.407,0.000 C53.407,0.000 58.547,0.000 58.547,0.000 C58.547,0.000 67.771,23.483 67.771,23.483 C67.771,23.483 63.089,23.483 63.089,23.483 C63.089,23.483 60.139,15.403 60.139,15.403 ZM24.924,0.000 C24.924,0.000 29.043,0.000 29.043,0.000 C29.043,0.000 29.043,19.857 29.043,19.857 C29.043,19.857 39.394,19.857 39.394,19.857 C39.394,19.857 39.394,23.483 39.394,23.483 C39.394,23.483 24.924,23.483 24.924,23.483 C24.924,23.483 24.924,0.000 24.924,0.000 ZM10.312,14.717 C10.312,14.717 4.116,14.717 4.116,14.717 C4.116,14.717 4.116,23.483 4.116,23.483 C4.116,23.483 -0.003,23.483 -0.003,23.483 C-0.003,23.483 -0.003,0.000 -0.003,0.000 C-0.003,0.000 10.312,0.000 10.312,0.000 C15.241,0.000 17.988,3.380 17.988,7.359 C17.988,11.337 15.206,14.717 10.312,14.717 ZM9.749,3.627 C9.749,3.627 4.116,3.627 4.116,3.627 C4.116,3.627 4.116,11.090 4.116,11.090 C4.116,11.090 9.749,11.090 9.749,11.090 C12.073,11.090 13.763,9.612 13.763,7.359 C13.763,5.105 12.073,3.627 9.749,3.627 Z" id="path-1" fill="#ccd8db" fill-rule="evenodd"/>
</svg>
