<svg 
 xmlns="http://www.w3.org/2000/svg"
 xmlns:xlink="http://www.w3.org/1999/xlink"
 width="217px" height="22px">
<path fill-rule="evenodd"  fill="rgb(204, 216, 219)"
 d="M216.065,21.334 C216.065,21.334 211.751,21.334 211.751,21.334 C211.751,21.334 205.345,10.005 205.345,10.005 C205.345,10.005 208.230,10.005 208.230,10.005 C210.339,10.005 212.070,8.743 212.070,6.698 C212.070,4.652 210.561,3.347 208.452,3.347 C208.452,3.347 203.348,3.347 203.348,3.347 C203.348,3.347 203.348,10.005 203.348,10.005 C203.348,10.005 203.348,21.324 203.348,21.324 C203.348,21.324 199.575,21.324 199.575,21.324 C199.575,21.324 199.575,0.018 199.575,0.018 C199.575,0.018 208.938,0.018 208.938,0.018 C213.157,0.018 215.905,2.767 215.905,6.698 C215.905,10.501 213.413,12.546 210.856,12.961 C210.856,12.961 216.065,21.334 216.065,21.334 ZM177.939,0.018 C177.939,0.018 192.543,0.018 192.543,0.018 C192.543,0.018 192.543,3.310 192.543,3.310 C192.543,3.310 181.678,3.310 181.678,3.310 C181.678,3.310 181.678,8.839 181.678,8.839 C181.678,8.839 192.320,8.839 192.320,8.839 C192.320,8.839 192.320,12.130 192.320,12.130 C192.320,12.130 181.678,12.130 181.678,12.130 C181.678,12.130 181.678,18.043 181.678,18.043 C181.678,18.043 192.543,18.043 192.543,18.043 C192.543,18.043 192.543,21.334 192.543,21.334 C192.543,21.334 177.939,21.334 177.939,21.334 C177.939,21.334 177.939,0.018 177.939,0.018 ZM165.123,21.334 C165.123,21.334 161.384,21.334 161.384,21.334 C161.384,21.334 161.384,3.310 161.384,3.310 C161.384,3.310 154.928,3.310 154.928,3.310 C154.928,3.310 154.928,0.018 154.928,0.018 C154.928,0.018 171.579,0.018 171.579,0.018 C171.579,0.018 171.579,3.310 171.579,3.310 C171.579,3.310 165.123,3.310 165.123,3.310 C165.123,3.310 165.123,21.334 165.123,21.334 ZM134.666,0.018 C134.666,0.018 149.271,0.018 149.271,0.018 C149.271,0.018 149.271,3.310 149.271,3.310 C149.271,3.310 138.406,3.310 138.406,3.310 C138.406,3.310 138.406,8.839 138.406,8.839 C138.406,8.839 149.048,8.839 149.048,8.839 C149.048,8.839 149.048,12.130 149.048,12.130 C149.048,12.130 138.406,12.130 138.406,12.130 C138.406,12.130 138.406,18.043 138.406,18.043 C138.406,18.043 149.271,18.043 149.271,18.043 C149.271,18.043 149.271,21.334 149.271,21.334 C149.271,21.334 134.666,21.334 134.666,21.334 C134.666,21.334 134.666,0.018 134.666,0.018 ZM123.193,5.515 C123.193,5.515 116.642,21.334 116.642,21.334 C116.642,21.334 115.044,21.334 115.044,21.334 C115.044,21.334 108.524,5.515 108.524,5.515 C108.524,5.515 108.524,21.334 108.524,21.334 C108.524,21.334 104.785,21.334 104.785,21.334 C104.785,21.334 104.785,0.018 104.785,0.018 C104.785,0.018 110.058,0.018 110.058,0.018 C110.058,0.018 115.843,14.048 115.843,14.048 C115.843,14.048 121.659,0.018 121.659,0.018 C121.659,0.018 126.932,0.018 126.932,0.018 C126.932,0.018 126.932,21.334 126.932,21.334 C126.932,21.334 123.193,21.334 123.193,21.334 C123.193,21.334 123.193,5.515 123.193,5.515 ZM93.312,0.018 C93.312,0.018 97.051,0.018 97.051,0.018 C97.051,0.018 97.051,21.334 97.051,21.334 C97.051,21.334 93.312,21.334 93.312,21.334 C93.312,21.334 93.312,0.018 93.312,0.018 ZM70.846,6.122 C70.846,6.122 70.846,21.334 70.846,21.334 C70.846,21.334 67.106,21.334 67.106,21.334 C67.106,21.334 67.106,0.018 67.106,0.018 C67.106,0.018 70.941,0.018 70.941,0.018 C70.941,0.018 81.839,14.815 81.839,14.815 C81.839,14.815 81.839,0.018 81.839,0.018 C81.839,0.018 85.578,0.018 85.578,0.018 C85.578,0.018 85.578,21.334 85.578,21.334 C85.578,21.334 81.967,21.334 81.967,21.334 C81.967,21.334 70.846,6.122 70.846,6.122 ZM54.650,14.000 C54.650,14.000 50.872,3.789 50.872,3.789 C50.872,3.789 47.104,14.000 47.104,14.000 C47.104,14.000 44.416,21.334 44.416,21.334 C44.416,21.334 40.166,21.334 40.166,21.334 C40.166,21.334 48.539,0.018 48.539,0.018 C48.539,0.018 53.204,0.018 53.204,0.018 C53.204,0.018 61.578,21.334 61.578,21.334 C61.578,21.334 57.327,21.334 57.327,21.334 C57.327,21.334 54.650,14.000 54.650,14.000 ZM22.684,0.018 C22.684,0.018 26.423,0.018 26.423,0.018 C26.423,0.018 26.423,18.043 26.423,18.043 C26.423,18.043 35.819,18.043 35.819,18.043 C35.819,18.043 35.819,21.334 35.819,21.334 C35.819,21.334 22.684,21.334 22.684,21.334 C22.684,21.334 22.684,0.018 22.684,0.018 ZM9.421,13.377 C9.421,13.377 3.797,13.377 3.797,13.377 C3.797,13.377 3.797,21.334 3.797,21.334 C3.797,21.334 0.058,21.334 0.058,21.334 C0.058,21.334 0.058,0.018 0.058,0.018 C0.058,0.018 9.421,0.018 9.421,0.018 C13.895,0.018 16.388,3.086 16.388,6.698 C16.388,10.309 13.863,13.377 9.421,13.377 ZM8.910,3.310 C8.910,3.310 3.797,3.310 3.797,3.310 C3.797,3.310 3.797,10.085 3.797,10.085 C3.797,10.085 8.910,10.085 8.910,10.085 C11.019,10.085 12.553,8.743 12.553,6.698 C12.553,4.652 11.019,3.310 8.910,3.310 Z"/>
</svg>