<svg 
 xmlns="http://www.w3.org/2000/svg"
 xmlns:xlink="http://www.w3.org/1999/xlink"
 width="217px" height="71px">
<path fill-rule="evenodd"  fill="rgb(206, 211, 217)"
 d="M215.964,69.645 C215.964,69.645 213.470,69.645 213.470,69.645 C211.502,69.645 210.589,69.505 209.711,68.978 C208.200,68.170 206.971,66.484 204.969,63.814 C203.493,61.847 201.807,59.564 201.140,58.615 C200.999,58.475 200.859,58.404 200.683,58.404 C200.683,58.404 196.362,58.334 196.362,58.334 C196.187,58.334 196.116,58.440 196.116,58.615 C196.116,58.615 196.116,59.458 196.116,59.458 C196.116,62.831 196.116,65.571 196.292,67.081 C196.397,68.100 196.573,68.873 197.662,69.013 C198.189,69.119 198.927,69.154 199.243,69.154 C199.418,69.154 199.524,69.224 199.524,69.364 C199.524,69.540 199.348,69.645 198.962,69.645 C196.995,69.645 194.817,69.540 194.641,69.540 C194.641,69.540 192.358,69.645 191.339,69.645 C190.953,69.645 190.777,69.540 190.777,69.364 C190.777,69.224 190.882,69.154 191.058,69.154 C191.374,69.154 191.796,69.119 192.112,69.013 C192.814,68.873 192.990,68.100 193.130,67.081 C193.306,65.571 193.306,62.831 193.306,59.458 C193.306,59.458 193.306,53.276 193.306,53.276 C193.306,47.796 193.341,46.812 193.236,45.688 C193.130,44.459 192.885,43.932 191.725,43.686 C191.444,43.580 190.847,43.580 190.531,43.580 C190.355,43.580 190.250,43.510 190.250,43.370 C190.250,43.194 190.426,43.089 190.812,43.089 C192.393,43.089 194.606,43.194 194.782,43.194 C195.168,43.194 197.838,43.089 198.927,43.089 C201.175,43.089 203.493,43.264 205.355,44.634 C206.198,45.302 207.779,46.953 207.779,49.412 C207.779,52.046 206.655,54.611 203.528,57.526 C206.444,61.215 208.762,64.306 210.835,66.519 C212.767,68.521 214.242,68.908 215.121,69.048 C215.788,69.154 216.245,69.154 216.491,69.154 C216.701,69.154 216.807,69.224 216.807,69.364 C216.807,69.610 216.631,69.645 215.964,69.645 ZM204.828,51.238 C204.828,46.847 202.545,44.213 198.751,44.213 C197.662,44.213 196.784,44.318 196.397,44.424 C196.222,44.494 196.116,44.634 196.116,44.845 C196.116,44.845 196.116,56.332 196.116,56.332 C196.116,56.508 196.187,56.648 196.362,56.753 C196.889,57.070 198.505,57.316 200.051,57.316 C200.894,57.316 201.877,57.210 202.685,56.648 C203.915,55.805 204.828,53.908 204.828,51.238 ZM205.373,12.417 C209.518,15.719 210.502,17.826 210.502,20.672 C210.502,22.077 209.940,24.817 207.516,26.503 C206.005,27.592 204.143,27.978 202.211,27.978 C200.560,27.978 198.944,27.732 197.504,27.030 C196.977,26.784 196.977,26.644 196.977,25.695 C196.977,23.904 197.118,22.534 197.153,21.971 C197.188,21.585 197.258,21.409 197.434,21.409 C197.610,21.409 197.680,21.550 197.680,21.796 C197.680,22.112 197.680,22.569 197.785,23.096 C198.347,25.730 200.631,26.679 202.984,26.679 C206.356,26.679 208.007,24.255 208.007,22.007 C208.007,19.548 206.954,18.213 203.968,15.684 C203.968,15.684 202.387,14.384 202.387,14.384 C198.663,11.328 197.820,9.150 197.820,6.761 C197.820,3.002 200.631,0.438 205.092,0.438 C206.462,0.438 207.481,0.543 208.359,0.789 C209.026,0.930 209.307,0.965 209.588,0.965 C209.834,0.965 209.940,1.035 209.940,1.211 C209.940,1.386 209.799,2.546 209.799,4.934 C209.799,5.461 209.729,5.742 209.553,5.742 C209.307,5.742 209.307,5.567 209.272,5.286 C209.237,4.864 209.061,3.916 208.815,3.529 C208.605,3.108 207.621,1.668 204.424,1.668 C202.001,1.668 200.104,3.178 200.104,5.742 C200.104,7.710 201.017,9.009 204.389,11.644 C204.389,11.644 205.373,12.417 205.373,12.417 ZM176.283,26.362 C178.952,26.362 180.990,26.046 182.395,24.606 C183.133,23.798 183.589,22.323 183.695,21.655 C183.765,21.304 183.870,21.128 184.046,21.128 C184.222,21.128 184.292,21.374 184.292,21.655 C184.292,21.936 183.905,24.922 183.519,26.152 C183.273,26.819 183.273,26.889 182.606,27.170 C181.201,27.732 178.531,27.978 176.283,27.978 C170.978,27.978 167.501,26.714 164.690,24.185 C161.318,21.093 160.440,17.159 160.440,13.787 C160.440,11.433 161.248,7.323 164.374,4.197 C166.482,2.089 169.644,0.438 175.088,0.438 C176.493,0.438 178.461,0.543 180.182,0.860 C181.552,1.105 182.606,1.211 183.905,1.386 C184.116,1.422 184.222,1.527 184.222,1.773 C184.222,2.054 184.151,2.475 184.046,3.740 C183.941,4.864 183.941,6.831 183.941,7.358 C183.905,7.850 183.800,8.096 183.624,8.096 C183.449,8.096 183.343,7.850 183.343,7.358 C183.343,5.988 182.817,4.583 181.868,3.775 C180.639,2.686 177.934,1.773 174.842,1.773 C170.206,1.773 167.993,3.108 166.763,4.337 C164.199,6.831 163.602,9.887 163.602,13.506 C163.602,20.215 168.800,26.362 176.283,26.362 ZM164.460,43.194 C164.706,43.194 171.697,43.159 172.505,43.159 C173.313,43.124 173.875,43.054 174.121,42.948 C174.296,42.843 174.437,42.808 174.507,42.808 C174.612,42.808 174.648,42.913 174.648,43.124 C174.648,43.370 174.472,43.791 174.367,44.775 C174.331,45.302 174.331,45.934 174.226,46.883 C174.191,47.269 174.085,47.480 173.945,47.480 C173.769,47.480 173.664,47.339 173.664,47.023 C173.664,46.566 173.594,46.180 173.488,45.864 C173.242,45.056 172.505,44.705 170.959,44.564 C170.362,44.459 166.498,44.459 166.147,44.459 C166.006,44.459 165.936,44.564 165.936,44.810 C165.936,44.810 165.936,54.505 165.936,54.505 C165.936,54.751 166.006,54.857 166.147,54.857 C166.603,54.857 170.889,54.892 171.732,54.786 C172.680,54.681 173.102,54.611 173.488,54.189 C173.664,53.943 173.804,53.838 173.910,53.838 C174.015,53.838 174.085,53.943 174.085,54.119 C174.085,54.365 173.910,54.927 173.804,56.086 C173.699,57.175 173.699,57.948 173.664,58.475 C173.629,58.826 173.523,59.002 173.418,59.002 C173.172,59.002 173.172,58.721 173.172,58.440 C173.172,58.053 173.137,57.737 173.032,57.456 C172.891,56.929 172.470,56.437 171.205,56.297 C170.257,56.191 166.779,56.121 166.182,56.121 C166.006,56.121 165.936,56.191 165.936,56.367 C165.936,56.367 165.936,59.458 165.936,59.458 C165.936,59.458 165.936,65.465 165.936,65.465 C166.041,66.905 166.217,67.643 167.095,68.030 C167.692,68.275 168.641,68.346 170.011,68.346 C171.100,68.346 172.224,68.311 173.172,68.030 C174.296,67.643 174.683,66.941 174.964,65.430 C175.034,65.079 175.139,64.903 175.280,64.903 C175.526,64.903 175.491,65.184 175.491,65.430 C175.491,65.676 175.210,68.100 175.034,68.838 C174.753,69.751 174.542,69.751 173.137,69.751 C170.538,69.751 169.378,69.645 168.008,69.645 C166.603,69.610 164.987,69.540 163.617,69.540 C162.774,69.540 161.966,69.681 161.018,69.645 C160.631,69.645 160.456,69.540 160.456,69.364 C160.456,69.259 160.596,69.189 160.842,69.154 C161.229,69.119 161.404,69.154 161.650,69.048 C162.423,68.838 162.809,68.381 162.915,65.746 C162.950,64.376 162.985,62.585 162.985,59.458 C162.985,59.458 162.985,53.276 162.985,53.276 C162.985,47.796 163.020,46.812 162.915,45.688 C162.809,44.459 162.564,43.932 161.404,43.686 C161.158,43.580 160.702,43.616 160.386,43.580 C160.069,43.545 159.929,43.475 159.929,43.370 C159.929,43.194 160.105,43.089 160.491,43.089 C161.299,43.089 162.247,43.089 164.460,43.194 ZM148.319,27.487 C146.386,27.487 144.173,27.381 143.963,27.381 C143.752,27.381 141.574,27.487 140.520,27.487 C140.134,27.487 139.958,27.381 139.958,27.206 C139.958,27.065 140.099,26.995 140.344,26.995 C140.590,26.995 140.942,26.995 141.258,26.889 C141.960,26.749 142.171,25.941 142.312,24.922 C142.487,23.412 142.487,20.672 142.487,17.299 C142.487,17.299 142.487,11.117 142.487,11.117 C142.487,5.637 142.522,4.653 142.417,3.529 C142.347,2.370 141.960,1.738 141.223,1.562 C140.836,1.457 140.380,1.422 140.134,1.422 C139.958,1.422 139.853,1.351 139.853,1.211 C139.853,1.035 140.028,0.930 140.415,0.930 C141.574,0.930 143.752,1.035 143.963,1.035 C144.173,1.035 146.351,0.930 147.405,0.930 C147.792,0.930 147.967,1.035 147.967,1.211 C147.967,1.351 147.862,1.422 147.686,1.422 C147.440,1.422 147.230,1.422 146.808,1.527 C145.860,1.703 145.614,2.300 145.508,3.529 C145.403,4.653 145.438,5.637 145.438,11.117 C145.438,11.117 145.438,17.299 145.438,17.299 C145.438,20.672 145.438,23.412 145.614,24.922 C145.719,25.941 145.895,26.714 146.984,26.854 C147.511,26.960 148.178,26.995 148.424,26.995 C148.705,26.995 148.845,27.065 148.845,27.206 C148.845,27.381 148.670,27.487 148.319,27.487 ZM131.629,27.487 C131.629,27.487 129.135,27.487 129.135,27.487 C127.167,27.487 126.254,27.346 125.376,26.819 C123.865,26.011 122.636,24.325 120.634,21.655 C119.158,19.688 117.472,17.405 116.805,16.456 C116.664,16.316 116.524,16.246 116.348,16.246 C116.348,16.246 112.027,16.175 112.027,16.175 C111.852,16.175 111.781,16.281 111.781,16.456 C111.781,16.456 111.781,17.299 111.781,17.299 C111.781,20.672 111.781,23.412 111.957,24.922 C112.062,25.941 112.238,26.714 113.327,26.854 C113.854,26.960 114.592,26.995 114.908,26.995 C115.083,26.995 115.189,27.065 115.189,27.206 C115.189,27.381 115.013,27.487 114.627,27.487 C112.659,27.487 110.482,27.381 110.306,27.381 C110.306,27.381 108.023,27.487 107.004,27.487 C106.617,27.487 106.442,27.381 106.442,27.206 C106.442,27.065 106.547,26.995 106.723,26.995 C107.039,26.995 107.461,26.960 107.777,26.854 C108.479,26.714 108.655,25.941 108.795,24.922 C108.971,23.412 108.971,20.672 108.971,17.299 C108.971,17.299 108.971,11.117 108.971,11.117 C108.971,5.637 109.006,4.653 108.901,3.529 C108.795,2.300 108.550,1.773 107.390,1.527 C107.109,1.422 106.512,1.422 106.196,1.422 C106.020,1.422 105.915,1.351 105.915,1.211 C105.915,1.035 106.091,0.930 106.477,0.930 C108.058,0.930 110.271,1.035 110.446,1.035 C110.833,1.035 113.503,0.930 114.592,0.930 C116.840,0.930 119.158,1.105 121.020,2.475 C121.863,3.143 123.444,4.794 123.444,7.253 C123.444,9.887 122.320,12.452 119.193,15.367 C122.109,19.056 124.427,22.147 126.500,24.360 C128.432,26.362 129.907,26.749 130.786,26.889 C131.453,26.995 131.910,26.995 132.156,26.995 C132.366,26.995 132.472,27.065 132.472,27.206 C132.472,27.451 132.296,27.487 131.629,27.487 ZM120.493,9.080 C120.493,4.689 118.210,2.054 114.416,2.054 C113.327,2.054 112.449,2.159 112.062,2.265 C111.887,2.335 111.781,2.475 111.781,2.686 C111.781,2.686 111.781,14.173 111.781,14.173 C111.781,14.349 111.852,14.489 112.027,14.595 C112.554,14.911 114.170,15.157 115.716,15.157 C116.559,15.157 117.542,15.051 118.350,14.489 C119.580,13.646 120.493,11.749 120.493,9.080 ZM109.788,43.089 C110.210,43.089 110.421,43.159 110.421,43.335 C110.421,43.440 110.280,43.545 110.034,43.580 C109.753,43.616 109.542,43.616 109.121,43.721 C108.137,43.897 107.891,44.494 107.891,46.883 C107.891,46.883 107.821,67.397 107.821,67.397 C107.821,69.716 107.751,69.891 107.505,69.891 C107.189,69.891 106.802,69.505 104.941,67.643 C104.554,67.257 99.496,62.128 95.772,58.123 C91.662,53.732 87.693,49.341 86.604,48.042 C86.604,48.042 87.061,64.868 87.061,64.868 C87.166,67.749 87.482,68.662 88.431,68.943 C89.098,69.119 89.871,69.154 90.187,69.154 C90.363,69.154 90.468,69.224 90.468,69.364 C90.468,69.540 90.257,69.645 89.836,69.645 C87.833,69.645 86.428,69.540 86.112,69.540 C85.796,69.540 84.321,69.645 82.740,69.645 C82.353,69.645 82.178,69.540 82.178,69.364 C82.178,69.224 82.283,69.154 82.459,69.154 C82.740,69.154 83.372,69.119 83.899,68.943 C84.777,68.697 84.953,67.678 84.953,64.482 C84.953,64.482 84.953,59.283 84.953,59.283 C84.953,46.601 84.988,51.168 84.988,44.353 C84.988,42.983 85.093,42.597 85.374,42.597 C85.655,42.597 86.217,43.335 86.604,43.721 C87.166,44.283 92.365,49.974 97.775,55.770 C101.217,59.493 105.081,63.814 106.205,64.938 C106.205,64.938 105.819,47.093 105.819,47.093 C105.784,44.810 105.538,44.037 104.449,43.756 C103.781,43.616 103.255,43.580 102.938,43.580 C102.622,43.580 102.447,43.510 102.447,43.335 C102.447,43.159 102.692,43.089 103.149,43.089 C104.695,43.089 106.416,43.194 106.802,43.194 C107.189,43.194 108.348,43.089 109.788,43.089 ZM94.214,5.426 C94.038,5.426 93.968,5.356 93.933,4.829 C93.933,4.689 93.897,4.583 93.897,4.443 C93.792,3.389 92.949,2.616 89.577,2.511 C89.577,2.511 85.151,2.440 85.151,2.440 C85.151,2.440 85.151,17.299 85.151,17.299 C85.151,20.672 85.151,23.412 85.326,24.922 C85.432,25.941 85.607,26.714 86.696,26.854 C87.223,26.960 87.961,26.995 88.277,26.995 C88.453,26.995 88.558,27.065 88.558,27.206 C88.558,27.381 88.382,27.487 87.996,27.487 C86.029,27.487 83.851,27.381 83.675,27.381 C83.464,27.381 81.286,27.487 80.233,27.487 C79.846,27.487 79.671,27.381 79.671,27.206 C79.671,27.065 79.776,26.995 79.952,26.995 C80.268,26.995 80.689,26.960 81.005,26.854 C81.708,26.714 81.884,25.941 82.024,24.922 C82.200,23.412 82.200,20.672 82.200,17.299 C82.200,17.299 82.200,2.440 82.200,2.440 C82.200,2.440 77.001,2.511 77.001,2.511 C74.858,2.511 73.945,2.827 73.418,3.635 C73.031,4.232 72.926,4.478 72.821,4.724 C72.715,4.970 72.610,5.075 72.469,5.075 C72.364,5.075 72.294,4.970 72.294,4.759 C72.294,4.407 72.961,1.386 73.066,1.105 C73.172,0.860 73.277,0.438 73.418,0.438 C73.664,0.438 74.015,0.754 74.963,0.860 C75.982,0.965 77.317,1.035 77.739,1.035 C77.739,1.035 90.912,1.035 90.912,1.035 C92.036,1.035 92.844,0.965 93.406,0.860 C93.933,0.754 94.249,0.684 94.389,0.684 C94.565,0.684 94.565,0.860 94.565,1.105 C94.565,2.124 94.459,4.618 94.459,4.970 C94.459,5.286 94.389,5.426 94.214,5.426 ZM68.261,43.580 C68.015,43.580 67.804,43.580 67.383,43.686 C66.434,43.932 66.188,44.459 66.083,45.688 C65.977,46.812 66.013,47.796 66.013,53.276 C66.013,53.276 66.013,57.035 66.013,57.035 C66.013,60.863 65.591,65.009 62.781,67.538 C60.252,69.786 57.617,70.137 55.544,70.137 C54.315,70.137 50.872,69.997 48.308,67.643 C46.622,65.957 45.252,63.568 45.252,58.404 C45.252,58.404 45.252,53.276 45.252,53.276 C45.252,47.796 45.287,46.812 45.182,45.688 C45.076,44.459 44.830,43.932 43.671,43.686 C43.390,43.580 42.793,43.580 42.477,43.580 C42.301,43.580 42.196,43.510 42.196,43.370 C42.196,43.194 42.371,43.089 42.758,43.089 C44.303,43.089 46.481,43.194 46.798,43.194 C47.114,43.194 49.256,43.089 50.275,43.089 C50.662,43.089 50.837,43.194 50.837,43.370 C50.837,43.510 50.732,43.580 50.556,43.580 C50.310,43.580 50.100,43.580 49.678,43.686 C48.730,43.826 48.484,44.459 48.378,45.688 C48.273,46.812 48.308,47.796 48.308,53.276 C48.308,53.276 48.308,58.194 48.308,58.194 C48.308,63.252 49.397,65.430 50.943,66.870 C52.664,68.521 54.245,68.802 56.247,68.802 C58.390,68.802 60.497,67.784 61.762,66.273 C63.413,64.271 63.799,61.320 63.799,57.667 C63.799,57.667 63.799,53.276 63.799,53.276 C63.799,47.796 63.835,46.812 63.729,45.688 C63.624,44.459 63.378,43.932 62.219,43.686 C61.938,43.580 61.341,43.580 61.024,43.580 C60.849,43.580 60.743,43.510 60.743,43.370 C60.743,43.194 60.919,43.089 61.305,43.089 C62.921,43.089 64.818,43.194 65.029,43.194 C65.275,43.194 66.961,43.089 67.980,43.089 C68.366,43.089 68.542,43.194 68.542,43.370 C68.542,43.510 68.436,43.580 68.261,43.580 ZM61.260,26.679 C60.979,27.592 60.769,27.592 59.364,27.592 C56.764,27.592 55.605,27.487 54.235,27.487 C52.830,27.451 51.214,27.381 49.844,27.381 C49.001,27.381 48.193,27.522 47.244,27.487 C46.858,27.487 46.682,27.381 46.682,27.206 C46.682,27.100 46.823,27.030 47.069,26.995 C47.455,26.960 47.631,26.995 47.877,26.889 C48.649,26.679 49.036,26.222 49.141,23.587 C49.176,22.217 49.212,20.426 49.212,17.299 C49.212,17.299 49.212,11.117 49.212,11.117 C49.212,5.637 49.247,4.653 49.141,3.529 C49.036,2.300 48.790,1.773 47.631,1.527 C47.385,1.422 46.928,1.457 46.612,1.422 C46.296,1.386 46.155,1.316 46.155,1.211 C46.155,1.035 46.331,0.930 46.717,0.930 C47.525,0.930 48.474,0.930 50.687,1.035 C50.933,1.035 57.923,1.000 58.731,1.000 C59.539,0.965 60.101,0.895 60.347,0.789 C60.523,0.684 60.663,0.649 60.734,0.649 C60.839,0.649 60.874,0.754 60.874,0.965 C60.874,1.211 60.698,1.632 60.593,2.616 C60.558,3.143 60.558,3.775 60.452,4.724 C60.417,5.110 60.312,5.321 60.171,5.321 C59.996,5.321 59.890,5.180 59.890,4.864 C59.890,4.407 59.820,4.021 59.715,3.705 C59.469,2.897 58.731,2.546 57.186,2.405 C56.588,2.300 52.724,2.300 52.373,2.300 C52.233,2.300 52.162,2.405 52.162,2.651 C52.162,2.651 52.162,12.346 52.162,12.346 C52.162,12.592 52.233,12.698 52.373,12.698 C52.830,12.698 57.115,12.733 57.958,12.627 C58.907,12.522 59.328,12.452 59.715,12.030 C59.890,11.784 60.031,11.679 60.136,11.679 C60.242,11.679 60.312,11.784 60.312,11.960 C60.312,12.206 60.136,12.768 60.031,13.927 C59.926,15.016 59.926,15.789 59.890,16.316 C59.855,16.667 59.750,16.843 59.645,16.843 C59.399,16.843 59.399,16.562 59.399,16.281 C59.399,15.894 59.364,15.578 59.258,15.297 C59.118,14.770 58.696,14.278 57.431,14.138 C56.483,14.033 53.005,13.962 52.408,13.962 C52.233,13.962 52.162,14.033 52.162,14.208 C52.162,14.208 52.162,17.299 52.162,17.299 C52.162,17.299 52.162,23.306 52.162,23.306 C52.268,24.747 52.443,25.484 53.322,25.871 C53.919,26.117 54.867,26.187 56.237,26.187 C57.326,26.187 58.450,26.152 59.399,25.871 C60.523,25.484 60.909,24.782 61.190,23.271 C61.260,22.920 61.366,22.744 61.506,22.744 C61.752,22.744 61.717,23.025 61.717,23.271 C61.717,23.517 61.436,25.941 61.260,26.679 ZM35.366,27.487 C34.593,27.487 30.589,27.381 29.289,27.276 C28.481,27.170 28.305,27.100 28.305,26.925 C28.305,26.819 28.376,26.749 28.551,26.679 C28.797,26.573 28.797,26.081 28.692,25.414 C28.692,25.414 27.006,7.077 27.006,7.077 C27.006,7.077 18.294,25.555 18.294,25.555 C17.556,27.100 17.451,27.416 17.135,27.416 C16.889,27.416 16.713,27.065 16.046,25.800 C15.132,24.079 12.146,18.002 11.936,17.651 C11.620,16.983 7.615,8.377 7.193,7.393 C7.193,7.393 5.753,23.939 5.753,23.939 C5.718,24.501 5.683,24.992 5.683,25.590 C5.683,26.468 6.104,26.749 6.631,26.854 C7.229,26.995 7.650,26.995 7.896,26.995 C8.142,26.995 8.247,27.065 8.247,27.170 C8.247,27.381 8.072,27.487 7.720,27.487 C6.421,27.487 4.629,27.381 4.348,27.381 C4.032,27.381 2.311,27.487 1.397,27.487 C1.011,27.487 0.800,27.381 0.800,27.206 C0.800,27.065 0.905,26.995 1.151,26.995 C1.432,26.995 1.678,26.995 2.205,26.889 C3.364,26.644 3.435,25.414 3.610,23.974 C3.610,23.974 6.140,1.141 6.140,1.141 C6.175,0.754 6.280,0.438 6.526,0.438 C6.702,0.438 6.877,0.614 7.053,0.965 C7.053,0.965 17.802,23.060 17.802,23.060 C17.802,23.060 28.130,1.000 28.130,1.000 C28.305,0.614 28.481,0.438 28.657,0.438 C28.867,0.438 29.008,0.754 29.078,1.386 C29.078,1.386 31.432,22.955 31.432,22.955 C31.537,24.185 31.853,26.222 33.329,26.679 C34.347,26.995 35.120,26.995 35.507,26.995 C35.682,26.995 35.893,27.030 35.893,27.206 C35.893,27.451 35.788,27.487 35.366,27.487 ZM1.826,43.089 C3.407,43.089 5.620,43.194 5.796,43.194 C6.007,43.194 8.185,43.089 9.238,43.089 C9.625,43.089 9.801,43.194 9.801,43.370 C9.801,43.510 9.695,43.580 9.520,43.580 C9.274,43.580 9.063,43.580 8.641,43.686 C7.693,43.862 7.447,44.459 7.342,45.688 C7.236,46.812 7.271,47.796 7.271,53.276 C7.271,53.276 7.271,54.013 7.271,54.013 C7.271,54.154 7.342,54.224 7.482,54.224 C7.482,54.224 22.376,54.224 22.376,54.224 C22.517,54.224 22.587,54.154 22.587,54.013 C22.587,54.013 22.587,53.276 22.587,53.276 C22.587,47.796 22.622,46.812 22.517,45.688 C22.411,44.459 22.166,43.932 21.006,43.686 C20.725,43.580 20.128,43.580 19.812,43.580 C19.636,43.580 19.531,43.510 19.531,43.370 C19.531,43.194 19.707,43.089 20.093,43.089 C21.674,43.089 23.887,43.194 24.062,43.194 C24.273,43.194 26.451,43.089 27.505,43.089 C27.891,43.089 28.067,43.194 28.067,43.370 C28.067,43.510 27.962,43.580 27.786,43.580 C27.540,43.580 27.329,43.580 26.908,43.686 C25.959,43.862 25.714,44.459 25.608,45.688 C25.503,46.812 25.538,47.796 25.538,53.276 C25.538,53.276 25.538,59.458 25.538,59.458 C25.538,62.831 25.538,65.571 25.714,67.081 C25.819,68.100 25.995,68.873 27.084,69.013 C27.610,69.119 28.348,69.154 28.664,69.154 C28.840,69.154 28.945,69.224 28.945,69.364 C28.945,69.540 28.770,69.645 28.383,69.645 C26.416,69.645 24.238,69.540 24.062,69.540 C23.852,69.540 21.674,69.645 20.620,69.645 C20.234,69.645 20.058,69.540 20.058,69.364 C20.058,69.224 20.163,69.154 20.339,69.154 C20.655,69.154 21.077,69.119 21.393,69.013 C22.095,68.873 22.271,68.100 22.411,67.081 C22.587,65.571 22.587,62.831 22.587,59.458 C22.587,59.458 22.587,55.770 22.587,55.770 C22.587,55.629 22.517,55.559 22.376,55.559 C22.376,55.559 7.482,55.559 7.482,55.559 C7.342,55.559 7.271,55.629 7.271,55.770 C7.271,55.770 7.271,59.458 7.271,59.458 C7.271,62.831 7.271,65.571 7.447,67.081 C7.552,68.100 7.728,68.873 8.817,69.013 C9.344,69.119 10.082,69.154 10.398,69.154 C10.573,69.154 10.679,69.224 10.679,69.364 C10.679,69.540 10.503,69.645 10.117,69.645 C8.150,69.645 5.972,69.540 5.796,69.540 C5.585,69.540 3.407,69.645 2.353,69.645 C1.967,69.645 1.791,69.540 1.791,69.364 C1.791,69.224 1.897,69.154 2.072,69.154 C2.389,69.154 2.810,69.119 3.126,69.013 C3.829,68.873 4.004,68.100 4.145,67.081 C4.321,65.571 4.321,62.831 4.321,59.458 C4.321,59.458 4.321,53.276 4.321,53.276 C4.321,47.796 4.356,46.812 4.250,45.688 C4.145,44.459 3.899,43.932 2.740,43.686 C2.459,43.580 1.862,43.580 1.545,43.580 C1.370,43.580 1.264,43.510 1.264,43.370 C1.264,43.194 1.440,43.089 1.826,43.089 ZM124.795,42.597 C125.041,42.597 125.392,42.913 126.341,43.018 C127.359,43.124 128.694,43.194 129.116,43.194 C129.116,43.194 142.289,43.194 142.289,43.194 C143.413,43.194 144.221,43.124 144.783,43.018 C145.310,42.913 145.626,42.843 145.766,42.843 C145.942,42.843 145.942,43.018 145.942,43.264 C145.942,44.283 145.837,46.777 145.837,47.128 C145.837,47.445 145.766,47.585 145.591,47.585 C145.415,47.585 145.345,47.515 145.310,46.988 C145.310,46.847 145.275,46.742 145.275,46.601 C145.169,45.548 144.326,44.775 140.954,44.669 C140.954,44.669 136.528,44.599 136.528,44.599 C136.528,44.599 136.528,59.458 136.528,59.458 C136.528,62.831 136.528,65.571 136.703,67.081 C136.809,68.100 136.984,68.873 138.073,69.013 C138.600,69.119 139.338,69.154 139.654,69.154 C139.830,69.154 139.935,69.224 139.935,69.364 C139.935,69.540 139.759,69.645 139.373,69.645 C137.406,69.645 135.228,69.540 135.052,69.540 C134.842,69.540 132.664,69.645 131.610,69.645 C131.223,69.645 131.048,69.540 131.048,69.364 C131.048,69.224 131.153,69.154 131.329,69.154 C131.645,69.154 132.066,69.119 132.383,69.013 C133.085,68.873 133.261,68.100 133.401,67.081 C133.577,65.571 133.577,62.831 133.577,59.458 C133.577,59.458 133.577,44.599 133.577,44.599 C133.577,44.599 128.378,44.669 128.378,44.669 C126.235,44.669 125.322,44.986 124.795,45.794 C124.409,46.391 124.303,46.637 124.198,46.883 C124.092,47.128 123.987,47.234 123.847,47.234 C123.741,47.234 123.671,47.128 123.671,46.918 C123.671,46.566 124.338,43.545 124.444,43.264 C124.549,43.018 124.654,42.597 124.795,42.597 Z"/>
</svg>