<svg 
 xmlns="http://www.w3.org/2000/svg"
 xmlns:xlink="http://www.w3.org/1999/xlink"
 width="217px" height="53px">
<path fill-rule="evenodd"  fill="rgb(204, 216, 219)"
 d="M28.876,0.007 C30.667,-0.026 32.191,0.091 33.416,0.575 C33.643,0.612 33.870,0.650 34.097,0.688 C34.097,0.726 34.097,0.764 34.097,0.802 C34.249,0.839 34.400,0.877 34.551,0.915 C34.551,0.953 34.551,0.991 34.551,1.029 C34.665,1.029 34.779,1.029 34.892,1.029 C34.892,1.066 34.892,1.104 34.892,1.142 C34.968,1.142 35.043,1.142 35.119,1.142 C35.119,1.180 35.119,1.218 35.119,1.256 C35.195,1.256 35.270,1.256 35.346,1.256 C35.384,1.331 35.422,1.407 35.460,1.483 C35.611,1.520 35.762,1.558 35.914,1.596 C35.951,1.672 35.989,1.748 36.027,1.823 C36.103,1.823 36.178,1.823 36.254,1.823 C36.254,1.861 36.254,1.899 36.254,1.937 C36.368,1.975 36.481,2.012 36.595,2.050 C36.632,2.126 36.670,2.202 36.708,2.277 C36.784,2.277 36.859,2.277 36.935,2.277 C37.086,2.466 37.238,2.656 37.389,2.845 C37.465,2.845 37.540,2.845 37.616,2.845 C38.070,3.374 38.524,3.904 38.978,4.434 C38.903,4.434 38.827,4.434 38.751,4.434 C38.477,4.032 37.951,3.988 37.503,3.753 C37.503,3.715 37.503,3.677 37.503,3.639 C37.427,3.639 37.351,3.639 37.276,3.639 C37.276,3.601 37.276,3.564 37.276,3.526 C37.162,3.526 37.049,3.526 36.935,3.526 C36.935,3.488 36.935,3.450 36.935,3.412 C36.822,3.412 36.708,3.412 36.595,3.412 C36.595,3.374 36.595,3.337 36.595,3.299 C36.481,3.299 36.368,3.299 36.254,3.299 C36.254,3.261 36.254,3.223 36.254,3.185 C36.103,3.185 35.951,3.185 35.800,3.185 C35.800,3.147 35.800,3.110 35.800,3.072 C35.649,3.072 35.497,3.072 35.346,3.072 C35.346,3.034 35.346,2.996 35.346,2.958 C35.119,2.958 34.892,2.958 34.665,2.958 C34.665,2.920 34.665,2.883 34.665,2.845 C34.325,2.845 33.984,2.845 33.643,2.845 C33.643,2.807 33.643,2.769 33.643,2.731 C32.957,2.537 31.878,2.792 31.260,2.618 C30.605,2.433 29.575,2.669 28.990,2.504 C28.335,2.320 27.305,2.555 26.720,2.391 C26.032,2.197 24.954,2.451 24.336,2.277 C23.681,2.093 22.651,2.328 22.066,2.164 C21.574,2.164 21.082,2.164 20.590,2.164 C19.569,2.126 18.547,2.088 17.526,2.050 C17.526,2.012 17.526,1.975 17.526,1.937 C17.261,1.937 16.996,1.937 16.731,1.937 C16.731,1.899 16.731,1.861 16.731,1.823 C17.542,1.835 18.360,1.670 19.001,1.483 C19.266,1.483 19.531,1.483 19.796,1.483 C20.411,1.300 21.337,1.210 21.952,1.029 C22.217,1.029 22.482,1.029 22.747,1.029 C23.630,0.768 24.822,0.719 25.698,0.461 C25.963,0.461 26.228,0.461 26.493,0.461 C26.493,0.423 26.493,0.385 26.493,0.348 C26.720,0.348 26.947,0.348 27.174,0.348 C27.174,0.310 27.174,0.272 27.174,0.234 C27.438,0.234 27.703,0.234 27.968,0.234 C27.968,0.196 27.968,0.158 27.968,0.121 C28.271,0.121 28.574,0.121 28.876,0.121 C28.876,0.083 28.876,0.045 28.876,0.007 ZM9.467,2.958 C9.618,2.958 9.770,2.958 9.921,2.958 C9.921,2.996 9.921,3.034 9.921,3.072 C9.845,3.072 9.770,3.072 9.694,3.072 C9.517,3.278 9.469,3.170 9.240,3.299 C9.240,3.337 9.240,3.374 9.240,3.412 C9.164,3.412 9.089,3.412 9.013,3.412 C8.975,3.488 8.937,3.564 8.899,3.639 C8.824,3.639 8.748,3.639 8.672,3.639 C8.635,3.715 8.597,3.791 8.559,3.866 C8.483,3.866 8.408,3.866 8.332,3.866 C8.256,3.980 8.180,4.093 8.105,4.207 C8.029,4.207 7.953,4.207 7.878,4.207 C7.764,4.358 7.651,4.509 7.537,4.661 C7.462,4.661 7.386,4.661 7.310,4.661 C7.235,4.774 7.159,4.888 7.083,5.001 C6.818,5.228 6.554,5.455 6.289,5.682 C6.289,5.758 6.289,5.834 6.289,5.909 C6.137,6.023 5.986,6.136 5.835,6.250 C5.835,6.326 5.835,6.401 5.835,6.477 C5.721,6.553 5.608,6.628 5.494,6.704 C5.494,6.780 5.494,6.855 5.494,6.931 C5.419,6.969 5.343,7.007 5.267,7.044 C5.267,7.120 5.267,7.196 5.267,7.271 C5.192,7.309 5.116,7.347 5.040,7.385 C5.002,7.536 4.965,7.688 4.927,7.839 C4.889,7.839 4.851,7.839 4.813,7.839 C4.813,7.915 4.813,7.990 4.813,8.066 C4.775,8.066 4.738,8.066 4.700,8.066 C4.624,8.293 4.548,8.520 4.473,8.747 C4.435,8.747 4.397,8.747 4.359,8.747 C4.359,8.860 4.359,8.974 4.359,9.087 C4.321,9.087 4.283,9.087 4.246,9.087 C4.246,9.163 4.246,9.239 4.246,9.315 C4.208,9.315 4.170,9.315 4.132,9.315 C4.094,9.541 4.056,9.769 4.019,9.996 C3.981,9.996 3.943,9.996 3.905,9.996 C3.905,10.147 3.905,10.298 3.905,10.450 C3.867,10.450 3.829,10.450 3.792,10.450 C3.792,10.639 3.792,10.828 3.792,11.017 C3.754,11.017 3.716,11.017 3.678,11.017 C3.678,11.244 3.678,11.471 3.678,11.698 C3.640,11.698 3.602,11.698 3.565,11.698 C3.527,12.720 3.489,13.741 3.451,14.763 C3.413,14.763 3.375,14.763 3.338,14.763 C3.338,15.368 3.338,15.974 3.338,16.579 C3.300,16.579 3.262,16.579 3.224,16.579 C3.224,17.184 3.224,17.790 3.224,18.395 C3.186,18.395 3.148,18.395 3.111,18.395 C3.073,19.227 3.035,20.060 2.997,20.892 C2.997,21.308 2.997,21.724 2.997,22.141 C2.959,22.141 2.921,22.141 2.884,22.141 C2.884,22.746 2.884,23.351 2.884,23.957 C2.846,23.957 2.808,23.957 2.770,23.957 C2.770,24.297 2.770,24.638 2.770,24.978 C2.732,25.848 2.694,26.719 2.657,27.589 C2.619,27.589 2.581,27.589 2.543,27.589 C2.543,27.702 2.543,27.816 2.543,27.929 C2.505,27.929 2.467,27.929 2.430,27.929 C2.278,26.681 2.127,25.432 1.976,24.184 C1.938,24.184 1.900,24.184 1.862,24.184 C1.862,23.919 1.862,23.654 1.862,23.389 C1.824,23.389 1.786,23.389 1.749,23.389 C1.749,23.124 1.749,22.859 1.749,22.595 C1.711,22.595 1.673,22.595 1.635,22.595 C1.635,22.368 1.635,22.141 1.635,21.914 C1.597,21.914 1.559,21.914 1.522,21.914 C1.332,20.400 1.143,18.887 0.954,17.373 C0.916,17.373 0.878,17.373 0.841,17.373 C0.841,17.146 0.841,16.919 0.841,16.692 C0.803,16.692 0.765,16.692 0.727,16.692 C0.727,16.428 0.727,16.163 0.727,15.898 C0.689,15.898 0.651,15.898 0.614,15.898 C0.614,15.595 0.614,15.292 0.614,14.990 C0.576,14.990 0.538,14.990 0.500,14.990 C0.500,14.347 0.500,13.703 0.500,13.060 C0.538,13.060 0.576,13.060 0.614,13.060 C0.614,12.758 0.614,12.455 0.614,12.152 C0.840,11.358 1.068,10.563 1.295,9.769 C1.332,9.769 1.370,9.769 1.408,9.769 C1.484,9.542 1.559,9.314 1.635,9.087 C1.673,9.087 1.711,9.087 1.749,9.087 C1.749,9.012 1.749,8.936 1.749,8.860 C1.786,8.860 1.824,8.860 1.862,8.860 C1.938,8.633 2.013,8.406 2.089,8.179 C2.165,8.142 2.240,8.104 2.316,8.066 C2.316,7.990 2.316,7.915 2.316,7.839 C2.354,7.839 2.392,7.839 2.430,7.839 C2.467,7.725 2.505,7.612 2.543,7.498 C2.619,7.461 2.694,7.423 2.770,7.385 C2.770,7.309 2.770,7.234 2.770,7.158 C2.959,7.007 3.148,6.855 3.338,6.704 C3.338,6.628 3.338,6.553 3.338,6.477 C3.413,6.439 3.489,6.401 3.565,6.363 C3.792,6.099 4.019,5.834 4.246,5.569 C4.321,5.569 4.397,5.569 4.473,5.569 C4.624,5.380 4.775,5.190 4.927,5.001 C5.002,5.001 5.078,5.001 5.154,5.001 C5.192,4.926 5.229,4.850 5.267,4.774 C5.343,4.774 5.419,4.774 5.494,4.774 C5.532,4.699 5.570,4.623 5.608,4.547 C5.683,4.547 5.759,4.547 5.835,4.547 C5.873,4.472 5.910,4.396 5.948,4.320 C6.100,4.282 6.251,4.245 6.402,4.207 C6.402,4.169 6.402,4.131 6.402,4.093 C6.478,4.093 6.554,4.093 6.629,4.093 C6.629,4.055 6.629,4.018 6.629,3.980 C6.705,3.980 6.781,3.980 6.856,3.980 C6.856,3.942 6.856,3.904 6.856,3.866 C6.932,3.866 7.008,3.866 7.083,3.866 C7.083,3.828 7.083,3.791 7.083,3.753 C7.159,3.753 7.235,3.753 7.310,3.753 C7.310,3.715 7.310,3.677 7.310,3.639 C8.029,3.412 8.748,3.185 9.467,2.958 ZM40.794,17.373 C37.541,17.373 34.286,17.373 31.033,17.373 C29.073,17.373 26.737,17.284 25.131,17.600 C24.941,17.827 24.752,18.054 24.563,18.281 C24.525,18.281 24.487,18.281 24.450,18.281 C24.412,18.433 24.374,18.584 24.336,18.735 C24.298,18.735 24.260,18.735 24.223,18.735 C24.223,19.341 24.223,19.946 24.223,20.551 C24.223,22.058 24.209,23.762 24.336,25.092 C24.678,25.317 24.388,25.198 24.563,25.432 C24.714,25.546 24.866,25.659 25.017,25.773 C25.017,25.811 25.017,25.848 25.017,25.886 C25.168,25.924 25.320,25.962 25.471,26.000 C25.471,26.038 25.471,26.075 25.471,26.113 C26.306,26.446 27.837,26.227 28.876,26.227 C31.373,26.227 33.871,26.227 36.368,26.227 C37.526,26.227 39.927,26.430 40.794,26.113 C40.794,30.577 40.794,35.043 40.794,39.507 C40.756,39.507 40.719,39.507 40.681,39.507 C40.681,39.734 40.681,39.961 40.681,40.188 C40.643,40.188 40.605,40.188 40.567,40.188 C40.567,40.377 40.567,40.566 40.567,40.755 C40.529,40.755 40.492,40.755 40.454,40.755 C40.454,40.869 40.454,40.982 40.454,41.096 C40.416,41.096 40.378,41.096 40.340,41.096 C40.340,41.209 40.340,41.323 40.340,41.436 C40.302,41.436 40.265,41.436 40.227,41.436 C40.227,41.550 40.227,41.663 40.227,41.777 C40.189,41.777 40.151,41.777 40.113,41.777 C40.113,41.890 40.113,42.004 40.113,42.117 C40.075,42.117 40.038,42.117 40.000,42.117 C39.924,42.344 39.848,42.571 39.773,42.798 C39.735,42.798 39.697,42.798 39.659,42.798 C39.621,42.950 39.584,43.101 39.546,43.252 C39.470,43.290 39.394,43.328 39.319,43.366 C39.281,43.517 39.243,43.669 39.205,43.820 C39.092,43.896 38.978,43.971 38.865,44.047 C38.865,44.123 38.865,44.198 38.865,44.274 C38.676,44.425 38.486,44.577 38.297,44.728 C38.297,44.804 38.297,44.879 38.297,44.955 C38.222,44.993 38.146,45.031 38.070,45.069 C37.957,45.220 37.843,45.371 37.730,45.523 C37.654,45.523 37.578,45.523 37.503,45.523 C37.351,45.712 37.200,45.901 37.049,46.090 C36.973,46.090 36.897,46.090 36.822,46.090 C36.746,46.204 36.670,46.317 36.595,46.431 C36.443,46.468 36.292,46.506 36.141,46.544 C36.103,46.620 36.065,46.695 36.027,46.771 C35.876,46.809 35.724,46.847 35.573,46.885 C35.573,46.922 35.573,46.960 35.573,46.998 C35.346,47.074 35.119,47.150 34.892,47.225 C34.892,47.263 34.892,47.301 34.892,47.339 C34.779,47.339 34.665,47.339 34.551,47.339 C34.551,47.377 34.551,47.414 34.551,47.452 C34.438,47.452 34.324,47.452 34.211,47.452 C34.211,47.490 34.211,47.528 34.211,47.566 C34.097,47.566 33.984,47.566 33.870,47.566 C33.870,47.604 33.870,47.641 33.870,47.679 C33.757,47.679 33.643,47.679 33.530,47.679 C33.530,47.717 33.530,47.755 33.530,47.793 C33.341,47.793 33.152,47.793 32.962,47.793 C32.962,47.831 32.962,47.868 32.962,47.906 C32.735,47.906 32.508,47.906 32.281,47.906 C32.281,47.944 32.281,47.982 32.281,48.020 C30.390,48.020 28.498,48.020 26.606,48.020 C22.407,48.020 18.206,48.020 14.007,48.020 C14.007,47.982 14.007,47.944 14.007,47.906 C13.780,47.906 13.553,47.906 13.326,47.906 C13.326,47.868 13.326,47.831 13.326,47.793 C13.175,47.793 13.023,47.793 12.872,47.793 C12.872,47.755 12.872,47.717 12.872,47.679 C12.721,47.679 12.569,47.679 12.418,47.679 C12.418,47.641 12.418,47.604 12.418,47.566 C12.305,47.566 12.191,47.566 12.078,47.566 C12.078,47.528 12.078,47.490 12.078,47.452 C11.964,47.452 11.850,47.452 11.737,47.452 C11.737,47.414 11.737,47.377 11.737,47.339 C11.586,47.301 11.434,47.263 11.283,47.225 C11.283,47.187 11.283,47.149 11.283,47.112 C11.169,47.112 11.056,47.112 10.942,47.112 C10.905,47.036 10.867,46.960 10.829,46.885 C10.602,46.809 10.375,46.733 10.148,46.658 C10.110,46.582 10.072,46.506 10.034,46.431 C9.959,46.431 9.883,46.431 9.807,46.431 C9.770,46.355 9.732,46.279 9.694,46.204 C9.618,46.204 9.543,46.204 9.467,46.204 C9.391,46.090 9.316,45.977 9.240,45.863 C9.164,45.863 9.089,45.863 9.013,45.863 C8.824,45.636 8.635,45.409 8.445,45.182 C8.218,44.993 7.991,44.804 7.764,44.615 C7.764,44.539 7.764,44.463 7.764,44.388 C7.651,44.312 7.537,44.236 7.424,44.161 C7.424,44.085 7.424,44.009 7.424,43.934 C7.310,43.858 7.197,43.782 7.083,43.707 C7.045,43.555 7.008,43.404 6.970,43.252 C6.894,43.215 6.818,43.177 6.743,43.139 C6.667,42.912 6.591,42.685 6.516,42.458 C6.478,42.458 6.440,42.458 6.402,42.458 C6.402,42.382 6.402,42.307 6.402,42.231 C6.364,42.231 6.327,42.231 6.289,42.231 C6.289,42.117 6.289,42.004 6.289,41.890 C6.251,41.890 6.213,41.890 6.175,41.890 C6.175,41.815 6.175,41.739 6.175,41.663 C6.137,41.663 6.100,41.663 6.062,41.663 C6.062,41.550 6.062,41.436 6.062,41.323 C6.024,41.323 5.986,41.323 5.948,41.323 C5.948,41.172 5.948,41.020 5.948,40.869 C5.910,40.869 5.873,40.869 5.835,40.869 C5.835,40.718 5.835,40.566 5.835,40.415 C5.797,40.415 5.759,40.415 5.721,40.415 C5.721,40.226 5.721,40.037 5.721,39.847 C5.683,39.847 5.646,39.847 5.608,39.847 C5.570,38.372 5.532,36.896 5.494,35.421 C5.494,32.356 5.494,29.291 5.494,26.227 C9.542,26.227 13.591,26.227 17.639,26.227 C19.380,26.227 21.474,26.455 21.839,25.092 C22.127,24.807 22.066,24.190 22.066,23.616 C22.066,22.481 22.066,21.346 22.066,20.211 C22.066,19.772 22.171,18.980 21.952,18.735 C21.596,17.099 19.619,17.373 17.639,17.373 C13.591,17.373 9.542,17.373 5.494,17.373 C5.532,15.936 5.570,14.498 5.608,13.060 C5.835,12.266 6.062,11.471 6.289,10.677 C6.327,10.677 6.364,10.677 6.402,10.677 C6.440,10.525 6.478,10.374 6.516,10.223 C6.554,10.223 6.591,10.223 6.629,10.223 C6.705,9.996 6.781,9.769 6.856,9.542 C6.932,9.504 7.008,9.466 7.083,9.428 C7.083,9.352 7.083,9.277 7.083,9.201 C7.159,9.163 7.235,9.125 7.310,9.087 C7.310,9.012 7.310,8.936 7.310,8.860 C7.424,8.785 7.537,8.709 7.651,8.633 C8.982,6.760 10.757,5.752 13.213,5.001 C14.106,4.728 15.645,4.888 16.731,4.888 C19.152,4.888 21.574,4.888 23.996,4.888 C26.833,4.888 29.671,4.888 32.508,4.888 C32.508,4.926 32.508,4.963 32.508,5.001 C32.698,5.001 32.887,5.001 33.076,5.001 C33.076,5.039 33.076,5.077 33.076,5.115 C33.265,5.115 33.454,5.115 33.643,5.115 C33.643,5.153 33.643,5.190 33.643,5.228 C33.757,5.228 33.870,5.228 33.984,5.228 C33.984,5.266 33.984,5.304 33.984,5.342 C34.097,5.342 34.211,5.342 34.324,5.342 C34.324,5.380 34.324,5.418 34.324,5.455 C34.438,5.455 34.552,5.455 34.665,5.455 C34.665,5.493 34.665,5.531 34.665,5.569 C34.816,5.607 34.968,5.645 35.119,5.682 C35.119,5.720 35.119,5.758 35.119,5.796 C35.233,5.796 35.346,5.796 35.460,5.796 C35.460,5.834 35.460,5.872 35.460,5.909 C35.535,5.909 35.611,5.909 35.687,5.909 C35.724,5.985 35.762,6.061 35.800,6.136 C35.951,6.174 36.103,6.212 36.254,6.250 C36.292,6.326 36.330,6.401 36.368,6.477 C36.443,6.477 36.519,6.477 36.595,6.477 C36.632,6.553 36.670,6.628 36.708,6.704 C36.784,6.704 36.859,6.704 36.935,6.704 C37.049,6.855 37.162,7.007 37.276,7.158 C39.045,8.430 39.977,10.272 40.681,12.606 C40.681,12.871 40.681,13.136 40.681,13.401 C40.975,14.440 40.798,16.131 40.794,17.373 ZM55.663,17.487 C58.560,17.461 62.313,17.217 64.403,18.054 C64.517,18.054 64.630,18.054 64.744,18.054 C64.744,18.092 64.744,18.130 64.744,18.168 C64.819,18.168 64.895,18.168 64.971,18.168 C64.971,18.206 64.971,18.244 64.971,18.281 C65.046,18.281 65.122,18.281 65.198,18.281 C65.198,18.319 65.198,18.357 65.198,18.395 C65.274,18.395 65.349,18.395 65.425,18.395 C65.425,18.433 65.425,18.471 65.425,18.508 C65.501,18.508 65.576,18.508 65.652,18.508 C65.652,18.546 65.652,18.584 65.652,18.622 C65.728,18.622 65.803,18.622 65.879,18.622 C65.955,18.735 66.030,18.849 66.106,18.962 C66.182,18.962 66.257,18.962 66.333,18.962 C66.484,19.152 66.636,19.341 66.787,19.530 C66.863,19.568 66.938,19.606 67.014,19.643 C67.014,19.719 67.014,19.795 67.014,19.870 C67.127,19.946 67.241,20.022 67.354,20.097 C67.392,20.249 67.430,20.400 67.468,20.551 C67.544,20.589 67.619,20.627 67.695,20.665 C67.695,20.778 67.695,20.892 67.695,21.006 C67.733,21.006 67.771,21.006 67.808,21.006 C67.846,21.157 67.884,21.308 67.922,21.460 C67.960,21.460 67.998,21.460 68.035,21.460 C68.035,21.611 68.035,21.762 68.035,21.914 C68.506,23.242 68.490,24.729 68.489,26.567 C68.489,30.213 68.753,33.851 67.241,35.988 C67.090,36.102 66.938,36.215 66.787,36.329 C66.598,36.556 66.409,36.783 66.219,37.010 C66.144,37.010 66.068,37.010 65.992,37.010 C65.955,37.085 65.917,37.161 65.879,37.237 C65.765,37.275 65.652,37.312 65.538,37.350 C65.538,37.388 65.538,37.426 65.538,37.464 C65.463,37.464 65.387,37.464 65.311,37.464 C65.311,37.502 65.311,37.539 65.311,37.577 C65.236,37.577 65.160,37.577 65.084,37.577 C65.084,37.615 65.084,37.653 65.084,37.691 C64.971,37.691 64.857,37.691 64.744,37.691 C64.744,37.729 64.744,37.766 64.744,37.804 C64.630,37.804 64.517,37.804 64.403,37.804 C64.403,37.842 64.403,37.880 64.403,37.918 C64.290,37.918 64.176,37.918 64.063,37.918 C64.063,37.956 64.063,37.993 64.063,38.031 C63.911,38.031 63.760,38.031 63.609,38.031 C63.609,38.069 63.609,38.107 63.609,38.145 C63.420,38.145 63.230,38.145 63.041,38.145 C63.041,38.183 63.041,38.220 63.041,38.258 C62.058,38.296 61.074,38.334 60.090,38.372 C58.312,38.372 56.533,38.372 54.755,38.372 C53.108,38.372 51.739,38.364 51.123,37.350 C50.704,36.660 50.896,34.584 50.896,33.491 C50.896,30.389 50.896,27.286 50.896,24.184 C50.896,21.081 50.896,17.978 50.896,14.876 C50.896,13.262 50.761,11.697 52.031,11.358 C52.215,11.167 53.581,10.967 54.074,11.131 C54.326,11.214 54.554,11.397 54.869,11.471 C54.982,11.622 55.096,11.774 55.209,11.925 C55.247,11.925 55.285,11.925 55.323,11.925 C55.323,12.001 55.323,12.076 55.323,12.152 C55.361,12.152 55.399,12.152 55.436,12.152 C55.436,12.228 55.436,12.303 55.436,12.379 C55.474,12.379 55.512,12.379 55.550,12.379 C55.550,12.530 55.550,12.682 55.550,12.833 C55.588,12.833 55.626,12.833 55.663,12.833 C55.663,14.384 55.663,15.936 55.663,17.487 ZM113.778,17.487 C115.707,17.487 117.637,17.487 119.567,17.487 C119.567,17.525 119.567,17.563 119.567,17.600 C119.869,17.600 120.172,17.600 120.475,17.600 C121.042,17.676 121.610,17.752 122.177,17.827 C122.177,17.865 122.177,17.903 122.177,17.941 C122.404,17.979 122.631,18.017 122.858,18.054 C122.858,18.092 122.858,18.130 122.858,18.168 C123.085,18.244 123.312,18.319 123.539,18.395 C123.539,18.433 123.539,18.471 123.539,18.508 C123.615,18.508 123.691,18.508 123.766,18.508 C123.804,18.584 123.842,18.660 123.880,18.735 C123.956,18.735 124.031,18.735 124.107,18.735 C124.183,18.849 124.258,18.962 124.334,19.076 C124.410,19.076 124.485,19.076 124.561,19.076 C124.674,19.227 124.788,19.379 124.901,19.530 C124.939,19.530 124.977,19.530 125.015,19.530 C125.015,19.606 125.015,19.681 125.015,19.757 C125.128,19.833 125.242,19.908 125.355,19.984 C125.355,20.060 125.355,20.135 125.355,20.211 C125.431,20.249 125.507,20.287 125.583,20.324 C125.583,20.400 125.583,20.476 125.583,20.551 C125.620,20.551 125.658,20.551 125.696,20.551 C125.772,20.778 125.847,21.006 125.923,21.233 C125.961,21.233 125.999,21.233 126.037,21.233 C126.074,21.460 126.112,21.687 126.150,21.914 C126.188,21.914 126.226,21.914 126.264,21.914 C126.264,22.065 126.264,22.216 126.264,22.368 C126.301,22.368 126.339,22.368 126.377,22.368 C126.377,22.557 126.377,22.746 126.377,22.935 C126.415,22.935 126.453,22.935 126.491,22.935 C126.528,24.221 126.566,25.508 126.604,26.794 C126.604,29.329 126.604,31.864 126.604,34.399 C126.604,35.990 126.710,37.700 125.469,38.031 C125.206,38.310 124.908,38.139 124.447,38.258 C123.675,38.458 122.362,38.095 122.177,37.350 C121.616,36.844 121.837,34.478 121.837,33.378 C121.837,31.259 121.837,29.140 121.837,27.021 C121.799,25.962 121.761,24.902 121.723,23.843 C121.619,23.525 121.359,23.286 121.269,22.935 C121.013,22.867 120.989,22.839 120.815,22.708 C120.815,22.670 120.815,22.632 120.815,22.595 C120.740,22.595 120.664,22.595 120.588,22.595 C120.588,22.557 120.588,22.519 120.588,22.481 C120.437,22.481 120.286,22.481 120.134,22.481 C120.134,22.443 120.134,22.405 120.134,22.368 C118.016,22.368 115.897,22.368 113.778,22.368 C113.778,26.226 113.778,30.086 113.778,33.945 C113.778,35.651 113.982,37.673 112.643,38.031 C112.380,38.310 112.082,38.139 111.621,38.258 C110.849,38.458 109.535,38.095 109.351,37.350 C108.959,37.003 109.011,36.279 109.011,35.534 C109.011,34.210 109.011,32.886 109.011,31.561 C109.011,26.492 109.011,21.421 109.011,16.352 C109.011,14.431 108.590,11.754 110.146,11.358 C110.330,11.167 111.696,10.967 112.189,11.131 C112.441,11.214 112.669,11.397 112.983,11.471 C113.059,11.585 113.135,11.698 113.210,11.812 C113.248,11.812 113.286,11.812 113.324,11.812 C113.324,11.887 113.324,11.963 113.324,12.039 C113.400,12.076 113.475,12.114 113.551,12.152 C113.589,12.417 113.627,12.682 113.664,12.947 C113.702,12.947 113.740,12.947 113.778,12.947 C113.778,14.460 113.778,15.974 113.778,17.487 ZM171.325,13.287 C171.414,13.643 171.676,13.811 171.779,14.082 C172.108,14.946 171.888,16.429 171.893,17.487 C173.130,17.475 174.831,17.306 175.865,17.600 C176.168,17.600 176.471,17.600 176.773,17.600 C176.773,17.638 176.773,17.676 176.773,17.714 C176.962,17.752 177.152,17.790 177.341,17.827 C177.530,18.054 177.719,18.281 177.908,18.508 C177.946,18.508 177.984,18.508 178.022,18.508 C178.022,18.622 178.022,18.735 178.022,18.849 C178.060,18.849 178.097,18.849 178.135,18.849 C178.135,18.962 178.135,19.076 178.135,19.189 C178.173,19.189 178.211,19.189 178.249,19.189 C178.249,19.681 178.249,20.173 178.249,20.665 C178.167,20.917 177.979,21.143 177.908,21.460 C177.757,21.573 177.606,21.687 177.454,21.800 C177.454,21.838 177.454,21.876 177.454,21.914 C177.379,21.914 177.303,21.914 177.227,21.914 C177.227,21.951 177.227,21.989 177.227,22.027 C177.152,22.027 177.076,22.027 177.000,22.027 C177.000,22.065 177.000,22.103 177.000,22.141 C176.887,22.141 176.773,22.141 176.660,22.141 C176.660,22.178 176.660,22.216 176.660,22.254 C175.071,22.254 173.481,22.254 171.893,22.254 C171.893,24.789 171.893,27.324 171.893,29.859 C171.893,31.431 171.754,32.111 172.574,32.924 C172.649,33.037 172.725,33.151 172.801,33.264 C172.914,33.264 173.028,33.264 173.141,33.264 C173.141,33.302 173.141,33.340 173.141,33.378 C173.255,33.378 173.368,33.378 173.482,33.378 C173.482,33.415 173.482,33.453 173.482,33.491 C174.314,33.491 175.146,33.491 175.979,33.491 C175.979,33.529 175.979,33.567 175.979,33.605 C176.281,33.605 176.584,33.605 176.887,33.605 C176.887,33.642 176.887,33.680 176.887,33.718 C177.038,33.756 177.189,33.794 177.341,33.832 C177.341,33.869 177.341,33.907 177.341,33.945 C177.675,34.138 177.793,34.094 177.908,34.513 C178.160,34.726 178.015,34.750 178.135,35.080 C178.173,35.080 178.211,35.080 178.249,35.080 C178.249,35.685 178.249,36.291 178.249,36.896 C178.211,36.896 178.173,36.896 178.135,36.896 C178.060,37.123 177.984,37.350 177.908,37.577 C177.795,37.653 177.681,37.729 177.568,37.804 C177.568,37.842 177.568,37.880 177.568,37.918 C177.492,37.918 177.416,37.918 177.341,37.918 C177.303,37.993 177.265,38.069 177.227,38.145 C176.887,38.183 176.546,38.220 176.206,38.258 C175.833,38.366 174.358,38.523 173.822,38.372 C173.822,38.334 173.822,38.296 173.822,38.258 C173.179,38.220 172.536,38.183 171.893,38.145 C170.561,37.732 169.452,37.232 168.714,36.215 C168.563,36.102 168.412,35.988 168.260,35.875 C166.982,33.978 167.012,31.000 167.012,27.816 C167.012,23.541 167.012,19.265 167.012,14.990 C167.050,14.990 167.087,14.990 167.125,14.990 C167.125,14.725 167.125,14.460 167.125,14.195 C167.163,14.195 167.201,14.195 167.239,14.195 C167.277,14.006 167.315,13.817 167.352,13.628 C167.629,13.474 167.727,13.194 167.920,13.060 C168.109,12.929 168.180,13.062 168.374,12.833 C169.040,12.807 169.351,12.647 169.963,12.833 C170.152,12.833 170.341,12.833 170.530,12.833 C170.530,12.871 170.530,12.909 170.530,12.947 C170.606,12.947 170.682,12.947 170.757,12.947 C170.757,12.984 170.757,13.022 170.757,13.060 C170.833,13.060 170.909,13.060 170.984,13.060 C170.984,13.098 170.984,13.136 170.984,13.174 C171.098,13.212 171.212,13.249 171.325,13.287 ZM77.797,17.487 C79.499,17.525 81.202,17.563 82.905,17.600 C83.737,17.600 84.569,17.600 85.402,17.600 C85.402,17.638 85.402,17.676 85.402,17.714 C85.591,17.752 85.780,17.790 85.969,17.827 C86.123,18.104 86.403,18.202 86.537,18.395 C86.668,18.584 86.535,18.655 86.764,18.849 C86.802,19.578 86.979,20.618 86.650,21.233 C86.575,21.270 86.499,21.308 86.423,21.346 C86.197,21.689 86.202,21.911 85.742,22.027 C85.391,22.366 84.411,22.367 83.699,22.368 C82.110,22.368 80.521,22.368 78.932,22.368 C78.220,22.368 77.157,22.241 76.775,22.595 C75.411,22.947 75.527,24.838 75.527,26.567 C75.527,29.972 75.527,33.378 75.527,36.783 C75.447,37.035 75.254,37.260 75.186,37.577 C75.073,37.653 74.959,37.729 74.846,37.804 C74.846,37.842 74.846,37.880 74.846,37.918 C74.619,37.993 74.392,38.069 74.165,38.145 C74.165,38.183 74.165,38.220 74.165,38.258 C73.938,38.258 73.711,38.258 73.484,38.258 C72.835,38.438 72.300,38.160 71.668,38.031 C71.516,37.842 71.365,37.653 71.214,37.464 C71.176,37.464 71.138,37.464 71.100,37.464 C71.062,37.312 71.024,37.161 70.987,37.010 C70.949,37.010 70.911,37.010 70.873,37.010 C70.835,36.404 70.797,35.799 70.760,35.194 C70.760,34.021 70.760,32.848 70.760,31.675 C70.760,27.075 70.289,22.353 72.235,19.643 C72.424,19.492 72.614,19.341 72.803,19.189 C72.841,19.114 72.878,19.038 72.916,18.962 C72.992,18.962 73.068,18.962 73.143,18.962 C73.219,18.849 73.295,18.735 73.370,18.622 C73.446,18.622 73.522,18.622 73.597,18.622 C73.597,18.584 73.597,18.546 73.597,18.508 C73.673,18.508 73.749,18.508 73.824,18.508 C73.824,18.471 73.824,18.433 73.824,18.395 C73.900,18.395 73.976,18.395 74.051,18.395 C74.051,18.357 74.051,18.319 74.051,18.281 C74.127,18.281 74.203,18.281 74.278,18.281 C74.278,18.244 74.278,18.206 74.278,18.168 C74.354,18.168 74.430,18.168 74.505,18.168 C74.505,18.130 74.505,18.092 74.505,18.054 C74.732,18.017 74.959,17.979 75.186,17.941 C75.186,17.903 75.186,17.865 75.186,17.827 C75.338,17.827 75.489,17.827 75.640,17.827 C75.640,17.790 75.640,17.752 75.640,17.714 C76.138,17.561 77.477,17.761 77.797,17.487 ZM89.261,19.303 C89.753,19.167 89.650,18.941 89.942,18.735 C90.018,18.735 90.093,18.735 90.169,18.735 C90.207,18.660 90.245,18.584 90.282,18.508 C90.358,18.508 90.434,18.508 90.509,18.508 C90.509,18.471 90.509,18.433 90.509,18.395 C90.736,18.319 90.964,18.244 91.190,18.168 C91.190,18.130 91.190,18.092 91.190,18.054 C91.417,18.017 91.645,17.979 91.872,17.941 C91.872,17.903 91.872,17.865 91.872,17.827 C92.023,17.827 92.174,17.827 92.326,17.827 C93.348,17.494 94.673,17.487 96.071,17.487 C98.077,17.487 99.780,17.495 101.179,18.054 C101.292,18.054 101.406,18.054 101.519,18.054 C101.519,18.092 101.519,18.130 101.519,18.168 C101.671,18.206 101.822,18.244 101.973,18.281 C101.973,18.319 101.973,18.357 101.973,18.395 C102.125,18.433 102.276,18.471 102.427,18.508 C102.465,18.584 102.503,18.660 102.541,18.735 C102.617,18.735 102.692,18.735 102.768,18.735 C102.844,18.849 102.919,18.962 102.995,19.076 C103.071,19.076 103.146,19.076 103.222,19.076 C103.336,19.227 103.449,19.379 103.563,19.530 C103.600,19.530 103.638,19.530 103.676,19.530 C103.676,19.606 103.676,19.681 103.676,19.757 C103.790,19.833 103.903,19.908 104.017,19.984 C104.017,20.060 104.017,20.135 104.017,20.211 C104.092,20.249 104.168,20.287 104.244,20.324 C104.244,20.400 104.244,20.476 104.244,20.551 C104.281,20.551 104.319,20.551 104.357,20.551 C104.395,20.703 104.433,20.854 104.471,21.006 C104.508,21.006 104.546,21.006 104.584,21.006 C104.660,21.346 104.735,21.687 104.811,22.027 C104.849,22.027 104.887,22.027 104.925,22.027 C104.925,22.216 104.925,22.405 104.925,22.595 C105.349,24.002 105.152,26.272 105.152,28.043 C105.152,29.948 105.290,32.185 104.811,33.605 C104.811,33.756 104.811,33.907 104.811,34.059 C104.546,34.626 104.281,35.194 104.017,35.761 C103.903,35.837 103.790,35.913 103.676,35.988 C103.676,36.064 103.676,36.140 103.676,36.215 C103.600,36.253 103.525,36.291 103.449,36.329 C103.298,36.518 103.146,36.707 102.995,36.896 C101.830,37.720 100.323,38.257 98.341,38.258 C96.478,38.259 94.045,38.488 92.553,38.031 C92.363,38.031 92.174,38.031 91.985,38.031 C91.985,37.993 91.985,37.956 91.985,37.918 C91.758,37.880 91.531,37.842 91.304,37.804 C91.304,37.766 91.304,37.729 91.304,37.691 C91.228,37.691 91.153,37.691 91.077,37.691 C91.077,37.653 91.077,37.615 91.077,37.577 C90.963,37.577 90.850,37.577 90.736,37.577 C90.699,37.502 90.661,37.426 90.623,37.350 C90.472,37.312 90.320,37.275 90.169,37.237 C90.131,37.161 90.093,37.085 90.055,37.010 C89.980,37.010 89.904,37.010 89.828,37.010 C89.639,36.783 89.450,36.556 89.261,36.329 C89.110,36.215 88.958,36.102 88.807,35.988 C88.807,35.913 88.807,35.837 88.807,35.761 C88.731,35.723 88.656,35.685 88.580,35.648 C88.504,35.421 88.429,35.194 88.353,34.967 C88.315,34.967 88.277,34.967 88.239,34.967 C88.239,34.891 88.239,34.815 88.239,34.740 C88.202,34.740 88.164,34.740 88.126,34.740 C88.050,34.399 87.975,34.059 87.899,33.718 C87.861,33.718 87.823,33.718 87.785,33.718 C87.785,33.529 87.785,33.340 87.785,33.151 C87.371,31.760 87.558,29.562 87.558,27.816 C87.558,26.473 87.347,24.637 87.672,23.503 C87.672,23.238 87.672,22.973 87.672,22.708 C87.710,22.708 87.748,22.708 87.785,22.708 C87.785,22.519 87.785,22.330 87.785,22.141 C87.823,22.141 87.861,22.141 87.899,22.141 C87.975,21.800 88.050,21.460 88.126,21.119 C88.164,21.119 88.202,21.119 88.239,21.119 C88.315,20.892 88.391,20.665 88.466,20.438 C88.504,20.438 88.542,20.438 88.580,20.438 C88.580,20.362 88.580,20.287 88.580,20.211 C88.656,20.173 88.731,20.135 88.807,20.097 C88.807,20.022 88.807,19.946 88.807,19.870 C88.845,19.870 88.883,19.870 88.920,19.870 C89.083,19.671 89.179,19.597 89.261,19.303 ZM135.117,17.487 C139.273,17.446 143.142,17.232 144.878,19.643 C145.030,19.757 145.181,19.870 145.332,19.984 C145.370,20.135 145.408,20.287 145.446,20.438 C145.522,20.476 145.597,20.514 145.673,20.551 C145.673,20.627 145.673,20.703 145.673,20.779 C145.711,20.779 145.749,20.779 145.786,20.779 C146.537,22.418 146.467,24.722 146.467,27.135 C146.467,28.602 146.696,31.164 146.354,32.356 C146.354,32.621 146.354,32.886 146.354,33.151 C146.316,33.151 146.278,33.151 146.240,33.151 C146.240,33.302 146.240,33.453 146.240,33.605 C146.203,33.605 146.165,33.605 146.127,33.605 C146.089,33.869 146.051,34.134 146.013,34.399 C145.976,34.399 145.938,34.399 145.900,34.399 C145.900,34.475 145.900,34.550 145.900,34.626 C145.862,34.626 145.824,34.626 145.786,34.626 C145.786,34.740 145.786,34.853 145.786,34.967 C145.749,34.967 145.711,34.967 145.673,34.967 C145.673,35.042 145.673,35.118 145.673,35.194 C145.635,35.194 145.597,35.194 145.559,35.194 C145.559,35.269 145.559,35.345 145.559,35.421 C145.484,35.458 145.408,35.496 145.332,35.534 C145.332,35.610 145.332,35.686 145.332,35.761 C145.219,35.837 145.105,35.913 144.992,35.988 C144.992,36.064 144.992,36.140 144.992,36.215 C144.916,36.253 144.841,36.291 144.765,36.329 C144.614,36.518 144.462,36.707 144.311,36.896 C144.235,36.896 144.159,36.896 144.084,36.896 C144.046,36.972 144.008,37.048 143.970,37.123 C143.895,37.123 143.819,37.123 143.743,37.123 C143.705,37.199 143.668,37.275 143.630,37.350 C143.478,37.388 143.327,37.426 143.176,37.464 C143.176,37.502 143.176,37.539 143.176,37.577 C143.024,37.615 142.873,37.653 142.722,37.691 C142.722,37.729 142.722,37.766 142.722,37.804 C142.457,37.842 142.192,37.880 141.927,37.918 C140.936,38.248 139.797,38.258 138.409,38.258 C136.896,38.258 135.036,38.388 133.868,38.031 C133.679,38.031 133.490,38.031 133.301,38.031 C133.301,37.993 133.301,37.956 133.301,37.918 C133.074,37.880 132.847,37.842 132.620,37.804 C132.620,37.766 132.620,37.729 132.620,37.691 C132.544,37.691 132.468,37.691 132.393,37.691 C132.393,37.653 132.393,37.615 132.393,37.577 C132.279,37.577 132.166,37.577 132.052,37.577 C132.014,37.502 131.977,37.426 131.939,37.350 C131.787,37.312 131.636,37.275 131.485,37.237 C131.447,37.161 131.409,37.085 131.371,37.010 C131.296,37.010 131.220,37.010 131.144,37.010 C130.917,36.745 130.690,36.480 130.463,36.215 C130.350,36.140 130.236,36.064 130.123,35.988 C130.123,35.913 130.123,35.837 130.123,35.761 C130.047,35.723 129.971,35.685 129.896,35.648 C129.820,35.421 129.744,35.194 129.669,34.967 C129.631,34.967 129.593,34.967 129.555,34.967 C129.555,34.891 129.555,34.815 129.555,34.740 C129.517,34.740 129.480,34.740 129.442,34.740 C129.366,34.399 129.290,34.059 129.215,33.718 C129.177,33.718 129.139,33.718 129.101,33.718 C129.101,33.529 129.101,33.340 129.101,33.151 C128.649,31.642 128.874,29.236 128.874,27.362 C128.874,25.539 128.768,23.501 129.215,22.141 C129.252,21.876 129.290,21.611 129.328,21.346 C129.366,21.346 129.404,21.346 129.442,21.346 C129.442,21.270 129.442,21.195 129.442,21.119 C129.480,21.119 129.517,21.119 129.555,21.119 C129.555,21.043 129.555,20.968 129.555,20.892 C129.593,20.892 129.631,20.892 129.669,20.892 C129.669,20.816 129.669,20.741 129.669,20.665 C129.707,20.665 129.744,20.665 129.782,20.665 C129.782,20.589 129.782,20.514 129.782,20.438 C129.820,20.438 129.858,20.438 129.896,20.438 C129.896,20.362 129.896,20.287 129.896,20.211 C129.971,20.173 130.047,20.135 130.123,20.097 C130.123,20.022 130.123,19.946 130.123,19.870 C130.274,19.757 130.425,19.643 130.577,19.530 C130.577,19.454 130.577,19.379 130.577,19.303 C130.690,19.265 130.804,19.227 130.917,19.189 C131.031,19.038 131.144,18.887 131.258,18.735 C131.333,18.735 131.409,18.735 131.485,18.735 C131.523,18.660 131.560,18.584 131.598,18.508 C131.750,18.471 131.901,18.433 132.052,18.395 C132.052,18.357 132.052,18.319 132.052,18.281 C132.204,18.244 132.355,18.206 132.506,18.168 C132.506,18.130 132.506,18.092 132.506,18.054 C132.620,18.054 132.733,18.054 132.847,18.054 C132.847,18.017 132.847,17.979 132.847,17.941 C132.960,17.941 133.074,17.941 133.187,17.941 C133.187,17.903 133.187,17.865 133.187,17.827 C133.339,17.827 133.490,17.827 133.641,17.827 C133.641,17.790 133.641,17.752 133.641,17.714 C133.831,17.714 134.020,17.714 134.209,17.714 C134.209,17.676 134.209,17.638 134.209,17.600 C134.512,17.600 134.814,17.600 135.117,17.600 C135.117,17.563 135.117,17.525 135.117,17.487 ZM155.775,17.487 C157.439,17.525 159.104,17.563 160.769,17.600 C161.601,17.600 162.434,17.600 163.266,17.600 C163.266,17.638 163.266,17.676 163.266,17.714 C163.455,17.752 163.645,17.790 163.834,17.827 C164.023,18.054 164.212,18.281 164.401,18.508 C164.439,18.508 164.477,18.508 164.515,18.508 C164.515,18.622 164.515,18.735 164.515,18.849 C164.553,18.849 164.590,18.849 164.628,18.849 C164.628,18.962 164.628,19.076 164.628,19.189 C164.666,19.189 164.704,19.189 164.742,19.189 C164.742,19.681 164.742,20.173 164.742,20.665 C164.660,20.917 164.472,21.143 164.401,21.460 C164.212,21.611 164.023,21.762 163.834,21.914 C163.834,21.951 163.834,21.989 163.834,22.027 C163.682,22.065 163.531,22.103 163.380,22.141 C163.380,22.178 163.380,22.216 163.380,22.254 C162.661,22.292 161.942,22.330 161.223,22.368 C159.710,22.368 158.196,22.368 156.683,22.368 C155.522,22.368 154.105,22.278 153.845,23.162 C153.807,23.162 153.770,23.162 153.732,23.162 C153.732,23.238 153.732,23.313 153.732,23.389 C153.694,23.389 153.656,23.389 153.618,23.389 C153.618,23.767 153.618,24.146 153.618,24.524 C153.656,24.524 153.694,24.524 153.732,24.524 C153.732,24.600 153.732,24.676 153.732,24.751 C153.845,24.827 153.959,24.903 154.072,24.978 C154.110,25.054 154.148,25.130 154.186,25.205 C154.299,25.205 154.413,25.205 154.526,25.205 C155.353,25.552 156.383,25.546 157.591,25.546 C158.083,25.546 158.575,25.546 159.066,25.546 C159.066,25.584 159.066,25.621 159.066,25.659 C159.293,25.659 159.521,25.659 159.748,25.659 C159.748,25.697 159.748,25.735 159.748,25.773 C159.937,25.773 160.126,25.773 160.315,25.773 C160.315,25.811 160.315,25.848 160.315,25.886 C160.429,25.886 160.542,25.886 160.656,25.886 C160.656,25.924 160.656,25.962 160.656,26.000 C160.769,26.000 160.883,26.000 160.996,26.000 C160.996,26.038 160.996,26.075 160.996,26.113 C161.110,26.113 161.223,26.113 161.337,26.113 C161.337,26.151 161.337,26.189 161.337,26.227 C161.412,26.227 161.488,26.227 161.564,26.227 C161.564,26.265 161.564,26.302 161.564,26.340 C161.791,26.416 162.018,26.492 162.245,26.567 C162.282,26.643 162.320,26.719 162.358,26.794 C162.434,26.794 162.509,26.794 162.585,26.794 C162.661,26.908 162.736,27.021 162.812,27.135 C162.888,27.135 162.963,27.135 163.039,27.135 C163.039,27.173 163.039,27.210 163.039,27.248 C163.115,27.286 163.190,27.324 163.266,27.362 C163.266,27.437 163.266,27.513 163.266,27.589 C163.417,27.702 163.569,27.816 163.720,27.929 C163.720,28.005 163.720,28.081 163.720,28.156 C163.796,28.194 163.872,28.232 163.947,28.270 C163.947,28.345 163.947,28.421 163.947,28.497 C163.985,28.497 164.023,28.497 164.061,28.497 C164.099,28.648 164.136,28.800 164.174,28.951 C164.212,28.951 164.250,28.951 164.288,28.951 C164.439,29.632 164.590,30.313 164.742,30.994 C164.976,31.827 164.574,33.550 164.401,34.059 C164.326,34.399 164.250,34.740 164.174,35.080 C164.136,35.080 164.099,35.080 164.061,35.080 C164.061,35.156 164.061,35.231 164.061,35.307 C164.023,35.307 163.985,35.307 163.947,35.307 C163.947,35.383 163.947,35.458 163.947,35.534 C163.872,35.572 163.796,35.610 163.720,35.648 C163.720,35.723 163.720,35.799 163.720,35.875 C163.607,35.950 163.493,36.026 163.380,36.102 C161.889,38.199 159.440,38.258 155.888,38.258 C154.526,38.258 153.164,38.258 151.802,38.258 C151.052,38.258 150.126,38.305 149.646,38.031 C149.646,37.993 149.646,37.956 149.646,37.918 C149.456,37.766 149.267,37.615 149.078,37.464 C148.947,37.273 149.076,37.206 148.851,37.010 C148.813,36.556 148.775,36.102 148.738,35.648 C148.889,35.194 149.040,34.740 149.192,34.286 C149.456,34.096 149.721,33.907 149.986,33.718 C150.100,33.718 150.213,33.718 150.327,33.718 C150.327,33.680 150.327,33.642 150.327,33.605 C151.272,33.605 152.218,33.605 153.164,33.605 C154.753,33.605 156.343,33.605 157.931,33.605 C157.931,33.567 157.931,33.529 157.931,33.491 C158.196,33.491 158.461,33.491 158.726,33.491 C158.726,33.453 158.726,33.415 158.726,33.378 C158.915,33.340 159.104,33.302 159.293,33.264 C159.407,33.113 159.521,32.961 159.634,32.810 C159.672,32.810 159.710,32.810 159.748,32.810 C159.879,32.620 159.745,32.550 159.975,32.356 C159.982,31.724 159.844,31.454 159.748,30.994 C159.607,30.919 159.589,30.812 159.520,30.767 C159.445,30.767 159.369,30.767 159.293,30.767 C159.256,30.691 159.218,30.616 159.180,30.540 C158.877,30.502 158.575,30.464 158.272,30.426 C158.272,30.389 158.272,30.351 158.272,30.313 C157.704,30.313 157.137,30.313 156.569,30.313 C155.281,30.313 154.216,30.281 153.278,29.972 C153.126,29.972 152.975,29.972 152.824,29.972 C152.256,29.708 151.689,29.443 151.121,29.178 C151.083,29.102 151.045,29.027 151.008,28.951 C150.932,28.951 150.856,28.951 150.781,28.951 C150.629,28.762 150.478,28.572 150.327,28.383 C150.213,28.308 150.100,28.232 149.986,28.156 C149.986,28.081 149.986,28.005 149.986,27.929 C149.910,27.891 149.835,27.854 149.759,27.816 C149.759,27.740 149.759,27.664 149.759,27.589 C149.721,27.589 149.683,27.589 149.646,27.589 C149.646,27.513 149.646,27.437 149.646,27.362 C149.608,27.362 149.570,27.362 149.532,27.362 C149.532,27.286 149.532,27.210 149.532,27.135 C149.494,27.135 149.456,27.135 149.419,27.135 C149.419,27.059 149.419,26.983 149.419,26.908 C149.381,26.908 149.343,26.908 149.305,26.908 C149.305,26.832 149.305,26.756 149.305,26.681 C149.267,26.681 149.229,26.681 149.192,26.681 C149.192,26.567 149.192,26.454 149.192,26.340 C149.154,26.340 149.116,26.340 149.078,26.340 C149.078,26.189 149.078,26.038 149.078,25.886 C149.040,25.886 149.002,25.886 148.965,25.886 C148.965,25.659 148.965,25.432 148.965,25.205 C148.370,23.130 149.277,20.381 150.213,19.416 C151.039,18.566 152.219,18.106 153.505,17.714 C154.016,17.558 155.447,17.766 155.775,17.487 ZM185.286,25.432 C187.859,25.432 190.432,25.432 193.004,25.432 C193.345,25.546 193.686,25.659 194.026,25.773 C194.177,25.962 194.329,26.151 194.480,26.340 C194.518,26.340 194.556,26.340 194.594,26.340 C194.631,26.492 194.669,26.643 194.707,26.794 C194.745,26.794 194.783,26.794 194.821,26.794 C195.225,27.821 194.812,29.652 194.026,29.859 C193.598,30.339 192.350,30.313 191.415,30.313 C189.373,30.313 187.329,30.313 185.286,30.313 C185.324,30.918 185.362,31.524 185.400,32.129 C185.437,32.129 185.475,32.129 185.513,32.129 C185.589,32.356 185.664,32.583 185.740,32.810 C186.110,33.008 186.451,33.354 186.875,33.491 C187.594,33.491 188.313,33.491 189.032,33.491 C190.772,33.491 192.513,33.491 194.253,33.491 C195.085,33.529 195.918,33.567 196.750,33.605 C197.053,33.794 197.356,33.983 197.658,34.172 C197.658,34.248 197.658,34.323 197.658,34.399 C197.696,34.399 197.734,34.399 197.772,34.399 C197.881,34.539 197.855,34.619 197.999,34.740 C198.030,35.273 198.322,36.135 198.112,36.783 C198.030,37.035 197.842,37.261 197.772,37.577 C197.658,37.653 197.545,37.729 197.431,37.804 C197.431,37.842 197.431,37.880 197.431,37.918 C197.204,37.993 196.977,38.069 196.750,38.145 C196.750,38.183 196.750,38.220 196.750,38.258 C196.485,38.258 196.220,38.258 195.956,38.258 C194.818,38.580 192.988,38.372 191.642,38.372 C190.263,38.372 188.387,38.588 187.216,38.258 C186.800,38.258 186.383,38.258 185.967,38.258 C185.211,38.031 184.454,37.804 183.697,37.577 C183.659,37.502 183.621,37.426 183.584,37.350 C183.432,37.312 183.281,37.275 183.130,37.237 C183.054,37.123 182.978,37.010 182.903,36.896 C182.827,36.896 182.751,36.896 182.676,36.896 C182.486,36.669 182.297,36.442 182.108,36.215 C182.032,36.177 181.957,36.140 181.881,36.102 C181.881,36.026 181.881,35.950 181.881,35.875 C181.805,35.837 181.730,35.799 181.654,35.761 C181.616,35.610 181.578,35.458 181.540,35.307 C181.465,35.269 181.389,35.231 181.313,35.194 C181.313,35.118 181.313,35.042 181.313,34.967 C181.276,34.967 181.238,34.967 181.200,34.967 C180.299,33.000 180.519,29.856 180.519,27.021 C180.519,25.060 180.464,23.336 180.973,21.914 C180.973,21.762 180.973,21.611 180.973,21.460 C181.011,21.460 181.049,21.460 181.086,21.460 C181.124,21.308 181.162,21.157 181.200,21.006 C181.238,21.006 181.276,21.006 181.313,21.006 C181.313,20.892 181.313,20.778 181.313,20.665 C181.389,20.627 181.465,20.589 181.540,20.551 C181.578,20.400 181.616,20.249 181.654,20.097 C181.767,20.022 181.881,19.946 181.994,19.870 C181.994,19.795 181.994,19.719 181.994,19.643 C182.184,19.492 182.373,19.341 182.562,19.189 C182.600,19.114 182.638,19.038 182.676,18.962 C182.751,18.962 182.827,18.962 182.903,18.962 C182.978,18.849 183.054,18.735 183.130,18.622 C183.205,18.622 183.281,18.622 183.357,18.622 C183.357,18.584 183.357,18.546 183.357,18.508 C183.432,18.508 183.508,18.508 183.584,18.508 C183.584,18.471 183.584,18.433 183.584,18.395 C183.659,18.395 183.735,18.395 183.811,18.395 C183.811,18.357 183.811,18.319 183.811,18.281 C183.886,18.281 183.962,18.281 184.038,18.281 C184.038,18.244 184.038,18.206 184.038,18.168 C184.113,18.168 184.189,18.168 184.265,18.168 C184.265,18.130 184.265,18.092 184.265,18.054 C184.378,18.054 184.492,18.054 184.605,18.054 C184.605,18.017 184.605,17.979 184.605,17.941 C184.719,17.941 184.832,17.941 184.946,17.941 C184.946,17.903 184.946,17.865 184.946,17.827 C185.097,17.827 185.248,17.827 185.400,17.827 C185.400,17.790 185.400,17.752 185.400,17.714 C185.589,17.714 185.778,17.714 185.967,17.714 C185.967,17.676 185.967,17.638 185.967,17.600 C186.497,17.600 187.027,17.600 187.556,17.600 C188.345,17.382 189.641,17.487 190.621,17.487 C192.323,17.487 194.026,17.487 195.729,17.487 C195.729,17.525 195.729,17.563 195.729,17.600 C196.031,17.600 196.334,17.600 196.637,17.600 C196.637,17.638 196.637,17.676 196.637,17.714 C196.826,17.752 197.015,17.790 197.204,17.827 C197.355,18.017 197.507,18.206 197.658,18.395 C197.696,18.395 197.734,18.395 197.772,18.395 C197.772,18.471 197.772,18.546 197.772,18.622 C197.810,18.622 197.847,18.622 197.885,18.622 C197.885,18.698 197.885,18.773 197.885,18.849 C197.923,18.849 197.961,18.849 197.999,18.849 C197.999,18.962 197.999,19.076 197.999,19.189 C198.037,19.189 198.074,19.189 198.112,19.189 C198.307,19.807 197.965,21.173 197.772,21.460 C197.734,21.460 197.696,21.460 197.658,21.460 C197.468,21.692 197.442,21.823 197.091,21.914 C196.602,22.456 195.027,22.254 194.026,22.254 C191.794,22.254 189.561,22.254 187.329,22.254 C186.951,22.368 186.572,22.481 186.194,22.595 C186.043,22.784 185.891,22.973 185.740,23.162 C185.702,23.162 185.664,23.162 185.627,23.162 C185.280,23.682 185.285,24.559 185.286,25.432 ZM207.420,17.487 C209.122,17.525 210.825,17.563 212.527,17.600 C213.360,17.600 214.192,17.600 215.024,17.600 C215.024,17.638 215.024,17.676 215.024,17.714 C215.214,17.752 215.403,17.790 215.592,17.827 C215.746,18.104 216.026,18.202 216.159,18.395 C216.291,18.584 216.158,18.655 216.386,18.849 C216.424,19.379 216.462,19.908 216.500,20.438 C216.462,20.438 216.424,20.438 216.386,20.438 C216.386,20.589 216.386,20.741 216.386,20.892 C216.163,21.517 215.656,22.039 215.024,22.254 C214.835,22.254 214.646,22.254 214.457,22.254 C214.457,22.292 214.457,22.330 214.457,22.368 C213.889,22.368 213.322,22.368 212.754,22.368 C211.279,22.368 209.803,22.368 208.328,22.368 C207.576,22.368 206.654,22.321 206.171,22.595 C206.171,22.632 206.171,22.670 206.171,22.708 C205.944,22.897 205.717,23.086 205.490,23.276 C205.490,23.351 205.490,23.427 205.490,23.503 C204.998,24.010 205.150,26.306 205.150,27.362 C205.150,30.502 205.150,33.643 205.150,36.783 C205.069,37.035 204.877,37.260 204.809,37.577 C204.695,37.653 204.582,37.729 204.468,37.804 C204.468,37.842 204.468,37.880 204.468,37.918 C204.241,37.993 204.014,38.069 203.787,38.145 C203.787,38.183 203.787,38.220 203.787,38.258 C203.560,38.258 203.333,38.258 203.106,38.258 C202.458,38.438 201.923,38.160 201.290,38.031 C201.139,37.842 200.988,37.653 200.836,37.464 C200.798,37.464 200.761,37.464 200.723,37.464 C200.685,37.312 200.647,37.161 200.609,37.010 C200.571,37.010 200.534,37.010 200.496,37.010 C200.496,36.821 200.496,36.631 200.496,36.442 C200.162,35.329 200.382,32.837 200.382,31.448 C200.382,29.821 200.382,28.194 200.382,26.567 C200.382,25.723 200.310,24.615 200.496,23.957 C200.496,23.616 200.496,23.276 200.496,22.935 C200.534,22.935 200.571,22.935 200.609,22.935 C200.609,22.746 200.609,22.557 200.609,22.368 C200.647,22.368 200.685,22.368 200.723,22.368 C200.723,22.216 200.723,22.065 200.723,21.914 C200.761,21.914 200.798,21.914 200.836,21.914 C200.874,21.687 200.912,21.460 200.950,21.233 C200.988,21.233 201.025,21.233 201.063,21.233 C201.139,21.006 201.215,20.778 201.290,20.551 C201.328,20.551 201.366,20.551 201.404,20.551 C201.404,20.476 201.404,20.400 201.404,20.324 C201.479,20.287 201.555,20.249 201.631,20.211 C201.631,20.135 201.631,20.060 201.631,19.984 C201.744,19.908 201.858,19.833 201.971,19.757 C201.971,19.681 201.971,19.606 201.971,19.530 C202.047,19.492 202.123,19.454 202.198,19.416 C202.312,19.265 202.425,19.114 202.539,18.962 C202.615,18.962 202.690,18.962 202.766,18.962 C202.804,18.887 202.842,18.811 202.879,18.735 C202.955,18.735 203.031,18.735 203.106,18.735 C203.144,18.660 203.182,18.584 203.220,18.508 C203.371,18.471 203.523,18.433 203.674,18.395 C203.674,18.357 203.674,18.319 203.674,18.281 C203.750,18.281 203.825,18.281 203.901,18.281 C203.901,18.244 203.901,18.206 203.901,18.168 C203.977,18.168 204.052,18.168 204.128,18.168 C204.128,18.130 204.128,18.092 204.128,18.054 C204.355,18.017 204.582,17.979 204.809,17.941 C204.809,17.903 204.809,17.865 204.809,17.827 C204.960,17.827 205.112,17.827 205.263,17.827 C205.263,17.790 205.263,17.752 205.263,17.714 C205.761,17.561 207.100,17.761 207.420,17.487 ZM55.663,22.368 C55.663,26.075 55.663,29.784 55.663,33.491 C57.782,33.491 59.901,33.491 62.020,33.491 C62.303,33.405 62.606,33.221 62.928,33.151 C63.124,32.813 63.473,32.523 63.609,32.129 C63.823,31.507 63.722,30.216 63.722,29.405 C63.722,27.740 63.722,26.075 63.722,24.411 C63.684,24.411 63.647,24.411 63.609,24.411 C63.609,24.184 63.609,23.957 63.609,23.730 C63.571,23.730 63.533,23.730 63.495,23.730 C63.420,23.503 63.344,23.276 63.268,23.049 C62.901,22.848 62.557,22.504 62.133,22.368 C59.977,22.368 57.820,22.368 55.663,22.368 ZM93.915,22.368 C93.915,22.405 93.915,22.443 93.915,22.481 C93.801,22.481 93.688,22.481 93.574,22.481 C93.574,22.519 93.574,22.557 93.574,22.595 C93.498,22.595 93.423,22.595 93.347,22.595 C93.347,22.632 93.347,22.670 93.347,22.708 C92.993,22.912 92.781,22.944 92.666,23.389 C92.183,23.863 92.326,25.585 92.326,26.567 C92.326,28.418 92.014,31.714 92.780,32.810 C93.044,32.999 93.309,33.188 93.574,33.378 C93.725,33.378 93.877,33.378 94.028,33.378 C94.028,33.415 94.028,33.453 94.028,33.491 C94.558,33.491 95.088,33.491 95.617,33.491 C97.154,33.491 99.615,33.758 99.930,32.583 C100.475,32.116 100.384,30.983 100.384,29.972 C100.384,28.005 100.384,26.037 100.384,24.070 C100.347,24.070 100.309,24.070 100.271,24.070 C100.271,23.919 100.271,23.767 100.271,23.616 C100.233,23.616 100.195,23.616 100.157,23.616 C100.157,23.540 100.157,23.465 100.157,23.389 C99.968,23.162 99.779,22.935 99.590,22.708 C98.656,22.082 95.475,22.350 93.915,22.368 ZM135.230,22.368 C135.230,22.405 135.230,22.443 135.230,22.481 C135.117,22.481 135.003,22.481 134.890,22.481 C134.890,22.519 134.890,22.557 134.890,22.595 C134.814,22.595 134.739,22.595 134.663,22.595 C134.663,22.632 134.663,22.670 134.663,22.708 C134.308,22.912 134.097,22.944 133.982,23.389 C133.499,23.863 133.641,25.585 133.641,26.567 C133.641,28.418 133.329,31.714 134.095,32.810 C134.360,32.999 134.625,33.188 134.890,33.378 C135.041,33.378 135.193,33.378 135.344,33.378 C135.344,33.415 135.344,33.453 135.344,33.491 C135.874,33.491 136.403,33.491 136.933,33.491 C138.470,33.491 140.931,33.758 141.246,32.583 C141.790,32.116 141.700,30.983 141.700,29.972 C141.700,28.005 141.700,26.037 141.700,24.070 C141.662,24.070 141.625,24.070 141.587,24.070 C141.587,23.919 141.587,23.767 141.587,23.616 C141.549,23.616 141.511,23.616 141.473,23.616 C141.473,23.540 141.473,23.465 141.473,23.389 C141.284,23.162 141.095,22.935 140.906,22.708 C139.972,22.082 136.791,22.350 135.230,22.368 ZM43.405,24.751 C43.683,25.071 43.491,25.633 43.632,26.113 C43.965,27.252 43.986,28.731 44.313,29.859 C44.313,30.124 44.313,30.389 44.313,30.653 C44.567,31.539 44.627,32.728 44.880,33.605 C44.880,33.869 44.880,34.134 44.880,34.399 C44.918,34.399 44.956,34.399 44.994,34.399 C45.032,34.891 45.070,35.383 45.107,35.875 C45.598,37.592 45.529,39.962 44.994,41.550 C44.994,41.701 44.994,41.853 44.994,42.004 C44.616,42.836 44.237,43.669 43.859,44.501 C43.821,44.501 43.783,44.501 43.745,44.501 C43.708,44.615 43.670,44.728 43.632,44.842 C43.556,44.879 43.481,44.917 43.405,44.955 C43.405,45.031 43.405,45.106 43.405,45.182 C43.329,45.220 43.254,45.258 43.178,45.296 C43.140,45.409 43.102,45.523 43.064,45.636 C42.875,45.787 42.686,45.939 42.497,46.090 C42.497,46.166 42.497,46.241 42.497,46.317 C42.308,46.468 42.118,46.620 41.929,46.771 C41.891,46.847 41.854,46.922 41.816,46.998 C41.740,46.998 41.664,46.998 41.589,46.998 C41.437,47.187 41.286,47.377 41.135,47.566 C41.059,47.566 40.983,47.566 40.908,47.566 C40.832,47.679 40.756,47.793 40.681,47.906 C40.605,47.906 40.529,47.906 40.454,47.906 C40.416,47.982 40.378,48.058 40.340,48.133 C40.189,48.171 40.038,48.209 39.886,48.247 C39.848,48.322 39.811,48.398 39.773,48.474 C39.621,48.512 39.470,48.549 39.319,48.587 C39.319,48.625 39.319,48.663 39.319,48.701 C39.092,48.776 38.865,48.852 38.638,48.928 C38.638,48.966 38.638,49.003 38.638,49.041 C38.524,49.041 38.411,49.041 38.297,49.041 C38.297,49.079 38.297,49.117 38.297,49.155 C38.222,49.155 38.146,49.155 38.070,49.155 C38.070,49.193 38.070,49.230 38.070,49.268 C37.578,49.382 37.086,49.495 36.595,49.609 C36.595,49.571 36.595,49.533 36.595,49.495 C36.670,49.495 36.746,49.495 36.822,49.495 C37.036,49.166 37.407,49.152 37.730,48.928 C37.805,48.814 37.881,48.701 37.957,48.587 C38.032,48.587 38.108,48.587 38.184,48.587 C38.411,48.322 38.638,48.058 38.865,47.793 C38.940,47.793 39.016,47.793 39.092,47.793 C39.205,47.604 39.319,47.414 39.432,47.225 C39.659,47.036 39.886,46.847 40.113,46.658 C40.113,46.582 40.113,46.506 40.113,46.431 C40.227,46.355 40.340,46.279 40.454,46.204 C40.454,46.128 40.454,46.052 40.454,45.977 C40.529,45.939 40.605,45.901 40.681,45.863 C40.719,45.712 40.756,45.560 40.794,45.409 C40.870,45.371 40.946,45.333 41.021,45.296 C41.059,45.144 41.097,44.993 41.135,44.842 C41.173,44.842 41.210,44.842 41.248,44.842 C41.248,44.766 41.248,44.690 41.248,44.615 C41.286,44.615 41.324,44.615 41.362,44.615 C41.437,44.388 41.513,44.161 41.589,43.934 C41.627,43.934 41.664,43.934 41.702,43.934 C41.702,43.820 41.702,43.707 41.702,43.593 C41.740,43.593 41.778,43.593 41.816,43.593 C41.816,43.480 41.816,43.366 41.816,43.252 C41.854,43.252 41.891,43.252 41.929,43.252 C41.929,43.139 41.929,43.025 41.929,42.912 C41.967,42.912 42.005,42.912 42.043,42.912 C42.043,42.798 42.043,42.685 42.043,42.571 C42.081,42.571 42.119,42.571 42.156,42.571 C42.156,42.382 42.156,42.193 42.156,42.004 C42.194,42.004 42.232,42.004 42.270,42.004 C42.270,41.815 42.270,41.626 42.270,41.436 C42.308,41.436 42.346,41.436 42.383,41.436 C42.383,41.134 42.383,40.831 42.383,40.528 C42.421,40.528 42.459,40.528 42.497,40.528 C42.497,39.923 42.497,39.318 42.497,38.712 C42.535,38.712 42.573,38.712 42.610,38.712 C42.610,38.107 42.610,37.502 42.610,36.896 C42.648,36.896 42.686,36.896 42.724,36.896 C42.762,36.064 42.800,35.231 42.837,34.399 C42.837,33.983 42.837,33.567 42.837,33.151 C42.875,33.151 42.913,33.151 42.951,33.151 C42.989,32.356 43.027,31.561 43.064,30.767 C43.064,30.351 43.064,29.935 43.064,29.518 C43.102,29.518 43.140,29.518 43.178,29.518 C43.178,28.913 43.178,28.308 43.178,27.702 C43.216,27.702 43.254,27.702 43.291,27.702 C43.329,26.719 43.367,25.735 43.405,24.751 ZM33.303,34.059 C33.227,34.059 33.152,34.059 33.076,34.059 C32.718,34.680 32.066,35.011 31.487,35.421 C31.411,35.534 31.336,35.648 31.260,35.761 C31.184,35.761 31.109,35.761 31.033,35.761 C30.957,35.875 30.881,35.988 30.806,36.102 C30.655,36.140 30.503,36.177 30.352,36.215 C30.314,36.291 30.276,36.367 30.238,36.442 C30.125,36.480 30.011,36.518 29.898,36.556 C29.898,36.594 29.898,36.631 29.898,36.669 C29.671,36.745 29.444,36.821 29.217,36.896 C29.217,36.934 29.217,36.972 29.217,37.010 C29.141,37.010 29.065,37.010 28.990,37.010 C28.990,37.048 28.990,37.085 28.990,37.123 C28.914,37.123 28.838,37.123 28.763,37.123 C28.763,37.161 28.763,37.199 28.763,37.237 C28.536,37.312 28.309,37.388 28.082,37.464 C28.082,37.502 28.082,37.539 28.082,37.577 C27.968,37.577 27.855,37.577 27.741,37.577 C27.741,37.615 27.741,37.653 27.741,37.691 C27.628,37.691 27.514,37.691 27.401,37.691 C27.401,37.729 27.401,37.766 27.401,37.804 C27.287,37.804 27.174,37.804 27.060,37.804 C27.060,37.842 27.060,37.880 27.060,37.918 C26.947,37.918 26.833,37.918 26.720,37.918 C26.720,37.956 26.720,37.993 26.720,38.031 C26.568,38.031 26.417,38.031 26.266,38.031 C26.266,38.069 26.266,38.107 26.266,38.145 C26.039,38.145 25.812,38.145 25.585,38.145 C25.585,38.183 25.585,38.220 25.585,38.258 C24.866,38.296 24.147,38.334 23.428,38.372 C23.428,38.334 23.428,38.296 23.428,38.258 C22.861,38.220 22.293,38.183 21.725,38.145 C21.725,38.107 21.725,38.069 21.725,38.031 C21.574,38.031 21.423,38.031 21.271,38.031 C21.271,37.993 21.271,37.956 21.271,37.918 C21.120,37.918 20.969,37.918 20.817,37.918 C20.817,37.880 20.817,37.842 20.817,37.804 C20.704,37.804 20.590,37.804 20.477,37.804 C20.477,37.766 20.477,37.729 20.477,37.691 C20.363,37.691 20.250,37.691 20.136,37.691 C20.136,37.653 20.136,37.615 20.136,37.577 C20.023,37.577 19.909,37.577 19.796,37.577 C19.796,37.539 19.796,37.502 19.796,37.464 C19.720,37.464 19.645,37.464 19.569,37.464 C19.569,37.426 19.569,37.388 19.569,37.350 C19.455,37.350 19.342,37.350 19.228,37.350 C19.228,37.312 19.228,37.275 19.228,37.237 C19.153,37.237 19.077,37.237 19.001,37.237 C19.001,37.199 19.001,37.161 19.001,37.123 C18.926,37.123 18.850,37.123 18.774,37.123 C18.774,37.085 18.774,37.048 18.774,37.010 C18.699,37.010 18.623,37.010 18.547,37.010 C18.547,36.972 18.547,36.934 18.547,36.896 C18.472,36.896 18.396,36.896 18.320,36.896 C18.320,36.858 18.320,36.821 18.320,36.783 C18.245,36.783 18.169,36.783 18.093,36.783 C18.093,36.745 18.093,36.707 18.093,36.669 C18.018,36.669 17.942,36.669 17.866,36.669 C17.866,36.631 17.866,36.594 17.866,36.556 C17.715,36.518 17.564,36.480 17.412,36.442 C17.374,36.367 17.337,36.291 17.299,36.215 C17.050,36.064 16.719,36.023 16.391,35.988 C16.391,36.026 16.391,36.064 16.391,36.102 C16.277,36.102 16.164,36.102 16.050,36.102 C15.866,36.218 15.421,36.882 15.596,37.350 C15.634,37.350 15.672,37.350 15.710,37.350 C15.710,37.426 15.710,37.502 15.710,37.577 C16.239,37.918 16.769,38.258 17.299,38.599 C17.374,38.599 17.450,38.599 17.526,38.599 C17.526,38.637 17.526,38.674 17.526,38.712 C17.753,38.788 17.980,38.864 18.207,38.939 C18.207,38.977 18.207,39.015 18.207,39.053 C18.320,39.053 18.434,39.053 18.547,39.053 C18.547,39.091 18.547,39.128 18.547,39.166 C18.623,39.166 18.699,39.166 18.774,39.166 C18.774,39.204 18.774,39.242 18.774,39.280 C18.888,39.280 19.001,39.280 19.115,39.280 C19.115,39.318 19.115,39.355 19.115,39.393 C19.190,39.393 19.266,39.393 19.342,39.393 C19.342,39.431 19.342,39.469 19.342,39.507 C19.569,39.545 19.796,39.583 20.023,39.620 C20.023,39.658 20.023,39.696 20.023,39.734 C20.477,39.810 20.931,39.885 21.385,39.961 C21.385,39.999 21.385,40.037 21.385,40.074 C21.915,40.112 22.444,40.150 22.974,40.188 C22.974,40.226 22.974,40.264 22.974,40.301 C23.655,40.301 24.336,40.301 25.017,40.301 C25.017,40.264 25.017,40.226 25.017,40.188 C25.320,40.188 25.622,40.188 25.925,40.188 C25.925,40.150 25.925,40.112 25.925,40.074 C26.114,40.074 26.303,40.074 26.493,40.074 C26.493,40.037 26.493,39.999 26.493,39.961 C26.682,39.961 26.871,39.961 27.060,39.961 C27.060,39.923 27.060,39.885 27.060,39.847 C27.174,39.847 27.287,39.847 27.401,39.847 C27.401,39.810 27.401,39.772 27.401,39.734 C27.552,39.734 27.703,39.734 27.855,39.734 C28.725,39.356 29.595,38.977 30.465,38.599 C30.503,38.523 30.541,38.447 30.579,38.372 C30.730,38.334 30.882,38.296 31.033,38.258 C31.033,38.220 31.033,38.183 31.033,38.145 C31.146,38.107 31.260,38.069 31.373,38.031 C31.411,37.956 31.449,37.880 31.487,37.804 C31.638,37.766 31.790,37.729 31.941,37.691 C32.017,37.577 32.092,37.464 32.168,37.350 C32.244,37.350 32.319,37.350 32.395,37.350 C32.471,37.237 32.546,37.123 32.622,37.010 C32.698,37.010 32.773,37.010 32.849,37.010 C32.962,36.858 33.076,36.707 33.189,36.556 C33.265,36.556 33.341,36.556 33.416,36.556 C33.606,36.329 33.795,36.102 33.984,35.875 C34.060,35.875 34.135,35.875 34.211,35.875 C34.211,35.837 34.211,35.799 34.211,35.761 C34.510,35.510 34.629,35.266 35.119,35.194 C35.408,35.524 35.791,35.466 36.254,35.648 C36.713,35.828 36.909,35.980 37.616,35.988 C37.810,35.655 37.944,35.663 37.957,35.080 C37.827,34.951 37.911,35.080 37.843,34.853 C37.011,34.550 36.178,34.248 35.346,33.945 C35.346,33.907 35.346,33.869 35.346,33.832 C35.233,33.794 35.119,33.756 35.006,33.718 C34.968,33.642 34.930,33.567 34.892,33.491 C34.816,33.491 34.741,33.491 34.665,33.491 C34.552,33.340 34.438,33.188 34.324,33.037 C34.287,33.037 34.249,33.037 34.211,33.037 C34.211,32.961 34.211,32.886 34.211,32.810 C34.135,32.772 34.060,32.734 33.984,32.697 C33.710,32.258 33.717,31.397 33.530,30.880 C32.411,30.338 32.337,31.093 32.395,32.356 C32.433,32.356 32.471,32.356 32.508,32.356 C32.546,32.583 32.584,32.810 32.622,33.037 C32.660,33.037 32.698,33.037 32.735,33.037 C32.735,33.113 32.735,33.188 32.735,33.264 C32.811,33.302 32.887,33.340 32.962,33.378 C32.962,33.453 32.962,33.529 32.962,33.605 C33.000,33.605 33.038,33.605 33.076,33.605 C33.209,33.774 33.235,33.805 33.303,34.059 ZM7.310,48.587 C7.709,48.669 7.926,48.886 8.218,49.041 C8.294,49.041 8.370,49.041 8.445,49.041 C8.445,49.079 8.445,49.117 8.445,49.155 C8.521,49.155 8.597,49.155 8.672,49.155 C8.672,49.193 8.672,49.230 8.672,49.268 C8.899,49.306 9.126,49.344 9.353,49.382 C9.353,49.420 9.353,49.457 9.353,49.495 C9.429,49.495 9.505,49.495 9.580,49.495 C9.580,49.533 9.580,49.571 9.580,49.609 C9.732,49.609 9.883,49.609 10.034,49.609 C10.034,49.647 10.034,49.684 10.034,49.722 C10.186,49.722 10.337,49.722 10.488,49.722 C10.488,49.760 10.488,49.798 10.488,49.836 C10.678,49.836 10.867,49.836 11.056,49.836 C11.056,49.874 11.056,49.911 11.056,49.949 C11.359,49.949 11.661,49.949 11.964,49.949 C11.964,49.987 11.964,50.025 11.964,50.063 C13.439,50.101 14.915,50.138 16.391,50.176 C16.976,50.342 18.007,50.104 18.661,50.290 C19.279,50.465 20.358,50.209 21.044,50.403 C21.629,50.569 22.660,50.331 23.315,50.517 C23.315,50.555 23.315,50.592 23.315,50.630 C23.920,50.630 24.525,50.630 25.131,50.630 C25.282,50.630 25.433,50.630 25.585,50.630 C25.585,50.668 25.585,50.706 25.585,50.744 C25.887,50.744 26.190,50.744 26.493,50.744 C27.106,50.745 27.738,50.772 28.195,50.857 C28.195,50.895 28.195,50.933 28.195,50.971 C27.968,50.971 27.741,50.971 27.514,50.971 C27.218,51.230 26.492,51.066 26.039,51.198 C25.121,51.464 23.896,51.497 22.974,51.765 C22.747,51.765 22.520,51.765 22.293,51.765 C21.626,51.959 20.691,52.028 20.023,52.219 C19.758,52.219 19.493,52.219 19.228,52.219 C17.387,52.747 14.884,52.822 13.099,52.219 C12.948,52.219 12.796,52.219 12.645,52.219 C11.851,51.879 11.056,51.538 10.261,51.198 C10.224,51.122 10.186,51.046 10.148,50.971 C10.072,50.971 9.997,50.971 9.921,50.971 C9.921,50.933 9.921,50.895 9.921,50.857 C9.807,50.819 9.694,50.782 9.580,50.744 C9.543,50.668 9.505,50.592 9.467,50.517 C9.391,50.517 9.316,50.517 9.240,50.517 C9.164,50.403 9.089,50.290 9.013,50.176 C8.937,50.176 8.862,50.176 8.786,50.176 C8.294,49.647 7.802,49.117 7.310,48.587 Z"/>
</svg>