<svg xmlns="http://www.w3.org/2000/svg" xmlns:xlink="http://www.w3.org/1999/xlink" preserveAspectRatio="xMidYMid" width="231" height="24" viewBox="0 0 231 24">
  <path d="M230.992,22.795 C230.992,22.795 226.379,22.795 226.379,22.795 C226.379,22.795 219.529,10.680 219.529,10.680 C219.529,10.680 222.614,10.680 222.614,10.680 C224.869,10.680 226.720,9.330 226.720,7.143 C226.720,4.956 225.107,3.560 222.851,3.560 C222.851,3.560 217.392,3.560 217.392,3.560 C217.392,3.560 217.392,10.680 217.392,10.680 C217.392,10.680 217.392,22.784 217.392,22.784 C217.392,22.784 213.358,22.784 213.358,22.784 C213.358,22.784 213.358,0.000 213.358,0.000 C213.358,0.000 223.371,0.000 223.371,0.000 C227.882,0.000 230.821,2.939 230.821,7.143 C230.821,11.210 228.156,13.397 225.422,13.841 C225.422,13.841 230.992,22.795 230.992,22.795 ZM190.220,0.000 C190.220,0.000 205.839,0.000 205.839,0.000 C205.839,0.000 205.839,3.520 205.839,3.520 C205.839,3.520 194.219,3.520 194.219,3.520 C194.219,3.520 194.219,9.433 194.219,9.433 C194.219,9.433 205.599,9.433 205.599,9.433 C205.599,9.433 205.599,12.953 205.599,12.953 C205.599,12.953 194.219,12.953 194.219,12.953 C194.219,12.953 194.219,19.275 194.219,19.275 C194.219,19.275 205.839,19.275 205.839,19.275 C205.839,19.275 205.839,22.795 205.839,22.795 C205.839,22.795 190.220,22.795 190.220,22.795 C190.220,22.795 190.220,0.000 190.220,0.000 ZM176.516,22.795 C176.516,22.795 172.517,22.795 172.517,22.795 C172.517,22.795 172.517,3.520 172.517,3.520 C172.517,3.520 165.613,3.520 165.613,3.520 C165.613,3.520 165.613,0.000 165.613,0.000 C165.613,0.000 183.419,0.000 183.419,0.000 C183.419,0.000 183.419,3.520 183.419,3.520 C183.419,3.520 176.516,3.520 176.516,3.520 C176.516,3.520 176.516,22.795 176.516,22.795 ZM143.946,0.000 C143.946,0.000 159.564,0.000 159.564,0.000 C159.564,0.000 159.564,3.520 159.564,3.520 C159.564,3.520 147.944,3.520 147.944,3.520 C147.944,3.520 147.944,9.433 147.944,9.433 C147.944,9.433 159.325,9.433 159.325,9.433 C159.325,9.433 159.325,12.953 159.325,12.953 C159.325,12.953 147.944,12.953 147.944,12.953 C147.944,12.953 147.944,19.275 147.944,19.275 C147.944,19.275 159.564,19.275 159.564,19.275 C159.564,19.275 159.564,22.795 159.564,22.795 C159.564,22.795 143.946,22.795 143.946,22.795 C143.946,22.795 143.946,0.000 143.946,0.000 ZM131.676,5.878 C131.676,5.878 124.670,22.795 124.670,22.795 C124.670,22.795 122.962,22.795 122.962,22.795 C122.962,22.795 115.990,5.878 115.990,5.878 C115.990,5.878 115.990,22.795 115.990,22.795 C115.990,22.795 111.991,22.795 111.991,22.795 C111.991,22.795 111.991,0.000 111.991,0.000 C111.991,0.000 117.630,0.000 117.630,0.000 C117.630,0.000 123.816,15.003 123.816,15.003 C123.816,15.003 130.036,0.000 130.036,0.000 C130.036,0.000 135.675,0.000 135.675,0.000 C135.675,0.000 135.675,22.795 135.675,22.795 C135.675,22.795 131.676,22.795 131.676,22.795 C131.676,22.795 131.676,5.878 131.676,5.878 ZM99.722,0.000 C99.722,0.000 103.721,0.000 103.721,0.000 C103.721,0.000 103.721,22.795 103.721,22.795 C103.721,22.795 99.722,22.795 99.722,22.795 C99.722,22.795 99.722,0.000 99.722,0.000 ZM75.697,6.528 C75.697,6.528 75.697,22.795 75.697,22.795 C75.697,22.795 71.698,22.795 71.698,22.795 C71.698,22.795 71.698,0.000 71.698,0.000 C71.698,0.000 75.799,0.000 75.799,0.000 C75.799,0.000 87.453,15.824 87.453,15.824 C87.453,15.824 87.453,0.000 87.453,0.000 C87.453,0.000 91.452,0.000 91.452,0.000 C91.452,0.000 91.452,22.795 91.452,22.795 C91.452,22.795 87.590,22.795 87.590,22.795 C87.590,22.795 75.697,6.528 75.697,6.528 ZM58.377,14.952 C58.377,14.952 54.337,4.033 54.337,4.033 C54.337,4.033 50.308,14.952 50.308,14.952 C50.308,14.952 47.433,22.795 47.433,22.795 C47.433,22.795 42.888,22.795 42.888,22.795 C42.888,22.795 51.842,0.000 51.842,0.000 C51.842,0.000 56.831,0.000 56.831,0.000 C56.831,0.000 65.785,22.795 65.785,22.795 C65.785,22.795 61.240,22.795 61.240,22.795 C61.240,22.795 58.377,14.952 58.377,14.952 ZM24.193,0.000 C24.193,0.000 28.192,0.000 28.192,0.000 C28.192,0.000 28.192,19.275 28.192,19.275 C28.192,19.275 38.239,19.275 38.239,19.275 C38.239,19.275 38.239,22.795 38.239,22.795 C38.239,22.795 24.193,22.795 24.193,22.795 C24.193,22.795 24.193,0.000 24.193,0.000 ZM10.010,14.286 C10.010,14.286 3.995,14.286 3.995,14.286 C3.995,14.286 3.995,22.795 3.995,22.795 C3.995,22.795 -0.003,22.795 -0.003,22.795 C-0.003,22.795 -0.003,0.000 -0.003,0.000 C-0.003,0.000 10.010,0.000 10.010,0.000 C14.795,0.000 17.461,3.281 17.461,7.143 C17.461,11.005 14.761,14.286 10.010,14.286 ZM9.464,3.520 C9.464,3.520 3.995,3.520 3.995,3.520 C3.995,3.520 3.995,10.766 3.995,10.766 C3.995,10.766 9.464,10.766 9.464,10.766 C11.719,10.766 13.360,9.330 13.360,7.143 C13.360,4.956 11.719,3.520 9.464,3.520 Z" id="path-1" fill="#ccd8db" fill-rule="evenodd"/>
</svg>
