<svg 
 xmlns="http://www.w3.org/2000/svg"
 xmlns:xlink="http://www.w3.org/1999/xlink"
 width="103px" height="103px">
<path fill-rule="evenodd"  fill="rgb(204, 216, 219)"
 d="M77.159,61.176 C77.159,61.176 77.159,42.146 77.159,42.146 C77.159,42.146 83.750,42.146 83.750,42.146 C87.287,42.146 89.313,44.628 89.313,47.538 C89.313,50.448 87.230,52.930 83.750,52.930 C83.750,52.930 78.072,52.930 78.072,52.930 C78.072,52.930 78.072,61.176 78.072,61.176 C78.072,61.176 77.159,61.176 77.159,61.176 ZM83.721,52.075 C86.517,52.075 88.315,50.163 88.315,47.538 C88.315,44.913 86.517,43.002 83.721,43.002 C83.721,43.002 78.072,43.002 78.072,43.002 C78.072,43.002 78.072,52.075 78.072,52.075 C78.072,52.075 83.721,52.075 83.721,52.075 ZM19.412,60.662 C21.780,60.662 23.977,59.578 25.318,57.895 C25.318,57.895 26.060,58.494 26.060,58.494 C24.263,60.519 22.094,61.518 19.412,61.518 C14.134,61.518 9.912,57.524 9.912,51.675 C9.912,45.826 14.134,41.832 19.412,41.832 C22.094,41.832 24.348,42.888 26.031,44.828 C26.031,44.828 25.318,45.456 25.318,45.456 C23.977,43.772 21.780,42.688 19.412,42.688 C14.648,42.688 10.910,46.311 10.910,51.675 C10.910,56.982 14.648,60.662 19.412,60.662 ZM102.662,102.101 C102.662,102.101 102.101,102.662 102.101,102.662 C102.101,102.662 51.655,52.216 51.655,52.216 C51.655,52.216 1.209,102.662 1.209,102.662 C1.209,102.662 0.648,102.101 0.648,102.101 C0.648,102.101 51.095,51.655 51.095,51.655 C51.095,51.655 0.648,1.209 0.648,1.209 C0.648,1.209 1.209,0.648 1.209,0.648 C1.209,0.648 51.655,51.095 51.655,51.095 C51.655,51.095 102.101,0.648 102.101,0.648 C102.101,0.648 102.662,1.209 102.662,1.209 C102.662,1.209 52.216,51.655 52.216,51.655 C52.216,51.655 102.662,102.101 102.662,102.101 ZM56.961,21.194 C56.961,21.194 46.348,21.194 46.348,21.194 C46.348,21.194 44.236,26.301 44.236,26.301 C44.236,26.301 43.181,26.301 43.181,26.301 C43.181,26.301 51.112,7.272 51.112,7.272 C51.112,7.272 52.196,7.272 52.196,7.272 C52.196,7.272 60.128,26.301 60.128,26.301 C60.128,26.301 59.072,26.301 59.072,26.301 C59.072,26.301 56.961,21.194 56.961,21.194 ZM51.654,8.327 C51.654,8.327 46.690,20.338 46.690,20.338 C46.690,20.338 56.618,20.338 56.618,20.338 C56.618,20.338 51.654,8.327 51.654,8.327 ZM51.654,94.053 C51.654,94.053 58.672,77.020 58.672,77.020 C58.672,77.020 60.127,77.020 60.127,77.020 C60.127,77.020 60.127,96.050 60.127,96.050 C60.127,96.050 59.214,96.050 59.214,96.050 C59.214,96.050 59.214,78.105 59.214,78.105 C59.214,78.105 51.797,96.050 51.797,96.050 C51.797,96.050 51.511,96.050 51.511,96.050 C51.511,96.050 44.094,78.105 44.094,78.105 C44.094,78.105 44.094,96.050 44.094,96.050 C44.094,96.050 43.181,96.050 43.181,96.050 C43.181,96.050 43.181,77.020 43.181,77.020 C43.181,77.020 44.636,77.020 44.636,77.020 C44.636,77.020 51.654,94.053 51.654,94.053 Z"/>
</svg>