<svg xmlns="http://www.w3.org/2000/svg" xmlns:xlink="http://www.w3.org/1999/xlink" preserveAspectRatio="xMidYMid" width="238" height="96" viewBox="0 0 238 96">
  <path d="M237.999,39.964 C237.999,39.964 235.482,39.964 235.482,39.964 C235.482,39.964 220.383,20.910 220.383,20.910 C220.383,20.910 205.284,39.964 205.284,39.964 C205.284,39.964 202.767,39.964 202.767,39.964 C202.767,39.964 219.305,19.472 219.305,19.472 C219.305,19.472 203.666,-0.001 203.666,-0.001 C203.666,-0.001 206.243,-0.001 206.243,-0.001 C206.243,-0.001 220.383,17.914 220.383,17.914 C220.383,17.914 234.524,-0.001 234.524,-0.001 C234.524,-0.001 237.100,-0.001 237.100,-0.001 C237.100,-0.001 221.462,19.412 221.462,19.412 C221.462,19.412 237.999,39.964 237.999,39.964 ZM210.296,64.781 C210.296,64.781 214.597,70.135 214.597,70.135 C214.597,70.135 210.501,73.880 210.501,73.880 C210.501,73.880 206.960,69.492 206.960,69.492 C206.960,69.492 204.620,71.598 204.620,71.598 C204.620,71.598 204.620,88.450 204.620,88.450 C204.620,88.450 207.516,90.645 207.516,90.645 C207.516,90.645 210.296,88.450 210.296,88.450 C210.296,88.450 211.115,89.387 211.115,89.387 C211.115,89.387 203.888,95.267 203.888,95.267 C202.620,94.000 201.402,93.005 200.231,92.283 C199.061,91.600 197.832,91.132 196.545,90.879 C196.545,90.879 196.545,90.264 196.545,90.264 C197.383,89.699 197.930,89.094 198.183,88.450 C198.456,87.787 198.593,86.783 198.593,85.437 C198.593,85.437 198.593,73.383 198.593,73.383 C198.593,72.154 198.505,71.296 198.330,70.808 C198.154,70.360 197.754,69.882 197.130,69.375 C197.130,69.375 195.404,70.808 195.404,70.808 C195.404,70.808 194.702,69.989 194.702,69.989 C194.702,69.989 200.612,64.928 200.612,64.928 C202.601,65.962 204.015,67.542 204.854,69.667 C204.854,69.667 210.296,64.781 210.296,64.781 ZM167.116,-0.001 C167.116,-0.001 191.562,-0.001 191.562,-0.001 C191.562,-0.001 191.562,1.797 191.562,1.797 C191.562,1.797 169.033,1.797 169.033,1.797 C169.033,1.797 169.033,18.513 169.033,18.513 C169.033,18.513 191.143,18.513 191.143,18.513 C191.143,18.513 191.143,20.311 191.143,20.311 C191.143,20.311 169.033,20.311 169.033,20.311 C169.033,20.311 169.033,38.166 169.033,38.166 C169.033,38.166 191.562,38.166 191.562,38.166 C191.562,38.166 191.562,39.964 191.562,39.964 C191.562,39.964 167.116,39.964 167.116,39.964 C167.116,39.964 167.116,-0.001 167.116,-0.001 ZM177.019,69.287 C177.019,69.287 175.000,71.042 175.000,71.042 C175.000,71.042 175.000,88.246 175.000,88.246 C175.000,88.246 177.692,90.381 177.692,90.381 C177.692,90.381 181.846,86.519 181.846,86.519 C181.846,86.519 181.846,71.042 181.846,71.042 C181.846,71.042 179.798,69.287 179.798,69.287 C179.798,69.287 184.626,64.928 184.626,64.928 C184.626,64.928 189.658,69.287 189.658,69.287 C189.658,69.287 187.698,71.042 187.698,71.042 C187.698,71.042 187.698,86.900 187.698,86.900 C187.698,88.148 187.795,88.938 187.990,89.270 C188.322,89.894 188.751,90.206 189.277,90.206 C189.629,90.206 190.077,90.011 190.623,89.621 C190.623,89.621 191.501,90.645 191.501,90.645 C191.501,90.645 185.533,95.267 185.533,95.267 C185.533,95.267 184.801,94.711 184.801,94.711 C183.611,93.775 182.821,92.907 182.431,92.107 C182.022,91.308 181.817,90.176 181.817,88.714 C181.817,88.421 181.827,88.207 181.846,88.070 C181.846,88.070 174.005,95.267 174.005,95.267 C171.645,93.024 169.460,91.493 167.452,90.674 C167.452,90.674 167.452,89.884 167.452,89.884 C168.251,89.591 168.739,89.231 168.915,88.801 C169.090,88.353 169.178,87.329 169.178,85.729 C169.178,85.729 169.178,71.247 169.178,71.247 C169.178,71.247 167.920,70.311 167.920,70.311 C167.920,70.311 166.720,71.247 166.720,71.247 C166.720,71.247 165.930,70.311 165.930,70.311 C165.930,70.311 172.045,64.928 172.045,64.928 C172.045,64.928 177.019,69.287 177.019,69.287 ZM159.979,90.498 C159.979,90.498 161.852,88.977 161.852,88.977 C161.852,88.977 162.730,89.972 162.730,89.972 C162.730,89.972 156.381,95.267 156.381,95.267 C154.391,93.161 152.060,91.747 149.388,91.025 C149.388,91.025 149.388,90.235 149.388,90.235 C149.934,89.845 150.344,89.445 150.617,89.035 C150.890,88.646 151.066,88.119 151.144,87.456 C151.222,86.851 151.261,85.866 151.261,84.501 C151.261,84.501 151.261,69.375 151.261,69.375 C151.261,69.375 148.686,69.375 148.686,69.375 C148.686,69.375 148.686,68.351 148.686,68.351 C148.686,68.351 157.171,57.175 157.171,57.175 C157.171,57.175 157.171,66.127 157.171,66.127 C157.171,66.127 162.174,66.127 162.174,66.127 C162.174,66.127 162.174,69.375 162.174,69.375 C162.174,69.375 157.171,69.375 157.171,69.375 C157.171,69.375 157.171,88.421 157.171,88.421 C158.224,89.123 159.160,89.816 159.979,90.498 ZM140.033,39.964 C140.033,39.964 138.116,39.964 138.116,39.964 C138.116,39.964 138.116,1.797 138.116,1.797 C138.116,1.797 124.634,1.797 124.634,1.797 C124.634,1.797 124.634,-0.001 124.634,-0.001 C124.634,-0.001 153.574,-0.001 153.574,-0.001 C153.574,-0.001 153.574,1.797 153.574,1.797 C153.574,1.797 140.033,1.797 140.033,1.797 C140.033,1.797 140.033,39.964 140.033,39.964 ZM125.327,65.396 C126.537,66.430 127.307,67.239 127.639,67.824 C127.990,68.429 128.165,69.248 128.165,70.282 C128.165,70.282 128.165,70.984 128.165,70.984 C128.165,70.984 135.597,64.928 135.597,64.928 C135.597,64.928 139.927,69.199 139.927,69.199 C139.927,69.199 142.735,66.537 142.735,66.537 C142.735,66.537 143.584,67.502 143.584,67.502 C142.706,68.302 142.052,69.024 141.624,69.667 C141.214,70.311 140.931,71.062 140.775,71.920 C140.619,72.817 140.541,73.929 140.541,75.255 C140.541,75.255 140.541,85.320 140.541,85.320 C140.541,86.120 140.551,86.724 140.570,87.134 C140.590,87.543 140.624,87.924 140.673,88.275 C140.721,88.626 140.775,88.909 140.834,89.123 C141.048,89.748 141.419,90.059 141.945,90.059 C142.316,90.059 142.774,89.825 143.321,89.357 C143.359,89.338 143.398,89.309 143.438,89.270 C143.476,89.231 143.515,89.201 143.555,89.182 C143.593,89.163 143.632,89.133 143.672,89.094 C143.710,89.055 143.749,89.026 143.789,89.006 C143.789,89.006 144.520,90.147 144.520,90.147 C144.520,90.147 138.230,95.267 138.230,95.267 C138.230,95.267 137.615,94.682 137.615,94.682 C136.601,93.727 135.908,92.976 135.538,92.429 C135.167,91.903 134.933,91.211 134.836,90.352 C134.719,89.494 134.660,88.177 134.660,86.402 C134.660,86.402 134.660,71.423 134.660,71.423 C134.660,71.423 132.291,69.024 132.291,69.024 C132.291,69.024 128.165,72.447 128.165,72.447 C128.165,72.447 128.165,88.860 128.165,88.860 C128.165,88.860 130.243,91.054 130.243,91.054 C130.243,91.054 125.035,95.267 125.035,95.267 C125.035,95.267 119.973,90.879 119.973,90.879 C119.973,90.879 122.314,88.743 122.314,88.743 C122.314,88.743 122.314,73.441 122.314,73.441 C122.314,71.745 122.216,70.711 122.021,70.340 C121.748,69.892 121.426,69.667 121.056,69.667 C120.705,69.667 120.188,69.872 119.505,70.282 C119.505,70.282 118.832,69.404 118.832,69.404 C118.832,69.404 124.772,64.928 124.772,64.928 C124.772,64.928 125.327,65.396 125.327,65.396 ZM104.426,88.801 C106.240,89.679 107.966,90.557 109.605,91.435 C109.605,91.435 113.905,88.509 113.905,88.509 C113.905,88.509 114.491,89.328 114.491,89.328 C114.491,89.328 105.772,95.267 105.772,95.267 C102.378,93.142 99.316,91.864 96.585,91.435 C96.585,91.435 96.585,90.820 96.585,90.820 C97.405,90.333 97.941,89.757 98.194,89.094 C98.448,88.450 98.575,87.241 98.575,85.466 C98.575,85.466 98.575,74.817 98.575,74.817 C98.575,73.334 98.477,72.408 98.282,72.037 C98.067,71.647 97.580,71.452 96.819,71.452 C96.819,71.452 96.585,71.452 96.585,71.452 C96.585,71.452 96.322,70.808 96.322,70.808 C96.322,70.808 97.024,70.516 97.024,70.516 C99.559,69.404 101.530,68.487 102.934,67.766 C104.455,66.986 106.133,66.039 107.966,64.928 C107.966,64.928 115.281,74.290 115.281,74.290 C115.281,74.290 104.426,83.301 104.426,83.301 C104.426,83.301 104.426,88.801 104.426,88.801 ZM110.512,76.309 C110.512,76.309 104.426,68.526 104.426,68.526 C104.426,68.526 104.426,81.341 104.426,81.341 C104.426,81.341 110.512,76.309 110.512,76.309 ZM111.212,39.964 C111.212,39.964 99.049,22.708 99.049,22.708 C99.049,22.708 89.462,22.708 89.462,22.708 C89.462,22.708 89.462,39.964 89.462,39.964 C89.462,39.964 87.545,39.964 87.545,39.964 C87.545,39.964 87.545,-0.001 87.545,-0.001 C87.545,-0.001 101.326,-0.001 101.326,-0.001 C107.797,-0.001 113.130,4.013 113.130,11.323 C113.130,18.633 107.797,22.708 101.326,22.708 C101.326,22.708 113.669,39.964 113.669,39.964 C113.669,39.964 111.212,39.964 111.212,39.964 ZM111.032,11.323 C111.032,5.811 107.198,1.797 101.326,1.797 C101.326,1.797 89.462,1.797 89.462,1.797 C89.462,1.797 89.462,20.910 89.462,20.910 C89.462,20.910 101.326,20.910 101.326,20.910 C107.198,20.910 111.032,16.836 111.032,11.323 ZM89.142,70.808 C89.279,71.608 89.347,73.237 89.347,75.694 C89.347,75.694 89.347,90.089 89.347,90.089 C87.397,90.615 85.749,91.259 84.403,92.020 C83.057,92.780 81.653,93.863 80.190,95.267 C78.785,94.078 77.566,93.180 76.533,92.576 C75.401,91.913 74.251,91.415 73.080,91.083 C71.988,90.772 70.710,90.586 69.248,90.528 C69.248,90.528 69.248,89.884 69.248,89.884 C70.047,89.533 70.544,89.065 70.740,88.480 C70.954,87.894 71.062,86.744 71.062,85.027 C71.062,85.027 71.062,74.641 71.062,74.641 C71.062,73.159 71.003,72.154 70.886,71.628 C70.769,71.101 70.408,70.399 69.803,69.521 C69.199,68.566 68.779,67.766 68.545,67.122 C68.331,66.537 68.224,65.874 68.224,65.132 C68.224,63.611 68.740,62.217 69.774,60.949 C70.827,59.661 72.358,58.472 74.368,57.379 C74.368,57.379 74.953,58.199 74.953,58.199 C73.880,59.018 73.139,59.720 72.729,60.305 C72.280,60.930 72.056,61.544 72.056,62.148 C72.056,62.636 72.173,63.075 72.407,63.465 C72.602,63.855 73.041,64.421 73.724,65.162 C74.913,66.410 75.752,67.473 76.240,68.351 C76.688,69.248 76.942,70.272 77.001,71.423 C77.001,71.423 84.695,64.928 84.695,64.928 C86.392,66.235 87.514,67.337 88.060,68.234 C88.645,69.151 89.006,70.009 89.142,70.808 ZM83.466,75.636 C83.466,73.724 83.339,72.447 83.086,71.803 C82.813,71.101 82.150,70.282 81.097,69.345 C81.097,69.345 77.001,72.798 77.001,72.798 C77.001,72.798 77.001,87.573 77.001,87.573 C79.653,88.665 81.808,89.621 83.466,90.440 C83.466,90.440 83.466,75.636 83.466,75.636 ZM48.119,-0.001 C48.119,-0.001 72.565,-0.001 72.565,-0.001 C72.565,-0.001 72.565,1.797 72.565,1.797 C72.565,1.797 50.036,1.797 50.036,1.797 C50.036,1.797 50.036,18.513 50.036,18.513 C50.036,18.513 72.145,18.513 72.145,18.513 C72.145,18.513 72.145,20.311 72.145,20.311 C72.145,20.311 50.036,20.311 50.036,20.311 C50.036,20.311 50.036,38.166 50.036,38.166 C50.036,38.166 72.565,38.166 72.565,38.166 C72.565,38.166 72.565,39.964 72.565,39.964 C72.565,39.964 48.119,39.964 48.119,39.964 C48.119,39.964 48.119,-0.001 48.119,-0.001 ZM62.360,65.484 C62.360,65.484 62.624,66.537 62.624,66.537 C62.097,67.063 61.756,67.668 61.600,68.351 C61.424,69.053 61.336,70.184 61.336,71.745 C61.336,71.745 61.336,90.440 61.336,90.440 C61.336,90.440 60.576,90.732 60.576,90.732 C58.762,91.474 57.309,92.147 56.216,92.751 C55.163,93.356 53.934,94.195 52.530,95.267 C50.384,93.746 48.512,92.673 46.913,92.049 C45.274,91.425 43.392,91.035 41.266,90.879 C41.266,90.879 41.266,90.206 41.266,90.206 C42.046,89.484 42.543,88.733 42.758,87.953 C42.934,87.192 43.022,85.495 43.022,82.862 C43.022,82.862 43.022,69.492 43.022,69.492 C45.479,68.926 47.381,68.117 48.727,67.063 C48.727,67.063 41.266,61.417 41.266,61.417 C41.266,61.417 41.266,54.541 41.266,54.541 C41.266,54.541 59.376,67.912 59.376,67.912 C60.059,66.800 61.054,65.991 62.360,65.484 ZM55.456,72.096 C55.456,72.096 50.628,68.468 50.628,68.468 C50.102,68.917 49.604,69.307 49.136,69.638 C49.136,69.638 49.136,87.280 49.136,87.280 C49.136,87.280 55.456,90.264 55.456,90.264 C55.456,90.264 55.456,72.096 55.456,72.096 ZM27.504,93.541 C26.996,92.976 26.636,92.224 26.421,91.288 C26.206,90.333 26.070,89.075 26.012,87.514 C26.012,87.514 15.918,95.472 15.918,95.472 C14.377,94.380 13.090,93.512 12.056,92.868 C10.983,92.205 9.842,91.581 8.633,90.996 C7.989,90.645 7.209,90.313 6.292,90.001 C5.415,89.708 4.742,89.562 4.274,89.562 C3.922,89.562 3.620,89.689 3.367,89.942 C3.074,90.196 2.928,90.498 2.928,90.849 C2.928,91.123 3.162,91.630 3.630,92.371 C4.000,92.917 4.186,93.414 4.186,93.863 C4.186,94.272 4.049,94.614 3.776,94.887 C3.464,95.160 3.093,95.296 2.664,95.296 C2.118,95.296 1.640,95.043 1.231,94.536 C0.821,94.029 0.616,93.424 0.616,92.722 C0.616,91.922 0.831,91.083 1.260,90.206 C1.709,89.270 2.518,87.963 3.688,86.285 C3.688,86.285 8.018,80.054 8.018,80.054 C6.380,79.020 5.015,77.850 3.922,76.543 C2.811,75.295 1.943,73.920 1.319,72.417 C0.714,70.974 0.412,69.453 0.412,67.853 C0.412,65.922 0.821,64.099 1.640,62.382 C2.420,60.666 3.532,59.135 4.976,57.789 C6.419,56.463 8.057,55.419 9.891,54.658 C11.763,53.917 13.675,53.547 15.625,53.547 C18.570,53.547 21.447,54.249 24.256,55.653 C25.348,56.219 26.733,57.106 28.411,58.316 C29.756,56.970 30.878,55.956 31.775,55.273 C32.477,54.766 33.452,54.269 34.701,53.781 C34.701,53.781 35.315,54.775 35.315,54.775 C33.501,55.770 32.282,56.785 31.658,57.818 C31.034,58.852 30.722,60.383 30.722,62.412 C30.722,62.821 30.741,63.553 30.780,64.606 C30.780,64.606 31.746,84.881 31.746,84.881 C31.824,87.144 31.980,88.499 32.214,88.948 C32.545,89.631 32.975,89.972 33.501,89.972 C33.930,89.972 34.672,89.533 35.725,88.655 C35.725,88.655 36.661,89.708 36.661,89.708 C36.661,89.708 29.873,95.472 29.873,95.472 C28.820,94.770 28.030,94.126 27.504,93.541 ZM14.396,58.491 C11.100,58.491 8.321,59.457 6.058,61.388 C3.815,63.338 2.694,65.747 2.694,68.614 C2.694,69.882 2.937,71.101 3.425,72.271 C3.893,73.520 4.576,74.661 5.473,75.694 C6.409,76.767 7.550,77.782 8.896,78.737 C8.896,78.737 17.030,67.034 17.030,67.034 C15.840,66.254 14.718,65.864 13.665,65.864 C12.826,65.864 12.095,66.030 11.471,66.361 C10.905,66.654 10.242,67.288 9.481,68.263 C9.481,68.263 8.457,67.824 8.457,67.824 C9.218,65.854 10.164,64.421 11.295,63.523 C12.387,62.626 13.782,62.178 15.479,62.178 C16.786,62.178 18.288,62.402 19.985,62.850 C19.985,62.850 21.681,60.393 21.681,60.393 C19.438,59.125 17.010,58.491 14.396,58.491 ZM24.812,62.704 C24.110,62.060 23.437,61.524 22.793,61.095 C22.793,61.095 11.646,76.982 11.646,76.982 C11.646,76.982 25.426,76.982 25.426,76.982 C25.426,76.982 24.812,62.704 24.812,62.704 ZM25.719,81.195 C25.719,81.195 8.721,81.195 8.721,81.195 C8.721,81.195 6.380,84.559 6.380,84.559 C6.380,84.559 20.102,90.381 20.102,90.381 C20.102,90.381 25.924,85.876 25.924,85.876 C25.924,85.876 25.719,81.195 25.719,81.195 ZM16.662,39.964 C16.662,39.964 0.005,-0.001 0.005,-0.001 C0.005,-0.001 2.222,-0.001 2.222,-0.001 C2.222,-0.001 17.801,37.747 17.801,37.747 C17.801,37.747 33.379,-0.001 33.379,-0.001 C33.379,-0.001 35.596,-0.001 35.596,-0.001 C35.596,-0.001 18.939,39.964 18.939,39.964 C18.939,39.964 16.662,39.964 16.662,39.964 ZM225.404,67.766 C226.925,66.986 228.603,66.039 230.436,64.928 C230.436,64.928 237.751,74.290 237.751,74.290 C237.751,74.290 226.896,83.301 226.896,83.301 C226.896,83.301 226.896,88.801 226.896,88.801 C228.710,89.679 230.436,90.557 232.075,91.435 C232.075,91.435 236.375,88.509 236.375,88.509 C236.375,88.509 236.961,89.328 236.961,89.328 C236.961,89.328 228.242,95.267 228.242,95.267 C224.848,93.142 221.786,91.864 219.055,91.435 C219.055,91.435 219.055,90.820 219.055,90.820 C219.874,90.333 220.411,89.757 220.664,89.094 C220.918,88.450 221.045,87.241 221.045,85.466 C221.045,85.466 221.045,74.817 221.045,74.817 C221.045,73.334 220.947,72.408 220.752,72.037 C220.537,71.647 220.050,71.452 219.289,71.452 C219.289,71.452 219.055,71.452 219.055,71.452 C219.055,71.452 218.792,70.808 218.792,70.808 C218.792,70.808 219.494,70.516 219.494,70.516 C222.029,69.404 224.000,68.487 225.404,67.766 ZM226.896,81.341 C226.896,81.341 232.982,76.309 232.982,76.309 C232.982,76.309 226.896,68.526 226.896,68.526 C226.896,68.526 226.896,81.341 226.896,81.341 Z" id="path-1" fill="#ccd8db" fill-rule="evenodd"/>
</svg>
